<svg xmlns="http://www.w3.org/2000/svg" enable-background="new 0 0 110 110" viewBox="0 0 110 110" width="110" height="110"><path fill="#0e2365" d="M53.4932251,55.6938324c0.8173828-0.2519531,1.6367188-0.4267578,2.4365234-0.5185547       c0.1279297-0.1474609,0.2666016-0.2744141,0.421875-0.3857422c2.1699219-1.5556641,4.4121094-3.1630859,6.7265625-4.5810547       c-0.0039063-0.0078125-0.0078125-0.0146484-0.0126953-0.0224609       c-0.6781387-0.8822708-8.1230049-0.8169746-11.5761719,0.5595703       c-0.3132782,0.1195717-0.4891205-0.3443375-0.1855469-0.4648438c2.2230339-0.8814621,6.9921684-1.4967422,10.7861328-0.9863281       c0.665699,0.1002426,1.3962669,0.2826118,1.5410156,0.9658203c0.07901,0.3641281,0.1844215-0.2040482-6.9882813,4.9355469       c-0.1474609,0.1054688-0.2714844,0.2246094-0.390625,0.3730469c-0.1766205,0.2176971-0.6331367-0.0076294-2.6123047,0.6035156       C53.316761,56.2627754,53.1809502,55.7902718,53.4932251,55.6938324z"/><path fill="#0e2365" d="M53.7832642,56.3119965c-0.1337891,0-0.2441406-0.1054688-0.25-0.2402344       c-0.0478516-1.2412109-0.5146484-2.4013672-1.3134766-3.2675781c-0.2239761-0.2426376,0.1415138-0.5821419,0.3671875-0.3398438       c0.8798828,0.9541016,1.3935547,2.2285156,1.4462891,3.5878906c0.0048828,0.1376953-0.1025391,0.2539063-0.2402344,0.2597656       C53.7901001,56.3119965,53.7861938,56.3119965,53.7832642,56.3119965z"/><path fill="#0e2365" d="M72.8233032,52.9526215c-2.7544403-0.6235085-3.9983063-3.8428688-2.5507813-6.0332031       c-0.8193436-2.0079727,0.3880157-5.8303337,3.6621094-7.5292969c0.2902222-0.1555595,0.5251083,0.2901459,0.2304688,0.4433594       c-2.9058762,1.5087891-4.0522919,4.8467941-3.5214844,6.6347656c1.1157532-1.065033,2.7206573-0.5638008,2.8369141,0.6923828       c0.1286621,1.4313393-1.8656235,1.8933907-2.9335938,0.2792969c-1.0225754,1.9733925,0.12043,4.5130386,2.3857422,5.0244141       C73.2532501,52.5363541,73.1497116,53.0213394,72.8233032,52.9526215z M70.8516235,46.9770355       c0.7245941,1.3456726,2.217804,1.1995926,2.1308594,0.2294922       C72.9003448,46.3137436,71.6489334,46.0309753,70.8516235,46.9770355z"/><path fill="#0e2365" d="M58.0368271,23.312624c-1.0599976,2.6101074-1.4199829,5.5-1.0899658,8.2000732            c-1.2900391-0.4200439-2.1600342-2.3900146-1.9700317-4.5699463            c0.210022-2.3300781,1.5300293-4.0200195,2.960022-3.7800293c0.039978,0.0100098,0.0799561,0.0200195,0.1099854,0.0300293            L58.0368271,23.312624z"/><path fill="#558dfd" d="M78.8068466,38.6326904c0.4500122,0,0.8200073,0.3599854,0.8200073,0.8100586            c0,0.4499512-0.3600464,0.8099365-0.8200073,0.8099365c-0.4400024,0-0.8099976-0.3599854-0.8099976-0.8099365            C77.9968491,38.9926758,78.3668442,38.6326904,78.8068466,38.6326904z"/><path fill="#558dfd" d="M88.2868271,22.1126728c-1.5800171-3.2099609-4.4400024-6-8.5100098-7.0700693            c-0.2099609-0.0599365-0.4299927-0.0998535-0.6400146-0.1499023c-3.8199463-0.7299805-7.5899658-0.7800293-11.2599487,0            c-4.0619736,0.8498726-7.5376282,3.465312-9.5200195,7.6699228            c5.6599731-2.6499023,11.7000122-2.7799072,18.0700073-0.5998535            c1.7099609,0.5898438,3.2799683,1.4899902,4.4599609,2.6799316            c0.8900146,0.9099121,1.4200439,1.7900391,1.5600586,2.6400146h3.4699707c0.1400146,0,0.25,0.1099854,0.25,0.25            c0-0.1800537,0.0100098-0.3599854,0.0300293-0.5400391            C85.8570099,24.9556427,86.4555511,22.7685127,88.2868271,22.1126728z M86.20681,22.9826679            c-0.4199829-1.1500244-1.4400024-2.6400146-2.9199829-3.9400635            c-0.039978,0.0500488-0.0999756,0.1000977-0.1799927,0.1000977h-0.0100098            c-2.1099854-0.0400391-4.2799683,1.0600586-5.4699707,2.8300781            c-0.1900787,0.2651825-0.6086273,0.0027084-0.4200439-0.2800293c1.2400513-1.8300781,3.4200439-3,5.6199951-3.0500488            c-1.3199463-1.0600586-2.9599609-1.9499512-4.8399658-2.3400879            c-0.3124466-0.0718784-0.2283936-0.5601625,0.0999756-0.4899912c4.5300293,0.9500742,7.75,4.6700449,8.5900269,7.000001            C86.7830048,23.1581802,86.2902069,23.2603149,86.20681,22.9826679z M86.1768417,27.9127216            c-0.0100098-0.1300049-0.0200195-0.2600098-0.0100098-0.3800049c0,0.1400146-0.1099854,0.25-0.25,0.25h-3.4199829            c0,2.029707-2.3226852,3.6226215-4.2300415,4.2899151c1.2400513,2.1201172,3.5100098,3.6101074,5.9800415,3.8701172            c1.1799927-1.2900391,2.0499878-2.8400879,2.5199585-4.5300274c0.0969086-0.314661,0.5657883-0.19837,0.4900513,0.1298828            c-1.0469589,3.7335606-3.9693298,6.7774754-7.1400146,7.840086c0,0.0200195,0.0100098,0.0400391,0.0100098,0.0600586            c0,0.7199707-0.5900269,1.3099365-1.3200073,1.3099365c-0.7200317,0-1.3099976-0.5899658-1.3099976-1.3099365            c0-1.3848114,1.9031143-1.8288193,2.5-0.5500488c1.6599731-0.5600586,2.7399902-1.3800049,3.8499756-2.5100098            c-2.5200195-0.3800049-4.7999878-1.9399414-6.0700073-4.1500244            c-4.3698807,1.2624245-15.5929222,0.9811058-20.6099854,0.6400146            c1.5351868,7.0670929,6.2876091,8.9726753,13.5300293,9.4899902            c4.8799438,0.3400879,10.6399536-0.0700684,14.5199585-2.7900391c2.8800049-2.0200195,4.5100098-5,4.75-8.0799541            C87.8568344,31.9427509,86.3668442,29.852663,86.1768417,27.9127216z M69.8368149,36.9727783            c-1.478241,1.2634506-3.9749222,1.0473022-5.1300049-0.4500732            c-0.2125015-0.2597847,0.1966629-0.5659828,0.3900146-0.2999268            c0.9875031,1.2723846,3.1770554,1.4232635,4.4199829,0.369873            C69.7547455,36.3786697,70.0950012,36.7661057,69.8368149,36.9727783z"/><path fill="#0e2365" d="M88.3682251,22.8344593c-2.8674927-6.6799488-9.1877213-7.6484509-9.2890625-7.6982422            c-0.3262863-0.0780249-0.2003479-0.5674782,0.1152344-0.4863281            c0.3821793,0.084197,0.5167465,0.1142912,0.6503906,0.1523438            c6.7186432,1.7552605,8.9077301,7.7290649,8.9804688,7.8291016            C88.958046,22.93186,88.5054398,23.1376019,88.3682251,22.8344593z"/><path fill="#0e2365" d="M85.0733032,39.3676605c2.6181641-1.8359375,4.3037109-4.5996094,4.6240234-7.5810528            c0.0368881-0.327364,0.533287-0.2761421,0.4980469,0.0527344            c-0.3369141,3.1259747-2.0986328,6.0185528-4.8349609,7.9384747            C85.0876694,39.9657059,84.8028564,39.5588417,85.0733032,39.3676605z"/><path fill="#0e2365" d="M70.6963501,42.6127777c-0.0058594,0-0.0117188,0-0.0175781-0.0009766            c-7.3237724-0.5232582-12.1940536-2.4836159-13.7558594-9.6865234            c-1.5500336-6.9276905,1.8142052-15.5329342,9.6308594-17.9414043            c0.3274765-0.0879803,0.4553299,0.3824301,0.1464844,0.4785156            c-7.5400887,2.3223858-10.7771683,10.6906528-9.2890625,17.3554668            c1.5037689,6.9308319,6.143425,8.7842522,13.3027344,9.2958984            c0.1376953,0.0097656,0.2412109,0.1289063,0.2314453,0.2666016            C70.9365845,42.5121918,70.8262329,42.6127777,70.6963501,42.6127777z"/><path fill="#0e2365" d="M58.2520142,22.3412952c5.6152344-2.6347656,11.7539063-2.8417969,18.2519531-0.6123047             c0.3165054,0.1086521,0.1437912,0.5841084-0.1621094,0.4726563             c-6.3671875-2.1865234-12.3828125-1.9863281-17.8769531,0.5927734             C58.1617546,22.9330025,57.9542694,22.4808636,58.2520142,22.3412952z"/><path fill="#0e2365" d="M76.3399048,32.2944183c1.7607422-0.2763672,3.2929688-0.9345684,4.4296875-1.9023418             c2.1112289-1.7938843,1.8281097-3.6337681-0.0605469-5.5693359             c-0.0966797-0.0986328-0.0947266-0.2578125,0.0039063-0.3535156             c0.1005859-0.0966797,0.2587891-0.0927734,0.3535156,0.0039063             c2.1231308,2.176651,2.3357544,4.3387318,0.0273438,6.2998047             c-1.2070313,1.0273438-2.8242188,1.7246075-4.6757813,2.0156231             C76.0872116,32.8358192,76.0162125,32.3456497,76.3399048,32.2944183z"/><path fill="#0e2365" d="M57.1514282,33.1225433c-0.1376953-0.0087891-0.2421875-0.1279297-0.2324219-0.265625             s0.1347656-0.2548828,0.265625-0.2324219c10.2239685,0.6856232,11.1527481-0.1134377,11.1660156,0.5146484             c0.0029297,0.1376953-0.1074219,0.2519531-0.2451172,0.2548828             C64.6877365,33.461132,60.8734512,33.3738785,57.1514282,33.1225433z"/><path fill="#0e2365" d="M89.9909286,22.2486591l-0.0137939-0.4837646             c-0.1009827-0.0002155-2.3277435-0.005249-2.5010376-0.005249c-1.6019897,0-2.9000244,2.2543945-2.9000244,5.0316162             c0,2.7718506,1.2980347,5.0264893,2.9000244,5.0264893h2.4567261l0.088623-0.6125488l-0.1865234-0.3210449             C86.5805054,29.0057621,86.9223251,23.8450565,89.9909286,22.2486591z"/><path fill="#0e2365" d="M66.6279831,15.217782c0.659462,1.5622015,13.1448822,1.593215,13.1448822-0.1794329             C75.6383972,13.9924707,70.0297775,14.1541166,66.6279831,15.217782z"/><path fill="#0e2365" d="M73.194397,16.6401234c-6.3768158,0-7.2733688-1.3945599-6.6640625-1.6523438             c0.1308594-0.0556641,0.2753906,0.0068359,0.328125,0.1328125             c0.1757813,0.4169922,2.5332031,1.0195313,6.3359375,1.0195313c4.1796875,0,6.3349609-0.7207031,6.3349609-1.0283203             c0-0.3304901,0.5-0.3307724,0.5,0C80.0293579,16.3207874,75.5586548,16.6401234,73.194397,16.6401234z"/><path fill="#fbd072" d="M89.9368515,21.7626972c-1.6100464,0-2.9100342,2.25-2.9100342,5.0299072            c0,2.7700195,1.2999878,5.0200195,2.9100342,5.0200195c1.5999756,0,2.8999634-2.25,2.8999634-5.0200195            C92.8368149,24.0126972,91.5368271,21.7626972,89.9368515,21.7626972z M91.5868149,29.272707            c-1.1324768,1.4966354-3.6029129,0.657217-3.0299683-2.3499756            c0.1895905-1.1380157,0.8876877-1.4941139,1.3999634-1.3601074            c0.5900269,0.1501465,0.7300415,0.8500977,0.7800293,1.0800781            c0.1279068,0.5372448,0.1058273,1.1117058-0.3400269,1.4299316            c-0.2803116,0.2040882-0.5591812-0.2205238-0.289978-0.3999023            c0.4242859-0.3398457,0.0901871-1.5352459-0.2700195-1.630127c-0.1699829-0.039917-0.3899536,0.0700684-0.5199585,0.25            c-0.2912369,0.3641014-0.5313873,1.6917667-0.1600342,2.4700928            c0.210022,0.4400635,0.7299805,0.8399658,1.2800293,0.7199707            c0.6518631-0.1447277,0.9830093-0.7795925,1.1799927-1.4200439c0.7279587-2.4319916-0.6042404-4.7458267-1.75-4.6999512            c-0.4500122,0.0400391-0.8099976,0.4399414-0.9800415,0.8200684            c-0.4070816,0.9857807,0.0048218,1.682642-0.4799805,1.7199707c-0.1400146-0.0100098-0.25-0.1199951-0.25-0.2600098            c0.0200195-0.5200195,0.0400391-1.1099854,0.2700195-1.6500244            c0.5413666-1.2831783,1.8985901-1.591114,2.9199829-0.3199463c0.9500122,1.1699219,1.2299805,2.9099121,0.75,4.5300293            C91.95681,28.6527119,91.7968369,28.9926777,91.5868149,29.272707z"/><path fill="#0e2365" d="M72.916832,24.0726337c-1.6199951,0-2.9400024,1.3601074-2.9400024,3.0300293            c0,1.6700439,1.3200073,3.0200195,2.9400024,3.0200195s2.9299927-1.3499756,2.9299927-3.0200195            C75.8468246,25.4327412,74.5368271,24.0726337,72.916832,24.0726337z M71.9768295,28.4826679            c-0.7799683,0-1.4099731-0.6500244-1.4099731-1.4499512c0-0.8099365,0.6300049-1.460083,1.4099731-1.460083            c0.7800293,0,1.4199829,0.6501465,1.4199829,1.460083C73.3968124,27.8326435,72.7568588,28.4826679,71.9768295,28.4826679            z"/><g><path fill="#0e2365" d="M61.8968124,24.0726337c-1.6199951,0-2.9299927,1.3601074-2.9299927,3.0300293            c0,1.6700439,1.3099976,3.0200195,2.9299927,3.0200195s2.9299927-1.3499756,2.9299927-3.0200195            C64.8268051,25.4327412,63.5168076,24.0726337,61.8968124,24.0726337z M61.2168198,28.4826679            c-0.7699585,0-1.4099731-0.6500244-1.4099731-1.4499512c0-0.8099365,0.6400146-1.460083,1.4099731-1.460083            c0.7900391,0,1.4199829,0.6501465,1.4199829,1.460083C62.6368027,27.8326435,62.0068588,28.4826679,61.2168198,28.4826679            z"/></g><g><path fill="#0e2365" d="M66.5830688,14.9106312c1.8457031-0.7255859,8.7841797-1.6582031,13.2714844-0.1083984             C80.1687775,14.9109116,80,15.38659,79.6904907,15.274889             c-4.4169922-1.5253906-11.3330078-0.5214844-12.9257813,0.1005859             C66.4534149,15.4999933,66.2790833,15.02808,66.5830688,14.9106312z"/></g><g><path fill="#0e2365" d="M73.1621704,15.9965687c-1.0048828-0.7861328-1.4257813-2.2919922-1.0244141-3.6621094         c0.7023239-2.3842163,3.8289032-4.3950644,6.0976563-3.8203125c1.4321213-1.8765736,3.9107132-2.055367,6.2050781-1.4599614         c1.259552,0.3270426,2.5591125,0.9114923,3.3183594,1.9931645c1.5814362-2.3721495,6.035553-1.8913774,7.5498047,2.6806641         c0.1029739,0.3136091-0.3695984,0.4712782-0.4746094,0.15625c-1.4323196-4.3238611-5.567955-4.5885692-6.7880859-2.3486328         c0.4306641,0.8857422,0.4599609,1.8974609,0.0322266,2.6787109         c-0.0934296,0.1694689-0.3262177,0.1668444-0.4257813,0.0214844         c-0.5392914-0.7829294-0.552475-1.8093233-0.1669922-2.6904297c-0.642128-1.0988951-1.9348755-1.6863852-3.1708984-2.0068364         c-2.0246201-0.526691-4.2233276-0.4485488-5.5761719,1.1474614c2.192215,0.9631786,2.1118622,3.5495701,0.6972656,3.9619141         c-1.4715195,0.4247055-2.6551437-1.6482372-1.4960938-3.6855469         c-0.1001358,0.0136795-1.2951889-0.3685474-3.1191406,0.8095703         c-2.7970581,1.8078518-2.8833313,4.6320791-1.3496094,5.8300781         C73.7298203,15.8050795,73.4264755,16.1990147,73.1621704,15.9965687z M78.4307251,9.1049671         c-1.0618744,1.6964417-0.1098557,3.3612289,0.8642578,3.0625         C80.2463455,11.8909321,80.3297882,9.8664722,78.4307251,9.1049671z M87.7822876,10.2338734         c-0.0919342,0.3940058-0.0898819,0.8390427,0.0458984,1.2441406         C87.9199829,11.0844593,87.9024048,10.6547718,87.7822876,10.2338734z"/></g><g><path fill="#01b990" d="M95.7668076,10.4127207c-1.6599731,0-3,1.3399658-3,3.0100098          c0,1.6499023,1.3400269,2.9899912,3,2.9899912c1.6600342,0,3-1.3400888,3-2.9899912          C98.7668076,11.7526865,97.4268417,10.4127207,95.7668076,10.4127207z M96.5468369,15.2626963          c-1.517067,0.5687075-3.0643387-0.6614294-2.8900146-2.2299805c0.0249405-0.3488302,0.5372849-0.256917,0.4899902,0.0499268          c-0.1297073,1.2107897,1.0628662,2.1429081,2.2200317,1.7199707          c0.5199585-0.1999512,0.9299927-0.6799316,1.0299683-1.2299805c0.0721664-0.3361979,0.5482635-0.2233076,0.5,0.0900879          C97.7568588,14.3826914,97.2268295,15.0126963,96.5468369,15.2626963z"/></g><g><path fill="#c3d7f9" d="M90.166832,62.5926514l-2.5900269,13.0400391c-1.9799805,2.7299805-4.5,4.9699707-7.3499756,6.5600586           c-0.2166595,0.030983,0.56427,0.0200195-14.2199707,0.0200195c-3.7300415,0-7.0100098-2.7301025-7.7600098-6.5200195           l-1.2700195-6.4001465c4.6046677,2.6826935,10.4039078-0.7101669,10.3200073-6.4299316           c-0.0975571-6.7898254-8.182621-10.3044434-12.4500122-5.2800293           c-0.0200195-4.5699463,3.3699951-8.4399414,7.8800049-8.4399414h20.3699951c3.039978,0,5.5700073,1.75,6.8900146,4.2900391           c-2.0900269-0.1900635-4.6400146,2.1799316-3.2800293,4.2700195           C87.7210388,59.2768555,88.9871368,59.7043686,90.166832,62.5926514z"/><path fill="#0e2365" d="M66.006897,82.4623871c-0.3304901,0-0.3307724-0.5,0-0.5           c10.6215744,0,13.9835358,0.0099716,14.1855469-0.0175781c0.3615112-0.0118103,0.3717041,0.4527588,0.0683594,0.4960938           C80.0111313,82.4749527,80.871254,82.4613571,66.006897,82.4623871z"/><path fill="#0e2365" d="M89.7647095,53.5483246c-1.3515625-2.6015625-3.8447266-4.1552734-6.6679688-4.1552734H62.7266235           c-0.3304901,0-0.3307724-0.5,0-0.5h20.3701172c3.0136719,0,5.6728516,1.6542969,7.1113281,4.4248047           c0.0634766,0.1220703,0.015625,0.2734375-0.1064453,0.3369141           C89.9809265,53.7182961,89.827774,53.6716537,89.7647095,53.5483246z"/><path fill="#0e2365" d="M87.3320923,75.5834808l2.5898438-13.0400391           c0.0626678-0.3226357,0.5559692-0.2286835,0.4902344,0.0976563l-2.5898438,13.0400391           C87.758873,76.0037079,87.2664719,75.9092178,87.3320923,75.5834808z"/><path fill="#0e2365" d="M83.2236938,58.7045746H66.1182251c-0.3304901,0-0.3307724-0.5,0-0.5h17.1054688            C83.554184,58.2045746,83.5544662,58.7045746,83.2236938,58.7045746z"/><path fill="#0e2365" d="M78.1065063,68.132309H65.4863892c-0.3304901,0-0.3307724-0.5,0-0.5h12.6201172            c0.1376953,0,0.25,0.1123047,0.25,0.25S78.2442017,68.132309,78.1065063,68.132309z"/><path fill="#0e2365" d="M56.850647,69.5082855c-0.0615234-0.0361328-0.1054688-0.0966797-0.1191406-0.1669922            c-1.47509-7.6635284-2.4210777-11.5113029-2.0751953-11.9208984            c4.4232826-5.204628,12.7891693-1.5749741,12.890625,5.4384766l0,0            C67.6299973,68.6464767,61.7522697,72.3635178,56.850647,69.5082855z M57.2002563,69.132309            c4.5457344,2.5510406,9.9236755-0.89991,9.8466797-6.265625l0,0            c-0.0935669-6.4950752-7.7815094-9.9707642-11.9511719-5.1904297            C55.0930443,59.0313148,55.370266,59.5978661,57.2002563,69.132309z"/><path fill="#fca8d7" d="M64.3149948,62.8589363c0.0503464,2.3856087-1.7390671,4.304348-3.9971924,4.304348            c-2.2512169,0-4.1605911-1.9187393-4.2592888-4.304348c-0.100174-2.4212914,1.687294-4.4047623,3.9871559-4.4047623            C62.3525925,58.454174,64.2638931,60.437645,64.3149948,62.8589363z"/><g><path fill="#0e2365" d="M84.4463501,73.9155121l2.4882813-12.84375           c0.0627518-0.3354759,0.5521622-0.2230911,0.4902344,0.0957031l-2.4882813,12.84375           C84.8746796,74.339592,84.3833847,74.2396545,84.4463501,73.9155121z"/></g></g><g><path fill="#0e2365" d="M41.3968124,49.9926758c-3.3399658,1.0100098-6.4400024,0.7800293-9.3699951-0.2999268         c-0.2600098-0.1000977-0.5499878,0.039917-0.6699829,0.3099365c-0.039978,0.0799561-0.0700073,0.1600342-0.1099854,0.2399902         l-0.2300415-0.5999756l5.1800537-0.6799316h0.0299683c0.0900269-0.0300293,0.1900024-0.0200195,0.289978,0.0198975         C38.0968246,49.6026611,39.7168198,49.9627686,41.3968124,49.9926758z"/><path fill="#0e2365" d="M48.7968369,45.8927002c-0.6400146,0.5100098-1.2700195,0.9799805-1.9000244,1.3900146         l1.0599976-1.2700195C47.95681,46.0126953,48.2968369,45.9627686,48.7968369,45.8927002z"/><path fill="#0e2365" d="M53.3468246,92.5327148c-0.0499878,0.0699463-0.1199951,0.1300049-0.210022,0.1600342         c-0.0099487,0.0200195-0.0099487,0.0200195-0.0099487,0.0200195c-3.7117195,0.9411087-5.0485229,1.2800522-4.9299927,1.25         c0,0-0.1800537-0.2000732-0.4500122-0.5c0.1599731,0.0198975,0.3200073,0.039917,0.4799805,0.0599365         c0.1900024,0.0299072,0.4000244-0.0699463,0.5200195-0.2301025c5.7199707-8.0098877,9-15.539917,7.6300049-26.539917         c-0.4700317-3.8299561-1.5-7.5599365-2.9200439-11.0999756c-4.0713005-10.0652962-3.7900543-9.6837654-4.039978-9.8400879         c1.3400269-0.1799316,2.6700363-0.3596916,3.5599976-0.4799805l0.0100098,0.0100098         c0.2000122-0.0200195,0.3999634,0.0800781,0.4799805,0.2900391         c2.8892365,7.6787682,5.7368622,12.5250664,6.8699951,20.6500244         C61.8268051,77.232666,58.7668076,84.6627197,53.3468246,92.5327148z"/><path fill="#0e2365" d="M48.1885376,93.7700043c-1.820694-0.3149109-5.8085098-0.5649796-10.4667969-2.4658203        c-0.3038788-0.1229401-0.1201553-0.5899658,0.1894531-0.4628906        c4.4811478,1.8284912,8.7551804,2.1584625,10.3476563,2.4335938c0.1054688,0.0214844,0.2207031-0.0419922,0.2880859-0.1328125        c5.5517578-7.7744141,8.9677734-15.234375,7.5820313-26.3583984        c-0.9891663-8.0630112-3.976532-13.1544952-6.7548828-20.6484375        c-0.0667572-0.1651306-0.2563896-0.1784554-0.3867188-0.0703125        c-5.0579872,4.1383553-10.8916588,6.1327553-17.0478516,3.8623047        c-0.2848511-0.1139374-0.3911057,0.2748451-0.46875,0.4267578        c-2.7051163,6.0217476-7.6695652,9.1836166-14.2773438,10.4345703        c-0.1814442,0.0322571-0.2996311,0.2355652-0.2412109,0.4003906        c2.9355164,7.3147659,4.2205753,13.2615814,8.8085938,19.6982422        c2.4072266,3.3769531,5.0341797,5.9394531,8.0302734,7.8349609c0.2762375,0.1741028,0.0174446,0.5994339-0.2675781,0.421875        c-3.0517578-1.9296875-5.7246094-4.5361328-8.1699219-7.9658203        c-4.6427002-6.5145111-5.9302444-12.4939804-8.8710938-19.8183594        c-0.1637802-0.4585838,0.1351891-0.973629,0.6191406-1.0634766        c6.387125-1.2081985,11.3910198-4.3079185,13.9707031-10.2734375        c0.0195313-0.0439453,0.0380859-0.0878906,0.0605469-0.1318359c0.1699219-0.3837891,0.6035156-0.5791016,0.9833984-0.4316406        c4.8295288,1.7795448,10.2387733,1.2526703,16.5244141-3.7617188c0.491375-0.3779793,1.0250473-0.1781425,1.1982422,0.2519531        c2.7396088,7.3937416,5.7900581,12.6461334,6.7861328,20.7724609        c1.4052734,11.2841797-2.0517578,18.8408203-7.6748047,26.7158203        C48.7789536,93.6670761,48.4843292,93.8122635,48.1885376,93.7700043z"/><g><path fill="#01b990" d="M51.9768295,68.0227051c-0.3499756-2.7399902-1.0800171-5.4200439-2.0999756-7.960083         l-2.7600098-6.8898926c-0.0900269-0.2199707-0.3699951-0.2800293-0.5599976-0.1201172         c-4.5200195,3.6000977-8.460022,4.0600586-12.0499878,2.7399902         c-0.1900024-0.0698242-0.4000244,0.0200195-0.4800415,0.2200928         c-1.9176178,4.397049-5.4411926,6.6545563-10.1900024,7.5599365         c-0.2399902,0.0500488-0.3899536,0.3000488-0.3099976,0.5300293         c2.2243137,5.5817261,3.1033192,9.6450272,6.3400269,14.1600342         c4.4699707,6.2700195,9.6499634,8.1900635,16.2600098,8.9699707         c0.1399536,0.0100098,0.2799683-0.0499268,0.3699951-0.1700439         C50.5968246,81.3226318,52.95681,75.9127197,51.9768295,68.0227051z M46.0468369,71.8526611         c-0.0581245,0.3487549-0.5598526,0.2124863-0.4899902-0.0899658         c0.3399658-1.7299805,0.1499634-3.5699463-0.5499878-5.1900635         c-0.1362381-0.2949295,0.3158379-0.5122375,0.4599609-0.1999512         C46.20681,68.0826416,46.4068222,70.0327148,46.0468369,71.8526611z M48.7368393,78.4727783         c-0.1174698,0.3228226-0.5693474,0.1626434-0.4799805-0.1501465         c1.6900024-5.6499023,1.039978-11.869873-1.7700195-17.0499268         c-0.0700073-0.1199951-0.0200195-0.2800293,0.0999756-0.3399658         c0.1199951-0.0700684,0.2700195-0.0200195,0.3400269,0.0999756         C49.7968369,66.3326416,50.45681,72.692749,48.7368393,78.4727783z"/></g><g><path fill="#0e2365" d="M25.881897,71.1537933c-2.5853195-7.1919746-2.8138351-7.0231628-2.5429688-7.5        c0.0966797-0.1708984,0.2607422-0.2900391,0.4511719-0.3261719c4.7006226-0.8862724,8.1492271-3.1421623,10.0068359-7.4179688        c0.1376953-0.3125,0.4863281-0.4677734,0.7929688-0.3544922c3.8710938,1.4296875,7.734375,0.5458984,11.8095703-2.6982422        c0.6040039-0.485424,1.2847633,0.3635216,0.8105469,0.5517578c-0.1279297,0.0478516-0.2734375-0.0117188-0.3251953-0.1396484        c-0.0282478-0.0718994-0.1150818-0.0670624-0.1748047-0.0214844        c-4.2226563,3.3642578-8.2421875,4.2724609-12.2939453,2.7763672        c-0.0615234-0.0214844-0.1298828,0.015625-0.1611328,0.0859375        c-1.9538918,4.4992371-5.5967369,6.8087311-10.3730469,7.7099609c-0.08424,0.0149765-0.1498547,0.1114311-0.1201172,0.1923828        l2.5888672,6.9677734C26.46591,71.2904739,25.9963684,71.4640732,25.881897,71.1537933z"/></g><g><path fill="#0e2365" d="M22.8887329,61.4399261c2.8017578-0.8769531,5.2382813-2.7089844,6.8623047-5.15625       c0.1814079-0.2767639,0.5988598,0.0011253,0.4160156,0.2753906c-1.6865234,2.5439453-4.21875,4.4462891-7.1298828,5.3574219       C22.7246265,62.0165024,22.5707397,61.5388603,22.8887329,61.4399261z"/></g></g><g><path fill="#0e2365" d="M78.671936,89.3569183c10.2561874-3.7214966,19.1571274-14.7013245,17.5673828-25.1972656       c-0.6834412-4.4188957-3.3926392-7.4415207-4.7529297-9.5410156c-1.5973282-2.4900742-6.1867981,0.4671631-4.5693359,2.9472656       c0.9553909,1.4845734,2.3091431,2.0604553,3.4814453,4.9316406c0.9257813,2.2841797,1.0917969,4.7441406,0.4804688,7.1171875       c-1.3093719,5.0747986-6.4015045,11.4882126-13.2646484,14.0820313       c-0.3136292,0.1133881-0.4830856-0.3532181-0.1757813-0.46875c4.1437378-1.561409,7.7800064-4.6306763,10.28125-8.1972656       c2.696434-3.861763,3.9700089-8.0154037,2.2158203-12.3447266c-1.1396713-2.7867241-2.4534302-3.3193245-3.4384766-4.8476563       c-1.9708328-3.0262718,3.4438171-6.5600204,5.4091797-3.4902344c1.4469528,2.2302055,4.1292801,5.2258492,4.8271484,9.7363281       c1.6232452,10.7304535-7.3885345,21.9331055-17.8916016,25.7431641       C78.52771,89.9359512,78.362236,89.4710236,78.671936,89.3569183z"/><path fill="#fbd072" d="M78.8468246,87.4727783c-0.2999878-3.6801758-3.1599731-7.5-6.6300049-7.8500977        c-4.2278214-0.4333878-7.8174667,4.7772217-5.4099731,10.2600098c0.1099854,0.25,0.3299561,0.9699707,0.6499634,0.9199219        c0.3400269-0.0599365,0.2900391-0.6098633,0.2900391-0.8798828c-0.0100098-1.1400146,0.2199707-2.3400879,0.8899536-3.2199707        c0.6800537-0.8701172,1.8800049-1.3000488,2.8100586-0.7800293c1.0727158,0.6190262,2.3129654,3.1919098,1.5999756,5.0300293        c-0.4630203,1.1923523-1.669342,2.0159988-3.2200317,1.9499512c-0.2299805-0.0100098-0.4499512-0.0700684-0.6799927-0.1101074        c-0.2699585-0.039917-0.2299805,0.2401123-0.1399536,0.4101563c1.0168381,1.9253922,3.4234009,2.9883423,5.6900024,2.1699219        C77.5868149,94.3126221,79.1068344,90.65271,78.8468246,87.4727783z M74.5568466,92.9627686        c-0.3126373,0.155365-0.5373611-0.2683792-0.2600098-0.4300537c1.6748657-1.0212479,2.5500565-3.1433563,2.039978-5.2900391        c-0.0703964-0.3288803,0.4072495-0.4351273,0.4800415-0.1199951        C77.3838272,89.4538803,76.4174042,91.8176575,74.5568466,92.9627686z"/><path fill="#0e2365" d="M69.1045532,93.0424652c-0.3349533-0.0554199-0.2291641-0.5607605,0.0839844-0.4921875        c0.5922012,0.1113358,1.1584625,0.2015686,1.9482422-0.0810547c1.6685562-0.5945435,2.5430908-2.5122833,1.2617188-5.0273438        c-0.1502838-0.2958755,0.296524-0.5194931,0.4453125-0.2265625c1.4455185,2.8357162,0.3778687,5.0411835-1.5390625,5.7246094        C70.1821823,93.341629,69.2458344,93.0528488,69.1045532,93.0424652z"/><path fill="#0e2365" d="M70.8711548,95.3559418c-0.2936783-0.1491699-0.0741348-0.5931091,0.2246094-0.4472656        c5.9217377,2.9792099,10.8862152-7.5162811,4.6113281-13.3320313        c-0.2430573-0.2243576,0.0964355-0.589325,0.3398438-0.3671875c1.0986328,1.0185547,1.9677734,2.3417969,2.5107422,3.8271484        C80.7785873,91.1164322,76.0383072,97.9465027,70.8711548,95.3559418z"/><path fill="#0e2365" d="M82.7276001,86.9653168c-0.5810547-1.6738281-1.3837891-3.2373047-2.3867188-4.6484375       c-0.1917191-0.2688751,0.2169113-0.5610199,0.4082031-0.2890625c1.0302734,1.4492188,1.8544922,3.0546875,2.4511719,4.7734375       C83.3082581,87.1158752,82.8359146,87.2756348,82.7276001,86.9653168z"/><path fill="#0e2365" d="M89.4873657,81.3618011c-0.5986328-1.6630859-1.65625-3.1464844-2.9794922-4.1787109       c-0.2604294-0.2041168,0.0470963-0.5976563,0.3085938-0.3945313c1.3955078,1.0898438,2.5117188,2.6533203,3.1416016,4.4033203       C90.0702515,81.5027313,89.6009674,81.6727219,89.4873657,81.3618011z"/><g><path fill="#0e2365" d="M93.9834595,71.9809418c-0.8818359-1.109375-2.0820313-1.9082031-3.3798828-2.2480469       c-0.3119431-0.0819702-0.205864-0.5588531,0.1269531-0.484375c1.4013672,0.3681641,2.6953125,1.2285156,3.6435547,2.421875       C94.5808716,71.9288788,94.1865005,72.2408371,93.9834595,71.9809418z"/></g><g><path fill="#0e2365" d="M90.2871704,63.6235199c1.1835938-0.5429688,2.5322266-0.6865234,3.7939453-0.4052734       c0.3200912,0.071907,0.2180099,0.5574493-0.109375,0.4882813c-1.1542969-0.2587891-2.3896484-0.1269531-3.4755859,0.3720703       C90.1949844,64.2162781,89.9878693,63.7614822,90.2871704,63.6235199z"/></g></g><g><path fill="#0e2365" d="M11.1973267,83.8178558C9.9463501,79.7172699,8.913147,75.5102386,8.1260376,71.312973       c-0.0604248-0.3230362,0.4300489-0.421608,0.4921875-0.0917969c0.7832031,4.1787109,1.8125,8.3671875,3.0576172,12.4501953       C11.7720804,83.9906006,11.2942476,84.131424,11.1973267,83.8178558z"/><path fill="#0e2365" d="M18.647522,82.4799652c-0.9388828,0-1.4765415-0.7601852-1.9433594-1.5791016       c-0.1628056-0.2860718,0.2679253-0.5373764,0.4335938-0.2480469c0.2089844,0.3662109,0.4453125,0.7802734,0.7841797,1.0517578       c0.2763672,0.2226563,0.7099609,0.3691406,1.0527344,0.2050781c0.9190044-0.4439468,2.2152519-5.0547867,0.2978516-9.0800781       c-1.3286877-2.7868652-3.6295757-2.5107346-4.4140625-0.0576172c-0.6845703,2.1445313,0.0800781,4.4707031,0.9960938,6.8652344       c0.1185827,0.3069229-0.3479576,0.4890976-0.4667969,0.1777344c-0.9492188-2.4794922-1.7392578-4.8964844-1.0058594-7.1953125       c0.9178181-2.8657837,3.8045654-3.2392883,5.3417969-0.0048828c1.2568359,2.6386719,1.3886719,5.8457031,0.3515625,8.5791016       C19.8040199,81.9077759,19.4087639,82.4799652,18.647522,82.4799652z"/><path fill="#0e2365" d="M24.5117798,77.672348l-1.3574219-6.5195313       c-0.0661354-0.3259506,0.4206657-0.4215775,0.4902344-0.1015625l1.3574219,6.5195313       C25.0680923,77.8964615,24.5808907,77.993988,24.5117798,77.672348z"/><path fill="#0e2365" d="M29.5518188,76.0024261l-1.0849609-6.7167969       c-0.0512905-0.3263855,0.4399376-0.4076462,0.4941406-0.0800781l1.0849609,6.7167969       C30.0974159,76.2498016,29.6060829,76.3280182,29.5518188,76.0024261z"/><path fill="#0e2365" d="M35.8233032,76.3735199c-1.3173103,0-2.3848801-1.2502975-2.5253906-2.5742188       c-0.0869331-0.8314438-0.3434715-1.6433868-0.3925781-2.5097656l0,0       c-0.1428528-2.5537796,1.8103943-3.8146973,3.2675781-3.1523438c0.6337891,0.2890625,1.1113281,0.9365234,1.4199219,1.9228516       C38.2871246,72.2830505,38.1989441,76.3735199,35.8233032,76.3735199z M35.3994751,68.4750824       c-1.0662155,0-2.0977898,0.9885712-1.9941406,2.7851563c0.0449867,0.7941818,0.3016281,1.6493378,0.390625,2.4863281       c0.1634903,1.5663986,1.675106,2.5284424,2.6513672,1.9697266c0.4199219-0.2412109,0.7041016-0.7441406,0.8671875-1.5371094       C37.7110252,72.2524567,37.3339653,68.4750824,35.3994751,68.4750824z"/><path fill="#0e2365" d="M42.515686,72.8520355l-1.0683594-5.5458984c-0.061821-0.315979,0.4270706-0.4314194,0.4902344-0.09375       l1.0683594,5.5458984C43.0685463,73.0806961,42.5771675,73.1808243,42.515686,72.8520355z"/></g><g><path fill="#0e2365" d="M32.928772,95.4731293l-3.2363281-4.2890625       c-0.1995468-0.2621918,0.1985703-0.5657196,0.3984375-0.3007813l3.2363281,4.2890625       C33.5271835,95.4351044,33.1265755,95.7381821,32.928772,95.4731293z"/><path fill="#0e2365" d="M42.3106079,82.9858246c-0.9746094-1.5146484-2.0986328-2.9433594-3.3427734-4.2480469        c-0.2275429-0.239151,0.1303215-0.5838547,0.3613281-0.3457031c1.265625,1.328125,2.4101563,2.7822266,3.4013672,4.3222656        C42.9124413,82.9954834,42.487545,83.2602615,42.3106079,82.9858246z"/><path fill="#0e2365" d="M33.4746704,89.1147308c-0.0048828-0.0058594-0.0371094-0.0625-0.0410156-0.0703125        c-2.1345329-3.5148849,0.0718231-5.7868576,2.8203125-4.4677734c1.3466797,0.6279297,2.9521484,2.3974609,3.1933594,4.0292969        c0.1861877,1.2711258-0.5165901,2.2983704-1.5400391,2.7001953        C36.3284531,91.8608627,34.340107,90.5061493,33.4746704,89.1147308z M33.8711548,88.8032074        c0.0039063,0.0078125,0.0371094,0.0644531,0.0410156,0.0722656c0.8806458,1.4115524,3.0989952,2.7936554,4.3964844,1.6113281        c0.0009766,0,0.0009766-0.0009766,0.0019531-0.0009766c0.5322266-0.4755859,0.7480469-1.0830078,0.6416016-1.8066406        c-0.2138672-1.4511719-1.7060547-3.0878906-2.9111328-3.6503906        C33.7234039,83.9244308,31.9897728,85.7004318,33.8711548,88.8032074z"/><path fill="#0e2365" d="M27.1328735,100.9037933c-1.6162109-1.5175781-2.6162109-2.7949219-2.9482422-4.8349609l0,0        c-0.4062881-2.494957,1.1683712-3.4297638,3.0830078-2.0888672c1.4082031,0.9882813,2.6083984,2.2138672,3.5664063,3.6416016        c0.7167435,1.0692062,1.2211914,2.3225708,0.5244141,3.4042969        C30.4347553,102.4591064,28.3626518,102.0585403,27.1328735,100.9037933z M24.663147,94.7670746        c-0.0966797,0.4042969-0.0458984,0.8447266,0.015625,1.2216797l0,0        c0.3085938,1.8994141,1.2587891,3.1064453,2.7958984,4.5498047c0.9668255,0.9088211,2.7152977,1.3792953,3.4638672,0.2158203        c0.5731659-0.8897934,0.0694561-1.9749374-0.5205078-2.8535156        C28.938736,95.6921005,25.2710247,92.210228,24.663147,94.7670746z"/><path fill="#0e2365" d="M22.6455688,103.1655121c-1.3144531-1.4560547-2.7158203-2.8652344-4.1650391-4.1865234        c-0.2453079-0.2219467,0.0933189-0.5929108,0.3359375-0.3691406c1.4619141,1.3320313,2.875,2.7519531,4.2001953,4.2197266        C23.2398224,103.0762253,22.8648777,103.4063263,22.6455688,103.1655121z"/></g><g><path fill="#0e2365" d="M22.5440063,47.6703949c-2.7412109-0.8642578-5.2900391-2.1894531-7.5761719-3.9384766      c-0.1730204-0.1321945-0.1155519-0.4360619,0.1669922-0.4482422l11.0791016,0.6533203      c-2.4541016-3.2705078-5.0830078-8.0820313-4.4902344-13.1796856c0.0261879-0.2291508,0.322382-0.2977829,0.4511719-0.1162109      l7.1083984,9.9228497c0.6740952,0.9370232,1.0799255,0.8329735,1.5839844-0.0146484l5.5224609-9.3437481      c0.1340179-0.226963,0.4993172-0.1143589,0.4628906,0.1611328L34.9668579,44.991684      c-0.0445557,0.3283157-0.5405693,0.2593613-0.4960938-0.0683594l1.7158203-12.3916016l-4.8896484,8.2714844      c-0.6835251,1.1581955-1.5249958,1.3011971-2.4199219,0.0517578l-6.7158203-9.3740215      c-0.296875,4.913084,2.4023438,9.5253887,4.7792969,12.5839825c0.1178169,0.1501236,0.0409279,0.3875198-0.2119141,0.4033203      l-10.7822266-0.6357422c2.0625,1.46875,4.3291016,2.5986328,6.7480469,3.3613281      C23.0047722,47.2903938,22.8659687,47.7694626,22.5440063,47.6703949z"/></g><g><path fill="#0e2365" d="M18.1768188,38.4428558c-0.9277344-0.9140625-1.9609375-1.7207031-3.0712891-2.3974609      c-0.2828941-0.173008-0.0228767-0.5987434,0.2597656-0.4277344c1.1435547,0.6972656,2.2070313,1.5273438,3.1630859,2.4697266      C18.7656651,38.3223,18.4108219,38.6721802,18.1768188,38.4428558z"/></g><g><path fill="#0e2365" d="M29.0684204,34.0776215c0.0537109-2.2929668,0.2451172-4.6054668,0.5703125-6.8749981      c0.0483742-0.3386269,0.5398159-0.2494164,0.4941406,0.0703125c-0.3212891,2.25-0.5107422,4.5429688-0.5644531,6.8164043      C29.5612717,34.420536,29.0613079,34.4119301,29.0684204,34.0776215z"/></g><g><path fill="#0e2365" d="M81.156311,98.2475433c-0.3221359-0.0182724-0.3080673-0.5,0.0136719-0.5      c0.0039063,0,0.0087891,0,0.0136719,0c2.3787537,0.1270752,4.6715546-1.1838531,5.6523438-2.7724609      c-0.0078125,0-0.0166016,0-0.0253906,0c-1.8279037,0-2.3885727-1.9377213-1.4873047-2.6933594      c0.926796-0.7801666,2.8116226,0.2082443,2.3339844,2.0527344c2.438858-0.7641068,4.7158966-3.5702057,4.6962891-6.7802734      c-0.0023346-0.3314896,0.4976196-0.3375549,0.5-0.0039063c0.0224457,3.7124405-2.8136063,6.8074417-5.4082031,7.3564453      C86.558609,96.7245941,83.9468307,98.3882446,81.156311,98.2475433z M87.0947876,94.4584808      c0.348526-0.9067001,0.0246353-1.6511078-0.703125-1.8955078C84.976944,92.0794601,84.9703522,94.7285385,87.0947876,94.4584808      z"/></g><g><path fill="#0e2365" d="M94.6865845,48.257309l3.1767578-4.5585938c0.1902237-0.273735,0.5982208,0.015831,0.4101563,0.2851563      l-3.1767578,4.5585938C94.9075317,48.8149223,94.4979477,48.5274582,94.6865845,48.257309z"/></g><g><path fill="#0e2365" d="M96.335022,50.8969574l3.1865234-1.4560547c0.2902985-0.1404686,0.5144653,0.3144722,0.2070313,0.4550781      l-3.1865234,1.4560547C96.2457962,51.4914513,96.0309525,51.0360298,96.335022,50.8969574z"/></g><g><path fill="#0e2365" d="M95.7324829,54.632309c3.4777451-1.0774612,6.3473816-0.9335938,5.8984375-0.9335938      c0.3288727,0,0.3316422,0.4953537,0.0039063,0.5c-1.9541016,0.0273438-3.8896484,0.3339844-5.7539063,0.9121094      C95.5568619,55.201561,95.421814,54.7289619,95.7324829,54.632309z"/></g><g><path fill="#0e2365" d="M78.8907089,67.8834686c0,0.5843582-0.4751053,1.0540619-1.0594635,1.0540619     c-0.5842285,0-1.0539246-0.4697037-1.0539246-1.0540619c0-0.5842285,0.469696-1.0593948,1.0539246-1.0593948     C78.4156036,66.8240738,78.8907089,67.2992401,78.8907089,67.8834686z"/></g><g><path fill="#0e2365" d="M84.2806702,58.5460014c0,0.584362-0.4750977,1.0540619-1.0594635,1.0540619     c-0.5842209,0-1.0539246-0.4696999-1.0539246-1.0540619c0-0.5842247,0.4697037-1.059391,1.0539246-1.059391     C83.8055725,57.4866104,84.2806702,57.9617767,84.2806702,58.5460014z"/></g></svg>