<svg xmlns="http://www.w3.org/2000/svg" enable-background="new 0 0 110 110" viewBox="0 0 110 110" width="110" height="110"><path fill="#fbd072" d="M39.9599876,40.9999542c-0.9196777,1.4257813-1.6569824,2.9753418-2.2049561,4.5878906      c3.8638153,0.0284843,3.4239616-0.0503082,3.6030273,0.0448608c-0.1959229-1.5054321-0.4204102-3.0065308-0.675415-4.4921265      C40.5678253,40.4803581,40.3083801,40.4607773,39.9599876,40.9999542z"/><path fill="#fbd072" d="M50.8552513,35.2333527H35.0273094c-1.0530396,0-1.9050293,0.8544922-1.9050293,1.9075317v15.8305054      c0,1.0504761,0.8519897,1.9049072,1.9050293,1.9049072h15.8279419c1.0530396,0,1.9050293-0.8544312,1.9050293-1.9049072      V37.1408844C52.7602806,36.0878448,51.9082909,35.2333527,50.8552513,35.2333527z M41.8388939,49.9745636      c-0.1188354-1.314209-0.270752-2.6331787-0.4373779-3.949646c-0.0428467,0.0344238-0.0924683,0.0629272-0.1514893,0.0629272      c-4.5894394-0.0187645-3.3978424,0.0352287-3.6589966-0.0181885c-0.9195671,2.9380684-0.5403671,3.6214104-1.0343628,3.5621338      c-0.1367188-0.0195313-0.2324219-0.1455078-0.2138672-0.2822266c0.4208984-3.0507813,1.5263672-6.0322266,3.1972656-8.6201172      c0.6023369-0.9410515,1.4485245-0.7793655,1.6347656,0.3271484c0.5029297,2.9257813,0.8935547,5.9111328,1.1621094,8.8730469      C42.3672447,50.2582817,41.8689842,50.3080521,41.8388939,49.9745636z M43.894558,40.9667511      c1.0556641,0.1748047,2.1357422,0.2382813,3.203125,0.1894531c0.3487549,0.0110703,0.3372498,0.4844208,0.0234375,0.5      c-0.7876091,0.0352173-1.102253,0.008255-1.6009521-0.0194092c0.1220398,0.143589,0.0013466-0.2589607,0.6976318,6.321167      c0.0326729,0.3290329-0.4627762,0.3833122-0.4980469,0.0507813c-0.6095352-6.4628983-0.7335358-6.2110634-0.5404663-6.3859253      c-0.4578247-0.0352783-0.9141846-0.0873413-1.3667603-0.1619263      C43.4915657,41.4077835,43.561554,40.9181366,43.894558,40.9667511z M48.2490501,49.5956573l-3.2558594,0.0019531      c-0.3313637,0-0.3301048-0.5,0-0.5l3.2558594-0.0019531C48.5804176,49.0956573,48.5791588,49.5956573,48.2490501,49.5956573z"/><path fill="#0e2365" d="M92.2526932,60.0640869c6.1621094-5.2472038,6.3702011-14.8173447,0.2578125-20.3125      c-0.7522964,0.6930733-1.8943634,1.4274483-2.9179688,1.3867188c-3.2987442-0.1153717-1.3900223-5.6767616,2.8984375-2.0654297      c2.0361328-2.1328125,2.7285156-5.6582031,1.5029297-8.6083984c-1.1679688-2.8056641-3.8710938-4.9960938-7.1074219-5.8544922      c-0.8343735,2.2563324-2.6013489,3.2510357-3.9697266,3.0498047c-1.8201981-0.2800312-1.816185-2.547596-0.3476563-3.4462891      c1.1223297-0.6871185,2.6945724-0.489027,3.9892578-0.1982422c2.3071671-8.1411085-12.2158508-14.9191742-21.8310547-7.2421875      c-0.7773476,0.6210938-3.2617226,2.8427734-2.5957069,5.3623047c0.084404,0.3188534-0.3977547,0.445343-0.484375,0.1269531      c-1.417572-5.3690987,9.896244-12.5637732,19.7705116-7.7861338c4.988945,2.411727,6.530098,6.4329176,5.6230469,9.6572275      c3.3730469,0.9042969,6.1914063,3.1992188,7.4140625,6.1396484c1.296875,3.1201172,0.5644531,6.8515625-1.5878906,9.1269531      c6.3261108,5.7156448,6.0835953,15.6177444-0.2900391,21.0449219      C92.3263626,60.6589584,92.000145,60.2792168,92.2526932,60.0640869z M89.7478104,38.3551025      c-1.5406342,0.0880356-1.9548187,2.2218666-0.1376953,2.2832031c0.8633499,0.0328331,1.8750916-0.6367073,2.5205078-1.2148438      C91.4804306,38.8816338,90.6043549,38.2874794,89.7478104,38.3551025z M82.8308182,24.6392822      c-1.0777664,0.6605625-1.1822586,2.3175678,0.1621094,2.5263672c1.528389,0.2251301,2.8549576-1.22925,3.40625-2.6738281      C85.2846298,24.2441425,83.8006134,24.0455647,82.8308182,24.6392822z"/><path fill="#fbd072" d="M99.0309525,57.2359657c0,2.0870018-1.6889877,3.7759895-3.7759933,3.7759895      c-2.086937,0-3.7856445-1.6889877-3.7856445-3.7759895s1.6987076-3.7759895,3.7856445-3.7759895      C97.3419647,53.4599762,99.0309525,55.1489639,99.0309525,57.2359657z"/><path fill="#fca8d7" d="M60.30093,76.2140656c-0.2174072-0.0397339-0.4320679-0.0892334-0.652832-0.1165161         c-0.9199829-0.6300049-1.9199829-1.210022-2.6799927-1.9799805         c-2.5708694-2.6232834-1.6274223-6.6160812-3.6799927-7.7000122c-0.817543-0.4328384-2.151432-0.4020615-3.3600464,0.3800049         c-0.1156693,0.2702103-1.1797638,2.0378494-1.4400024,2.460022         c-0.1680984,2.2285233,1.0829391,5.8004837,1.4400024,8.1999512         c-5.7149658,1.6778488-13.5138664,4.6140518-25.459959,3.3300171c-1.8599854-0.2000122-3.7800293-0.5-5.6400146-0.1900024         c-4.1058302,0.664978-4.0184393,3.1977234-2.0044556,3.8998413c-0.0085449-0.0806274,0.0077515-0.161377,0.0748291-0.2161865         c4.7176018-3.8907623,13.7765884,1.6737213,21.6042461-0.4023438         c-0.1921349-0.2482147,0.1067924-0.5057907,0.3293457-0.3476563c0.1013794,0.0741577,0.1826782,0.1637573,0.2630005,0.253479         c0.0811768,0.0212402,0.1533203,0.065979,0.1793823,0.1517944c0.0089111,0.0294189-0.0065308,0.0559082-0.0083008,0.0848999         c0.0485229,0.0796509,0.1044312,0.1559448,0.137207,0.2422485c0.1184044,0.3064575-0.3479919,0.4884491-0.4667969,0.1777344         c-0.0171509-0.0447998-0.0496216-0.0852051-0.0739136-0.1282959         c-7.8294525,2.2328415-17.1866016-3.3247528-21.6458111,0.3529053         c-0.1074219,0.0898438-0.265625,0.0722656-0.3515625-0.0332031         c-0.0113525-0.0137329-0.0065918-0.0321045-0.0145264-0.0473022         c-0.8191528,0.0421143-1.6081543,0.5519409-1.8226318,1.2420654         c-0.4583492,1.4403839,1.4152927,3.0483093,3.6699829,2.1400146         c-0.7046223,0.874733,0.0073242,2.1783752,1.9100342,2.2700195c0.6209717,0.0227051,1.2362061-0.0924683,1.8414307-0.2407837         c-0.0391235-0.0854492-0.0460815-0.1821899,0.0182495-0.2585449c0.7861328-0.9316406,2-1.5810547,3.3300781-1.7822266         c3.5452347-0.5290756,8.0443249,1.9876099,12.2629986,2.2498779         c-0.0537109-0.1032104-0.1112061-0.2052002-0.1819458-0.3016357         c-0.1931992-0.2653656,0.2070694-0.5640869,0.4042969-0.2949219         c0.4111328,0.5615234,0.5908203,1.2333984,0.5058594,1.8945313c-0.0432625,0.3282928-0.538044,0.2641754-0.4960938-0.0644531         c0.0307007-0.2391968,0.0118408-0.4801636-0.0419312-0.7154541         c-5.5090446-0.2455978-12.0279312-4.6584473-15.4004498-0.6634521         c-0.0470581,0.0558472-0.1127319,0.0817871-0.1804199,0.0845947         c-0.2543335,0.4205933-0.0137939,1.0853271,0.3878784,1.5024414         c2.0804424,2.1197357,6.0812054,2.1831207,9.9999981,2.6000366c3.3400269,0.3599854,6.460022,1.5100098,9.8300171,1.8499756         c5.2559814,0.5144653,12.2503662,0.024292,17.4128418-2.3857422V76.2140656z M39.3428001,87.6444855         c-0.0261841-0.1043701-0.0704956-0.2056885-0.1237183-0.3036499         c-6.2806435,0.9553986-13.5362511-2.8005753-17.8987408-1.2920532         c-1.0947266,0.3779297-1.8798828,1.1142578-2.0488281,1.921875c-0.0601082,0.2774277-0.4823399,0.267189-0.4813232-0.0561523         c-0.1062088,0.0512009-0.0851879,0.069458-0.0032959-0.0177002c0.0558395-0.6900253,0.8459435-1.7947464,2.3693848-2.3206787         c4.4105167-1.5283279,11.7141514,2.1128464,17.7670879,1.2972412         c-0.0430222-0.2643814,0.2551537-0.3729095,0.4125977-0.2122803         c0.2421875,0.2480469,0.4121094,0.5458984,0.4912109,0.8623047         C39.9085197,87.8417969,39.4234314,87.9670029,39.3428001,87.6444855z"/><path fill="#558dfd" d="M102.638092,60.6975861c-0.2935181-2.8979683-1.3043365-2.8976326-3.2999878-2.9400024           c-1.2463989,0-1.2503967-0.3614311-14.6500244-1.1800537c-1.1399536-0.0699463-2.3699951-0.1299438-3.3599854,0.4500122           c-1.9315796,1.1487694-0.6906509,3.0443573-0.0800171,9.1000366c0.1000366,0.8899536,0.6900024,3.1199951,0.25,3.9799805           c1.3800049-0.3300171,2.8600464-0.210022,4.1700439,0.3099976c0.243309,0.0935516,0.1962509,0.4799805-0.0900269,0.4799805           c-0.2042313,0-1.4559097-0.6823959-3.3800049-0.4199829c3.5599976,1.1900024,6.75,3.4299927,9.0700073,6.3900146           c0.1923141,0.2643433-0.1899567,0.561821-0.4000244,0.3099976c-2.4400024-3.1300049-5.8999634-5.4400024-9.7199707-6.5           c-0.0599976-0.0100098-0.1099854-0.0499878-0.1400146-0.1000366           c-2.3153076,1.4407425-6.8557663,1.7348785-9.5700073,1.7200317           c-6.2440567-0.0320511-7.3035507-0.7639008-9.6699867-1.2999878c-0.75-0.1600342-3.1799927-0.7600098-3.6400146,0.0299683           c-0.1599731,0.25-0.1699829,0.5700073-0.1900024,0.8699951c-0.282402,6.3466034-0.5491142,13.0626068,1.0100098,19.2700195           c0.1699829,0.7000122,0.9500122,4.5599976,1.9000244,4.6599731           c10.9681282,1.0757446,21.275692,0.7758179,25.6399574,0.2600098           c2.7776642-0.3424301,5.8312073-1.4670334,8.2400513-2.6900024           c4.570549-2.2762909,6.1506958-8.0449753,7.1099854-12.9599609           C103.0180969,73.9375763,103.3280945,67.2675323,102.638092,60.6975861z M62.85812,94.5075836           c-0.6800537,0.1299438-1.4100342-0.2400513-1.7300415-0.8500366           c-0.5999756-1.1699829,0.6099854-3.0700073,1.9800415-2.4199829           C64.4480896,91.8875275,64.4580994,94.2175446,62.85812,94.5075836z M70.4380798,94.7475739           c-0.6799927,0.1300049-1.4099731-0.2399902-1.7299805-0.8500366           c-0.5999756-1.1699829,0.6099854-3.0700073,1.9799805-2.4199829           C72.0281067,92.1275787,72.0281067,94.4575348,70.4380798,94.7475739z"/><path fill="#0e2365" d="M60.8239784,96.0718994c-1.140049-0.1098862-1.8090477-3.6033783-2.1181641-4.8398438          c-0.4990234-1.9921875-0.8359375-4.109375-1.03125-6.4746094c-0.027916-0.3280106,0.469841-0.3724365,0.4980469-0.0410156          c0.2629013,3.1787109,0.6601219,4.8291779,1.0966797,6.7294922c0.8125,3.5351563,1.3535156,4.1044922,1.6035156,4.1279297          c7.9987297,0.7899017,15.8938255,0.9235229,20.9414101,0.5908203          c0.4521484-0.03125,0.9042969-0.0615234,1.3632813-0.0761719c0.2951202-0.0381622,0.3738098,0.4873886,0.015625,0.5          c-0.453125,0.0146484-0.8994141,0.0449219-1.3457031,0.0742188          C77.2672272,96.9771271,69.2190247,96.899353,60.8239784,96.0718994z"/><path fill="#0e2365" d="M101.3532791,81.6051025c1.2566376-5.8065414,1.8054733-13.5865097,1.0371094-20.8837891          c-0.2585373-2.4961205-0.9660797-2.687767-2.7470703-2.7070313          c-1.3964539-0.0357094-1.2490616-0.1472092-5.6455078-0.5292969          c-0.3416443-0.0290756-0.2715225-0.5423431,0.0429688-0.4980469          c4.2581558,0.3709831,4.2772598,0.4949455,5.6074219,0.5273438          c2.0167923,0.0221863,2.9506226,0.3786392,3.2402344,3.1542969          c0.7805252,7.4133453,0.2098236,15.2440186-1.046875,21.0419922          C101.7713318,82.0346985,101.2832947,81.9270325,101.3532791,81.6051025z"/><path fill="#c3d7f9" d="M101.5976334,81.6580811c-0.9025192,4.5248108-2.7372589,9.6830826-6.871315,11.7433853          c-1.326889,0.6734467-2.6278534,1.2002869-4.0273666,1.6834335          c-0.6080704-0.8337326-0.8948669-1.9197693-0.8932343-2.9700241          c-0.0058899-1.3977432,0.4405823-2.7473984,0.903801-4.0734177          c0.5960083-1.6969757,1.2736664-3.4201431,2.3967514-4.8392487c1.1393814-1.456955,3.0286789-2.3470154,4.8568649-2.4729614          C99.1963806,80.6465149,100.4716034,81.02948,101.5976334,81.6580811z"/><path fill="#0e2365" d="M89.9499588,94.6998291c-1.493309-8.4393158,5.3745499-16.5842056,10.5185547-14.3945313          c0.3007355,0.1295471,0.1163254,0.5826721-0.1953125,0.4609375          c-4.7210312-2.0048828-11.2553329,5.7972717-9.8310547,13.8457031          C90.5002518,94.9373398,90.0078735,95.0262756,89.9499588,94.6998291z"/><path fill="#0e2365" d="M96.0485916,84.7554932c-0.2154922-0.2506256,0.1641922-0.5782242,0.3789063-0.3261719          c0.8828125,1.0224609,1.6660156,2.1386719,2.328125,3.3164063c0.0673828,0.1201172,0.0253906,0.2724609-0.0947266,0.3398438          C98.190773,88.3441391,98.2901001,87.3527985,96.0485916,84.7554932z"/><path fill="#0e2365" d="M93.5661697,89.8521729c5.4337845-4.7650528,5.5302353-5.8861847,5.9726563-5.4824219          c0.1015625,0.09375,0.1074219,0.2519531,0.0136719,0.3535156c-1.7802734,1.9228516-3.6835938,3.7744141-5.65625,5.5039063          C93.6474991,90.4454575,93.3179398,90.0699539,93.5661697,89.8521729z"/><path fill="#0e2365" d="M68.2985916,58.9058838c-2.4594269-5.7220688-7.1413574-12.4885826-10.7597694-16.6748047         c-0.2168999-0.2499084,0.1646538-0.5753593,0.3789063-0.3261719         c0.3212891,0.3710938,0.6347656,0.7548828,0.9365234,1.1376953         c3.7540398,4.651741,7.5718956,10.2378769,9.9033241,15.6660156         C68.8892899,59.014389,68.4265747,59.208683,68.2985916,58.9058838z"/><path fill="#0e2365" d="M27.9616737,47.2828369C6.8735518,21.0791759,14.6685534,8.277751,36.7946815,22.7281494         c3.1962891,2.0859375,6.4257813,4.5595703,9.5986328,7.3515625c0.2475967,0.2172298-0.079895,0.5947857-0.3300781,0.375         c-3.1552734-2.7753906-6.3652344-5.234375-9.5419922-7.3085938         C17.2278252,10.5455952,9.7548876,18.800169,22.2194862,38.5133057         c2.4459839,3.8710327,4.5160122,6.4142418,6.1347656,8.4589844         C28.5623512,47.2347755,28.1651669,47.5382004,27.9616737,47.2828369z"/><path fill="#0e2365" d="M64.8464432,73.2330322c-7.7543907,0-18.672142-8.0669174-24.5332069-13.2080078         c-0.2476082-0.2172432,0.0803909-0.5943527,0.3300781-0.375c3.0908203,2.7099609,6.2265625,5.109375,9.3212891,7.1289063         c8.8544922,5.7724609,15.9238319,7.4912109,18.9091835,4.5888672         c1.1308594-1.0927734,1.6240234-2.7929688,1.4648438-5.0527344         c-0.0226669-0.3195343,0.4760361-0.3798981,0.4980469-0.0351563         C71.137001,70.5222626,69.1654663,73.2330322,64.8464432,73.2330322z"/><path fill="#0e2365" d="M32.8278847,30.1695557c1.1005859-2.5927734,2.3154297-5.0673828,3.6123047-7.3554688         C42.099369,12.7857656,48.4665565,7.6519771,53.4860878,9.0875235         c3.0195313,0.8583984,5.2304688,4.0107422,6.3964844,9.1142588c0.0727005,0.3236313-0.4124146,0.4308796-0.4882813,0.1113281         c-1.1220703-4.91504-3.2119141-7.9384775-6.0449219-8.7451181         c-4.7128906-1.3408203-11.0185547,3.8242188-16.4736328,13.4921885         c-1.2880859,2.2724609-2.4941406,4.7294922-3.5869141,7.3046875         C33.1580276,30.6700573,32.6994629,30.4730968,32.8278847,30.1695557z"/><path fill="#0e2365" d="M25.7878456,59.8355713c0.3483906-7.4097824,2.0727291-14.354248,2.1259766-14.6328125         c0.0725918-0.3231468,0.5607224-0.2131004,0.4882813,0.109375c-0.2128868,1.1065025-1.7666225,7.1277847-2.1142578,14.546875         c-0.5400391,11.2802734,2.0849609,19.1308594,6.8486328,20.4882813         c4.3085938,1.2285156,9.9707031-2.9628906,15.1396484-11.2226563         c4.5838394-7.4316711,4.5361176-9.7831154,5.1708984-9.5166016c0.1269531,0.0537109,0.1855469,0.2011719,0.1308594,0.328125         c-1.420929,3.3185806-3.0499268,6.4942856-4.8769531,9.4521484         C36.6542358,88.6356125,24.6739388,83.1633759,25.7878456,59.8355713z"/><path fill="#0e2365" d="M57.4870644,46.9527588c1.4640121-5.5175285,2.4500084-11.3075981,2.7109375-16.8964844         c0.199131-4.0265522-0.158802-4.3692741,0.2939453-4.3789063c0.0019531,0,0.0039063,0,0.0058594,0         c0.1357422,0,0.2470703,0.1083984,0.25,0.2441406c0.1599464,6.9576263-0.9809265,14.4092331-2.7783203,21.1601563         C57.8853569,47.4013596,57.4008789,47.2718773,57.4870644,46.9527588z"/><g><path fill="#0e2365" d="M28.0720253,35.9029541c0.1545525-0.060215,0.3359375,0.0552559,0.3359375,0.234375v20.8398438         c0,1.1533203,0.7412109,2.1552734,1.84375,2.4912109c0.2652264,0.0809174,0.2184029,0.4735641-0.0595703,0.4892578         C-0.2451732,61.6442451-1.1241448,46.6147461,28.0720253,35.9029541z M27.9079628,36.4957275         C-0.0561892,46.8706017,0.4424773,60.8488312,29.2077675,59.5074463         c-0.8027344-0.5693359-1.2998047-1.4990234-1.2998047-2.5302734V36.4957275z"/><path fill="#0e2365" d="M57.583744,54.1920166c-0.2015457-0.1422691-0.0642509,1.1115112-0.1054688-21.0546875         c0-1.3173828-0.9892578-2.4355469-2.3017578-2.6015625c-0.2974815-0.0389023-0.2864723-0.474308,0.0117188-0.4970703         c1.9668503-0.1524696,3.8617706-0.2216797,5.6582031-0.2216797c23.2873878,0,25.6213188,11.598877,3.7363319,21.6777344         h-0.0009766c-2.1777382,0.9902344-4.4560585,1.9082031-6.7695351,2.7285156         C57.7334824,54.2514,57.6489372,54.2379456,57.583744,54.1920166z M56.443119,30.4527588         c0.9248047,0.5488281,1.5351563,1.5556641,1.5351563,2.6845703v20.4960938         c2.1855469-0.7851563,4.3349609-1.65625,6.3955116-2.59375c10.0478516-4.6269531,15.6992188-10.0898438,14.75-14.2568359         C77.6467896,30.3281631,63.0515251,30.0502167,56.443119,30.4527588z M64.4782791,51.2672119h0.0058594H64.4782791z"/></g><g><path fill="#0e2365" d="M68.2985916,58.9058838c-2.4594269-5.7220688-7.1413574-12.4885826-10.7597694-16.6748047         c-0.2168999-0.2499084,0.1646538-0.5753593,0.3789063-0.3261719         c0.3212891,0.3710938,0.6347656,0.7548828,0.9365234,1.1376953         c3.7540398,4.651741,7.5718956,10.2378769,9.9033241,15.6660156         C68.8892899,59.014389,68.4265747,59.208683,68.2985916,58.9058838z"/><path fill="#0e2365" d="M27.9616737,47.2828369C6.8735518,21.0791759,14.6685534,8.277751,36.7946815,22.7281494         c3.1962891,2.0859375,6.4257813,4.5595703,9.5986328,7.3515625c0.2475967,0.2172298-0.079895,0.5947857-0.3300781,0.375         c-3.1552734-2.7753906-6.3652344-5.234375-9.5419922-7.3085938         C17.2278252,10.5455952,9.7548876,18.800169,22.2194862,38.5133057         c2.4459839,3.8710327,4.5160122,6.4142418,6.1347656,8.4589844         C28.5623512,47.2347755,28.1651669,47.5382004,27.9616737,47.2828369z"/><path fill="#0e2365" d="M64.8464432,73.2330322c-7.7543907,0-18.672142-8.0669174-24.5332069-13.2080078         c-0.2476082-0.2172432,0.0803909-0.5943527,0.3300781-0.375c3.0908203,2.7099609,6.2265625,5.109375,9.3212891,7.1289063         c8.8544922,5.7724609,15.9238319,7.4912109,18.9091835,4.5888672         c1.1308594-1.0927734,1.6240234-2.7929688,1.4648438-5.0527344         c-0.0226669-0.3195343,0.4760361-0.3798981,0.4980469-0.0351563         C71.137001,70.5222626,69.1654663,73.2330322,64.8464432,73.2330322z"/></g><g><path fill="#01b990" d="M69.6180725,58.6475372c-2.1399536,0-3.8800049,1.7399902-3.8800049,3.8900146        c0,2.1400146,1.7400513,3.8900146,3.8800049,3.8900146c2.1500244,0,3.8900146-1.75,3.8900146-3.8900146        C73.5080872,60.3875275,71.7680969,58.6475372,69.6180725,58.6475372z M69.4980774,60.4775543        c-1.1558762,0-2.0584564,0.9792557-1.9499512,2.1500244c0.0234909,0.3304977-0.4449921,0.3907089-0.5,0.0599976        c-0.1471634-1.4504318,0.9877243-2.710022,2.4499512-2.710022        C69.8277435,59.9775543,69.8280182,60.4775543,69.4980774,60.4775543z"/></g><g><path fill="#0e2365" d="M73.2565994,62.5367432c0-2.0048828-1.6308594-3.6367188-3.6357422-3.6367188       c-0.3304901,0-0.3307724-0.5,0-0.5c2.2802734,0,4.1357422,1.8554688,4.1357422,4.1367188       C73.7565994,62.8672333,73.2565994,62.8675156,73.2565994,62.5367432z"/></g><g><path fill="#0e2365" d="M69.6208572,66.6734619c-2.28125,0-4.1367188-1.8554688-4.1367188-4.1367188       c0-0.3304901,0.5-0.3307724,0.5,0c0,2.0048828,1.6318359,3.6367188,3.6367188,3.6367188       C69.9513474,66.1734619,69.9516296,66.6734619,69.6208572,66.6734619z"/></g><g><path fill="#c3d7f9" d="M60.5180931,18.157547c-2.1500244,0-3.8900146,1.7399902-3.8900146,3.8800049        c0,2.1500244,1.7399902,3.8900146,3.8900146,3.8900146c2.1400146,0,3.8900185-1.7399902,3.8900185-3.8900146        C64.4081116,19.8975372,62.6581078,18.157547,60.5180931,18.157547z M61.2781029,20.0275421        c-1.3085861-0.3690262-2.4403534,0.9425774-2.1600342,1.4100342c0.1782722,0.2673378-0.2409706,0.5463352-0.4199829,0.2600098        c-0.5607719-0.9036312,0.9888763-2.6242332,2.710022-2.1500244        C61.7294121,19.6463642,61.5979271,20.1189976,61.2781029,20.0275421z"/></g><g><path fill="#0e2365" d="M64.1540604,22.041626c0-2.0048828-1.6318398-3.6367188-3.6367226-3.6367188       c-0.3304901,0-0.3307724-0.5,0-0.5c2.28125,0,4.1367226,1.8554688,4.1367226,4.1367188       C64.6540604,22.3721161,64.1540604,22.3723965,64.1540604,22.041626z"/></g><g><path fill="#0e2365" d="M60.5173378,26.1773682c-2.28125,0-4.1367188-1.8554688-4.1367188-4.1357422       c0-0.3304901,0.5-0.3307724,0.5,0c0,2.0048828,1.6318359,3.6357422,3.6367188,3.6357422       C60.8478279,25.6773682,60.8481102,26.1773682,60.5173378,26.1773682z"/></g><g><path fill="#c3d7f9" d="M25.9681072,66.4275665c-2.1500244,0-3.8900146,1.7399902-3.8900146,3.8800049        c0,2.1499634,1.7399902,3.8900146,3.8900146,3.8900146c2.1400146,0,3.8800049-1.7400513,3.8800049-3.8900146        C29.8481121,68.1675568,28.1081219,66.4275665,25.9681072,66.4275665z M25.3880901,68.6675568        c-0.1900024-0.210022-0.5700073-0.1699829-0.7999878,0.0100098c-0.4293365,0.3108673-0.8813152,1.4487152-0.6300049,1.9199829        c0.1625004,0.2785339-0.2579136,0.5314636-0.4400024,0.2399902c-0.4009724-0.7401962,0.179554-2.1271133,0.7700195-2.5700073        c0.4199829-0.2999878,1.0799561-0.3599854,1.4699707,0.0599976        C25.9800797,68.5742035,25.6206589,68.9001236,25.3880901,68.6675568z"/></g><g><path fill="#0e2365" d="M29.6022987,70.3092041c0-2.0048828-1.6308594-3.6357422-3.6357422-3.6357422       c-0.3304882,0-0.3307705-0.5,0-0.5c2.2802734,0,4.1357422,1.8554688,4.1357422,4.1357422       C30.1022987,70.6396942,29.6022987,70.6399765,29.6022987,70.3092041z"/></g><g><path fill="#0e2365" d="M25.9665565,74.4459229c-2.28125,0-4.1367188-1.8554688-4.1367188-4.1367188       c0-0.3304901,0.5-0.3307724,0.5,0c0,2.0048828,1.6318359,3.6367188,3.6367188,3.6367188       C26.2970467,73.9459229,26.2973289,74.4459229,25.9665565,74.4459229z"/></g><g><path fill="#0e2365" d="M54.8581581,60.0875244c-24.9502659-0.0468712-23.8643322,0.1240044-24.7509766-0.140625         c-1.3164063-0.4013672-2.1992188-1.5947266-2.1992188-2.9697266V33.1373291         c0-1.7207031,1.3994141-3.1201172,3.1201172-3.1201172h23.8300781c1.7002029,0,3.1201172,1.3923512,3.1201172,3.1201172         v23.8398438C57.9782753,58.6920166,56.5788612,60.0875244,54.8581581,60.0875244z M31.02808,30.5172119         c-1.4443359,0-2.6201172,1.1757813-2.6201172,2.6201172v23.8398438c0,1.4673119,1.1874657,2.6103516,2.6201172,2.6103516         h23.8300781c1.4443359,0,2.6201172-1.1708984,2.6201172-2.6103516V33.1373291         c0-1.4420395-1.1803322-2.6201172-2.6201172-2.6201172H31.02808z"/><path fill="#0e2365" d="M54.856205,30.5181885H31.0261269c-0.3304882,0-0.3307705-0.5,0-0.5H54.856205         C55.1866951,30.0181885,55.1869774,30.5181885,54.856205,30.5181885z"/><path fill="#0e2365" d="M27.9079628,56.9742432V33.1392822c0-0.3304901,0.5-0.3307724,0.5,0v23.8349609         C28.4079628,57.3047333,27.9079628,57.3050156,27.9079628,56.9742432z"/><path fill="#0e2365" d="M54.856205,60.0924072H31.0261269c-0.3304882,0-0.3307705-0.5,0-0.5H54.856205         C55.1866951,59.5924072,55.1869774,60.0924072,54.856205,60.0924072z"/><path fill="#0e2365" d="M57.474369,56.9742432V33.1392822c0-0.3304901,0.5-0.3307724,0.5,0v23.8349609         C57.974369,57.3047333,57.474369,57.3050156,57.474369,56.9742432z"/><g><path fill="#0e2365" d="M50.8552284,35.4830322h-15.828125c-0.3304901,0-0.3307724-0.5,0-0.5h15.828125         C51.1857185,34.9830322,51.1860008,35.4830322,50.8552284,35.4830322z"/><path fill="#0e2365" d="M32.87183,52.9713135V37.1412354c0-0.3304901,0.5-0.3307724,0.5,0v15.8300781         C33.37183,53.3018036,32.87183,53.3020859,32.87183,52.9713135z"/><path fill="#0e2365" d="M50.8552284,55.1265869h-15.828125c-0.3304901,0-0.3307724-0.5,0-0.5h15.828125         C51.1857185,54.6265869,51.1860008,55.1265869,50.8552284,55.1265869z"/><path fill="#0e2365" d="M52.5105019,52.9713135V37.1412354c0-0.3304901,0.5-0.3307724,0.5,0v15.8300781         C53.0105019,53.3018036,52.5105019,53.3020859,52.5105019,52.9713135z"/></g></g><g><path fill="#01b990" d="M18.5881023,28.1675568c-2.1500244,0-3.8900146,1.7399902-3.8900146,3.8900146         c0,2.1400146,1.7399902,3.8800049,3.8900146,3.8800049c2.1400146,0,3.8800049-1.7399902,3.8800049-3.8800049         C22.4681072,29.907547,20.728117,28.1675568,18.5881023,28.1675568z M17.1180706,30.867569         c-1.3318892,1.1360512-1.1069469,2.3571358-0.3899536,2.6900024c0.2687855,0.1240425,0.1432247,0.5777092-0.210022,0.4599609         c-1.0116177-0.4939651-1.3838406-2.0503674,0.2700195-3.5299683         C17.0378666,30.2831326,17.3595886,30.6502171,17.1180706,30.867569z"/><path fill="#0e2365" d="M14.4470263,32.0552979c0-2.28125,1.8554678-4.1367188,4.1367178-4.1367188        c0.3304901,0,0.3307724,0.5,0,0.5c-2.0048828,0-3.6367178,1.6318359-3.6367178,3.6367188        C14.9470263,32.385788,14.4470263,32.3860703,14.4470263,32.0552979z"/><path fill="#0e2365" d="M18.583744,36.1920166c-0.3304882,0-0.3307705-0.5,0-0.5        c2.0048828,0,3.6367188-1.6318359,3.6367188-3.6367188c0-0.3304901,0.5-0.3307724,0.5,0        C22.7204628,34.3365479,20.864994,36.1920166,18.583744,36.1920166z"/></g><g><path fill="#0e2365" d="M33.8972206,16.1929932c-1.0114136-1.8777905,0.0503883-4.4985189,2.7587891-5.4111338      c0.2885857-2.6205454,3.1084862-4.0168962,5.3251953-2.8183589c0.2934723,0.1573005,0.0491295,0.5985608-0.2363281,0.4394526      c-1.829525-0.98242-4.1916275,0.0587616-4.5664063,2.2490234c1.7757759-0.2790499,2.5960655,1.4415207,1.6542969,2.2255859      c-0.7240028,0.6059437-2.1143074,0.1334295-2.1943359-1.5585938c-2.4298515,1.0124388-3.0990143,3.1532068-2.3017578,4.6376953      C34.4939156,16.2476788,34.0532112,16.4846249,33.8972206,16.1929932z M37.1355019,11.1676016      c0,1.3241444,0.9298782,1.6983662,1.3769531,1.3271484C39.072834,12.025712,38.5123291,10.8767233,37.1355019,11.1676016z"/></g><g><path fill="#0e2365" d="M41.5642128,99.4127197c-0.3206825-0.0772476-0.2055893-0.5610046,0.1171875-0.4863281      c5.1728516,1.2382813,10.7099609,0.75,15.5869141-1.3720703c0.3026848-0.1314011,0.5032158,0.3256912,0.1992188,0.4589844      C52.6447296,100.1115952,47.002861,100.7126617,41.5642128,99.4127197z"/></g><g><path fill="#0e2365" d="M53.4753456,102.4703369c-0.3270111,0-0.3325844-0.4930267-0.0048828-0.5      c2.3769531-0.0419922,4.6835938-0.9111328,6.4980469-2.4472656c0.2520485-0.2147064,0.574955,0.1679459,0.3222656,0.3808594      c-1.9013672,1.6103516-4.3203125,2.5224609-6.8105469,2.5664063      C53.4782753,102.4703369,53.4763222,102.4703369,53.4753456,102.4703369z"/></g><g><path fill="#0e2365" d="M40.0583534,38.3765869h-4.1113281c-0.3304901,0-0.3307724-0.5,0-0.5h4.1113281      C40.3888435,37.8765869,40.3891258,38.3765869,40.0583534,38.3765869z"/></g><g><path fill="#0e2365" d="M55.0388222,54.3883057v-6.3525391c0-0.3304901,0.5-0.3307724,0.5,0v6.3525391     C55.5388222,54.7187958,55.0388222,54.7190781,55.0388222,54.3883057z"/></g><g><path fill="#0e2365" d="M40.012455,32.737915h-7.8369141c-0.3304882,0-0.3307705-0.5,0-0.5h7.8369141     C40.3429451,32.237915,40.3432274,32.737915,40.012455,32.737915z"/></g><g><path fill="#0e2365" d="M30.411869,53.6627197V47.987915c0-0.3304901,0.5-0.3307724,0.5,0v5.6748047     C30.911869,53.9932098,30.411869,53.9934921,30.411869,53.6627197z"/></g></svg>