<svg xmlns="http://www.w3.org/2000/svg" enable-background="new 0 0 110 110" viewBox="0 0 110 110" width="110" height="110"><path fill="#0e2365" d="M55.8012619,61.1404305c0.289917,0.3000488,0.5699463,0.6101074,0.8399658,0.9300537      c-0.1500244,0.0500488-0.2900391,0.1600342-0.4100342,0.2900391c-0.2600098-0.3099365-0.5200195-0.5899658-0.7900391-0.8699951      C55.2331505,61.2822456,55.5363388,60.9026489,55.8012619,61.1404305z"/><path fill="#0e2365" d="M60.0112228,67.7004929c0.1248169,0.3242188-0.3333282,0.4857407-0.4599609,0.1999512      c-0.4500732-1.0699463-0.9500732-2.0599365-1.5-2.9799805c0.0998535-0.1899414,0.1599121-0.4099121,0.1999512-0.6499023      C58.9011154,65.3106003,59.4912033,66.4605026,60.0112228,67.7004929z"/><path fill="#0e2365" d="M65.5256042,103.2543106c-3.6533546,0-9.1022339-1.1836777-11.7802773-3.5517578     c-2.4570313,2.3017578-5.8349609,3.5488281-9.0908203,3.3271484c-4.3964844-0.2851563-8.5136719-3.2080078-10.2441406-7.2714844     c-1.2617302-2.9476013-1.1777382-6.379364-0.0214844-9.2900391c0.1230011-0.3040237,0.5868301-0.1241074,0.4648438,0.1855469     c-1.0911293,2.7418823-1.2118034,6.0403671,0.0166016,8.9082031c1.6591797,3.8945313,5.6035156,6.6953125,9.8173828,6.9697266     c3.1083984,0.1933594,6.3320313-0.9746094,8.6855469-3.1660156c-1.5009766-1.5185547-2.1630859-3.6162109-1.6933594-5.3603516     c0.3427734-1.2958984,1.5761719-2.5517578,2.9609375-2.3320313c1.2099609,0.2021484,1.9365234,1.3876953,2.0292969,2.4560547     c0.1434517,1.8241425-1.2832756,3.9195251-2.5664063,5.2236328c2.9756203,2.6185455,11.2164955,4.7260971,17.4990273,2.3242188     c4.8403702-1.8606033,7.871048-6.0472183,8.1425781-10.1201172c-4.2093658,2.0929184-6.7505341-2.1703033-5.0439453-4.1591797     c1.429184-1.6735764,5.2990875-1.0132523,5.546875,3.2861328c3.4214554-2.3190994,5.2022705-8.0084915,2.8701172-13.921875     c-0.7890625-1.9902344-1.9707031-3.9648438-3.6132813-6.0361328c-0.2047501-0.2612305,0.1869431-0.567009,0.3925781-0.3105469     c1.6728516,2.1103516,2.8779297,4.1259766,3.6855469,6.1630859c2.4668961,6.2568359,0.5045624,12.3282776-3.3242188,14.6933594     C80.1242142,97.202507,74.3855057,103.2543106,65.5256042,103.2543106z M52.1623192,94.13517     c-0.4248047,1.5791016,0.1904297,3.4931641,1.5703125,4.8828125c1.1702538-1.1846542,2.5700455-3.1801224,2.4394531-4.8476563     c-0.0742188-0.8525391-0.6650391-1.8457031-1.6123047-2.0029297C53.4551735,91.9854584,52.451889,93.0437164,52.1623192,94.13517     z M75.0812683,87.7230606c-1.4047699,1.6372299,0.845192,5.3825684,4.6787109,3.2626953     C79.682251,86.9564362,76.2684174,86.3310089,75.0812683,87.7230606z"/><path fill="#fbd072" d="M34.1611252,89.6404343c-1.7399902,0-3.1699238-1.3798828-3.2399921-3.1098633     c0.5706253,0,2.5321255,0.6418762,5.5300312-0.4799805c0.3100586-0.0300293,0.6201172-0.0600586,0.9300537-0.0800781     C37.6511726,87.8701248,36.1503029,89.6404343,34.1611252,89.6404343z"/><path fill="#0e2365" d="M56.057827,82.456459c-0.1357422-0.0234375-0.2275391-0.1533203-0.203125-0.2890625       c1.1815796-6.8114548-1.2470551-13.635376-4.3623047-16.8007813c-2.0648155-2.1320152-0.7349358,0.9855347-0.53125-7.1816406       c0.0042343-0.1820107,0.1975975-0.2971153,0.3525391-0.2216797c1.6279297,0.7324219,3.1376953,1.8027344,4.4863281,3.1826172       c0.2311325,0.2357979-0.1254768,0.5861893-0.3574219,0.3496094c-1.2099609-1.2373047-2.5507813-2.2167969-3.9921875-2.9169922       c-0.0664635,2.0983849-0.1518936,3.3282394-0.5751953,5.5576172c3.7216873,2.928009,6.8143272,10.5173035,5.4716797,18.1171875       C56.3254051,82.3744278,56.1836739,82.4816284,56.057827,82.456459z"/><path fill="#0e2365" d="M61.0666161,84.3363419c1.1897545-5.4407806,0.6538315-11.2531204-1.515625-16.4394531       c-0.1275139-0.3037262,0.331131-0.5001831,0.4609375-0.1933594c2.2529945,5.3852539,2.732029,11.3241348,1.5429688,16.7402344       C61.4834785,84.7706451,60.9966545,84.658165,61.0666161,84.3363419z"/><path fill="#558dfd" d="M61.7812424,84.8705368c-2.1500244-2.4700928-6.4000244-3.5699463-9.3200684-1.8199463        c-3.5833855,2.1172867-3.6864548,7.9231796,1.0600586,10.5c0.2199707,0.119873,0.7700195,0.5100098,1,0.2799072        c0.2299805-0.2299805-0.1000977-0.5999756-0.2299805-0.789917c-0.6101074-0.8200684-1.0500488-1.8100586-0.9699707-2.8300781        c0.0699463-1.0200195,0.7999268-2.0200195,1.8099365-2.1799316c0.5599365-0.0900879,1.1400146,0.0899658,1.6600342,0.3299561        c2.9939766,1.3931351,3.076931,4.4497681,0.0999756,5.9400635c-0.8892593,0.4439468,3.4815979,1.856842,5.7199707-1.3400879        C64.3411789,90.5205612,63.6412277,87.0205612,61.7812424,84.8705368z M61.2612228,91.3304977        c-0.1579666,0.2839508-0.5833931,0.100647-0.4599609-0.2199707c0.8401909-1.7669296,0.2792015-3.8166656-1.1201172-4.9400635        c-0.2713356-0.2221985,0.0806618-0.5966034,0.3100586-0.3898926        C61.6167374,87.1010361,62.1668701,89.3713455,61.2612228,91.3304977z"/><path fill="#0e2365" d="M56.667202,94.4144669c-0.0634766-0.1230469-0.015625-0.2734375,0.1064453-0.3369141        c0.1553345-0.0982361,0.8714104-0.3168411,1.5039063-1.1865234c1.0505219-1.4519958,0.6239853-3.2802429-1.5957031-4.3017578        c-0.2948952-0.1371613-0.1021118-0.5867004,0.2089844-0.4550781c3.2276192,1.487381,3.2362633,4.8284988,0.1132813,6.3867188        C56.9670067,94.5404434,56.7302666,94.5377884,56.667202,94.4144669z"/><path fill="#0e2365" d="M59.5050926,94.6761856c6.2083549-1.2693939,4.7435493-11.6454468-3.2539063-12.2128906        c-0.3397102-0.0240936-0.2831459-0.5356293,0.0351563-0.4980469c2.3085594,0.1622543,4.4123077,1.281105,5.6806641,2.7431641        c3.1987724,3.685463,2.24963,9.5159912-2.3623047,10.4580078        C59.270668,95.2253647,59.1878204,94.740097,59.5050926,94.6761856z"/><path fill="#0e2365" d="M61.2736473,79.6185684c-1.5654297-0.2460938-3.1542969-0.2529297-4.7216797-0.0253906       c-0.3214417,0.0558014-0.4041901-0.4467239-0.0722656-0.4941406c1.6191406-0.2363281,3.2558594-0.2275391,4.8720703,0.0253906       C61.6721458,79.1751328,61.6086082,79.66642,61.2736473,79.6185684z"/><path fill="#0e2365" d="M55.3713036,71.6254044c1.5185547-0.7070313,3.2685547-0.96875,4.9248047-0.7265625       c0.3345337,0.0477905,0.2459602,0.5472565-0.0703125,0.4941406c-1.5673828-0.2207031-3.2128906,0.0195313-4.6435547,0.6855469       C55.2812462,72.2161255,55.0718956,71.7657547,55.3713036,71.6254044z"/><path fill="#0e2365" d="M51.4572411,64.9623184c0.9599609-1.0283203,2.2480469-1.7480469,3.6279297-2.0273438       c0.3241806-0.0643616,0.4235992,0.4244957,0.0996094,0.4902344c-1.2792969,0.2578125-2.4726563,0.9257813-3.3623047,1.8789063       C51.5994682,65.54496,51.2299881,65.2059708,51.4572411,64.9623184z"/><path fill="#0e2365" d="M32.9318504,86.9652481c-3.700119,0-7.2374077-2.3826904-9.381834-5.2958984      c-2.4351749-3.3854904-5.3413773-10.9358749-5.4892578-20.1044922      c-0.0019531-0.1376953,0.1083984-0.2519531,0.2460938-0.2539063c0.0009766,0,0.0029297,0,0.0039063,0      c0.5009575,0-0.0202312,0.0997696,0.6884766,5.8193359c0.7974491,6.2518234,3.2824078,11.9256897,4.9550781,14.2441406      c1.6378746,2.2250366,4.1855984,4.1865692,7.1650391,4.9033203c6.3068752,1.3226395,12.444334-4.6806946,15.4609356-10.3740234      c2.6757965-5.0321732,4.2393417-12.0442123,4.3808594-17.71875c0.0449219-2.1875-0.0830078-2.7119141-0.1337891-2.8320313      c-0.2364082-0.1223793-0.1422043-0.4662399,0.1230469-0.4726563c0.3378906,0.0126953,0.5732422,0.2578125,0.5107422,3.3154297      c-0.1429214,5.7907333-1.7410774,12.868187-4.4394531,17.9423828      C44.2726555,81.3263855,38.8286896,86.9652481,32.9318504,86.9652481z M50.932827,55.3802872h0.0058594H50.932827z"/><path fill="#0e2365" d="M18.4250164,54.4437637c0.0791016-0.4169922,0.15625-0.7128906,0.4257813-0.7128906      c0.2362976,0,0.3413181,0.2999992,0.1533203,0.4472656c-0.015625,0.0419922-0.0458984,0.1416016-0.0869141,0.359375      C18.8532791,54.8624649,18.3642597,54.7685699,18.4250164,54.4437637z"/><g><path fill="#0e2365" d="M40.1500931,74.530983l0.3498535-0.0100098l-0.3498535,1.6899414l-2.2399902-0.1999512v-0.0100098       c-1.3701172-0.1899414-2.1601563-2.4399414-1.960083-5.1799316c0.2199707-2.8601074,1.460083-5.1601563,2.9300537-5.1401367       c0.039917,0,0.0599365,0,0.0899658,0.0100098v-0.0100098l2.289917,0.2099609l0.0600586,0.4001465       c-0.0200195,0.0998535,0.2299805,1.1799316-0.3300781,1.619873       C41.7100296,70.1708755,41.1800003,72.8908463,40.1500931,74.530983z"/></g><g><path fill="#0e2365" d="M34.5212326,52.91045c-8.9399433-0.289917-16.0300312,0.2000732-15.8500996,1.1000977      c0.1900635,0.8898926,7.5700684,1.8099365,16.5100117,2.0500488c8.9300537,0.25,16.0500488-0.25,15.8701172-1.0900879      C50.881218,54.120533,43.4711838,53.200489,34.5212326,52.91045z M34.711174,55.0804939      c-8.0459461-0.2422905-8.2236252-1.4394722-0.2399902-1.2000732c3.3200684,0.1000977,6.0800781,0.4500732,6.1500244,0.7800293      C40.6811447,54.9805183,38.0412521,55.1704597,34.711174,55.0804939z"/></g><g><path fill="#0e2365" d="M33.510952,54.690834c-0.3124542,0-0.3391953-0.4626312-0.0292969-0.4980469       c1.5620193-0.183136,2.7514839-1.8399239,2.4248047-3.2802734c-0.8733673,0.8274002-1.9755745,0.1900024-1.6904297-0.6796875       c0.2507362-0.7494469,1.2016907-0.848587,1.7666016-0.2480469c0.28125-0.5117188,0.4179688-1.1523438,0.3691406-1.7958984       c-0.0248032-0.3179474,0.4734993-0.3832474,0.4980469-0.0371094c0.0634766,0.8398438-0.1376953,1.6494141-0.5683594,2.2998047       c0.6950073,1.5676231-0.6259575,3.9896164-2.7412109,4.2373047       C33.5304832,54.6898575,33.5207176,54.690834,33.510952,54.690834z M34.6906395,50.3900528       c-0.1260986,0.3993225,0.4612961,0.664917,0.9980469,0.0214844       C35.3988342,50.0193825,34.8333321,49.9653778,34.6906395,50.3900528z"/></g><g><path fill="#0e2365" d="M30.2609539,60.5580215c-0.3068485-0.0954666-0.1815853-0.5680962,0.1484375-0.4785156      c3.82617,1.1845703,7.9101543,1.1982422,11.4003887,1.0537109c3.5683594-0.1455078,6.5166016-0.3544922,9.2539063-1.5761719      c0.3018608-0.1333809,0.5053673,0.3211403,0.203125,0.4570313c-2.8183594,1.2568359-5.8134766,1.4707031-9.4375,1.6191406      C37.9368553,61.7923546,33.988533,61.7100449,30.2609539,60.5580215z"/></g><g><path fill="#c3d7f9" d="M38.1947098,71.0259933c-0.2127686,2.8679581,0.6707954,5.1974335,2.1472473,5.1939087       c1.4718018-0.0029373,2.9790802-2.3172455,3.1931686-5.1595078c0.2180519-2.8368301-0.9391479-5.1483002-2.4122238-5.1706085       C39.6455688,65.8673706,38.4116364,68.1636734,38.1947098,71.0259933z"/><path fill="#0e2365" d="M40.3420067,76.4701309c-0.3322182,0-0.3291092-0.5-0.0009766-0.5       c1.2177734-0.0019531,2.7265625-2.0273438,2.9453125-4.9287109c0.0241547-0.3405533,0.5232697-0.2862015,0.4980469,0.0371094       c-0.2197266,2.9189453-1.7958984,5.3886719-3.4414063,5.3916016       C40.3420067,76.4701309,40.3420067,76.4701309,40.3420067,76.4701309z"/><path fill="#558dfd" d="M39.4298668,71.0352478c-0.1150932,1.5380096,0.3929443,2.7884827,1.1861229,2.7897034       c0.7914162,0.001564,1.5685959-1.2406845,1.6838837-2.7712555c0.1163673-1.5276413-0.4726105-2.7723389-1.2643204-2.7814865       C40.242569,68.2634506,39.5458412,69.5002213,39.4298668,71.0352478z"/></g><g><path fill="#0e2365" d="M16.269743,89.5209122c-7.8560419-9.3649063-10.641449-25.9880295-1.265625-33.5751953       c0.7226563-0.5732422,1.7158203-1.2705078,3.0175781-1.5878906c2.3055534-0.5685844,4.5006733,0.3737335,5.3955078,1.6806641       c1.8954639,2.7364388-1.0005264,6.2832069-4.0634766,4.9189453c-1.1948643,0.8689919-2.4129314,2.5106659-3.0634766,4.6757813       c-1.4571362,4.804245-0.2059174,12.856163,4.359375,18.7548828c0.1997299,0.2601089-0.1920681,0.5694962-0.3964844,0.3046875       c-4.7223492-6.1526794-5.9290476-14.3009872-4.4414063-19.2041016       c0.7458324-2.4828377,2.2777386-4.3519669,3.3876953-5.0302734c0.0732422-0.046875,0.1650391-0.0507813,0.2431641-0.0117188       c1.1503906,0.5732422,2.5830078,0.2773438,3.4072266-0.7060547c0.8134766-0.9707031,0.8779297-2.3759766,0.15625-3.4179688       c-0.7770042-1.1351585-2.7584572-2.0012894-4.8652344-1.4785156c-1.2080078,0.2939453-2.1435547,0.9511719-2.8242188,1.4921875       c-9.1424637,7.3989792-6.3429203,23.6967697,1.3359375,32.8642578       C16.8668308,89.4549026,16.4776077,89.7745056,16.269743,89.5209122z"/><path fill="#558dfd" d="M24.4611721,83.4905319c-3.7700195-0.2199707-7.3699951,3.0500488-8.2099609,6.5799561        c-1.1882877,5.0503235,2.5425549,10.1158142,7.3499756,8.7200928c0.9801025-0.2900391,1.75-0.7800293,2.3800049-1.5700684        c0.1199951-0.1400146,0.2099609-0.4099121-0.0899658-0.4099121c-0.25,0-0.4901123,0.0198975-0.7401123-0.0100098        c-2.8617096-0.280899-4.4493599-2.9825668-2.2099609-5.8701172c0.3901367-0.5,0.8601074-0.9699707,1.4599609-1.1799316        c1.0700684-0.3601074,2.3000488,0.25,2.9001465,1.2099609c0.5998535,0.9599609,0.6699219,2.1600342,0.5,3.2800293        c-0.0400391,0.2600098-0.1700439,0.7900391,0.1799316,0.8898926c0.3400879,0.1000977,0.6699219-0.5599365,0.8300781-0.789917        C32.0524178,89.8531189,29.3489761,83.7492065,24.4611721,83.4905319z M20.091177,96.110527        c-1.7927513-1.354599-2.5426083-3.8317795-1.5999756-6.0599365c0.1534023-0.3068085,0.5937233-0.089592,0.4599609,0.1999512        c-0.8303967,1.9517899-0.2320251,4.1979675,1.4499512,5.4699707        C20.6563587,95.9061432,20.3620644,96.3265762,20.091177,96.110527z"/><path fill="#0e2365" d="M22.7453289,90.7767715c0.2012177-0.2636642,0.5974503,0.0429611,0.3964844,0.3046875        c-2.2196217,2.8783264-0.4390907,5.5658112,2.5478516,5.4804688l0.2041016-0.0029297h0.0009766        c0.3287582,0,0.3324566,0.4976501,0.0009766,0.5l-0.1953125,0.0029297        C22.2987385,97.1514435,20.2581501,94.0051956,22.7453289,90.7767715z"/><path fill="#0e2365" d="M16.0090008,90.0111465c0.4835377-2.0543823,1.9602356-4.2412338,4.1523438-5.5957031        c0.2853985-0.1721878,0.5430393,0.2535019,0.2636719,0.4257813c-2.0790939,1.283432-3.4738026,3.3541946-3.9296875,5.2851563        c-1.1503716,4.856369,2.3857536,9.7582703,7.0322266,8.4228516c0.3103104-0.0982285,0.4614544,0.3879013,0.1386719,0.4804688        C18.5838623,100.4975281,14.7872734,95.1616592,16.0090008,90.0111465z"/><path fill="#0e2365" d="M13.7326336,84.2298965c1.4550781-1.0771484,3.0576172-1.9267578,4.7617188-2.5253906       c0.3197384-0.1042099,0.4732952,0.3640671,0.1660156,0.4726563c-1.6572266,0.5810547-3.2158203,1.4072266-4.6308594,2.4550781       C13.7680168,84.8298111,13.4640598,84.4277878,13.7326336,84.2298965z"/><path fill="#0e2365" d="M10.5412273,75.6146622c1.5009766-1.0830078,3.3447266-1.7265625,5.1923828-1.8125       c0.3404121-0.0069046,0.3461323,0.4839783,0.0234375,0.5c-1.7519531,0.0810547-3.5,0.6914063-4.9228516,1.71875       C10.5643263,76.2128143,10.274025,75.8092041,10.5412273,75.6146622z"/><g><path fill="#0e2365" d="M15.9757977,65.722084c-1.3681641-0.4804688-2.8896484-0.5205078-4.28125-0.1162109       c-0.3172913,0.0926361-0.4580231-0.3864288-0.140625-0.4804688c1.4912109-0.4326172,3.1201172-0.3896484,4.5878906,0.1240234       C16.4474735,65.3574448,16.298172,65.8256989,15.9757977,65.722084z"/></g><g><path fill="#0e2365" d="M19.1925945,60.6654434c0.0507813-0.8339844-0.3193359-1.6796875-0.9638672-2.2089844       c-0.2576809-0.2108307,0.0642185-0.5968781,0.3164063-0.3867188c0.7666016,0.6289063,1.2060547,1.6347656,1.1474609,2.625       C19.6705379,61.0280495,19.1737938,60.9967995,19.1925945,60.6654434z"/></g></g><g><path fill="#0e2365" d="M16.4172039,26.5785275c2.8874187-13.5813465,17.3972454-20.2197533,27.7851543-11.4394531        c2.9814453,2.5205078,5.1425781,5.9316406,6.2490234,9.8642578c0.0901756,0.3144455-0.3928833,0.4590569-0.4804688,0.1347656        c-1.0800781-3.8359375-3.1855469-7.1611328-6.0908203-9.6162109        c-10.1206169-8.5546188-24.17202-2.0125933-26.9746075,11.1601563        C16.8384418,27.0065308,16.3471203,26.9009151,16.4172039,26.5785275z"/><path fill="#0e2365" d="M15.2521648,45.3480606c-0.8603516-0.5683594-1.2509766-1.2050781-1.1591797-1.890625        l0.5205078-3.8701172c0.0441465-0.3276176,0.5405655-0.2612839,0.4960938,0.0664063l-0.5205078,3.8701172        c-0.0644531,0.4794922,0.2519531,0.953125,0.9384766,1.4072266c6.2688904,4.1398735,36.8741531,4.0464211,36.484375-0.5195313        l-0.6298828-7.2890625c-0.0273094-0.3209267,0.4686317-0.3861694,0.4980469-0.0429688l0.6298828,7.2890625        C52.9787064,49.876133,21.2768326,49.3280869,15.2521648,45.3480606z"/><path fill="#0e2365" d="M38.4445457,33.518959c-0.3165092,0-0.3385391-0.4719582-0.0205078-0.4990234l9.3398438-0.7753906         c0.3311729-0.0287018,0.3705635,0.4699974,0.0410156,0.4980469l-9.3398438,0.7753906         C38.4582176,33.518959,38.4513817,33.518959,38.4445457,33.518959z"/><path fill="#0e2365" d="M50.881218,37.5605965l0.0799561,1c-0.269249,0.0238457-2.8578682,0.2530899-2.7099609,0.2399902        c-2.6099854-0.0600586-4.9599609-3.3400879-5.2399902-7.3300762        c-0.2700195-3.8900146,1.5300293-7.0100098,4.0400391-7.0900879v-0.0198975        c0.1013336-0.0090733,2.5785675-0.2301025,2.6799316-0.2301025l0.1199951,1.4101563        c0.2999268,0.2799072,0.5799561,0.5998535,0.8399658,0.9599609C50.6611252,26.49053,50.6412277,26.49053,50.6111984,26.49053        c-1.5699463-0.0400391-2.710083,1.8699951-2.539917,4.2700195c0.1870384,2.8070469,2.2148476,5.2399693,4.119873,4.1599102        C51.9211349,35.9805183,51.4711838,36.8904305,50.881218,37.5605965z"/><path fill="#558dfd" d="M55.1911545,31.4404812c-0.2700195-3.9799805-2.619873-7.2600098-5.2299805-7.3199463        c-3.1079483,0-4.457325,3.8648834-4.2299805,7.0999756c0.2800293,3.9799786,2.6099854,7.2600079,5.2299805,7.340086h0.0100098        C53.5812912,38.620533,55.4711838,35.4404793,55.1911545,31.4404812z M52.1911545,34.9204597        c-0.2999268,0.1700439-0.6298828,0.2600098-0.9799805,0.25c-1.5699463-0.0400391-2.9799805-2.0100098-3.1398926-4.4099102        c-0.170166-2.4000244,0.9699707-4.3100586,2.539917-4.2700195c0.0300293,0,0.0499268,0,0.0799561,0.0100098        c1.5400391,0.0999756,2.9000244,2.0400391,3.0700684,4.3898926        C53.881218,32.7605476,53.2311935,34.3304939,52.1911545,34.9204597z"/><path fill="#0e2365" d="M35.5812912,36.5704842c0.0299072,0.6199951,0.0299072,1.0200195,0.0299072,1.0200195          c-0.1283722,0,0.532299,0.0256119-1.6400146-0.0699463c-0.2171402,0.0501595-0.3726387,0.0047302-0.6099854-0.0200195          v-0.0100098c-1.5899677-0.3200684-2.8099384-2.4899902-2.7500019-4.9799805          c0.0499268-2.340086,1.2200928-4.1600323,2.6800556-4.3100567c0.1499023-0.0200195,0.2999268-0.0200195,0.4499512,0          c0.0317497,0.0158749,1.9689026,0.0608253,1.9399414,0.0600586c0,0-0.0998535,0.619873-0.1699219,1.0500488          c0.1099854,0.1398926,0.2099609,0.2799072,0.3000488,0.4399414          c-1.0700684-0.1201172-1.9500732,1.1099854-1.9799805,2.7399883          c-0.0400391,1.6398926,0.7999268,3.0600586,1.8598633,3.1899414          c0.1600342,0.0200195,0.3100586,0.0100098,0.4500732-0.0300293          C35.9912033,36.0005379,35.8012619,36.3105965,35.5812912,36.5704842z"/><path fill="#558dfd" d="M35.6811447,28.2505398c-2.0332146-0.1566944-3.0880775,2.2609959-3.1398926,4.3100567         c-0.0500488,2.579834,1.2600098,4.829834,2.9299316,5.0198975c1.2413597,0.2482758,3.0664978-1.2413445,3.1400146-4.3199463         C38.6611252,30.6904812,37.3511887,28.4404812,35.6811447,28.2505398z M35.6911545,35.6804695         c-1.0599365-0.1298828-1.8999023-1.5500488-1.8598633-3.1899414c0.0299072-1.630003,0.9099121-2.8601055,1.9799805-2.7399883         h0.0100098c1.0599365,0.1199951,1.8999023,1.5500488,1.8598633,3.1799297         C37.6433868,34.2547379,36.9194679,35.8341293,35.6911545,35.6804695z"/><path fill="#0e2365" d="M22.4811916,33.0804939c-0.0899658,3.710083-2.0700684,6.6700439-4.4499512,6.6099854        c-0.0806198,0-3.4171047-0.1699219-3.8000479-0.1699219l-0.3399658-1.5700684l0.2799072-0.7700195        c0.8431244,0.2299461,1.4611454-0.4605293,1.7800293-1.2700195c0.8744879-2.2681313-0.3967819-5.2115192-1.9199219-4.4499493        c0.0699463-0.3900146,0.1499023-0.7600098,0.25-1.1199951c-0.1004543,0,0.1960468-2.0276432,0.2099609-2.1300049        c0.5191622-0.3307438,1.0317621,0.1524315,1.3900146,0.6500244c1.1541948,1.5503502,1.8516054,4.1741505,1.2600088,7.4400616        c-0.0477695,0.3099327,0.4240932,0.4187737,0.5,0.0898438c0.4541836-2.6159821,0.2454967-5.6891899-1.3599854-7.8298321        c-0.5600576-0.7600098-1.1500235-1.0700684-1.70996-0.920166c0.1098633-0.7799072,0.1999512-1.4199219,0.1999512-1.4199219        c0.1026669,0.0019398,3.3893633,0.0640144,3.1799307,0.0600586        C21.0466766,26.059267,22.5614262,29.9188976,22.4811916,33.0804939z"/><path fill="#fbd072" d="M15.6811438,26.24053c-0.2649078-0.0530682-0.5292587-0.0708561-0.9099121-0.0200195         c-2.1700439,0.3100586-3.9200439,3.1199951-4,6.590086c-0.0800781,3.3398438,1.4199219,6.1499023,3.4599609,6.7099609         c0.0100098,0,0.0100098,0,0.0200195,0c0.4186306,0.1195068,0.8853912,0.124382,1.2199707,0.0499268         c2.1101065-0.3900146,3.8000479-3.1500244,3.8800039-6.5599365         C19.4311428,29.5405788,17.8212795,26.6504421,15.6811438,26.24053z M17.1412258,36.3005867         c0.5905418-3.2600822-0.1033688-5.8864269-1.2600088-7.4400616         c-0.6891489-0.9571896-1.3044424-1.0299377-1.9899902-0.0699463         c-1.8977184,2.6302929-1.116066,7.6474934,0.4599609,7.8999004c0.5389681,0.1348801,0.9282722-0.4454041,1.1300049-0.9599609         c0.9242029-2.3802338-0.7759075-4.9062748-1.5400391-3.4799805c-0.0100098,0-0.0100098,0.0100098-0.0100098,0.0100098         c-0.1699219,0.3299561-0.1899414,0.8000488-0.0499268,1.1699219c0.1236296,0.2974396-0.340867,0.489727-0.460083,0.1800537         c-0.4307289-1.0770836,0.2229958-2.4322834,1.2700195-2.2499981c0.5200195,0.0899658,1,0.6099854,1.2800293,1.380003         c0.3601065,0.9899902,0.3500967,2.2099609-0.0200195,3.1699219c-0.2605181,0.6613274-0.744956,1.3100586-1.4599609,1.3100586         c-2.2727394,0-3.1089449-5.8179855-1-8.7199688c1.7915926-2.5285511,3.8134451,0.8544731,4.2399893,3.7800274         c0.1999512,1.289917,0.1600342,2.6699219-0.0899658,4.1098633         C17.5659599,36.7165833,17.093132,36.6126213,17.1412258,36.3005867z"/><path fill="#0e2365" d="M14.9006023,39.8685684c-0.0019531,0-0.0039063,0-0.0058594,0        c-4.0628614-0.0965843-5.8473272-7.6357536-2.9648438-11.9189472c1.0063734-1.494381,2.2576542-2.0492249,3.2929688-2.0078125        c0.3249292,0.0069141,0.323019,0.5-0.0058594,0.5c-0.0214844,0.0009766-0.0439453-0.0009766-0.0654297-0.0009766        c-1.0351563,0-2.0292969,0.6328125-2.8066406,1.7880859c-2.6981754,4.0068722-1.0030432,11.0572872,2.5615234,11.1396503        C15.231391,39.3754807,15.2294807,39.8685684,14.9006023,39.8685684z"/><path fill="#0e2365" d="M40.7746239,27.1947384c-1.569725-14.8734713-7.7366486-15.213933-7.1318359-16.1289063        c0.0761719-0.1152344,0.2304688-0.1455078,0.3466797-0.0693359c4.0371094,2.6845703,6.4189453,7.9658203,7.2832031,16.1455078        C41.3058281,27.4759102,40.8097153,27.5230846,40.7746239,27.1947384z"/><path fill="#0e2365" d="M33.9757957,14.4789181c-0.3994598-0.2776251-0.4084473-0.8208017,0.0224609-1.0810547        c0.2872162-0.1695042,0.5395317,0.2597256,0.2578125,0.4296875c-0.1640396,0.0931044-0.0488777,0.2792606,0.1230469,0.2568359        c-0.0449219-0.1025391-0.0234375-0.2314453,0.0654297-0.3027344c0.3095398-0.2504454,0.644928,0.3182955,0.3544922,0.6279297        C34.6896629,14.5267696,34.2103767,14.6464758,33.9757957,14.4789181z"/><path fill="#0e2365" d="M37.3048973,23.157629c0.0078125-0.2099609,0.125-0.3984375,0.3232422-0.5166016        c0.2843132-0.1682167,0.5399933,0.2596741,0.2558594,0.4296875c-0.1158371,0.0675716-0.0968094,0.1690578,0.0078125,0.2412109        c0.0224609,0.0175781,0.0742188,0.0185547,0.1162109,0.015625c-0.0449219-0.1035156-0.0234375-0.2324219,0.0654297-0.3037109        c0.3077278-0.2517757,0.6465416,0.3190689,0.3535156,0.6289063        C38.0592613,24.0469532,37.283268,23.7579308,37.3048973,23.157629z"/><path fill="#0e2365" d="M33.9367332,11.5199337c-1.3365211-1.6170263-2.9505272-3.1343212-5.0439434-3.3515625        c-0.4550781-0.0488281-0.8164063-0.0039063-1.0898438,0.1318359c0.2926998,0.4713345,0.6045551,1.1965189,0.171875,1.546875        c-0.2646484,0.2167969-0.6416016,0.1162109-0.8574219-0.0878906        c-0.4258575-0.4014063-0.3673134-1.0980902,0.0009766-1.5498047        c-0.8617249-1.0013828-2.2575722-1.2245493-3.3574219-0.6572266c-1.2171631,0.628499-1.7874813,1.9815035-2.1845703,3.2929688        c-0.0964222,0.3122215-0.5751019,0.1734991-0.4785156-0.1445313c0.4396133-1.4548044,1.0779915-2.8941889,2.4345703-3.5927734        c1.2979984-0.6694946,2.9459534-0.4121518,3.9726563,0.7841797c1.1908398-0.6692576,3.2685947,0.1384134,4.4912109,1.0263672        c0.9716778,0.7050781,1.7539043,1.5908203,2.3251934,2.2832031        C34.5321426,11.4566851,34.1460991,11.7753572,33.9367332,11.5199337z M27.425993,8.6429806        c-0.1340218,0.2387257-0.1623039,0.5678463,0.0341797,0.7519531c0.0712891,0.0673828,0.1748047,0.0839844,0.2001953,0.0634766        C27.7886753,9.3543768,27.5087528,8.7871418,27.425993,8.6429806z"/><path fill="#01b990" d="M22.6511135,10.1904812c-0.7999268-1.0600586-2.289917-1.2800293-3.3498535-0.4799805         c-1.0600586,0.7900391-1.2800293,2.3000488-0.4799805,3.3599854c0.789917,1.0500488,2.2999268,1.2600098,3.3598633,0.460083         C23.2412014,12.74053,23.4411526,11.24053,22.6511135,10.1904812z M19.7211819,12.9805202         c-0.4599609-0.3699951-0.6999512-0.9699707-0.6099854-1.5600586c0.049099-0.3185425,0.5621204-0.2321901,0.4899902,0.0800781         c-0.0599365,0.3999023,0.1099854,0.8299561,0.4300537,1.0799561         C20.263052,12.7490149,20.0401897,13.1719246,19.7211819,12.9805202z"/><path fill="#0e2365" d="M21.3781414,31.8226681c1.546875-1.0458984,3.2578125-2.3154297,3.9892578-4.1386719        c1.1881542-2.9581547-0.3271809-7.0091953-4.9960938-9.0029297c-0.3010426-0.1273632-0.1113834-0.5895672,0.1972656-0.4589844        c4.8961277,2.0920734,6.558279,6.4197121,5.2636719,9.6474609c-0.7851563,1.9550781-2.5664063,3.2792969-4.1748047,4.3671894        C21.3836536,32.4234009,21.1038265,32.006321,21.3781414,31.8226681z"/><path fill="#0e2365" d="M24.3966961,15.8968868c-0.3199062-0.1098185-0.1382523-0.5852919,0.1621094-0.4726563        c5.9492188,2.0419922,12.6210918,1.6669922,18.3027325-1.0322266        c0.3042221-0.1404085,0.5105438,0.3125629,0.2148438,0.4511719        C37.3905869,17.5443459,30.5835953,18.0215149,24.3966961,15.8968868z"/><g><path fill="#0e2365" d="M36.2170067,19.6908321c-0.3997421-0.2818184-0.4076653-0.8222523,0.0224609-1.0820313         c0.2895737-0.16852,0.5381622,0.2605515,0.2578125,0.4296875c-0.1162796,0.0659981-0.0987701,0.1672001,0.0068359,0.2431641         c0.0244141,0.015625,0.0742188,0.0175781,0.1162109,0.0146484c-0.1211128-0.2852879,0.240078-0.4866543,0.4082031-0.2792969         c0.1972656,0.2431641,0.1298828,0.4775391,0.0126953,0.6035156         C36.8516312,19.8237782,36.4594994,19.8601189,36.2170067,19.6908321z"/></g><g><path fill="#0e2365" d="M38.4982567,42.2806778c-0.2305984-0.2329102,0.1191521-0.587883,0.3554688-0.3515625       c1.7045021,1.7313576,4.5927963,1.4830284,5.9658203-0.5390625c0.1885643-0.2746964,0.5984497,0.0081711,0.4140625,0.28125       C43.6862411,43.9467201,40.4289436,44.2436142,38.4982567,42.2806778z"/></g><g><path fill="#0e2365" d="M37.1877098,42.6380997c0.7695313-0.4716797,1.4306641-1.1259766,1.9130859-1.8925781       c0.1774292-0.2765083,0.5998268-0.014019,0.4238281,0.2675781c-0.5234375,0.8300781-1.2412109,1.5390625-2.0751953,2.0507813       C37.1682053,43.2379723,36.9061966,42.8116989,37.1877098,42.6380997z"/></g><g><path fill="#0e2365" d="M46.2638817,42.4515762c-0.8007813-0.5966797-1.4873047-1.3203125-2.0419922-2.1523438       c-0.1834106-0.2774734,0.2338638-0.5517273,0.4160156-0.2773438c0.5224609,0.7841797,1.1699219,1.4667969,1.9248047,2.0292969       C46.8270683,42.2476959,46.5310326,42.6490326,46.2638817,42.4515762z"/></g></g><g><path fill="#558dfd" d="M101.3012619,32.4905281C72.68116,24.5667763,41.2813835,21.8878689,11.4711828,22.4605007       C10.3212805,22.49053,9.381217,23.6205349,9.4011145,24.99053c0.25,16.3100567,2.0600586,32.6799316,5.4400635,48.8800049       c0.3000488,1.4200439,1.4600821,2.4799805,2.5200186,2.3199463       c25.9396229-3.9689331,53.5223083-7.2203674,79.8199463-8.8699951c1.0100098-0.0599365,1.8100586-1.039917,1.8701172-2.25       c0.4799805-10.0899696,1.6398926-20.1900673,3.4799805-30.2299843       C102.7311935,33.7305183,102.2211838,32.7405281,101.3012619,32.4905281z M86.0012131,41.2905769       c-0.1000977,0.9299316-0.7099609,1.6999512-1.3900146,1.7199707c-0.210083,2.5-0.4000244,5.0200195-0.5299072,7.5300293       c-0.0100098,0.1398926-0.1201172,0.2399902-0.25,0.2399902l-7.2401123,0.0100098       c-1.0499268,3.289917-2.9000244,5.6799316-5.0799561,6.4199219c0.0899658,0.0400391,0.1499023,0.1099854,0.1499023,0.2099609       c0.0100098,1.1500244,0.0300293,2.3100586,0.0500488,3.4699707c1.3913345,0.562088,1.1422653,3.4397392-0.2399902,3.4600868       c-1.5092087,0.0222168-1.8077011-3.190464-0.2600098-3.5000038c-0.0660477-3.7942009-0.0705032-3.452919,0.0100098-3.5599365       c-3.6099243,1.0300598-6.3527756-2.5672455-7.4499512-6.25l-6.9000244,0.0100098       c0.0200195,3.6398926,0.1400146,7.3398438,0.3299561,11c1.4743462,0.4394646,1.3729134,3.4924355-0.0500488,3.529911       c-0.6699219,0.0100098-1.2799072-0.789917-1.3498535-1.7699013c-0.0351868-0.7031441,0.2480774-1.5426521,0.8399658-1.7401123       c0.0198975-0.0198975,0.039917-0.0198975,0.0599365-0.0299072c-0.1899414-3.7399902-0.3099365-7.5100098-0.3299561-11.2399902       c0-0.1477623,0.1022415-0.25,0.25-0.25l7.0100098-0.0100098c-0.8914642-3.5658455-0.6601601-6.9993477,0.4300537-10.0400391       l-8.3500977-0.0600586c-0.0500488,0.9699707-0.6398926,1.7600098-1.3399658,1.7399902       c-0.710083,0-1.2700195-0.8000488-1.2399902-1.7900391c0.0299072-0.9899902,0.6500244-1.789917,1.3599854-1.789917       c0.5999756,0.0100098,1.0700684,0.5799561,1.1799316,1.3399658c11.3220215,0.0925713,7.9096947,0.0700684,8.5800781,0.0700684       c1.1827545-2.9501572,3.5748672-5.9499512,6.75-5.9499512h0.0600586c1.1796875,0.026516,2.6143188,0.5929527,3.6799316,1.75       c0.1500244,0.1599121,0.2900391,0.3498535,0.4299316,0.5299072c0.1401367-1.5899658,0.3000488-3.2199707,0.4899902-4.8399639       c0.0100098-0.1201172,0.1201172-0.2199707,0.2399902-0.2199707c0.0100098,0,0.0100098,0,0.0100098,0l5.1800537,0.0799561       c0.2000732-0.8499756,0.8199463-1.4899902,1.4901123-1.4801025c0.7099609,0.0100098,1.1999512,0.8000488,1.079834,1.7600098       c-0.119873,0.9700909-0.7999268,1.7399883-1.5100098,1.7301006c-0.6699219-0.0100098-1.1298828-0.6700439-1.119873-1.5100079       l-4.9000244-0.0799561c-0.573822,5.0986385-0.3816757,4.8671741-0.6600342,4.959959       c2.4647446,3.6060562,2.488884,9.3033485,1.2800293,13.5500488l6.8399658-0.0100098       c0.1300049-2.4699707,0.3199463-4.9500732,0.5300293-7.4100342c-0.460083-0.25-0.7600098-0.8699951-0.6900635-1.5999756       c0.0800781-0.9599609,0.7299805-1.75,1.4400635-1.7399902C85.5812912,39.5305672,86.0812912,40.3304939,86.0012131,41.2905769z        M74.381218,36.1504402c-1.000206-1.0625839-2.294426-1.5648651-3.3299561-1.5898438h-0.0600586       c-4.532341,0-7.2805557,6.3018608-7.4000244,11.1899414c-0.1806107,4.8919067,2.3227463,11.8088989,7.1500244,11.1499023       C76.8014526,55.7903061,79.4011612,41.5731239,74.381218,36.1504402z M74.461174,45.7705574       c-0.1899414,3.7800293-2.0799561,6.8499756-4.3599854,6.8499756c-2.2600098,0.0098877-4.1099854-3.0699463-3.9799805-6.8699951       c0.1199951-3.8100586,2.2299805-6.8800049,4.5599365-6.8601074       C73.0312424,38.9204597,74.6611252,41.9905281,74.461174,45.7705574z" opacity=".25"/><path fill="#0e2365" d="M98.7082214,67.2035294c0.4179688-10.9521484,1.6513672-22.0205078,3.6660156-32.8984375       c0.1279297-0.6933594-0.1816406-1.3085938-0.7353516-1.4628906       C57.1564865,20.4450054,9.2775288,22.7580109,9.3800945,22.7611446c-0.3267403,0-0.3333244-0.4907761-0.0058594-0.5       c30.3131428-0.743021,62.8402405,1.8622341,92.3994141,10.0986347       c0.8085938,0.2265625,1.2685547,1.0820313,1.0927734,2.0361328       c-2.0107422,10.8544922-3.2421875,21.8984375-3.6582031,32.8271484       C99.1962204,67.5542297,98.6964569,67.5376282,98.7082214,67.2035294z"/><path fill="#0e2365" d="M96.6574402,60.1361465c0.8057175-12.8255653,2.4425278-21.5226059,2.8447266-24.3291016       c0.0551987-0.3336258,0.5477142-0.2376251,0.4921875,0.0839844       c-0.2342224,1.6349678-2.0081253,11.0815849-2.8388672,24.2763672       C97.1358185,60.5017357,96.6363907,60.4658661,96.6574402,60.1361465z"/></g><g><path fill="#558dfd" d="M68.2703247,25.7072334c3.3740692,0.474596,6.655304,1.0008335,9.8332596,1.5682583       C74.9152985,26.7080669,71.6340637,26.1818295,68.2703247,25.7072334z" opacity=".25"/><path fill="#0e2365" d="M98.7062683,67.2074356c0.3650055-5.5268669,0.3988495-14.8526382,3.6669922-32.8984375       c0.1328125-0.7041016-0.171875-1.3076172-0.7402344-1.46875c-1.469986-0.3499107-14.1977005-4.1757298-33.3974609-6.8857441       c-30.112587-4.40308-59.7115784-3.2037621-58.8515625-3.1962891c-0.3256941,0-0.3340273-0.4907837-0.0068359-0.5       c20.4032269-0.5954857,43.1180038,0.8734474,58.9296875,3.2021484       c18.6729279,2.6325035,30.5087433,6.1961308,33.4560547,6.8974628c0.8203125,0.2324219,1.28125,1.0908203,1.1025391,2.0419922       c-3.1343079,17.244854-3.2374878,26.4039879-3.6591797,32.8271484       C99.1917953,67.559761,98.6944809,67.5398865,98.7062683,67.2074356z"/><path fill="#0e2365" d="M96.6574402,60.1361465c0.8057175-12.8255653,2.4425278-21.5226059,2.8447266-24.3291016       c0.0551987-0.3336258,0.5477142-0.2376251,0.4921875,0.0839844       c-0.2342224,1.6349678-2.0081253,11.0815849-2.8388672,24.2763672       C97.1358185,60.5017357,96.6363907,60.4658661,96.6574402,60.1361465z"/></g><g><path fill="#fbd072" d="M78.8567963,72.0977707c-1.7438431,0-3.1676331-1.3722763-3.2399292-3.1056595     c2.1977768-0.1961136,4.3439178-0.3922272,6.459198-0.5572281C82.3603134,70.279068,80.8725052,72.0977707,78.8567963,72.0977707     z"/></g><g><path fill="#0e2365" d="M90.0265808,25.7865353c2.7251282-8.2315674,2.9583435-8.469717,2.7734375-8.6572266     c-0.1015625-0.1064453-0.3916016,0.0322266-0.6113281,0.2177734c-2.0576172,1.7236328-4.0615234,3.5742188-5.9560547,5.5     c-0.9043961,0.91889-1.8568649,0.8744221-2.0380859-0.4355469l-1.0683594-7.7558594     c-0.8886719,2.0107422-1.296875,4.2109375-1.1835938,6.4130859c0.0618973,1.2875671-0.532814,1.6732616-1.5097656,1.2724609     l-4.7304688-1.9482422l2.7724609,2.7900391c0.2338943,0.2362633-0.1255035,0.5861797-0.3554688,0.3515625l-3.6464844-3.6679688     c-0.1930161-0.1975536,0.0264893-0.5097523,0.2724609-0.4082031l5.8769531,2.4199219     c1.9296417,0.7898083-0.5702286-2.3929996,2.4150391-8.1972656c0.1166382-0.2198277,0.4364243-0.1577187,0.4707031,0.0800781     l1.1826172,8.5820313c0.1174393,0.8661461,0.5763397,0.7734222,1.1865234,0.1523438     c1.9052734-1.9365234,3.9208984-3.7978516,5.9902344-5.53125c0.9128189-0.7690697,1.7483749-0.2681751,1.3769531,0.8232422     l-2.7431641,8.1591797C90.3963165,26.2584019,89.9205246,26.1023521,90.0265808,25.7865353z"/></g><g><path fill="#0e2365" d="M87.4425964,14.945715l1.2871094-3.1796875c0.1212692-0.3078442,0.5870667-0.1194305,0.4628906,0.1875     l-1.2871094,3.1796875C87.7829285,15.4396124,87.3183746,15.2527447,87.4425964,14.945715z"/></g><g><path fill="#0e2365" d="M77.8937683,17.7484493l-1.875-3.2900391c-0.1637192-0.2876768,0.2705688-0.536829,0.4335938-0.2480469     l1.875,3.2900391C78.4928818,17.7912502,78.0550156,18.033205,77.8937683,17.7484493z"/></g><g><path fill="#0e2365" d="M89.5285339,90.0209122c2.8496094-3.5605469,3.4140625-8.7041016,1.40625-12.7978516     c-0.1453323-0.297699,0.3012543-0.5166321,0.4492188-0.2207031c2.0917969,4.2646484,1.5029297,9.6220703-1.4648438,13.3310547     C89.7100677,90.5916977,89.3227921,90.2780838,89.5285339,90.0209122z"/></g><g><path fill="#0e2365" d="M96.2795105,84.2670059c0.4589844-1.4804688,0.3740234-3.1474609-0.234375-4.5742188     c-0.1293945-0.3058319,0.3323975-0.4960098,0.4609375-0.1953125c0.6523438,1.5332031,0.7441406,3.3261719,0.2519531,4.9179688     C96.6610031,84.7293243,96.1827087,84.5857239,96.2795105,84.2670059z"/></g><g><path fill="#0e2365" d="M10.6242352,95.0912247c-2.1584721,0.1555634-4.5889316-3.9030151-3.0361328-7.6337891     c0.1262469-0.308609,0.5889025-0.1110611,0.4609375,0.1914063c-1.42871,3.4363708,0.8359585,7.119606,2.5585938,6.9414063     c0.0620241-1.5900726,1.591239-1.6480484,1.640625-1.1640625c0.0713739,0.7137451-0.4637547,1.3209534-1.1308594,1.5595703     c0.231492,3.0606079,2.8360701,5.4261551,5.8945313,5.3515625c0.0009766,0,0.0029297,0,0.0048828,0     c0.3272057,0,0.3330212,0.4930649,0.0048828,0.5C13.7263336,100.9139557,10.911437,98.3909531,10.6242352,95.0912247z      M11.7463055,93.6634903c-0.265234,0.0225449-0.559227,0.256752-0.625,0.7763672     C11.4283686,94.2826385,11.6962643,94.0034256,11.7463055,93.6634903z"/></g><g opacity=".25"><path fill="#01b990" d="M74.381218,36.1504402c-1.000206-1.0625839-2.294426-1.5648651-3.3299561-1.5898438h-0.0600586     c-4.532341,0-7.2805557,6.3018608-7.4000244,11.1899414c-0.1806107,4.8919067,2.3227463,11.8088989,7.1500244,11.1499023     C76.8014526,55.7903061,79.4011612,41.5731239,74.381218,36.1504402z M74.461174,45.7705574     c-0.1899414,3.7800293-2.0799561,6.8499756-4.3599854,6.8499756c-2.2600098,0.0098877-4.1099854-3.0699463-3.9799805-6.8699951     c0.1199951-3.8100586,2.2299805-6.8800049,4.5599365-6.8601074     C73.0312424,38.9204597,74.6611252,41.9905281,74.461174,45.7705574z"/></g></svg>