<svg xmlns="http://www.w3.org/2000/svg" enable-background="new 0 0 110 110" viewBox="0 0 110 110" width="110" height="110"><path fill="#0e2365" d="M38.1919975,92.3749619c-5.7315063,2.2474518-12.0395641-2.7833176-14.4912128-8.7646484     c-0.125782-0.307991,0.339962-0.4932938,0.4628906-0.1894531c2.294096,5.5987473,8.175951,10.4717941,13.5898457,8.5839844     c-4.6584167-4.134613-1.5307999-8.8362732,1.425293-8.4960938c1.3022461,0.1445313,2.4672852,1.2109375,2.8330078,2.59375     c0.5524254,2.1045685-0.605732,4.7173462-3.3027344,6.0439453c5.5192299,4.239212,15.2661324,4.0349655,19.1464844-1.5742188     c-1.6114311-0.7985611-3.3496399-2.0531845-3.8774414-3.78125c-0.3686523-1.2451172,0.0239258-2.890625,1.3183594-3.4921875     c1.7097588-0.8236847,4.0315742,0.5226746,4.2099609,3.453125c0.0742188,1.2441406-0.2358398,2.4570313-0.9208984,3.609375     c7.6065788,3.3262405,15.4850197-2.001236,16.1860313-8.4150391c-6.4619904,0.3814468-6.3912048-5.4400635-3.7119141-6.1318359     c1.9289322-0.5005493,4.3946838,1.7687073,4.2529297,5.5869141c4.9404297-0.5644531,9.3413086-4.4267578,10.5029297-9.2773438     c0.9643097-4.0017319-0.3419571-8.31073-3.0922852-11.2861328c-0.2237854-0.2424393,0.1408463-0.5815964,0.3671875-0.3398438     c2.8242111,3.0597878,4.2275848,7.526207,3.2114258,11.7431641c-1.2148438,5.0712891-5.8310547,9.1054688-11.0234375,9.6660156     c-0.6730423,6.8363876-9.0190735,12.4128723-16.9643517,8.8808594     C54.259243,96.7792587,43.8448067,96.9856339,38.1919975,92.3749619z M38.277935,91.7968369     c2.6195831-1.1808548,3.7580566-3.6317825,3.2504883-5.5673828c-0.3139648-1.1865234-1.3032227-2.1015625-2.40625-2.2246094     C36.4947014,83.7176895,33.7992783,88.0198669,38.277935,91.7968369z M55.5108452,83.7509384     c-1.0395508,0.4824219-1.3554688,1.8789063-1.0537109,2.8955078c0.48563,1.5913925,2.1839714,2.7747192,3.671875,3.5039063     c0.6518555-1.0800781,0.9472656-2.2119141,0.878418-3.3681641C58.8495102,84.1996536,56.891243,83.0830002,55.5108452,83.7509384     z M71.1851578,76.29879c-2.1261902,0.5467758-2.2485123,5.5531616,3.625,5.1445313     C74.9689865,77.9346237,72.784584,75.8829422,71.1851578,76.29879z"/><path fill="#01b990" d="M26.9778061,84.0125732c0,1.5467987-1.2434902,2.8055649-2.7901955,2.8055649     c-1.5467968,0-2.8054676-1.2587662-2.8054676-2.8055649c0-1.5467911,1.2586708-2.7901917,2.8054676-2.7901917     C25.7343159,81.2223816,26.9778061,82.4657822,26.9778061,84.0125732z"/><path fill="#01b990" d="M85.607193,60.7888794c-0.8908615,2.6722755-4.71595,2.4938087-5.3804855-0.2308578L85.607193,60.7888794z"/><path fill="#0e2365" d="M10.490983,78.8577194c-0.5403528-0.5895233-1.3748169-1.6395645-1.8871956-2.3490372      C7.5999627,76.8901443,6.9775968,78.074707,7.007741,79.178894c0.0583096,2.3931961,2.7934065,5.1734467,4.5372448,6.9966278      c0.823144,0.8532257,1.6563349,1.7065735,2.7002907,2.2686539c2.144433,1.1448975,4.3834143,0.5094147,5.2801275-1.9173431      C18.707962,85.9503708,14.3950615,83.4064713,10.490983,78.8577194z M10.7921181,80.9154892      c-1.5302019,1.5209732-1.5295305,1.646286-1.7165012,1.646286c-0.2387829,0-0.3360586-0.2764816-0.1806812-0.431572      l1.53582-1.5660248c0.100419-0.1004868,0.2610044-0.1004868,0.3613625-0.0100479      C10.8824892,80.6544876,10.8925371,80.8151321,10.7921181,80.9154892z M14.1248226,84.0675125      c-1.9161673,1.6806259-1.9159269,2.0745773-2.2385092,1.8169861c-0.100358-0.1004868-0.1104059-0.2610092-0.0100479-0.3614883      c0.6023312-0.6322937,1.2547808-1.2547836,1.9173393-1.8269043      C14.0493031,83.4869461,14.3727474,83.8442459,14.1248226,84.0675125z M17.1062126,86.5268326      c-0.6909752,1.0101929-0.4926186,1.4154282-0.8432388,1.4154282c-0.1896362,0-0.2866592-0.1725311-0.2409077-0.321167      c0.1505985-0.4918671,0.3814583-0.9535828,0.6725445-1.3753586      C16.8758068,85.9742889,17.3023663,86.257515,17.1062126,86.5268326z"/><path fill="#0e2365" d="M16.3145542,89.2401962c-2.0602741,0-3.5369501-1.4273834-4.949707-2.890625     c-2.1452808-2.243454-5.7498999-5.9185867-4.277832-8.6787109l-0.0014648-0.0009766     c0.3865342-0.7572937,0.9454889-1.1991501,1.1606445-1.2685547c0.604351-0.4210129,0.7777395,0.2413635,0.4296875,0.3466797     c-0.0717773,0.0214844-0.144043,0.0605469-0.2304688,0.109375L8.232523,76.689415l0.1391602,0.2080078     c-0.6228189,0.4177017-1.1137695,1.2615814-1.1137695,2.1914063v0.0898438     c0.0563045,2.3112488,2.8469067,5.1290665,4.4677734,6.8242188c0.7524414,0.7802734,1.605957,1.6650391,2.6381836,2.2216797     c1.0878906,0.578125,2.2729492,0.6787109,3.1694336,0.2636719c0.3004761-0.138504,0.510107,0.3153152,0.2099609,0.453125     C17.310648,89.1415634,16.8238316,89.2401962,16.3145542,89.2401962z"/><path fill="#0e2365" d="M95.364357,61.4608994c-46.742775-2.1259575-44.4393539-1.6670418-44.4184532-2.1582031       c0.0207672-0.4880905-2.5569496-0.2412796,44.4394493,1.6582031c1.3408203,0.0527344,2.4853516-0.8310547,2.6113281-2.015625       l4.7480469-45.0214844c0.0664063-0.6289063-0.1518555-1.2138672-0.6147461-1.6474609       c-0.5489883-0.4331675-6.0471573-4.7713699-5.6958008-4.4941406c-0.2594147-0.2056618,0.0492706-0.5965977,0.3095703-0.3925781       l5.7094727,4.5058594c0.5986328,0.5585938,0.8720703,1.2919922,0.7885742,2.0810547l-4.7480469,45.0214844       C98.3367386,60.4785995,96.922554,61.5272064,95.364357,61.4608994z"/><path fill="#0e2365" d="M48.6763725,59.4628525c-0.5379715-0.0037842-0.8411179-0.0843925-0.9633789-0.1201172       c-0.3181076-0.0939064-0.1757813-0.5748177,0.140625-0.4804688c0.6007919,0.1785622,1.0952415-0.0426178,1.0722656,0.3652344       C48.91856,59.3603134,48.8082085,59.4628525,48.6763725,59.4628525z"/><path fill="#0e2365" d="M96.4292984,60.5878525l-4.7744141-4.7939453       c-0.2327271-0.2362404,0.1215515-0.5864601,0.3544922-0.3535156l4.7744141,4.7939453       C97.0166397,60.4706955,96.6623306,60.8208847,96.4292984,60.5878525z"/><path fill="#558dfd" d="M78.3294601,18.7485809c-0.12603,0-0.2465439,0.1007652-0.3011322,0.20084        c-0.0803223,0.1405487-0.1004181,0.3211689-0.1004181,0.5119591c-0.0325317,0.6357079,0.0003967,1.367445,0.4919205,1.7667408        C78.8538742,20.1396999,78.6382217,18.8000927,78.3294601,18.7485809z M78.3294601,18.7485809        c-0.12603,0-0.2465439,0.1007652-0.3011322,0.20084c-0.0803223,0.1405487-0.1004181,0.3211689-0.1004181,0.5119591        c-0.0325317,0.6357079,0.0003967,1.367445,0.4919205,1.7667408        C78.8538742,20.1396999,78.6382217,18.8000927,78.3294601,18.7485809z M78.3294601,18.7485809        c-0.12603,0-0.2465439,0.1007652-0.3011322,0.20084c-0.0803223,0.1405487-0.1004181,0.3211689-0.1004181,0.5119591        c-0.0325317,0.6357079,0.0003967,1.367445,0.4919205,1.7667408        C78.8538742,20.1396999,78.6382217,18.8000927,78.3294601,18.7485809z M78.3294601,18.7485809        c-0.12603,0-0.2465439,0.1007652-0.3011322,0.20084c-0.0803223,0.1405487-0.1004181,0.3211689-0.1004181,0.5119591        c-0.0325317,0.6357079,0.0003967,1.367445,0.4919205,1.7667408        C78.8538742,20.1396999,78.6382217,18.8000927,78.3294601,18.7485809z M78.3294601,18.7485809        c-0.12603,0-0.2465439,0.1007652-0.3011322,0.20084c-0.0803223,0.1405487-0.1004181,0.3211689-0.1004181,0.5119591        c-0.0325317,0.6357079,0.0003967,1.367445,0.4919205,1.7667408        C78.8538742,20.1396999,78.6382217,18.8000927,78.3294601,18.7485809z M78.3294601,18.7485809        c-0.12603,0-0.2465439,0.1007652-0.3011322,0.20084c-0.0803223,0.1405487-0.1004181,0.3211689-0.1004181,0.5119591        c-0.0325317,0.6357079,0.0003967,1.367445,0.4919205,1.7667408        C78.8538742,20.1396999,78.6382217,18.8000927,78.3294601,18.7485809z M78.3294601,18.7485809        c-0.12603,0-0.2465439,0.1007652-0.3011322,0.20084c-0.0803223,0.1405487-0.1004181,0.3211689-0.1004181,0.5119591        c-0.0325317,0.6357079,0.0003967,1.367445,0.4919205,1.7667408        C78.8538742,20.1396999,78.6382217,18.8000927,78.3294601,18.7485809z M78.3294601,18.7485809        c-0.12603,0-0.2465439,0.1007652-0.3011322,0.20084c-0.0803223,0.1405487-0.1004181,0.3211689-0.1004181,0.5119591        c-0.0325317,0.6357079,0.0003967,1.367445,0.4919205,1.7667408        C78.8538742,20.1396999,78.6382217,18.8000927,78.3294601,18.7485809z M94.2902985,7.505796L45.4843521,24.8117218        c-0.8733826,0.3112431-1.5057373,1.1644707-1.5559769,2.1081295l-0.5019112,9.2150402        c0.3814583-0.5923462,0.7528687-1.1743965,1.1042442-1.7365952c0.8833694-1.4856415,3.3527374,1.1743927,2.4392853,2.68013        c-1.0615768,2.477066-2.4723129,5.351944-4.0454407,8.0908852l-0.2509575,4.4870682        c0.5721855,0.0100479,1.1443748,0.0301437,1.7165604,0.0301437c2.679039-6.5425987,3.0964699-8.821022,4.316433-8.924015        c2.0600471-0.1686134,2.2919083,5.9801788,3.6338425,3.8546524c3.924675-6.5348892,4.0967407-17.4763012,8.100872-16.7437248        c1.1845055,0.2208118,1.8571091,1.6763077,2.4894638,2.9310875c0.6324158,1.2748795,1.6563377,2.6301384,2.9412575,2.369133        c1.2848663-0.2710495,2.0778656-2.0478401,3.4029236-2.4493942c1.6162033-0.4818153,2.9813919,1.2849236,3.7542877,2.9613571        c0.78302,1.6863556,1.6764374,3.7140999,3.4431763,4.0955582c1.5960464,0.3312187,3.1519623-0.8532257,4.4669724-2.0176964        c2.6300125-2.3187714,5.4708557-4.4369488,8.2414169-7.0969849c0,0-2.077919,18.891922-2.2987366,19.8957481        l-40.2333031,1.4956894c0.110405,0.0400696,0.2208138,0.0903091,0.3312798,0.1405487c0.0100479,0,0.0100479,0,0.0100479,0        c0.5186844,0.2448311,0.8570442,1.0749092,0.9535828,1.6060944c0.1629753,0.8953514-0.6016541-0.4264374,1.9373741,3.5234337        l40.5746346,1.2547836c1.4455109,0.0400696,2.680191-0.9336128,2.8106995-2.248558l4.5673828-44.5396919        C98.0144501,8.0077076,96.197525,6.8333116,94.2902985,7.505796z M51.045517,31.3365803        c-0.1002998,0.0133972-3.1233559,0.4171791-2.9311485,0.3915062c-0.3042336,0-0.3316879-0.4587975-0.0301437-0.5019112        l2.8910179-0.3915062C51.3053856,30.8092499,51.3675728,31.2869873,51.045517,31.3365803z M54.1573486,26.749157        c-6.9672127,2.0665283-6.755352,2.0276222-6.8560753,2.0276222c-0.2881775,0-0.3512535-0.4115143-0.0702744-0.4918652        l6.785862-2.0176964C54.3251953,26.1572227,54.4863091,26.6550865,54.1573486,26.749157z M89.9838486,18.738533        c-1.6418991,1.2015743-4.1593323,0.0436954-5.3704376,1.4556198        c-0.3111801,0.2910252-0.7026825,0.6525097-1.1744537,0.5419827c-0.3212357-0.0601673-0.4919281-0.301075-0.6324158-0.5019131        c-0.6802597-0.9512806-1.1379395,0.5182896-2.4192505,1.3552608        c-0.5922241,0.3613625-1.2246399,0.4818172-1.7466431,0.3313408        c-0.0100479-0.0100479-0.0200958-0.0100479-0.0300827-0.0100479        c-0.7498856,0.9369278-1.8985901,0.4729862-1.8069382-0.2610035c0.022583-0.3160782,0.5263901-0.2821579,0.501915,0.0601654        c-0.0574265,0.1148491,0.2662125,0.3088932,0.5421066,0.1907902c0.1204529-0.0602894,0.2208099-0.1406727,0.3111801-0.2308598        c-0.6819229-0.5247326-0.772644-1.3708344-0.7328339-2.2285843c0.0100479-0.2409077,0.0301437-0.4918633,0.1606445-0.7428207        c0.3415298-0.5853863,1.1815948-0.6904469,1.4555588,0.2409096c0.2321091,0.8473759,0.1392212,1.7977448-0.1706924,2.5196075        c1.913887,0.4250202,2.9395828-3.4644337,4.3465805-1.5157833c0.2571487,0.3644104,0.3745422,0.5210342,1.0439529-0.1204548        c0.0803223-0.0703354,0.1505966-0.1405506,0.2309189-0.200716c1.5072632-1.3038731,3.7605591-0.2385941,5.1897583-1.2949734        C89.9350815,18.1433144,90.2506027,18.5206318,89.9838486,18.738533z M78.3093643,18.7485809        c-0.0903091,0-0.2208099,0.0904331-0.2810364,0.20084c-0.0803223,0.1405487-0.1004181,0.3211689-0.1004181,0.5119591        c-0.0325317,0.6357079,0.0003967,1.367445,0.4919205,1.7667408        C78.8531189,20.1416016,78.6392746,18.7485809,78.3093643,18.7485809z M78.3294601,18.7485809        c-0.12603,0-0.2465439,0.1007652-0.3011322,0.20084c-0.0803223,0.1405487-0.1004181,0.3211689-0.1004181,0.5119591        c-0.0325317,0.6357079,0.0003967,1.367445,0.4919205,1.7667408        C78.8538742,20.1396999,78.6382217,18.8000927,78.3294601,18.7485809z M78.3294601,18.7485809        c-0.12603,0-0.2465439,0.1007652-0.3011322,0.20084c-0.0803223,0.1405487-0.1004181,0.3211689-0.1004181,0.5119591        c-0.0325317,0.6357079,0.0003967,1.367445,0.4919205,1.7667408        C78.8538742,20.1396999,78.6382217,18.8000927,78.3294601,18.7485809z M78.3294601,18.7485809        c-0.12603,0-0.2465439,0.1007652-0.3011322,0.20084c-0.0803223,0.1405487-0.1004181,0.3211689-0.1004181,0.5119591        c-0.0325317,0.6357079,0.0003967,1.367445,0.4919205,1.7667408        C78.8538742,20.1396999,78.6382217,18.8000927,78.3294601,18.7485809z M78.3294601,18.7485809        c-0.12603,0-0.2465439,0.1007652-0.3011322,0.20084c-0.0803223,0.1405487-0.1004181,0.3211689-0.1004181,0.5119591        c-0.0325317,0.6357079,0.0003967,1.367445,0.4919205,1.7667408        C78.8538742,20.1396999,78.6382217,18.8000927,78.3294601,18.7485809z M78.3294601,18.7485809        c-0.12603,0-0.2465439,0.1007652-0.3011322,0.20084c-0.0803223,0.1405487-0.1004181,0.3211689-0.1004181,0.5119591        c-0.0325317,0.6357079,0.0003967,1.367445,0.4919205,1.7667408        C78.8538742,20.1396999,78.6382217,18.8000927,78.3294601,18.7485809z M78.3294601,18.7485809        c-0.12603,0-0.2465439,0.1007652-0.3011322,0.20084c-0.0803223,0.1405487-0.1004181,0.3211689-0.1004181,0.5119591        c-0.0325317,0.6357079,0.0003967,1.367445,0.4919205,1.7667408        C78.8538742,20.1396999,78.6382217,18.8000927,78.3294601,18.7485809z"/><path fill="#0e2365" d="M45.4058647,24.5761337L94.211525,7.274375c0.3098068-0.1130853,0.4801407,0.360456,0.1669922,0.4707031       L45.5728569,25.0468369C45.2574081,25.1594963,45.0971909,24.684803,45.4058647,24.5761337z"/><path fill="#0e2365" d="M94.7789078,37.1317978l2.8056641-27.3623047c0.0327835-0.330183,0.530899-0.278183,0.4970703,0.0507813       L95.2759781,37.182579C95.241951,37.5153084,94.7450867,37.4606743,94.7789078,37.1317978z"/><path fill="#0e2365" d="M90.4512711,56.8290634c-58.7434921-1.8063774-29.5564651-0.9088707-38.0141563-1.1689453       c-0.3191147-0.0090523-0.3312721-0.5,0.015625-0.5l38.0063438,1.1689453       C90.7829132,56.3382492,90.7784195,56.8290634,90.4512711,56.8290634z"/><path fill="#0e2365" d="M42.6734428,49.9062119c-0.0043945,0-0.0092773,0-0.0141602,0       c-0.1376953-0.0078125-0.2431641-0.1259766-0.2353516-0.2636719l0.2509766-4.4873047       c0.0073242-0.1376953,0.1132813-0.2167969,0.2636719-0.2363281c0.1376953,0.0078125,0.2431641,0.1259766,0.2353516,0.2636719       l-0.2509766,4.4873047C42.9156303,49.8036728,42.8052788,49.9062119,42.6734428,49.9062119z"/><path fill="#0e2365" d="M43.4263725,36.3896103c-0.0024414,0-0.0043945,0-0.0068359,0       c-0.1352539-0.0039063-0.2431641-0.109375-0.2431641-0.2451172c0.1366997-2.5134926,0.5267448-9.6851788,0.5024414-9.2382813       c0.0172348-0.3016605,0.5186958-0.319397,0.4990234,0.0273438l-0.5019531,9.2148438       C43.66856,36.2812119,43.5586967,36.3896103,43.4263725,36.3896103z"/><path fill="#0e2365" d="M44.1587944,49.5917587c2.6421509-6.4541969,3.080883-8.9562683,4.5268555-9.078125       c0.6289063-0.0527344,1.3129883,0.5009766,1.7915039,1.484375c0.4060249,0.8339424,1.0024757,2.9185448,1.3881836,2.7949219       c0.0791016-0.0175781,0.1992188-0.2080078,0.2636719-0.3095703c2.9082642-4.8418121,3.9373932-12.9603977,5.8515625-15.5927734       c0.703125-0.9335938,1.6601563-1.4140625,2.5058594-1.2636719c1.3235893,0.2476215,2.0477257,1.8293324,2.6674805,3.0654297       c0.4682617,0.9433594,1.4331017,2.4873047,2.6684532,2.2363281c1.1772842-0.2488899,1.9818878-2.0189915,3.3803711-2.4433594       c1.4472656-0.4326172,2.9609375,0.7255859,4.0537109,3.0957031c0.7312622,1.578167,1.6044159,3.5964317,3.2685547,3.9560547       c1.4448242,0.2949219,2.8974609-0.7646484,4.2490234-1.9609375c2.663681-2.3486443,5.4654388-4.4327507,8.2333984-7.0908203       c0.2444916-0.2278767,0.5826569,0.1346054,0.3466797,0.3613281c-2.8114777,2.6991482-5.6043015,4.7706909-8.2490234,7.1044922       c-1.4482422,1.2822266-3.0175781,2.4150391-4.6835938,2.0751953c-1.8915253-0.4094124-2.8025742-2.4740906-3.6186523-4.2353516       c-0.3676758-0.796875-1.699707-3.3515625-3.456543-2.8271484c-1.2643814,0.3835297-2.0307999,2.1599655-3.4223633,2.4541016       c-1.1621094,0.2441406-2.3002892-0.6542969-3.2172813-2.5019531c-0.4922333-0.9815292-1.2035561-2.5897293-2.3110352-2.796875       c-0.7817383-0.1435547-1.5537109,0.4589844-2.0131836,1.0693359       c-1.7939491,2.4666748-2.9091263,10.6980095-5.8276367,15.5576172       c-0.1210938,0.1914063-0.2993164,0.4716797-0.5917969,0.5371094c-0.9783554,0.1721001-1.3297997-1.8211021-1.9350586-3.0664063       c-0.3730469-0.7666016-0.8764648-1.2363281-1.3007813-1.2050781c-1.0387764,0.0892181-1.5934143,2.6301384-4.1054688,8.7695313       C44.496727,50.0866547,44.0335464,49.8984375,44.1587944,49.5917587z"/><g><path fill="#0e2365" d="M57.965435,45.9140244l0.6401367-14.1455078c0.0136642-0.3211765,0.5144005-0.3125515,0.4990234,0.0234375      l-0.6401367,14.1455078C58.4499321,46.2691078,57.9501686,46.2474556,57.965435,45.9140244z"/></g><g><path fill="#0e2365" d="M59.8755913,42.198204l0.1708984-6.5527344c0.0098839-0.3484459,0.5078392-0.3045273,0.5,0.0136719      l-0.1708984,6.5527344C60.3672256,42.5439644,59.8673782,42.5313988,59.8755913,42.198204z"/></g><g><path fill="#0e2365" d="M62.9244194,45.385704l0.2290039-11.2548828c0.006691-0.3144875,0.5072136-0.3293953,0.5,0.0097656      l-0.2290039,11.2548828C63.4172592,45.7296066,62.9173698,45.7169228,62.9244194,45.385704z"/></g><g><path fill="#0e2365" d="M65.7212906,44.8691025l0.3271484-7.2158203c0.0130157-0.305809,0.5148163-0.3215714,0.4990234,0.0234375      L66.220314,44.89254C66.2057877,45.2241859,65.7060318,45.2025337,65.7212906,44.8691025z"/></g><g><path fill="#0e2365" d="M47.0103569,50.4589462c-0.3243523,0-0.3342018-0.4862862-0.0107422-0.5l38.1450157-1.6669922      c0.3524857,0.0139313,0.3326111,0.486805,0.0214844,0.5C82.8253326,48.8942299,95.3394623,48.3475571,47.0103569,50.4589462z"/></g><g><path fill="#fbd072" d="M78.4198303,21.2281208c-0.4916306-0.3993797-0.524437-1.1313477-0.4919205-1.7667408       c0-0.1907902,0.0200958-0.3714104,0.1004181-0.5119591c0.0545883-0.1000748,0.1749573-0.20084,0.3011322-0.20084       C78.6443176,18.8011112,78.8499908,20.1494465,78.4198303,21.2281208z"/><path fill="#fbd072" d="M75.0770798,17.9957142c-0.220871,2.4594421-0.3613586,4.8887424-0.4215851,7.2777271       c14.270546-2.7459297,16.1541138-3.1239319,16.6534119-3.1920929l0.9435959-7.6290426       c0.0702744-0.7027512,0.0401306-1.3752346,0.1204529-2.0879107L75.0770798,17.9957142z M89.9838486,18.738533       c-1.6418991,1.2015743-4.1593323,0.0436954-5.3704376,1.4556198c-0.3111801,0.2910252-0.7026825,0.6525097-1.1744537,0.5419827       c-0.3212357-0.0601673-0.4919281-0.301075-0.6324158-0.5019131c-0.6802597-0.9512806-1.1379395,0.5182896-2.4192505,1.3552608       c-0.5922241,0.3613625-1.2246399,0.4818172-1.7466431,0.3313408c-0.0100479-0.0100479-0.0200958-0.0100479-0.0300827-0.0100479       c-0.7498856,0.9369278-1.8985901,0.4729862-1.8069382-0.2610035c0.022583-0.3160782,0.5263901-0.2821579,0.501915,0.0601654       c-0.0574265,0.1148491,0.2662125,0.3088932,0.5421066,0.1907902c0.1204529-0.0602894,0.2208099-0.1406727,0.3111801-0.2308598       c-0.6819229-0.5247326-0.772644-1.3708344-0.7328339-2.2285843c0.0100479-0.2409077,0.0301437-0.4918633,0.1606445-0.7428207       c0.3415298-0.5853863,1.1815948-0.6904469,1.4555588,0.2409096c0.2321091,0.8473759,0.1392212,1.7977448-0.1706924,2.5196075       c1.913887,0.4250202,2.9395828-3.4644337,4.3465805-1.5157833c0.2571487,0.3644104,0.3745422,0.5210342,1.0439529-0.1204548       c0.0803223-0.0703354,0.1505966-0.1405506,0.2309189-0.200716c1.5072632-1.3038731,3.7605591-0.2385941,5.1897583-1.2949734       C89.9350815,18.1433144,90.2506027,18.5206318,89.9838486,18.738533z"/></g><g><path fill="#0e2365" d="M75.0040054,17.7548447l13.0712891-4.2529306c0.3146133-0.1040983,0.4688644,0.3740416,0.1542969,0.4746094      L75.1583023,18.229454C74.8471832,18.3371468,74.6880569,17.855854,75.0040054,17.7548447z"/></g><g><path fill="#0e2365" d="M77.5181656,24.470665l13.753418-2.6396484c0.3241882-0.0526371,0.4064102,0.4425526,0.078125,0.4941406      c-18.7830734,3.6039886-12.3574219,2.3710709-13.7368164,2.6357422      C77.2960968,25.0376968,77.1889725,24.5322399,77.5181656,24.470665z"/></g><g><path fill="#0e2365" d="M35.125103,50.0067978c-0.0063477,0-0.0126953,0-0.0185547-0.0009766       c-0.6760864-0.0495682-0.9132614-0.2149963-1.2509766-0.5507813c-0.3289566-0.3259392-0.3949471-0.2581406-0.4370117-0.4150391       c-0.0185547-0.0664063-0.0087891-0.1376953,0.0268555-0.1962891c0.0419922-0.0800781,0.0800781-0.1542969,0.1303711-0.2119141       c0.2045898-0.5009766,1.0151367-1.4833984,2.4985352-3.2587891c9.318409-11.1576347,7.7476044-11.6245346,9.1801758-11.6611328       c1.2539063,0.0195465,2.7478485,2.1475906,1.9291992,3.4960938c-1.6763,3.9394112-4.0901947,8.4658165-6.7504883,12.5253906       c-0.1815529,0.2746506-0.5996323,0.0031586-0.4179688-0.2734375c2.5184364-3.8471336,4.9312134-8.2862053,6.7246094-12.4804688       c0.7878075-1.306263-1.3226471-3.5826988-1.9941406-2.453125c-4.4313126,7.0949707-9.0390396,11.743969-10.7446289,14.3798828       c0.4196472,0.3525047,0.4012947,0.546402,1.1416016,0.6015625       C35.4608955,49.5303421,35.444088,50.0067978,35.125103,50.0067978z"/><path fill="#c3d7f9" d="M42.8542747,45.2998161c-0.823082,1.4254723-1.6964645,2.8709221-2.6300125,4.2962761       c-0.1019669-0.0022278-0.7336464,0.0026321-1.9674568-0.0601692c0.1229477-0.1776657,1.2132034-1.6857147,2.5898209-3.8747482       c0.2811012-0.4416237,0.5822372-0.9334869,0.6625595-1.5157814       C41.8705482,44.6674004,42.3523636,45.0689545,42.8542747,45.2998161z"/><path fill="#0e2365" d="M40.0875053,49.8056259c-0.350193-0.2275505-0.0198822-0.2001686,2.4199219-4.40625       c-0.4630623-0.2806435-0.8090019-0.5802078-1.1640625-1.0498047c-0.2805824-0.3741112,0.2453003-0.6176414,0.3920898-0.3095703       c0.0219917,0.0287781,0.1122551,0.1323853,0.1279297,0.1650391c0.200573,0.2091064,0.5386086,0.618824,1.0917969,0.8662109       c0.1327171,0.0578766,0.1913986,0.2220497,0.1152344,0.3535156c-0.9194336,1.59375-1.7822266,3.0039063-2.637207,4.3085938       C40.3587608,49.8473091,40.2054901,49.8824539,40.0875053,49.8056259z"/><path fill="#0e2365" d="M35.125103,50.0067978c-0.0063477,0-0.0126953,0-0.0185547-0.0009766       c-1.1118202-0.0815125-1.1627159-0.6027451-1.5634766-0.8105469c-0.127533-0.067337-0.1719933-0.2293701-0.0976563-0.3515625       c0.0410156-0.078125,0.078125-0.1503906,0.1259766-0.2070313c0.2235451-0.5846596,1.7644386-2.3792038,2.4990234-3.2587891       c3.6737518-4.4018364,3.3500061-4.2835159,3.6152344-4.2275391c0.6235352,0.1367188,1.2856445,0.6591797,1.6870117,1.3310547       c0.7070236,1.2232971,0.4310684,2.1397476-0.3149414,3.3134766c-1.5326958,2.4377861-2.4354134,3.648037-2.5952148,3.8828125       c-0.0786133,0.1142578-0.234375,0.140625-0.3476563,0.0644531c-0.3580132-0.2489204,0.0185013-0.2387238,2.5205078-4.2138672       c0.3012695-0.4736328,0.5556641-0.9072266,0.6264648-1.4169922c0.134079-1.0324364-0.6688271-2.1316299-1.5356445-2.4306641       c-2.3947983,3.0716972-4.168766,4.9421959-5.6879883,7.1298828c-0.0087891,0.0263672-0.0244141,0.0595703-0.043457,0.0908203       c0.4101715,0.3387222,0.3896904,0.5499458,1.1479492,0.6064453c0.1376953,0.0097656,0.2412109,0.1298828,0.2314453,0.2675781       C35.3643608,49.9062119,35.2544975,50.0067978,35.125103,50.0067978z"/><path fill="#0e2365" d="M39.5659828,43.7953873c0.2011566,0.3458061,0.5604858,0.5147858,0.8015594,0.3759232       c0.2397156-0.1378059,0.2682953-0.5297127,0.0651398-0.8742027c-0.2036514-0.3453369-0.5600624-0.5134201-0.7979355-0.3769379       C39.3955116,43.0574303,39.3643379,43.4488297,39.5659828,43.7953873z"/><path fill="#c3d7f9" d="M40.6860428,61.2807465c-0.2935257,0.7815399-4.550354,5.9380569-7.0769501,8.7432709      c-0.1004219,0.1906662-0.2108269,0.3714142-0.3111839,0.5622025c-0.0100479,0-0.0100479,0-0.0100479-0.0100479      c0.1870079-0.1870117,1.4538078-4.0544815,1.6964645-4.838501c0.4014931-1.3150711,1.1644096-2.8709259,0.1003571-4.2260666      c-0.1907272-0.2610016-0.4517326-0.3915062-0.6624947-0.6224861c-1.1634521-1.2560539-2.2387428-3.101059-2.4292393-4.9387398      c-0.2821789-3.0565948,0.946043-4.7482338,1.5559139-6.8761749c0,0,0,0,0-0.0100479      c0.0428391-0.1285172,0.0791435-0.299633,0.2810402-0.3915062c0-0.0100479,0-0.0100479,0-0.0100479h0.0100479      c0.4918633,0.2308617,0.9636955,0.5521545,1.4154282,0.9235649c-0.3010712,0.263176-0.2722664,0.8079987-0.2509575,1.4254723      c0.0200348,0.3111229,0.0702133,0.6322937,0.2308617,0.903347c-0.6941681,0.1462784-0.7260246,2.8928223-0.1706352,3.9450836      c-0.7262993,0.8069801-0.5708885,4.9190063,0.4818192,4.9688797      C37.2730141,60.9996452,38.9895744,61.1501198,40.6860428,61.2807465z"/><path fill="#0e2365" d="M18.9107456,86.4071884c-3.7596102-2.3241272-7.8050823-5.9920654-10.8017578-10.1367188      C7.6733251,75.678627,7.87604,74.9213409,8.4385777,74.595665c0.1014004-0.0621643,5.8614998-3.651268,9.0112305-5.7431641      c3.3257771-2.2605133,3.0858784-2.2154465,3.2773438-2.1445313c0.0786133,0.0292969,0.137207,0.0966797,0.15625,0.1777344      c0.5630989,2.4320068,3.0257339,4.749794,5.199707,5.9726563c2.8665409,1.6843643,4.0522289,1.0194244,4.2607422,1.390625      c0.0439453,0.0791016,0.0419922,0.1757813-0.0053711,0.2529297c-2.4532433,3.9954071-6.5501289,9.7241211-7.0200195,10.2705078      c-0.0822449,0.1177979-1.5038261,2.2511292-1.8833008,2.4208984      C20.6447506,87.8442459,19.5924511,86.8352356,18.9107456,86.4071884z M20.491312,67.3583603      c-3.147686,2.2585068-8.5086145,5.6505203-11.796875,7.6669922c-0.3304415,0.1902542-0.4232712,0.6215973-0.2006836,0.9238281      c1.6232424,2.2639923,3.6307278,4.4663544,5.7055664,6.2949219c2.3884735,2.1428452,5.9167557,4.4094315,6.2910156,4.5810547      c0.227066,0.0979691,0.4797516,0.1272049,0.6567383-0.0439453c1.0249329-1.0579987,1.4559364-1.9530334,2.9780273-3.9404297      c0.6904888-0.8927536,3.5456581-4.9967346,5.5620117-8.2363281      C26.2220821,74.3588333,21.5118217,70.7766495,20.491312,67.3583603z"/><path fill="#0e2365" d="M18.9107456,86.4071884c-1.2681904-0.7839737-3.3013506-2.2262878-5.043457-3.7890625      c-0.1821308-0.1641464-0.0394344-0.4561386,0.1806641-0.4365234c0.8702879,0.0484314,1.768672,0.1012726,2.6533203,0.1542969      c3.6464672-3.4717407,7.2518406-7.3147125,9.0693359-9.4228516c0.310421-0.3624802,0.7688828,0.5163422,2.8276367,1.0136719      c1.3750858,0.3291245,1.5986156,0.0605927,1.7456055,0.3222656c0.0937214,0.1687012,0.157835,0.0888977-1.9555664,3.3085938      c-2.5739098,3.9385986-6.8094425,9.5715408-6.953125,9.6357422      C20.6423569,87.8462143,19.5770683,86.8255768,18.9107456,86.4071884z M14.7437534,82.7216415      c2.1086693,1.811058,5.3658371,3.9289169,5.746582,4.1035156c0.5846024,0.2420044,0.7266159-0.1023331,1.1005859-0.6240234      c2.1377258-2.6943893,5.5199337-7.4575119,8.0961914-11.5966797c-1.3201618-0.0935822-2.5263596-0.5570755-3.6733398-1.2089844      c-2.3939133,2.7394943-5.5805206,6.0821991-9.0463867,9.3779297      C16.861124,82.8740692,16.9520245,82.8469162,14.7437534,82.7216415z"/><path fill="#c3d7f9" d="M23.9422569,71.6602554c-3.6595764,3.7272034-9.9095201,6.0581665-12.9995413,1.756691      c0.0401316-0.0702133,0.0702753-0.1305008,0.1104059-0.1907883c0.4818773-0.2911453,0.9536457-0.5821762,1.4254751-0.8731995      c1.5394201,1.0442886,3.7913103,1.1827011,5.3102102,0.210762c1.5559158-1.0038223,1.9574699-3.0516663,1.5157852-4.6778564      c0.4517326-0.321167,0.8934174-0.6324081,1.335104-0.9436569C21.0665932,68.792244,22.4717407,70.4571152,23.9422569,71.6602554      z"/><path fill="#0e2365" d="M13.5093784,75.7040634c-0.7378216-0.2258301-2.0354338-1.1195679-2.7700195-2.1416016      c-0.0571289-0.0791016-0.0625-0.1855469-0.0136719-0.2705078c0.2242718-0.3844681-0.0725737-0.1017075,1.6210938-1.1523438      c0.0844727-0.0517578,0.190918-0.0488281,0.2724609,0.0058594c1.4604206,0.9928741,3.6046467,1.1231384,5.034668,0.2070313      c1.5224609-0.9814453,1.7983398-2.9697266,1.409668-4.4013672c-0.0808659-0.2974701,0.2572269-0.3174667,1.4321289-1.2128906      c0.2710934-0.1916351,0.5578823,0.2189941,0.2880859,0.4082031l-1.1948242,0.8447266      c0.3671875,1.5859375,0.0087891,3.703125-1.6645508,4.7822266c-1.5814838,1.0123978-3.8619051,0.881813-5.449707-0.1240234      c-0.4072266,0.2509766-0.8154297,0.5029297-1.2304688,0.7539063c0.6748972,0.8721466,1.8292761,1.6463852,2.4111328,1.8222656      c3.3929806,1.0364761,7.5316944-1.1161041,10.1088867-3.7402344c0.2331409-0.237854,0.5872154,0.1141739,0.3564453,0.3496094      C21.4150238,74.5905228,17.0764561,76.7913284,13.5093784,75.7040634z"/><path fill="#c3d7f9" d="M23.9422569,71.6602554c-1.8135262-1.4837799-3.6201687-3.815506-3.4230766-6.0831146      c0.0602264-0.8031082,0.5621395-2.278698,1.5057373-2.389225c0.4818764-0.0601692,0.9135132,0.120575,1.2949715,0.3815804      c-0.0803223,0.1102829-0.1305008,0.1705704-0.1405487,0.1806183c-1.791502,2.8480453,8.7191734,9.6320877,10.1386032,6.7758179      c0.2811012,0.1705704,0.5721855,0.3011932,0.6826553,0.6324158      C34.7247047,73.2882843,30.2029247,76.8993149,23.9422569,71.6602554z"/><path fill="#0e2365" d="M28.4815464,74.4130478c-3.5888023-0.8661194-8.5349464-5.1172104-8.2114258-8.8574219      c0.0566406-0.7607422,0.5708008-2.4804688,1.7260742-2.6152344c0.4814453-0.0644531,0.9599609,0.0771484,1.4648438,0.4228516      c0.275238,0.1866417-0.0136662,0.6019516-0.2822266,0.4121094c-0.3994141-0.2724609-0.769043-0.3867188-1.1225586-0.3388672      c-0.7324219,0.0859375-1.2260742,1.3310547-1.2875977,2.1591797c-0.2457333,2.8276138,2.79006,5.84272,5.3144531,7.2626953      c4.9563046,2.9123001,8.2404385,0.0299072,7.680666-1.6201172c-0.0672684-0.2017975-0.2100868-0.2785645-0.5751953-0.4980469      c-0.2814102-0.1697769-0.0270958-0.5968857,0.2587891-0.4277344l0.1044922,0.0615234      c0.262207,0.1533203,0.5600586,0.3271484,0.6860352,0.7050781c0.1728516,0.5097656,0.0649414,1.1328125-0.2963867,1.7080078      C32.8308067,74.5603867,30.5397758,74.9045105,28.4815464,74.4130478z"/><path fill="#0e2365" d="M22.9678745,63.6171494c0.4630108-0.5713768,5.1789608-6.9999161,7.0625-9.7460938      c3.4792919-5.0542641,3.3043385-5.40308,3.6787128-5.2451172c0.1171875,0.0517578,0.1772461,0.1826172,0.1376953,0.3046875      c-0.8484116,3.0465546-3.2507114,6.3419609-0.0200195,10.8232422c0.2716637,0.3749733,0.6528435,0.8873749,1.0429688,1.2011719      c1.6197205,1.313591,0.9109573,3.0190201,0.3540039,4.8554688c-0.0004883,0-0.0004883,0-0.0004883,0.0009766      c-0.1119347,0.3612061-1.4986382,4.6988831-1.7631836,4.9453125      C31.5923786,73.6364059,21.0385494,66.6849823,22.9678745,63.6171494z M32.6587944,50.8280869      c-3.1276588,4.846035-9.1561031,12.95755-9.3071308,13.1025391c-0.1533203,0.2587891-0.1713867,0.6513672-0.0141602,1.1191406      c1.0112019,3.0072098,8.420475,7.3949661,9.7412128,5.3886719c0.0112305-0.0205078,0.0424805-0.0683594,0.0585938-0.0849609      c0.7582054-2.0395432,1.2079887-3.3982697,1.6079102-4.6894531l0,0      c0.0561523-0.1826172,0.1186523-0.3701172,0.1826172-0.5605469c1.1916199-3.5629463-0.2176971-3.0631332-1.6074219-5.2011719      C31.2154999,56.9061012,31.3470078,54.2002983,32.6587944,50.8280869z M34.984478,65.7372665h0.0063477H34.984478z"/><path fill="#0e2365" d="M31.1124058,68.463829c-0.1702251-0.02491-0.2643738-0.2110443-0.184082-0.3632813      c1.4524136-2.7717819,2.9904804-5.4575729,2.3564472-8.28125c-0.0607796-0.272377,0.3028336-0.4198189,0.4526367-0.1923828      c0.9756813,1.446701,1.170002,1.2276955,1.5463867,1.7236328c1.1116753,1.4264221,0.4126663,2.9012451-0.0600586,4.4599609      c-0.0004883,0-0.0004883,0-0.0004883,0.0009766c-0.2817383,0.9091797-0.5517578,1.7333984-0.8261719,2.5175781      c-0.0317383,0.0917969-0.1142578,0.1572266-0.2104492,0.1669922      C33.1586685,68.5985641,32.1260834,68.61763,31.1124058,68.463829z M31.5372105,68.0155869      c0.7368183,0.0800781,1.5395527,0.0810547,2.4404316-0.0019531c0.2543945-0.734375,0.5063477-1.5048828,0.7680664-2.3505859      c0.4904976-1.6005707,1.2198944-3.1914673-0.1801758-4.3115234c-0.1623688-0.1293297-0.285862-0.2235909-0.6518555-0.6621094      C34.0897827,63.2645569,32.8259773,65.5430603,31.5372105,68.0155869z M34.984478,65.7372665h0.0063477H34.984478z"/><path fill="#0e2365" d="M22.9678745,63.6171494c0.0546303-0.1001549,0.7360592-0.9321938,2.2675781-3.0546875       c0.0654297-0.0908203,0.1855469-0.1269531,0.2895508-0.0878906c0.3691845,0.136734-0.0619621,0.5176086,0.2695313,2.3583984       c0.7143745,4.1446609,4.1246109,5.591713,8.3413105,5.1650391c0.1769524-0.0218735,0.321991,0.1555176,0.2617188,0.3310547       c-0.3056641,0.8808594-0.5683594,1.5986328-0.8266602,2.2578125       C31.7864418,73.8518143,21.032795,66.6941299,22.9678745,63.6171494z M25.1617222,61.5146103       c-1.1131687,1.5216522-1.6828766,2.2438164-1.7739258,2.3730469c-1.5768089,2.5115128,8.3320904,9.0276108,9.7309589,6.4882813       c0.2075195-0.5351563,0.4287109-1.1337891,0.6787109-1.8447266       C28.7157536,68.9165268,25.2508144,66.4827957,25.1617222,61.5146103z"/><g><path fill="#0e2365" d="M49.3023491,62.2880478c-0.627739-1.1116333-0.6863441-2.9917107-1.0800781-3.5419922        c-0.2435417-0.359417-0.9619598-0.6196556-1.0332031-0.8984375c-0.55159-2.2063522-0.8321609-2.6039772-1.5561523-3.5566406        c-0.7118301-0.9107857-0.8823204-0.6713943-1.9038086-0.8339844        c-0.1884384-0.0305405-2.7829552-0.3904533-8.2138672-1.3349609        c-0.0522461,0.0117188-0.0981445,0.0107422-0.1342773,0.0097656        c-0.0053711,0.0009766-0.0146484,0.0019531-0.0244141,0.0019531c-0.5890617,0.3258629-0.694088-1.5331497-0.5678711-2.1933594        c0.0581398-0.232563,0.1564255-0.4604454,0.3730469-0.59375c0.4870491-0.2873688,0.1397514-0.0962143,8.1079102,0.0722656        c1.8666878,0.0439224,2.4367981-0.0647507,3.7861328,0.5390625l-0.0004883,0.0019531        c0.6348076,0.1880913,1.1384697,1.4007568,1.1499023,2.0751953c0.0009766,0.0810547,0.003418,0.2177734,0.012207,0.2558594        c3.2183914,5.0133171,3.2282791,4.6741638,3.1943359,6.0498047c-0.0093689,0.3684235,0.2585526,4.0970688,0.2553711,3.9960938        c0.0107422,0.3408203-0.1196289,0.8046875-0.390625,1.0322266        C50.6393127,63.9173508,49.7495728,63.071022,49.3023491,62.2880478z M47.656353,57.6562119        c0.7805214,0.7128067,1.0274734,0.1727409,1.5131836,2.5634766c0.2113609,1.032299,0.3721733,1.7837944,1.0991211,2.5107422        c0.1767616,0.1650543,0.5019417,0.4151802,0.684082,0.2578125c0.1225586-0.1025391,0.2211914-0.3964844,0.2143555-0.6318359        c-0.1196518-1.9727402-0.2734871-3.2473564-0.2553711-4.0283203c0.0187187-0.7753258-0.0377693-0.9728355-0.3989258-1.5410156        c-2.9649391-4.7659988-2.7963905-4.0619698-2.8076172-4.7441406c-0.0018845-0.1015587,0.012661-0.3131714-0.1923828-0.7919922        c-0.1544304-0.3640137-0.3042908-0.6507492-0.6357422-0.8251953c-1.1221924-0.5007401-1.3647995-0.47752-4.2080078-0.5195313        c-0.0922852,0.0234375-0.1704102-0.0019531-0.2607422-0.0048828c-7.4417419-0.1653748-7.011837-0.4940567-7.1474609,0.2988281        c-0.0276337,0.4181404-0.0392456,1.0438461,0.1142578,1.4316406c0.0048828,0,0.0102539,0,0.015625,0        c0.1212692-0.0713387,7.5922966,1.2803154,8.8041992,1.3710938c1.3522072,0.1079063,1.4280472,0.5462303,1.9072266,1.0761719        C46.9836006,55.2260094,47.1972275,55.8853111,47.656353,57.6562119z M35.4141655,52.0898056        c0,0-0.0004883,0-0.0004883,0.0009766C35.4136772,52.0898056,35.4141655,52.0898056,35.4141655,52.0898056z"/><path fill="#0e2365" d="M45.7533035,52.0367088c0.2113152,0.3637314,0.5994339,0.5029297,0.8662605,0.3101768         c0.2651939-0.1912537,0.3063812-0.6394501,0.0930595-1.0011101         c-0.2127991-0.3606644-0.5975952-0.4994125-0.8607712-0.3102646         C45.5868721,51.2256241,45.5424843,51.6737785,45.7533035,52.0367088z"/><path fill="#0e2365" d="M50.1539116,61.5370712c-0.0170898-1.2724609-0.0473633-2.5439453-0.0908203-3.7792969        c-0.8515625-1.4697266-1.706543-2.9414063-2.5649414-4.4130859c-0.1674652-0.2857437,0.2672615-0.5390358,0.4316406-0.2519531        c2.7485733,4.7100792,2.627285,4.4849052,2.6308594,4.5849609c0.0444336,1.2587891,0.0761719,2.5556641,0.0932617,3.8535156        C50.6586113,61.8626099,50.1586494,61.8711014,50.1539116,61.5370712z"/><path fill="#0e2365" d="M46.7447319,53.9833603c0.2241211-0.140625,0.425293-0.3681641,0.5976563-0.6767578        c0.4284554-0.7632675,0.3305626-1.2542076,0.7114258-1.1337891c0.1313477,0.0419922,0.2041016,0.1826172,0.1621094,0.3144531        c-0.2326965,0.7293396-0.5558624,1.5110474-1.2055664,1.9199219        C46.7304306,54.5804749,46.4656906,54.1600838,46.7447319,53.9833603z"/><path fill="#0e2365" d="M45.4283257,62.5907822c-0.0465927-0.10009-1.2280273-2.6497154-1.2280273-2.7958984       c-0.1341743-0.8220634-0.4479675-1.4324799-0.7880859-1.8095703c-0.608139-0.6665459-0.5745621-0.3265266-8.0043945-2.0234375       c-0.0209961,0.0107422-0.0400391-0.0009766-0.0585938-0.0058594c-0.0327148-0.0029297-0.0791016,0.0498047-0.0986328,0.0712891       c-0.8054428,0.8917389-1.3847427-4.3925781,0.0649414-4.3925781c-0.0029297-0.0019531,0.034668-0.0029297,0.0751953-0.0029297       c0.1212692-0.0713387,7.5922966,1.2803154,8.8041992,1.3710938c1.3522072,0.1079063,1.4280472,0.5462303,1.9072266,1.0761719       c1.1612396,1.511013,1.1002541,1.9331856,2.4648438,7.0166016c0.7194862,2.8039474,0.8642273,3.1408691,0.6801758,3.7509766       c-0.125,0.4228516-0.4311523,0.7558594-0.7983398,0.8691406       C47.0039406,66.1335831,46.0541115,63.9344368,45.4283257,62.5907822z M44.6915092,59.7196884       c0.6273499,1.4703255,1.1941948,2.6661606,1.2924805,2.8808594c0.4702148,1.0214844,1.3393555,2.9316406,2.3208008,2.6357422       c0.203125-0.0625,0.3862305-0.2714844,0.4633789-0.5322266c0-0.0009766,0.0004883-0.0009766,0.0004883-0.0019531       c0.1207123-0.4006958,0.0844765-0.487648-0.6855469-3.4794922c-1.413044-5.2795944-1.2723427-5.3817711-2.4501953-6.9316406       c-0.7118301-0.9107857-0.8823204-0.6713943-1.9038086-0.8339844c-0.1884384-0.0305405-2.7829552-0.3904533-8.2138672-1.3349609       c-0.0522461,0.0117188-0.0981445,0.0107422-0.1342773,0.0097656c-0.0053711,0.0009766-0.0146484,0.0019531-0.0244141,0.0019531       c-0.1000061,0.0533333-0.1579514,0.0020027-0.253418,0.3154297c-0.2963791,1.0867195-0.1649055,2.3805199,0.0717773,3.0400391       c0.074707-0.0253906,0.1547852-0.0371094,0.230957-0.0283203c0.1016006-0.0159378,3.3969574,0.7443771,3.4975586,0.7675781       c4.0763245,0.8364716,4.5055847,0.7319603,5.1772461,1.8183594       C44.3765678,58.495079,44.5831108,59.0595322,44.6915092,59.7196884z"/><path fill="#0e2365" d="M45.9434624,57.5400009c0.3740234-0.4580078,0.59375-1.0830078,0.6186523-1.7597656       c0.0120316-0.3321342,0.5118179-0.3157043,0.5,0.0175781c-0.0288086,0.7861328-0.2890625,1.5166016-0.7319336,2.0585938       C46.1213951,58.1127357,45.7335472,57.7956505,45.9434624,57.5400009z"/><g><path fill="#0e2365" d="M44.7061462,56.1758041c0.1806107,0.3225479,0.5285988,0.4451752,0.7760391,0.2721863       c0.2465515-0.1721725,0.2971153-0.572464,0.114994-0.8931122c-0.182251-0.320858-0.5270424-0.4422188-0.7719841-0.271862       C44.579361,55.4541931,44.5255775,55.8533363,44.7061462,56.1758041z"/></g><g><path fill="#0e2365" d="M48.019146,64.2528915c-2.6987915-9.2218933-1.874054-5.8153763-2.0014648-6.6435547       c-0.0516968-0.3618546,0.4414749-0.4103928,0.4868164-0.1259766c0,0.0009766,0.0078125,0.0537109,0.0078125,0.0546875       c0.675293,2.1708984,1.3442383,4.3789063,1.9863281,6.5742188       C48.5921211,64.4301147,48.1112442,64.570282,48.019146,64.2528915z"/></g><g><path fill="#0e2365" d="M43.6934624,67.3319931c-0.7193146,0-1.255825-0.7452087-1.6088867-1.3710938        c-0.6913033-1.2054443-0.8740654-2.8117905-1.0805664-4.4101563        c-0.1024551-0.0082436-2.0920486-0.1366005-5.4819336-0.4726563        c-1.4818535-0.0729713-1.5820236-5.7946281-0.1162109-5.6171875c0.1016006-0.0159378,3.3969574,0.7443771,3.4975586,0.7675781        c4.0107193,0.8230095,4.269928,0.75317,4.878418,1.4199219c0.4089584,0.4511375,0.7637405,1.1481857,0.9155273,2.1074219        L44.465435,59.876915l0.2451172-0.0498047c0.1847,1.3578072-0.0478249,6.765564-0.128418,6.9667969        C44.4210014,67.1571884,44.0499077,67.3319931,43.6934624,67.3319931z M41.3340874,61.1386337        c0.3866425,0.2294922,0.1877098,2.8373909,1.1850586,4.5751953c0.1274414,0.2255859,0.512207,0.9072266,0.9853516,1.0839844        c0.1879883,0.0751953,0.5136719,0.0351563,0.6171875-0.1982422c0.0400276-0.1000748,0.2554665-5.4986534,0.1005859-6.671875        l0.2333984-0.1123047l-0.2451172,0.0498047c-0.4113121-2.5501289-1.7955132-2.3924522-2.9331055-2.6259766        c-1.8075867-0.3691063-4.2600327-0.9097252-5.8696289-1.2773438        c-0.0209961,0.0107422-0.0400391-0.0009766-0.0585938-0.0058594        c-0.0327148-0.0029297-0.0791016,0.0498047-0.0986328,0.0712891c-0.6886024,0.76511-0.3792305,4.5202751,0.3081055,4.5517578        C41.6181831,61.1799736,41.073719,60.980835,41.3340874,61.1386337z M44.5308647,61.7226181h0.0063477H44.5308647z         M41.1915092,61.3710556l0.0141602-0.0185547L41.1915092,61.3710556z"/><path fill="#0e2365" d="M42.263176,59.5624809c0.1680069,0.3139915,0.5095711,0.4325562,0.7622185,0.2642822        c0.2510643-0.167347,0.3164558-0.5564308,0.1469002-0.8685532c-0.1697884-0.3126335-0.5088539-0.4312439-0.7583618-0.2656174        C42.1629257,58.8591919,42.0948524,59.2479362,42.263176,59.5624809z"/><path fill="#0e2365" d="M43.3077202,61.3427353c0.3554688-0.2519531,0.7089844-0.5048828,1.0595703-0.7578125         c0.2667885-0.1957245,0.5618591,0.2117271,0.2929688,0.4042969         c-0.3515625,0.2548828-0.7060547,0.5078125-1.0634766,0.7617188         C43.3283119,61.9418488,43.0369606,61.5349617,43.3077202,61.3427353z"/><path fill="#0e2365" d="M43.3155327,65.3046494c-0.0224609-1.2568359-0.0571289-2.5078125-0.1040039-3.7539063         c-0.0048828-0.1386719,0.1025391-0.2548828,0.2407227-0.2597656         c0.1362305,0.0136719,0.2539063,0.1025391,0.2592773,0.2402344c0.046875,1.25,0.081543,2.5048828,0.1040039,3.7636719         C43.8213844,65.627388,43.3215141,65.6372757,43.3155327,65.3046494z"/></g></g><g><path fill="#c3d7f9" d="M27.0749588,79.0710144c-1.9976368,2.9438553-4.236042,5.9785004-5.7442589,7.8854141      c-0.0026264,0.0094376-0.0026264,0.0094376-0.0120888,0.0067749c-0.6585712,0.6001282-1.6051159-0.3497849-2.2743874-0.7626114      c-0.5510197-0.3438644-1.0872097-0.7039108-1.6120472-1.0862579c1.8680801-1.9071655,3.8002796-3.6432037,5.9591942-4.989006      C24.6553936,79.3349228,25.6807842,78.8841629,27.0749588,79.0710144z"/></g><g><path fill="#0e2365" d="M18.9126987,86.4130478c-0.5791016-0.3613281-1.1113281-0.7197266-1.6279297-1.0966797      c-0.1218014-0.089325-0.1385326-0.2676086-0.03125-0.3769531c2.2319336-2.2783203,4.0839844-3.8291016,6.0053711-5.0263672      c2.5715694-1.6076889,3.7069683-1.0662766,3.8510742-1.0888672c0.1829109,0.0250854,0.2754822,0.2349014,0.171875,0.3876953      c-2.0284214,2.9859161-4.2543392,6.0040436-5.7416992,7.8818359l0,0      c-0.0224609,0.0361328-0.0537109,0.0673828-0.0893555,0.0878906c-0.0024414,0.0009766-0.0053711,0.0029297-0.0078125,0.0039063      C20.6411343,87.8465652,19.649147,86.8670959,18.9126987,86.4130478z M17.8150425,85.0819931      c0.9435902,0.6723175,1.1753254,0.761673,1.8076172,1.2119141c1.320303,0.9490891,1.4023418,0.705162,1.9726563-0.0957031      c1.0531578-1.3246231,3.3040581-4.3756485,5.0439453-6.9316406      C23.9912968,79.1236191,19.6763134,83.1996307,17.8150425,85.0819931z"/></g><g><path fill="#0e2365" d="M45.6011772,40.3691025c-1.3769531-0.3662109-2.5961914-1.203125-3.4335938-2.3564453      c-0.1948929-0.2676811,0.2109528-0.5608559,0.4042969-0.2929688c0.7705078,1.0595703,1.8916016,1.8291016,3.1582031,2.1669922      C46.0466042,39.9701576,45.9246407,40.4573174,45.6011772,40.3691025z"/></g></g><g><path fill="#0e2365" d="M22.2608433,38.9091415c-0.2877026-0.0317154-0.2976799-0.4476204-0.0126953-0.4951172     c3.5380859-0.5810547,6.5185547-1.0976563,9.4902344-1.9082031c-2.2768555-1.2236328-4.2236328-2.9941406-5.6572266-5.1533203     c-0.1418514-0.2160511,0.0977325-0.4866562,0.3305664-0.3564453c2.6459961,1.4775391,5.4985352,2.5087891,8.4785175,3.0634766     c0.3525391,0.0654297,0.722168,0.1191406,1.0097656-0.0126953c1.4489708-0.6618004-0.4626579-3.0193062,0.8496094-8.4296875     c0.0561905-0.2311344,0.3818359-0.2658787,0.4755859-0.0332031l3.46875,8.7636719     c0.1221085,0.307621-0.3439789,0.490406-0.4648438,0.1835938l-3.1665039-8     c-0.3364258,1.75-0.3920898,3.53125-0.1640625,5.3056641c0.1304932,0.9893723,0.0974693,1.1763992,0.0629883,1.4023438     c-0.0878906,0.5859375-0.4067383,1.0576172-0.8525391,1.2626953c-0.4208984,0.1914063-0.878418,0.1298828-1.3105469,0.0498047     c-2.6806641-0.5-5.2602558-1.3769531-7.6835957-2.6132813c1.4360352,1.8662109,3.2910156,3.3798828,5.4160175,4.4111328     c0.205204,0.0993614,0.1797142,0.4022255-0.0405273,0.4648438c-2.6435566,0.7578125-5.2573261,1.265625-8.2246113,1.7705078     c2.6157227,0.171875,5.2451172,0.109375,7.8452168-0.1894531c0.3171425-0.0447731,0.3932228,0.4577637,0.0566406,0.4960938     C28.8845577,39.2680817,25.5510426,39.2746086,22.2608433,38.9091415z"/></g><g><path fill="#0e2365" d="M31.6304722,25.8759384c-0.4750977-0.5859375-0.8789063-1.2285156-1.2006836-1.9101563     c-0.1430264-0.3026028,0.3149204-0.5081062,0.4521484-0.2128906c0.8113022,1.7162151,1.4573498,1.8711071,1.1000977,2.1601563     C31.9361362,25.9501572,31.7166843,25.98349,31.6304722,25.8759384z"/></g><g><path fill="#0e2365" d="M22.5987339,34.9989853l-3.3422852-1.1826172c-0.3107033-0.1097984-0.1468048-0.5788269,0.1669922-0.4707031     l3.3422852,1.1826172C23.0769844,34.6382751,22.9116535,35.1087799,22.5987339,34.9989853z"/></g><g><path fill="#0e2365" d="M96.7281265,40.9247665l1.5942383-13.2099609c0.0381012-0.3159904,0.5365524-0.2750053,0.4960938,0.0605469     l-1.5942383,13.2099609C97.1851349,41.3131142,96.6884613,41.2537689,96.7281265,40.9247665z"/></g><g><path fill="#0e2365" d="M86.4083023,83.8866806c-0.3243713-0.0679245-0.2177658-0.5580292,0.1044922-0.4882813     c2.8606339,0.6160507,5.8292389-1.818367,5.8164063-5.5283203c-1.5785675,0.7048492-3.1257019-0.3142166-2.8305664-1.8388672     c0.3310699-1.7031021,2.8705368-1.6539383,3.2666016,0.9384766c1.3083649-1.2912598,1.8717651-4.941803,0.0786133-7.8554688     c-0.1731339-0.2807617,0.2518921-0.5441437,0.4257813-0.2617188c2.0818024,3.381279,1.2035294,7.4770432-0.4472656,8.7275391     C93.0056534,81.7944031,89.6193848,84.5834274,86.4083023,83.8866806z M89.9898453,76.126915     c-0.2471313,1.2693176,1.1676941,1.8430862,2.3144531,1.1962891c-0.0551758-0.6191406-0.2045898-1.0712891-0.4648438-1.4130859     C91.2691498,75.1644211,90.1779327,75.1521454,89.9898453,76.126915z"/></g><g><path fill="#0e2365" d="M23.678812,94.510704c-0.1798553-0.2779617,0.2387714-0.5518875,0.4189453-0.2734375     c2.6103516,4.0029297,7.7226563,6.2236328,12.427248,5.40625c0.3175316-0.0630417,0.4173012,0.4349747,0.0859375,0.4921875     C31.6514359,100.9985352,26.3619118,98.6238174,23.678812,94.510704z"/></g><g><path fill="#0e2365" d="M28.1465855,102.73629c-1.7958984-0.4013672-3.4667969-1.3720703-4.7045898-2.734375     c-0.2241287-0.2453613,0.1517754-0.5808487,0.3701172-0.3359375c1.1689453,1.2861328,2.7475586,2.203125,4.4438477,2.5820313     C28.5760422,102.3199081,28.4732151,102.8050537,28.1465855,102.73629z"/></g></svg>