<svg xmlns="http://www.w3.org/2000/svg" enable-background="new 0 0 110 110" viewBox="0 0 110 110" width="110" height="110"><path fill="#0e2365" d="M60.3955002,99.0501938c-1.6191406,0.8286133-3.5107422,1.1977539-5.3564453,0.9692383      c-6.1922455-0.7634506-10.6132431-7.2081299-9.0830078-14.4238281c0.068531-0.3261032,0.5581017-0.2176514,0.4882813,0.1035156      c-2.0182457,9.5267868,6.6113777,16.6176987,13.7792969,12.8793945      c-1.1690102-3.6656799,1.5781555-6.4334869,3.2353516-5.3911133c0.3349609,0.2114258,0.5556641,0.5400391,0.6376953,0.949707      c0.3612061,1.7984161-1.6760674,3.7508011-3.2636719,4.6743164c2.1912651,5.478157,11.9779282,5.1945496,16.6142578-1.8286133      c-2.0594711-1.509613-1.7873993-3.8915939-0.0488281-4.2963867c1.2304993-0.2844315,2.3522568,0.8509903,1.3603516,2.9755859      c-0.1875,0.4013672-0.3964844,0.7919922-0.625,1.1704102c1.3408203,0.7651367,3.0205078,0.7631836,4.0185547,0.6699219      c8.4127655-0.7824097,13.9896698-9.1802597,11.4160156-17.2470703c-0.1009369-0.3169098,0.376709-0.4646835,0.4765625-0.1523438      c1.2548828,3.9360352,0.6435547,8.3417969-1.6367188,11.7861328c-3.8414383,5.8041306-11.249588,7.2631378-14.5419922,5.3662109      C72.9769287,104.6626129,62.7630501,104.8305359,60.3955002,99.0501938z M60.6650314,98.3324203      c1.344902-0.8039093,3.2454033-2.5771942,2.9414063-4.097168c-0.0556641-0.2758789-0.1953125-0.4863281-0.4150391-0.625      C62.0157013,92.8669128,59.7042351,95.1426163,60.6650314,98.3324203z M76.5898361,93.9457016      c-0.3448868,0.9342651,0.2924652,1.9948959,1.125,2.6132813c0.5419998-0.9012756,1.3887939-2.4746323,0.6279297-3.2006836      C77.8297729,92.867981,76.8377838,93.2746277,76.5898361,93.9457016z"/><path fill="#0e2365" d="M96.4976883,81.2237778c0,1.5494537-1.2534637,2.8029175-2.8029099,2.8029175      c-1.5406799,0-2.7941513-1.2534637-2.7941513-2.8029175c0-1.5406799,1.2534714-2.7941437,2.7941513-2.7941437      C95.2442245,78.4296341,96.4976883,79.6830978,96.4976883,81.2237778z"/><path fill="#0e2365" d="M49.0605659,84.7035294c0,1.5494461-1.2534676,2.8029175-2.8029137,2.8029175      c-1.5406799,0-2.7941475-1.2534714-2.7941475-2.8029175c0-1.5406799,1.2534676-2.7941437,2.7941475-2.7941437      C47.8070984,81.9093857,49.0605659,83.1628494,49.0605659,84.7035294z"/><path fill="#0e2365" d="M30.659174,16.4203129L29.589838,9.0604506c-0.0493011-0.3286781,0.4475002-0.397583,0.4941406-0.0722656      l1.0693359,7.3598623C31.2026863,16.6771946,30.7051697,16.7448368,30.659174,16.4203129z"/><path fill="#0e2365" d="M39.8496017,16.9305668l-1.1005859-7.5600576      c-0.0488739-0.3258457,0.4468231-0.4023209,0.4941406-0.0722656l1.1005859,7.5600576      C40.3930855,17.1872482,39.8954544,17.2553368,39.8496017,16.9305668z"/><path fill="#0e2365" d="M48.5996017,17.4203129l-1.140625-7.8398428c-0.0491562-0.3277311,0.4474602-0.3990326,0.4941406-0.0722656      l1.140625,7.8398428C49.1430855,17.6769943,48.6454544,17.7450829,48.5996017,17.4203129z"/><path fill="#01b990" d="M29.8264332,6.8744302c-0.9099731,0-1.6099854,0.7099609-1.5499878,1.5899653        c0.0499878,0.8699951,0.8300171,1.5700073,1.75,1.5700073c0.9100342,0,1.6099854-0.7000122,1.5499878-1.5700073        C31.5264454,7.5843911,30.7464771,6.8744302,29.8264332,6.8744302z M30.3664722,8.2344151        c-0.0800171,0.1099854-0.2300415,0.1400146-0.3500366,0.0599976c-0.265377-0.1689167-0.5809345-0.0381432-0.6900024,0.1799927        c-0.1339817,0.3017187-0.5984249,0.0666685-0.4499512-0.2299805        C29.3649197,7.3423443,30.6701717,7.778636,30.3664722,8.2344151z"/><path fill="#01b990" d="M38.8564644,7.0143838c-0.9100342,0-1.6099854,0.710022-1.5599976,1.5900264        c0.0599976,0.8699951,0.8399658,1.5700073,1.7600098,1.5700073c0.9099731,0,1.6099854-0.7000122,1.5499878-1.5700073        C40.5564766,7.7244058,39.7664375,7.0143838,38.8564644,7.0143838z M39.1564522,8.2944126        c-0.0700073,0.1099854-0.2299805,0.1500244-0.3400269,0.0800171        c-0.1565971-0.0896406-0.3699951,0.0250874-0.3699951,0.2099609c0.0226173,0.3164082-0.4752045,0.346839-0.5,0        c0-0.5520153,0.6054268-0.9440665,1.1199951-0.6399531C39.1864815,8.0143833,39.2264595,8.1744175,39.1564522,8.2944126z"/><path fill="#01b990" d="M47.5664253,7.2544351c-0.9099731,0-1.6099854,0.7099609-1.5599976,1.5899653        c0.0599976,0.8699951,0.8400269,1.5700073,1.75,1.5700073c0.9200439,0,1.6200562-0.7000122,1.5599976-1.5700073        C49.2664375,7.964396,48.4764595,7.2544351,47.5664253,7.2544351z M47.5464668,8.654398        c-0.257782-0.0991173-0.5679817,0.0281782-0.6400146,0.3400269c-0.0264626,0.1586018-0.2008553,0.2347012-0.289978,0.1900024        c-0.5756111-0.1234522,0.1766586-1.3892465,1.1199951-0.9899902        C48.0409584,8.3115149,47.8484306,8.7801914,47.5464668,8.654398z"/><path fill="#0e2365" d="M54.7167892,22.6244144c-0.3294716,0-0.3317299-0.498827-0.0009766-0.5l4.8427734-0.0195313      l3.1660156-4.3476563c0.1937637-0.2672977,0.5991936,0.0262585,0.4042969,0.2939453      c-3.3637848,4.5560627-3.2008018,4.5517559-3.4414063,4.5532227      C59.2967606,22.6059685,54.4819031,22.6253605,54.7167892,22.6244144z"/><path fill="#558dfd" d="M80.2952652,74.1048203c-0.1599731,0.039978-0.3300171,0.1000366-0.4899902,0.1500244       c-30.2200356,9.4500122-28.3900185,9-29.1199989,8.9299927c0.0100098,0.0200195,0.0100098,0.0299683,0.0100098,0.0499878       l-0.0900269,3.3900146c0,0.3399658-0.5,0.3200073-0.5-0.0100098c0.1099854-3.6599731,0.0700073-3.3800049,0.1099854-3.4899902       c-0.4400024-0.1300049,1.75,0.7399902-29.3399658-12.2700195l0.1300049-0.0200195       c-0.6100464-0.3099976-1.0599976-0.8899536-1.1799927-1.6099854       c-1.2400513-7.6400108-5.2400503-32.2899742-6.4500113-40.5199585       c-0.1300049-0.9400024,0.3300171-1.8000488,1.0700073-2.2400513c-0.4000244,0.1300049-0.7000122,0.2400513-0.7000122,0.2400513       l-2.6799927,3.2999878c-0.2900391,0.2399902-0.4299927,0.5899658-0.3500366,1.1199951       c1.2000122,8.2399921,5.3800039,33.9500122,6.6199942,41.5800171c0.1400146,0.8499756,0.7400513,1.5099487,1.5100098,1.75       v0.0199585c4.9100342,2.0800171-0.9599609-0.289978,31.0700073,12.3400269       c0.5400391,0.2099609,1.1400146,0.2299805,1.6900024,0.0599976c1.0289307-0.321907-5.4023285,1.6901779,20.8400307-6.5200195       c-0.3900146-0.5999756-0.5300293-1.4500122-0.1199951-2.0800171c1.29142-1.9870071,5.1917419-0.0746613,7.1799927-1.9099731       C80.2652969,75.6648178,80.4652481,74.8947983,80.2952652,74.1048203z M33.9552956,79.2348251l-5.0700073-2.0499878       c-0.3099976-0.1199951-0.1100464-0.6000366,0.1900024-0.460022l5.0599976,2.0400391       C34.4252663,78.8748398,34.2852516,79.3448105,33.9552956,79.2348251z"/><path fill="#0e2365" d="M78.2851486,64.7254868c-11.6176147-2.3792648-11.3857422-2.4103889-11.8779297-2.3808556      c-0.3348083,0.0279007-0.3507996-0.4848213-0.0214844-0.5c0.6134644-0.0275459,0.1178818-0.0355339,12.0009766,2.3915977      C78.7119904,64.3034058,78.6063309,64.7968597,78.2851486,64.7254868z"/><path fill="#0e2365" d="M49.8251877,83.257225L20.7792912,71.0848618c-0.23106-0.0959091-0.1907825-0.4389191,0.0585938-0.4775391      l0.1308594-0.0200195c0.0976563,0,0.1943359,0.0551758,0.2421875,0.1367188l28.8017559,12.0698242      c0.4785156,0.1870117,1.0214844,0.2055664,1.5195313,0.0517578c29.8553696-9.217186,28.6154251-9.2074661,28.7626953-8.7358398      c0.1496048,0.469696,1.1265411-0.2118683-28.6142578,9.2133789      C51.0750656,83.5100708,50.4166451,83.4867477,49.8251877,83.257225z"/><path fill="#0e2365" d="M19.5790958,69.2645493l-0.0488281-0.3056641      c-1.2880859-7.9374962-5.2060547-32.0927696-6.4013672-40.2177734c-0.1386719-1.0029297,0.328125-1.9799805,1.1894531-2.4916992      c0.1000452-0.0589542,0.916419-0.2775879,1.2177734-0.3398438c0.100976-0.0207882-0.3299484-0.0459614,11.5449219,0.6455078      c0.3437881,0.0195065,0.2847672,0.5313892-0.0292969,0.4990234c-1.3219261-0.0750637,4.4922295,0.255085-11.4453125-0.6499023      c-0.2841797,0.0600586-0.6943359,0.1723633-1.0664063,0.2954102c-0.6660156,0.4145508-1.0253906,1.1831055-0.9160156,1.9707031      c1.1996946,8.1555691,5.1416855,32.4535446,6.4492188,40.5141602c0.1760445,1.0997772,1.2422562,1.8374786,2.34375,1.6147461      l43.0615234-8.5605431c1.0517578-0.203125,1.7470703-1.2299805,1.5517578-2.2890625l-5.3496094-29.4003925      c-0.1689453-0.8969727-0.9257813-1.5620117-1.8388672-1.6152344l-4.0791016-0.2299805      c-0.3421593-0.0192757-0.2916107-0.5354137,0.0273438-0.4990234l4.0800781,0.2299805      c1.1435547,0.0664063,2.0898438,0.8984375,2.3027344,2.0229492l5.3496094,29.4013691      c0.2451172,1.3276367-0.6289063,2.6157227-1.9482422,2.8706055      c-47.8477974,9.5116081-42.6673317,8.4817924-43.0585938,8.5595665      C21.1616783,71.5642242,19.8054333,70.6678467,19.5790958,69.2645493z"/><path fill="#0e2365" d="M14.3261662,26.250391c0.375-0.2265625,0.8105469-0.3461914,1.2607422-0.3461914      c0.2983093,0,0.3445501,0.4338093,0.0507813,0.4946289c-0.3173828,0.0654297-0.7294922,0.1787109-1.1025391,0.3027344      C14.2517996,26.7960129,14.0752935,26.4029484,14.3261662,26.250391z"/><path fill="#c3d7f9" d="M63.6664619,57.9344292l-4.3800049-24.0599976      c-0.1500244-0.8300171-0.8499756-1.4400024-1.6900024-1.4900513l-1.1500244-0.0699463l1.5300293,8.7799683      c0.1699829,0.9899902-0.4400024,1.8699951-1.3699951,1.9700317l-24.1300049,2.6099854      c-1.2700214,0.1400146-2.4600239-0.7000122-2.6500263-1.8699951l-2.1399536-13.1400166l-7.5-0.4299927      c-1.1500244-0.0599976-2.0800171,0.9400024-1.9100342,2.0899677c0.9899902,6.7400513,4.2600098,26.9100342,5.2800293,33.1500206      c0.1599731,1.0200195,1.1399536,1.7000122,2.1499634,1.5l36.5200195-6.9299889      C63.20644,59.8544121,63.8464546,58.9144096,63.6664619,57.9344292z M50.4064522,51.9444389      c-0.105854,0.0136604-6.3288956,0.8299561-6.4400024,0.8299561c-0.3180962,0-0.3306961-0.4785042-0.0299683-0.5      l6.3999634-0.8200073C50.6574745,51.3856735,50.7354202,51.8937798,50.4064522,51.9444389z M38.70644,48.2643852      l10.4000244-1.3199463c0.3209839-0.0428505,0.4027252,0.4509926,0.0599976,0.5      c-2.1880341,0.2769012,5.5158768-0.6980515-10.4299927,1.3199463      C38.4395676,48.7643852,38.3772163,48.3114548,38.70644,48.2643852z M30.3564625,54.7143974      c-0.2944489,0-0.3465633-0.4447136-0.0300293-0.4899902l11.3900166-1.6500244      c0.3273582-0.0466652,0.3923111,0.4540558,0.0700073,0.5l-11.3900166,1.6400146H30.3564625z M53.4364815,57.0743828      c-2.7638817,0.457489,6.9524307-1.1508064-13.1100464,2.1700439c-0.3153343,0-0.3355637-0.4446144-0.039978-0.4899902      l13.0700073-2.1700439C53.6861305,56.5138321,53.7662621,57.0273514,53.4364815,57.0743828z M58.8364449,50.734417      c-0.1044121,0.0133133-6.8380585,0.8720474-6.4299927,0.8200073c-0.32164,0-0.331501-0.4676819-0.039978-0.4899902      l6.4099731-0.8300171C59.1047134,50.2091408,59.1723289,50.6863899,58.8364449,50.734417z"/><path fill="#0e2365" d="M25.6621037,66.7298813l36.5205078-6.9282188c0.3288651-0.0568275,0.415947,0.4297829,0.09375,0.4912109      l-36.5205078,6.9282188C25.427433,67.2826767,25.3394737,66.7913895,25.6621037,66.7298813z"/><path fill="#0e2365" d="M30.1953068,72.8983383c-0.6511421-0.2145004-0.5993214-1.1522293,0.0683594-1.2963867      c36.971344-8.198288,35.0051575-8.0877228,36.1337891-7.8442345l12.5126953,2.6933556      c0.7700119,0.1664047,0.7979355,1.2558517,0.0361328,1.4604492l0,0L44.4140549,77.120018      C43.0292969,77.4923935,43.2231712,77.0415649,30.1953068,72.8983383z M30.371088,72.0902328      c-0.1782875,0.0383148-0.1835155,0.279068-0.0195313,0.3334961c13.2368565,4.2389526,12.7974987,4.5185623,13.9335918,4.2128906      l34.5322266-9.2084961c0.2520599-0.0675354,0.2481079-0.4315872-0.0126953-0.4882813l-12.5126953-2.6928711      C65.5088501,64.0767288,67.4436264,63.7949409,30.371088,72.0902328z"/><path fill="#0e2365" d="M61.0390549,75.5013657c-0.513443-0.1775665-0.5055008-0.9138031,0.0175781-1.0620117l12.3691406-3.5595703      c0.0009766,0,0.0009766-0.0004883,0.0019531-0.0004883c0.3173828-0.0893555,0.65625-0.0839844,0.9726563,0.0166016      c1.0273438,0.3251953,2.9160156,0.9287109,4.0351563,1.3154297c0.5082397,0.1754379,0.5091782,0.9092026-0.0146484,1.0615234      l-12.3818359,3.640625C65.1521149,77.1716995,64.7200623,76.6922607,61.0390549,75.5013657z M61.1943283,74.920311      c-0.0828476,0.1545029-0.3454895-0.0424881,3.9755859,1.4921875c0.658577,0.2271423,0.2386551,0.082695,13.1113281-3.6196289      c0.0351563-0.0678711,0.0273438-0.0961914-0.0097656-0.1088867c-1.1132813-0.3847656-2.9970703-0.9868164-4.0214844-1.3115234      C73.6110077,71.1724319,73.9710236,71.317482,61.1943283,74.920311z"/><path fill="#0e2365" d="M39.6230392,72.7367172l29.3945313-8.1459961c0.3200989-0.0896683,0.4509048,0.3943787,0.1328125,0.4814453      l-29.3945313,8.1459961C39.4348831,73.308876,39.3065109,72.8233643,39.6230392,72.7367172z"/><path fill="#0e2365" d="M43.5546799,74.8802719c27.7340927-7.6888275,26.6409302-7.7474213,26.7685547-7.2783203      c0.0380859,0.1328125-0.0400391,0.2709961-0.1728516,0.3085938l-26.4609375,7.4511719      C43.3719521,75.4514465,43.2356567,74.9705887,43.5546799,74.8802719z"/><path fill="#0e2365" d="M56.0996017,73.7665024l-13.4863281-4.4594727c-0.3159027-0.104126-0.1538048-0.5783691,0.15625-0.4746094      l13.4863281,4.4594727C56.5716476,73.3959885,56.4089928,73.8736038,56.0996017,73.7665024z"/><path fill="#0e2365" d="M65.2246017,71.3304672l-13.2011719-4.0927734      c-0.3189735-0.0992355-0.162632-0.5785217,0.1484375-0.4775391l13.2011719,4.0927734      c0.1318359,0.0410156,0.2050781,0.1811523,0.1650391,0.3129883      C65.4946823,71.3016891,65.350563,71.3707733,65.2246017,71.3304672z"/><path fill="#0e2365" d="M18.8496037,22.7914066c-0.3056641,0-0.5859375-0.1503906-0.7548828-0.4047852l-3.1777344-4.78125       c-0.1831827-0.2759476,0.2339544-0.5517921,0.4160156-0.2763672l3.1787109,4.7817383       c0.0771484,0.1157227,0.1953125,0.1772461,0.34375,0.1806641c0.4643116-0.0076504,0.0945396-0.0015125,6.4316406-0.105957       c0.3286114,0,0.3319874,0.4942245,0.0039063,0.5l-6.4277344,0.105957       C18.8583927,22.7914066,18.8535099,22.7914066,18.8496037,22.7914066z"/><path fill="#0e2365" d="M17.6347599,42.2899437l3.6523438-5.4946289c0.1708984-0.2578125,0.4501953-0.402832,0.7675781-0.4042969       l6.4277344,0.105957c0.3285294,0.0057831,0.3241692,0.5-0.0039063,0.5c-0.1006947,0-6.5322895-0.1029701-6.4316406-0.105957       c-0.1416016-0.0039063-0.2675781,0.0654297-0.3427734,0.1801758l-3.6533203,5.4951172       C17.8700619,42.8410683,17.4510479,42.5666885,17.6347599,42.2899437z"/><path fill="#01b990" d="M17.7564259,41.1844292c-0.9199829,0-1.6599731,0.7399902-1.6599731,1.6499634       c0,0.9200439,0.7399902,1.6600342,1.6599731,1.6600342c0.9100342,0,1.6500244-0.7399902,1.6500244-1.6600342       C19.4064503,41.9244194,18.66646,41.1844292,17.7564259,41.1844292z M18.1864796,43.774395h-0.0300293       c-0.8409157-0.1009064-1.3189926-1.1747055-0.8300171-1.25c0.1300049-0.0299683,0.2700195,0.0599976,0.2900391,0.1900024       c0.0599976,0.2900391,0.3200073,0.5300293,0.5999756,0.5599976       C18.5362339,43.320118,18.4967327,43.774395,18.1864796,43.774395z"/><path fill="#0e2365" d="M63.4960861,36.1000023c-0.0830078-0.128418-0.2167969-0.2070313-0.3701172-0.1958008h-0.2597656       c-3.4284325,0.0235481-2.4418488,0.016758-5.8300781,0.0400391c-0.3303871,0-0.330513-0.497673-0.0019531-0.5       l6.0820313-0.0400391c0.3222656-0.0083008,0.6181641,0.1455078,0.7998047,0.4238281l2.7802734,4.3007813       c0.0751953,0.1157227,0.0419922,0.2705078-0.0742188,0.3457031       C66.2890091,40.6913872,66.2930603,40.3457108,63.4960861,36.1000023z"/><path fill="#0e2365" d="M53.8564644,43.3644218L29.16646,46.1244316c-1.2600098,0.1300049-2.4299927-0.6900024-2.6199951-1.8699951      l-4.4299927-24.9900532c-0.1500244-0.9099731,0.3899536-1.6399536,1.2600098-1.8699951      c0.1624126-0.058033,3.9946957-1.4274006,3.75-1.3399658c0,0,0.0599976,0.0599976,0.1399536,0.1699829      c-1.0700073,0.0999756-1.7699585,0.9099731-1.6099854,1.9299927c0.4263802,2.6227074-1.5445805-9.500886,4.1699829,25.6500263      c0.1900024,1.1699829,1.3800049,2.0100098,2.6500263,1.8699951L53.8564644,43.3644218z"/><path fill="#0e2365" d="M29.5790958,43.8446312L25.409174,18.1942387      c-0.2118607-1.3536949,0.9016132-2.3282328,2.2753906-2.2392569l24.4951153,1.3598623      c1.0791016,0.0673828,2.0722656,0.9707031,2.2626953,2.0566406l3.7802734,21.6801777      c0.1948013,1.1278915-0.5130882,2.14571-1.5898438,2.2612305l0,0      c-33.0676994,3.5765686-21.6626091,2.3430023-24.1298828,2.6098633      C31.1138725,46.0763512,29.7922554,45.1538124,29.5790958,43.8446312z M25.9033146,18.1156254l4.1699219,25.6489277      c0.1679688,1.0419922,1.2207031,1.7856445,2.3759747,1.6611328l24.1308594-2.6098633      c0.8032341-0.0869255,1.291748-0.8513069,1.1503906-1.6787109l-3.7802734-21.6796894      c-0.1494141-0.8535156-0.9570313-1.5908203-1.7998047-1.6435547l-24.498045-1.3598633      C26.6563892,16.3828659,25.7346363,17.0425777,25.9033146,18.1156254z M56.6064377,43.0643578h0.0058594H56.6064377z"/><path fill="#0e2365" d="M39.2685471,44.4149437L34.291008,19.2440434c-0.064167-0.3173962,0.4227562-0.4304695,0.4902344-0.0966797      l4.9775391,25.1709003c0.0273438,0.1352539-0.0615234,0.2666016-0.1962891,0.293457      C39.4318237,44.6386223,39.2959404,44.5541763,39.2685471,44.4149437z"/><path fill="#0e2365" d="M48.3027267,43.2699242l-0.890625-3.8896484c-0.0723801-0.3210564,0.4127655-0.4358177,0.4882813-0.1113281      l0.890625,3.8896484C48.8634491,43.4799004,48.3791466,43.593338,48.3027267,43.2699242z"/><path fill="#0e2365" d="M43.1826096,20.910059l-0.5605469-2.4501953c-0.0725746-0.3219109,0.4110794-0.4330044,0.4882813-0.1113281      l0.5605469,2.4501953C43.7433319,21.1200352,43.2590294,21.2334728,43.1826096,20.910059z"/><path fill="#0e2365" d="M51.0361252,28.3543949c-0.3275261,0-0.3322525-0.4930553-0.0058594-0.5l4.0302734-0.0898438      c0.3551254,0.0010395,0.3231468,0.4933739,0.0117188,0.5l-4.0302734,0.0898438      C51.0400314,28.3543949,51.0380783,28.3543949,51.0361252,28.3543949z"/><path fill="#0e2365" d="M28.4765568,28.8646488c-0.3275642,0-0.3322544-0.4918976-0.0058594-0.5l3.7802715-0.090332      c0.3486023,0.0200024,0.3248596,0.4922276,0.0117188,0.5C32.1600342,28.7767677,28.2438354,28.8702068,28.4765568,28.8646488z"/><path fill="#0e2365" d="M28.9013615,37.3041039c-0.3201656,0-0.3368721-0.4800873-0.0146484-0.4995117l26.8701153-1.605957      c0.3228836-0.0247459,0.3648109,0.4787979,0.0292969,0.4990234      C55.4668579,35.7167397,55.7022781,35.7028389,28.9013615,37.3041039z"/><path fill="#fbd072" d="M39.9264717,26.6144199l1.5199585,4.3699951c-0.039978-0.1099854-0.1399536-0.1900024-0.25-0.1799927       l-2.5199585,0.2399902C38.9164619,29.5143833,39.3164253,28.0243931,39.9264717,26.6144199z"/><path fill="#fbd072" d="M50.5364571,24.6144199c-0.1071396-0.8039589-0.688385-0.8948441-3.4299927-3.4100342       c-0.6533546-0.5988503-0.3191528-0.2210922-12.2399902-0.3899536c-0.3600464,0-0.6700439,0.1499634-0.8600464,0.4199829       c-1.9709244,2.9607201-2.353672,3.0098057-2.2500019,3.710022c1.6164494,10.8446865,1.2917042,10.6936893,1.8500385,11.2799702       l2.9299927,2.9400024c0.2600098,0.2600098,0.6199951,0.4099731,0.9699707,0.4000244l11.3900146-0.2700195       c0.2999878-0.0100098,0.5700073-0.1400146,0.7600098-0.3599854l2.2299805-2.6799927       C52.384079,35.6737633,52.0508499,35.9280624,50.5364571,24.6144199z M42.6664619,34.524395l-1.2000122-3.4799824       c0,0.1300049-0.0899658,0.2399902-0.2199707,0.2600098l-2.6400146,0.25       c-0.1099854,0.8499775-0.1799927,1.7099628-0.1699829,2.5700092c0.0234299,0.3296165-0.4751396,0.3598518-0.5,0.0099487       c-0.0500488-2.8499775,0.5699463-5.7199726,1.7999878-8.2999897c0.0993652-0.2236099,0.3978691-0.1665058,0.4599609,0.0200195       l2.9400024,8.5000019C43.2529144,34.6569862,42.7935219,34.8423386,42.6664619,34.524395z M47.4264717,33.2244072       c-0.1002235,0.0097237-2.5246811,0.2449875-2.3699951,0.2299805c-0.3233299,0-0.3385811-0.4679337-0.0300293-0.4899902       l0.9199829-0.0999756c-0.1282959-0.0963669-0.0186996,0.1020393-0.9599609-5.7399921c0-0.0100098,0-0.0100098,0-0.0200195       c-0.1002541,0.0094242-1.270298,0.1194096-1.1700439,0.1099854c-0.2984734,0-0.3387032-0.4544258-0.0199585-0.5l2.6099854-0.25       c0.3486404,0,0.3767242,0.4766407,0.0499878,0.5l-0.9799805,0.1000366       c0.9150848,5.9375858,0.9389763,5.6215916,0.8399658,5.7699604l1.0600586-0.1099854       C47.6931801,32.6791039,47.7545624,33.1738815,47.4264717,33.2244072z"/><path fill="#0e2365" d="M37.5107346,39.8163109c-0.3277512,0-0.3324127-0.491951-0.0058594-0.5l11.3857422-0.2749023       c0.3627472,0.0377846,0.3138847,0.4925499,0.0117188,0.5l-11.3857422,0.2749023       C37.5146408,39.8163109,37.5126877,39.8163109,37.5107346,39.8163109z"/><path fill="#0e2365" d="M46.2538986,21.1161137c-7.0469131-0.0317116-4.3436966-0.0195465-11.3925781-0.0512695       c-0.3309021-0.0011654-0.3284073-0.5,0.0009766-0.5c7.046917,0.0317135,4.3437004,0.0195484,11.3925781,0.0512695       C46.5857811,20.6172791,46.5832863,21.1161137,46.2538986,21.1161137z"/><path fill="#0e2365" d="M31.8759708,23.7650394l1.7773418-2.3920898c0.1977463-0.2652073,0.5985146,0.0332985,0.4003906,0.2978516       l-1.7773438,2.3920898C32.0812073,24.3283024,31.6769733,24.0307617,31.8759708,23.7650394z"/><path fill="#0e2365" d="M51.853508,35.4837914l-1.5615234-10.833498c-0.0487747-0.3251877,0.446991-0.4013386,0.4941406-0.0712891       l1.5615234,10.833498C52.3964996,35.7381554,51.900486,35.8165245,51.853508,35.4837914z"/><path fill="#0e2365" d="M33.4345627,36.4012718c-0.6865273-0.6892967-0.3021126-0.6404915-1.928709-11.4248066       c-0.0446568-0.3290443,0.4496956-0.3952827,0.4960918-0.0693359       c1.6230202,10.993784,1.3096924,10.6627827,1.7861328,11.1406269       C34.0223236,36.2831726,33.6676521,36.6343575,33.4345627,36.4012718z"/><path fill="#01b990" d="M14.5664244,14.694437c-0.9199829,0-1.6599731,0.7399902-1.6599731,1.6499634       c0,0.9100342,0.7399902,1.6500244,1.6599731,1.6500244c0.9100342,0,1.6500235-0.7399902,1.6500235-1.6500244       C16.2164478,15.4344273,15.4764585,14.694437,14.5664244,14.694437z M14.8964415,16.0044346       c-0.2610569,0-0.4239073,0.300108-0.2699585,0.5199585c0.2099752,0.2888355-0.2247944,0.5352325-0.4000244,0.2900391       c-0.394804-0.5483608-0.0136719-1.3099976,0.6699829-1.3099976       C15.2276087,15.5044346,15.2283182,16.0044346,14.8964415,16.0044346z"/><path fill="#01b990" d="M63.4364815,15.5044346c-0.9100342,0-1.6500244,0.7399902-1.6500244,1.6499634       c0,0.9199829,0.7399902,1.6500244,1.6500244,1.6500244c0.9099693,0,1.6499596-0.7300415,1.6499596-1.6500244       C65.086441,16.2444248,64.3464508,15.5044346,63.4364815,15.5044346z M63.9364815,16.9844151       c-0.0800171-0.1300049-0.1800537-0.2800293-0.3099976-0.3800049c-0.2159653-0.1727448-0.4700317-0.0771332-0.4700317,0.0800171       c0.0490303,0.3184109-0.4661407,0.3835907-0.4899902,0.0499878c-0.0733719-0.5505619,0.6205368-0.989934,1.2700195-0.5300293       c0.1999474,0.1600342,0.3299522,0.3600464,0.4299889,0.5300293       C64.5433426,17.0375805,64.0701828,17.2520237,63.9364815,16.9844151z"/><path fill="#01b990" d="M66.4864655,38.3843803c-0.9200439,0-1.6600342,0.7400513-1.6600342,1.6500244       c0,0.9199829,0.7399902,1.6500244,1.6600342,1.6500244c0.9099731,0,1.6499634-0.7300415,1.6499634-1.6500244       C68.1364288,39.1244316,67.3964386,38.3843803,66.4864655,38.3843803z M67.5964508,40.4244194       c-0.1199951,0.2700195-0.3200073,0.4899902-0.4899902,0.6799927c-0.2380981,0.238102-0.5817108-0.081234-0.3699951-0.3400269       c0.2602158-0.2949486,0.6126709-0.6921654,0.4199829-1.0499878c-0.1655197-0.2837181,0.2632523-0.5358047,0.4299927-0.25       C67.7464752,39.734417,67.7464752,40.0944023,67.5964508,40.4244194z"/><path fill="#fca8d7" d="M100.0964508,73.9244156c0.2800293,7.3699951-9.8900146,9.7600098-15.4899902,9.0299683       c-2.1099854-0.2799683-4.1699829-0.9299927-6.2900391-0.9799805c-1.7086334-0.0342026-4.2570114,0.4230499-5.7599487-1.0800171       c-0.710022-0.7099609-0.9900513-1.9099731-0.4500122-2.75c0.3399658-0.5199585,0.9199829-0.8299561,1.5100098-0.9799805       c0.0100098-0.0100098,0.0299683-0.0100098,0.039978-0.0100098c1.8318253-0.4676743,4.1640549,0.4213791,5.6799927-0.9699707       c2.1699829-2.0100098-0.8499756-4.6500244-2.3699951-5.8099976c-0.7700195-0.5900269-1.5899658-1.0900269-2.3900146-1.6400146       c-0.7799683-0.539978-1.2199707-0.289978-1.9899902,0.25c-1.4500122,1.0200195-3.1799927,1.6199951-4.9400024,1.7199707       c-0.6400146,0.0400391-1.3300171-0.0099487-1.8200073-0.4299927c-0.5599976-0.4799805-0.6499634-1.3599854-0.3899536-2.0599976       c0.2599487-0.7000122,0.789978-1.25,1.3399658-1.7600098c1.2473755-1.130394,3.542923-2.8761673,5.1900024-3.2099571       c0.7000122-0.1400146,1.4299927-0.0800171,2.1400146-0.0200195c2.5505066,0.2100677,2.8890686,0.5796127,3.6699829,0.8800011       c0.25,0.0999756,0.4799805,0.1900024,0.7000122,0.3300171c-0.2888184,0.4950562,1.0126724,0.5002136,2.8800049,2.9899902       c0.1868591,0.2616959,0.6128387-0.0399246,0.3999634-0.2999878c-0.8099976-1.0800171-1.7999878-2.0100098-2.9299927-2.7700195       c-0.0299683-0.0200195-0.0599976-0.0300293-0.0899658-0.0300293c-0.072876-1.0189209,1.8251953-1.9442863,3.1199951-0.8899498       c-0.1138458,0.4169693,0.8192215,0.2290001,2.0800171,1.6799889c0.2123108,0.2548218,0.5965424-0.0794754,0.3799438-0.3200073       c-0.5799561-0.6699829-1.3099976-1.2100182-2.1299438-1.5599937c-0.0100098-0.0100098-0.0300293-0.0100098-0.0400391-0.0100098       c0.5386505-0.628521,2.4985199-1.024662,3.9899902-0.039978c0.0100098,0.0899658,0.0700073,0.1699829,0.1600342,0.2099609       c1.1762161,0.4602776,1.1997452,1.1381493,1.5599976,0.8500328c0.0999756-0.1000366,0.1099854-0.260006,0.0200195-0.3600426       c-0.3800049-0.4199829-0.8700562-0.75-1.4000244-0.9599609c-0.0100098,0-0.0100098,0-0.0200195-0.0100098       c0.3667984-0.3667946,1.9380493-0.9236603,3.6400146-0.6400146c2.2600098,0.3699951,4.2600098,1.7200317,5.8300171,3.3900108       C98.006424,67.8843765,99.9764557,70.7844009,100.0964508,73.9244156z"/><path fill="#0e2365" d="M84.5752945,83.2048569c-2.1000366-0.2800293-4.1800537-0.9300537-6.2600098-0.9800415      c-2.185318-0.0533447-5.0449142,0.4813919-6.3599854-1.7099609c-0.8334122-1.4361954-0.3392715-3.0758743,1.5999756-3.6000366      c1.8900146-0.4699707,4.2199707,0.3699951,5.6099854-0.9099731c2.1680298-2.0186005-1.3583603-4.8320847-3.8399658-6.4700317      c-1.4097443-0.9397278-1.4111481-1.1730804-2.6000366-0.3499756c-0.2457428,0.2010117-0.5685577-0.1973495-0.289978-0.4000244      c1.5141449-1.0708847,1.7119522-0.5934448,3.1699829,0.3300171c0.5,0.3400269,1.0200195,0.6799927,1.5100098,1.0599976      c2.2812576,1.7499771,4.497551,4.2488403,2.3900146,6.1900024c-1.5599976,1.4400024-4.0700073,0.5999756-5.7900391,1.0299683      c-1.7325058,0.4532623-2.001152,1.8352051-1.2699585,2.960022c1.0058975,1.4535751,2.9937515,1.4461441,4.6199951,1.3900146      c3.4400024-0.1099854,4.75,0.5899658,7.5700073,0.960022C84.9652481,82.7448349,84.8952408,83.2448349,84.5752945,83.2048569z"/><g><path fill="#0e2365" d="M65.6269455,68.4554672c0.3974609-0.2700195,0.8076172-0.5493164,1.0693359-0.9355469      c0.21875-0.3212891,0.3447266-0.8071289,0.1318359-1.1699219c-0.1667786-0.2865753,0.2642593-0.5377121,0.4316406-0.2529297      c0.2841797,0.4848633,0.2255859,1.1538086-0.1494141,1.7041016c-0.3154297,0.4648438-0.7871094,0.7851563-1.2021484,1.0673828      C65.637085,69.0534058,65.3521347,68.6422043,65.6269455,68.4554672z"/></g><g><path fill="#0e2365" d="M86.6533127,58.4364281c0.4648438-2.5307617,0.9902344-5.3989258,0.3203125-8.0537109      c-0.3201523-1.2611275-1.0404587-2.5365105-2.3291016-2.4829102c-1.4506683,0.0652847-2.7297897,2.424427-2.4882813,3.7402344      c0.1181641,0.6435547,0.6953125,1.3056641,1.3798828,1.2558594c0.3269119-0.01511,0.363205,0.476944,0.0332031,0.4990234      c-0.9492188,0.0673828-1.7470703-0.8125-1.9052734-1.6645508c-0.2915878-1.5900002,1.176239-4.250309,2.9580078-4.3300781      c1.5484009-0.0753555,2.4552841,1.3566284,2.8359375,2.8598633c0.6972656,2.7607422,0.1611328,5.6855469-0.3125,8.2661133      C87.085083,58.8507042,86.5946655,58.7625008,86.6533127,58.4364281z"/></g><g><path fill="#0e2365" d="M90.3486252,57.2577171l1.2539063-4.2416992c0.0906982-0.3151245,0.5737-0.1775131,0.4794922,0.1416016      l-1.2548828,4.2416992C90.7363739,57.7155991,90.2524185,57.5756721,90.3486252,57.2577171z"/></g><g><path fill="#0e2365" d="M94.1923752,57.602932c0.1103516-1.6611328,0.6132813-3.2993164,1.453125-4.7363281      c0.3300781-0.5639648,0.8671875-1.3300781,1.7246094-1.4741211c1.0615234-0.1777344,2.0175781,0.7895508,2.1894531,1.7744141      c0.1435547,0.8217773-0.0869141,1.7265625-0.7050781,2.765625c-0.1705322,0.2838364-0.5979919,0.0281525-0.4296875-0.2558594      c0.5546875-0.9321289,0.7646484-1.7246094,0.6425781-2.4238281c-0.1318359-0.7524414-0.8486328-1.4921875-1.6152344-1.3671875      c-0.4941406,0.0830078-0.9316406,0.4750977-1.375,1.2333984c-0.8007813,1.3706055-1.2802734,2.9326172-1.3867188,4.5170898      C94.6682587,57.9698334,94.1689453,57.9333382,94.1923752,57.602932z"/></g><g><path fill="#0e2365" d="M38.9121017,37.7655296c-0.3292084,0-0.3323402-0.4976692-0.0009766-0.5      c0.3124962-0.0018044,7.4870071-0.0431671,7.0292969-0.0405273c0.3292122,0,0.3323441,0.4976654,0.0009766,0.5      l-7.0283203,0.0405273H38.9121017z"/></g><g><path fill="#0e2365" d="M34.3808517,31.2328129l-0.3232422-4.2011719c-0.024559-0.3148232,0.4729462-0.3920059,0.4980469-0.0380859      l0.3232422,4.2011719C34.9046974,31.5253773,34.4055824,31.5654163,34.3808517,31.2328129z"/></g><g><path fill="#0e2365" d="M22.8876896,62.9549828l-2.5703125-16.4013672     c-0.0514145-0.3260117,0.4425335-0.4043884,0.4941406-0.0771484l2.5703125,16.4013672     C23.4331188,63.2030449,22.9401493,63.2867928,22.8876896,62.9549828z"/></g><g><path fill="#0e2365" d="M63.0742111,54.971096l-3.0302734-16.6762695c-0.0586166-0.3259201,0.4342003-0.4116592,0.4921875-0.0869141     c4.1527023,22.8492203,2.7204323,14.9684944,3.0302734,16.6733398     C63.6251373,55.2078247,63.135273,55.2989693,63.0742111,54.971096z"/></g><g><path fill="#0e2365" d="M16.5205021,77.9276352c-2.5672617-0.6703491-3.8633642-3.5600052-2.6484375-5.9223633     c0.1522884-0.2963715,0.5950012-0.0650101,0.4453125,0.2285156c-1.0784349,2.0973129,0.0996618,4.6284256,2.3300781,5.2104492     C16.9659081,77.5273666,16.8408031,78.0149918,16.5205021,77.9276352z"/></g><g><path fill="#0e2365" d="M12.042963,80.3695297c-1.4052734-0.746582-2.2802734-2.3745117-2.1279297-3.9584961     c0.0323849-0.3261566,0.5286665-0.2830734,0.4980469,0.0478516c-0.1337891,1.3881836,0.6328125,2.8149414,1.8642578,3.4692383     C12.5707169,80.0842056,12.33218,80.5255585,12.042963,80.3695297z"/></g></svg>