<svg xmlns="http://www.w3.org/2000/svg" enable-background="new 0 0 110 110" viewBox="0 0 110 110" width="110" height="110"><path fill="#0e2365" d="M97.335083,36.7873878c0.0791016-2.6142578-0.5649414-5.1953125-1.8632813-7.4648438     c-0.1642838-0.2866154,0.269577-0.5365314,0.4335938-0.2480469c1.3442383,2.3496094,2.0117188,5.0214844,1.9296875,7.7285156     C97.8242416,37.1352844,97.3256912,37.1205978,97.335083,36.7873878z"/><path fill="#fca8d7" d="M29.3761196,34.3005867c0.1799927,1.0999756,0.1299438,2.9000244-0.4500122,3.4100342         c-0.2399902,0.2199707-0.9000244,0.7099609-1.7399902,0.6099854         c-0.8300171-0.1099854-1.4200439-0.8000488-1.5700073-1.4200439         c-0.1500244-0.5999756-0.2200317-2.4299316-0.0800171-3.0500488         c0.0100098-0.0799561,0.1099854-0.1599121,0.2700195-0.1799316c1.1007309-0.0918236,2.1597996,0.0211067,3.3399658,0.4099121         C29.2660732,34.1305428,29.3561001,34.2106209,29.3761196,34.3005867z"/><path fill="#fca8d7" d="M63.6761055,23.580492C62.2610168,12.1153965,50.8321037,4.7484822,45.1660957,7.6605711         c-2.7200317,1.3699951-3.9700317,4.7600098-6.6799927,6.1500244         c-3.6099854,1.8699951-8.170042-0.460083-12.0100079,0.8499756         c-5.598959,1.8906183-7.0982399,10.1941576-8.1199951,16.0100098         c-0.710022,4.0700703-1.3800049,8.1400166-1.9799805,12.2199726         c-0.2800293,1.8200684-0.4600229,3.8800049,0.6899414,5.2900391         c0.5300293,0.6300049,1.3100586,1.0300293,2.1200562,1.1499023c0.1099854,0.0200195,0.2299805,0,0.3399658,0.0100098         c0.0100098-0.0100098,0.0100098-0.0198975,0.0100098-0.0299072c0.2751656-2.1801529-0.1461582-3.2226295,0.6500244-4.210083         c0.1399536-0.3999023,0.4199829-0.7700195,0.9099731-1.039917         c5.4529591-3.0194359,16.0561619-8.0229149,20.3099957-5.5100098         c0.8699951,0.5200195,1.6500244,1.0599365,2.460022,1.5699463c-0.0100098-0.1599121-0.0100098-0.3099365-0.0200195-0.4599609         c4.2544403,0.6515274,8.8141861-1.3154221,11.25-4.9099121c0.3400269-0.5,0.6500244-1.0400391,1.1300049-1.420166         C58.1590919,31.8328171,64.8006897,32.425518,63.6761055,23.580492z M29.2660732,38.0804939         c-1.5971584,1.4232788-3.7295494,0.6585693-4.1399536-1.0698242         c-0.1600342-0.6601563-0.2300415-2.5700684-0.0800171-3.2700195         c0.0599976-0.3000488,0.3499756-0.5300293,0.7099609-0.5600586c1.1900024-0.1099854,2.3600464,0.0300293,3.5500488,0.4299316         c0,0,0,0,0.0099487,0c0.2900391,0.1000977,0.5100098,0.3400879,0.5500488,0.6101074         C29.9961147,34.9706306,30.1460781,37.2905769,29.2660732,38.0804939z"/><path fill="#0e2365" d="M55.617794,33.211216c-0.2421875-1.4951172-0.9448242-2.9277344-1.9790039-4.0341797         c-0.2265892-0.2418518,0.140522-0.5828972,0.3652344-0.3417969c1.1015625,1.1787109,1.8496094,2.7041016,2.1069336,4.2958984         C56.1648216,33.4589996,55.6693954,33.5363083,55.617794,33.211216z"/><path fill="#0e2365" d="M28.683712,14.452426c-0.3018017-0.1193438-0.136013-0.5803308,0.1816406-0.4667969       c4.6183281,1.7954531,9.8566093,0.4521341,13.0444336-3.2880859c0.2173119-0.2513762,0.5936432,0.0730648,0.3808594,0.3242188       C38.9549637,14.9347143,33.4829712,16.3191776,28.683712,14.452426z"/><path fill="#c3d7f9" d="M72.7461166,102.5605927c-2.3888779-1.1429291-1.1930389-3.5115509-1.1700439-6.75       c0.0122528-1.9838486-0.4897079-3.5716782-0.9599609-5.2200928c0.9199829-0.5,1.6900024-1.3199463,1.7699585-2.3398438       c2.1000366,1.7698975,4.8300171,2.7799072,7.5900269,2.789917c0.7364426,1.3130188,1.4382477,2.8340225,1.5899658,4.3099365       C82.1331863,100.5246964,76.3797455,104.2630997,72.7461166,102.5605927z"/><path fill="#0e2365" d="M60.7486534,87.1145325c-0.1626663-0.2858276,0.269928-0.5376282,0.4345703-0.2480469       c3.5624428,6.2508163,10.7166786,4.3856659,10.9536171,1.3642578c0.014801-0.2030487,0.254631-0.3009415,0.4101563-0.171875       c2.1036682,1.7740479,4.9207764,2.8448868,8.1386719,2.7119141c3.2133484-0.1891327,7.7176361-2.0411987,9.9106445-4.6025391       c1.3051758-1.5322266,2.1181641-3.5830078,2.3505859-5.9316406c0.0330887-0.3218155,0.530159-0.2842331,0.4980469,0.0488281       c-0.2426758,2.4511719-1.0961914,4.5976563-2.4682617,6.2070313       c-2.2565689,2.6352768-7.1184082,4.7978516-11.0004883,4.7978516c-2.6879883-0.0097656-5.3046875-0.921875-7.4169922-2.5771484       C71.678093,92.0374298,64.3189545,93.3806229,60.7486534,87.1145325z"/><path fill="#558dfd" d="M94.6488876,71.3625946c-1.4749527,0.4249725-2.9129868,0.4642029-4.4082642,0.0491943       c-0.3162537-0.0883636-0.1885147-0.5679016,0.1337891-0.4824219c1.4454346,0.4013672,3.0210571,0.3537598,4.4453735-0.1240234       c1.6275635-2.3116455,2.059021-5.4359131,1.0490112-8.0820274c-1.0222168-2.6783447-3.4721069-4.7390137-6.2682495-5.3508301       c-0.2881851,0.1119537-2.5046005-0.3251076-4.4463501,0.2473145c-0.3216553,0.0938148-0.4544067-0.3881798-0.140625-0.4804688       c1.3629761-0.4003906,2.8288574-0.3415527,4.1625366-0.2546387c0.2850952-2.7938232-1.6559448-5.4277344-3.9170532-6.8833008       c-0.9650879-0.6210938-2.1713257-1.1413574-3.3422852-1.0671387c-0.3307495,0.020874-0.6737671,0.1955566-0.7957764,0.50354       c0.3948135-5.2643013-2.7820511-8.8707619-7.397583-9.0854492c-3.9978561-0.1859703-7.6717911,2.3826752-8.3190918,4.1029053       c0.0536499,0.0517578,0.0899048,0.1186523,0.0814209,0.1987305c-0.1601563,1.5234375,0.5800781,3.1279297,1.8422852,3.9921875       c1.2670898,0.8652344,3.0307617,0.9736328,4.3896484,0.2734375c0.204567-0.1133003,0.4504242,0.1143608,0.3374023,0.3359375       c-0.2788086,0.5439453-0.2094727,1.2890625,0.1757813,1.8974609c0.9425583,1.4957008,4.0842056,2.6934853,7.0195313,1.859375       c0.3115845-0.0951767,0.4592361,0.3879814,0.1367188,0.4804688c-3.6333084,1.0380859-8.4962311-0.9226723-7.9648438-3.9003906       c-3.4706726,1.2534294-6.7909927-1.598362-6.4335938-4.9912109c0.0097046-0.0969238,0.0797729-0.1606445,0.1663208-0.192627       c-1.0595932-1.8519821-2.5314331-2.6756477-4.7700844-2.317627c-1.3241692,0.2122688-3.4199486,1.2092552-3.713623,2.4085693       c-0.0443001,0.1808662-0.0347748-0.3955994-0.0200806,6.3814697c0.0014038,0.5769043,0.557312,1.0322266,1.1052856,0.8513184       c4.410141-1.4562187,8.6659431,3.5694733,5.5426636,7.7770996c-1.3203392,1.7786407-3.4077988,2.5167923-5.388916,1.970459       c-0.6270752-0.1727295-1.2351074,0.3413086-1.2336426,0.9920654l0.0160522,7.4009972       c0.0010986,0.496582-0.4007568,0.9001465-0.8973999,0.901123l-6.3030396,0.013916       c-0.6074219,0.0012207-1.0065308-0.576416-0.8547363-1.1645508c0.7507629-2.9081955-1.1978683-5.7224693-3.946106-6.2529259       c-3.5836792-0.6745605-6.6627808,2.4335899-5.9725952,5.9986534c0.0458374,0.2496338,0.1695557,0.4986572,0.1549072,0.7524414       c-0.0445328,0.763382-0.4400444,0.6904221-1.1472168,0.6920166c-0.1168594,0.0002365-4.8579941,0.010582-5.0310059,0.0109863       c-0.5205078,0.0012207-0.9837017-0.0998535-1.0891094,0.5262451c-0.1550903,0.9211426,0.3826904,1.9667969,0.690794,2.8093262       c1.96978,5.3870163,6.6402779,7.8103714,10.4971313,7.1981201c1.1192017-1.133667,2.0797119-2.4162598,2.8540649-3.810791       c0.1601524-0.2903442,0.5981789-0.0463257,0.4375,0.2421875c-0.7978516,1.4365234-1.7871094,2.7568359-2.9404297,3.9248047       c-0.0118408,0.012085-0.0297241,0.0090332-0.0432129,0.0180664c-0.0800171,2.6044922,1.9655151,5.0166016,4.4190674,6.0148926       c2.6113892,1.0623779,5.553833,0.8599854,8.3416138,0.4399414c3.0800781-0.4638672,6.2317505-1.2390137,8.6972694-3.123291       c-0.0499878-0.0998535-0.0441284-0.2199707,0.0447388-0.296875c4.3158112-3.7233124,4.002182-10.1980057,1.6015625-12.0048828       c-0.5854492-0.4404297-1.3598633-0.7080078-2.4370155-0.8417969c-0.320015-0.0387192-0.2770958-0.5276489,0.0615234-0.4960938       c1.1887474,0.1471634,2.2821541,0.4693298,3.1064491,1.3203125c-0.0659103-1.7364426,0.8099823-3.408638,2.1118164-4.3779297       c0.2599716-0.1987305,0.5672531,0.2017365,0.2988281,0.4003906c-1.1577148,0.8623047-1.8935547,2.2949219-1.9213867,3.7373047       c-0.0239105,1.2565842,0.4815063,1.442955,0.4420776,1.7028809c1.2991791,3.1142731,0.4517365,7.7894058-2.7064209,10.7102051       c4.071228,1.0908203,8.675415-0.0406494,11.7446289-2.93396c0.2401733-0.2264404,0.4737549-0.5047607,0.5702515-0.8079834       c-1.8870697-0.32061-3.9561996-2.2212296-4.6809082-3.6516113c-1.2578888-2.4895248,0.0413513-6.2241745,2.6845703-6.5244141       c0.3260422-0.0400162,0.3878021,0.4583817,0.0566406,0.4960938c-2.2930908,0.2611618-3.3914261,3.6364365-2.2949219,5.8017578       c0.2363281,0.4667969,0.5771484,0.9160156,1.1054688,1.4580078c2.5439377,2.6083832,3.9024048,1.5830612,3.8652344,2.2382813       c-0.001709,0.0306396-0.024353,0.0509033-0.0360107,0.0775146c1.4467163,0.5856934,3.144165,0.5473633,4.5487061-0.1402588       c0.6525879-0.319458,1.2822266-0.9067383,1.3863525-1.5822754c-0.608696-3.3066559-3.569809-4.9563599-5.9381104-3.9907227       c-0.3086166,0.1248627-0.4941559-0.3391418-0.1894531-0.4628906c2.6776733-1.0916824,6.0003815,0.7644882,6.6352539,4.4257813       c0.0038452,0.0220947-0.0116577,0.0391846-0.0134888,0.0605469c1.7158203,1.6046143,4.2475586,2.3149414,6.5375977,1.763916       c2.5212402-0.6064453,4.6238403-2.7022705,5.2385864-5.2215576       C96.8047714,74.1945038,96.2704697,72.0033417,94.6488876,71.3625946z M50.6849556,85.1246796       c-0.1039009-0.0170975-1.5423241,0.0635223-2.9804688-0.9658203c-0.2696915-0.1922989,0.0243454-0.6018829,0.2910156-0.40625       c0.7788086,0.5566406,1.734375,0.8662109,2.690918,0.8720703       C51.0178413,84.6270218,51.0132027,85.1246796,50.6849556,85.1246796z M81.3031235,49.6783943       c0.6767578,1.0107422,1.1494141,2.1757813,1.3671875,3.3701172c0.0585175,0.3253517-0.4326019,0.415596-0.4921875,0.0898438       c-0.2055664-1.1279297-0.6513672-2.2275391-1.2900391-3.1826172       C80.7025757,49.6809998,81.1219254,49.4019508,81.3031235,49.6783943z M57.9740181,80.8170624       c-1.3496094,0-2.6601563-0.5292969-3.5244141-1.4833984c-0.2228661-0.2463226,0.1515961-0.5800247,0.3701172-0.3359375       c2.2662964,2.5012512,6.8224068,1.1473541,6.9785156-1.5966797c0.0181808-0.3203812,0.5180016-0.3075562,0.4990234,0.0292969       C62.2010269,79.1218262,60.4225883,80.8170624,57.9740181,80.8170624z M86.0321274,68.9069061       c-0.3452148,0.5703125-0.8344727,1.2832031-1.5595703,1.7382813c-1.6791992,1.0546875-3.8217773,0.3115234-5.1474609-0.6435547       c-2.6115341-1.8861008-3.8901978-5.0364227-9.2035522-5.6474609c-0.204689,0.1027069-0.2735748-0.1856155-2.1734009-0.0527344       c-4.3738213,0.3153534-10.3444939,3.6284103-11.1709023,7.8378906       c-0.3157196,1.6084671,0.2385712,2.792099,2.0537109,3.4697266c1.4511719,0.5429688,3.1015625,0.5058594,4.5268555-0.0947266       c0.3004456-0.129921,0.5017471,0.3308792,0.1943359,0.4609375c-1.5094147,0.6366882-3.3003769,0.6986618-4.8959961,0.1025391       c-1.8984947-0.7094879-2.7619171-2.0377502-2.3691406-4.0341797c0.9245071-4.7188263,7.728138-8.3402214,12.6898842-8.2717247       c-0.8669586-0.6174126-1.3534164-1.2715569-1.5287476-2.3620605c-0.3495789-2.1884842,0.9299927-4.6206703,3.621582-5.7724609       c0.3053207-0.1306839,0.5000381,0.3304749,0.1962891,0.4589844c-2.4680405,1.056469-3.6398239,3.2636948-3.3237305,5.2353516       c0.2059479,1.2853737,0.9220123,1.8322716,2.0500488,2.4993896c5.6074295,0.5518456,7.1013184,3.9454079,9.6247559,5.7642784       c1.199707,0.8662109,3.1220703,1.5488281,4.5898438,0.6259766c0.6357422-0.3994141,1.0805664-1.0507813,1.3974609-1.5742188       C85.7767029,68.3658142,86.2030334,68.6236267,86.0321274,68.9069061z M91.0438461,74.9645233       c-2.1441116,0.7421265-3.8703156-0.0007858-4.5585938-1.2412109c-1.0333023-1.865799,0.3255386-4.9718094,0.3847656-7.7285156       c0.1394119-6.507576-6.6651077-8.8899803-12.7319336-5.1728477c-0.2783508,0.1754265-0.5449448-0.251976-0.2607422-0.4257813       c6.3805237-3.90662,13.6403275-1.3069382,13.4926758,5.6093712c-0.0595856,2.7589645-1.3663864,5.8164673-0.4472656,7.4755859       c0.5740585,1.0345001,2.0396957,1.6723938,3.9580078,1.0107422       C91.1839447,74.3778915,91.3625259,74.8551254,91.0438461,74.9645233z"/><path fill="#0e2365" d="M71.4019775,101.8039856c-1.1296463-2.4856262,0.7741241-5.0319977-0.8579102-10.2109375       c-0.0997009-0.3166962,0.377594-0.46241,0.4765625-0.1503906c1.6114044,5.1095963-0.1809235,7.9169769,0.8364258,10.1542969       C71.9931564,101.8970871,71.540062,102.1058655,71.4019775,101.8039856z"/><path fill="#0e2365" d="M73.2081299,96.3293762l-0.2910156-2.2109375       c-0.0434723-0.3289566,0.4533615-0.3900909,0.4960938-0.0644531l0.2910156,2.2109375       C73.7465973,96.5945282,73.2508926,96.6539001,73.2081299,96.3293762z"/><path fill="#0e2365" d="M79.362915,98.1242981c0.8696289-1.2519531,1.0991211-2.9248047,0.5986328-4.3652344       c-0.1079254-0.3143692,0.3652115-0.473671,0.4726563-0.1640625c0.5517578,1.5888672,0.2988281,3.4335938-0.6601563,4.8144531       C79.5854111,98.6810913,79.1744232,98.3959122,79.362915,98.1242981z"/><path fill="#0e2365" d="M72.494751,88.6262512c-0.7827148-0.5966797-1.2739258-1.5810547-1.2817383-2.5673828       c-0.0023651-0.3333435,0.4976425-0.3360977,0.5-0.0039063c0.0068359,0.8349609,0.4223633,1.6679688,1.0854492,2.1748047       C73.0654755,88.4324188,72.7522736,88.8256302,72.494751,88.6262512z"/><path fill="#0e2365" d="M79.2677002,87.8733215c-0.3501968-0.0372543-0.2478027-0.5628357,0.0546875-0.4960938       c2.2768555,0.2451172,4.6811523-0.3261719,6.5947266-1.5869141c0.2759018-0.1815796,0.5519104,0.2351837,0.2753906,0.4179688       C84.1954193,87.52285,81.6746979,88.1411209,79.2677002,87.8733215z"/><path fill="#0e2365" d="M33.9434776,77.7151184c-1.1857796-1.5416565-1.6344337-2.8615799-2.0703125-3.9560547       c-0.3051758-0.7646484-0.6508789-1.6328125-0.5131836-2.4501953c0.1279297-0.7597656,0.7128906-0.7460938,1.1489258-0.7373047       c1.4341545-0.0021439,5.4725075-0.008194,5.2143555-0.0078125c0.4138184-0.0417938,1.1519775,0.2553711,0.8251953-0.8564453       c-1.0416222-3.4720764,2.0941811-7.3507996,6.1894531-6.583004c0.323494,0.0628357,0.2336426,0.5477982-0.0927734,0.4921875       c-3.3989067-0.6447792-6.3407631,2.2955894-5.6806641,5.7050743c0.0445099,0.2440948,0.1771736,0.5009766,0.1586914,0.8144531       c-0.0466957,0.7877274-0.4488754,0.9613953-1.2338867,0.9316406c-0.0755386-0.0026016-5.3165054,0.0037613-5.3920898,0.0039063       c-0.4848633-0.0087891-0.5922852,0.0126953-0.644043,0.3203125c-0.1421432,0.84198,0.3800049,1.8661575,0.6787109,2.6826172       c0.4560547,1.2470703,1.0644531,2.3701172,1.8081055,3.3359375       C34.5433846,77.675354,34.1402893,77.9723358,33.9434776,77.7151184z"/><path fill="#0e2365" d="M49.4923058,71.0383606c-0.3311844,0-0.330204-0.5-0.0004883-0.5l6.3027344-0.0146484       c0.3556252,0,0.6489677-0.2891769,0.6479492-0.6494141c-0.0011711-0.3330078,0.4988213-0.3344955,0.5-0.0019531       c0.0020142,0.632103-0.5075951,1.1493378-1.1469727,1.1513672       C55.6621666,71.024025,49.3589439,71.0386734,49.4923058,71.0383606z"/><path fill="#0e2365" d="M63.0982628,59.3596535c2.961895-3.987751-1.0499344-8.7833862-5.2631836-7.3896484       c-0.7105904,0.2343559-1.4321022-0.3421021-1.434082-1.0878906c-0.018158-6.6890068-0.0407066-6.1631508,0.027832-6.4423828       c0.3230972-1.3229256,2.4928894-2.3674469,3.9165039-2.5957031c2.2398376-0.3558617,3.8180656,0.4263458,4.9428749,2.2675781       c1.1476669-2.0619164,4.7734985-4.1838379,8.4467773-4.0087891c4.4833221,0.2093773,7.7617035,3.5435486,7.6655273,8.7128906       c0.9040985-0.4431877,0.9056473,0.3433495,0.5322266,0.3671875c-0.2260742,0.0146484-0.4926758,0.1279297-0.5791016,0.3466797       c-0.1043549,0.2625656-0.5024109,0.1762505-0.4819336-0.1103516c0.3880081-5.1826248-2.7423248-8.6118202-7.1601563-8.8164063       c-2.9639893-0.1406975-6.0261688,1.3864899-7.2670898,2.7958984c-0.8901367,1.0117188-0.8422852,1.2880859-0.8417969,1.2900391       c0.1240158,0.2967262-0.3160934,0.489994-0.4560547,0.203125c-0.9712982-1.973175-2.4446106-2.9236717-4.7221718-2.5537109       c-1.3035393,0.2098618-3.2560806,1.182888-3.5102539,2.2207031c-0.0680847,0.2791443-0.0249023,0.5907898-0.0249023,0.9140625       l0.0117188,5.4082031c0.0009575,0.4080315,0.3922882,0.7398872,0.7773438,0.6142578       c4.6502151-1.5385361,9.0880013,3.7615051,5.8212891,8.1630859       C63.3062859,59.9175606,62.8987885,59.6287689,63.0982628,59.3596535z"/><path fill="#0e2365" d="M47.4268761,87.9787903c-0.3074608-0.1243896-0.1161575-0.5898209,0.1884766-0.4628906        c2.6259766,1.0693359,5.6245117,0.8134766,8.2104492,0.4248047c7.8000603-1.1761169,8.5405846-3.524292,9.0996132-3.3310547        c4.078125,1.2138672,8.7138672,0.1103516,11.8100586-2.8076172c0.4174805-0.3935547,0.5922852-0.7207031,0.5336914-0.9990234        c-0.0442581-0.2086258,0.1815796-0.3781509,0.3696289-0.2685547c1.484375,0.8583984,3.4375,0.9248047,4.9775391,0.171875        c0.7167969-0.3505859,1.4121094-1.0546875,1.2441406-1.7714844c-0.0600204-0.2533875,0.2627258-0.4160919,0.4326172-0.2197266        c1.6313477,1.8925781,4.3608398,2.7734375,6.7924805,2.1875c2.4306641-0.5849609,4.4619141-2.609375,5.0546875-5.0380859        c0.0778885-0.3185501,0.5639038-0.2044449,0.4853516,0.1191406c-0.6357422,2.6054688-2.8149414,4.7783203-5.4228516,5.4052734        c-2.4018555,0.578125-5.0791016-0.1777344-6.8549805-1.8896484c-0.3776932,1.6495361-3.6506958,3.0861969-6.5952148,1.6611328        c-0.3573456,1.5503159-6.2139511,5.8537521-12.8427734,3.9648438        c-2.6674843,2.1298828-6.210453,2.8876953-9.0097694,3.3095703        C53.0691528,88.8616028,50.0823479,89.0597992,47.4268761,87.9787903z"/><g><path fill="#fbd072" d="M50.0260811,38.8505135c-1.8397827-1.0199547-4.085434-0.7979126-5.6699829,0.5100098       c-0.4500122,0.3701172-1.1300049,0.1401367-1.3400269-0.3898926l-2.0799561-5.2399902       c-0.1998482-0.5494003-0.9642487-1.0280075-1.7000122-0.7399902c-0.1049118,0.0414047-7.651638,3.020031-7.5499859,2.9799805       c-0.1000366,1.619873-0.3800049,3.1799316-1.5,4.369873c-1.5700073,1.6800537-3.710022,1.5300293-4.8900146-0.4599609       c-0.2200317-0.369873-0.4100342-0.75-0.5800171-1.1499023l-5.0299683,1.9899902       c-1.8800049,0.7299805-2.7900391,2.8499756-2.0500488,4.6999512       c11.2510509,28.4496117,7.3705482,18.6373024,8.210022,20.760006c0.1599731,0.4099121,0.5800171,0.6199951,1,0.5300293       c0.2803688-0.0561371,2.7549858-1.0676575,4.8300171-1.8701172l1.0100079-0.3999023       c0.2999878-0.1199951,0.7999878-0.2299805,0.8699951-0.6000938c0.0299683-0.1499023-0.0100098-0.3199463-0.0599976-0.4599609       c-0.0700073-0.2399902-0.2800293-0.4299316-0.4100342-0.6499023c-1.9022007-2.9769096-0.3385696-7.0116692,3.3599854-7.7700195       c2.7593307-0.5131912,5.5890656,1.4132156,5.960022,4.3798828c0.0700073,0.6101074,0.6599731,0.9899902,1.2200317,0.7700195       l5.8599854-2.3099365c0.4699707-0.1800537,0.6900024-0.7000732,0.5100098-1.1700439l-2.7200317-6.8798828       c-0.2399902-0.6000977,0.1400146-1.3000488,0.7800293-1.3701172       C52.7965622,47.8457375,54.3178139,41.2085991,50.0260811,38.8505135z M21.5461025,50.3905525       c-0.5587502-1.2643204-0.7540169-2.5971107-0.6500244-3.8299561c0.0226955-0.3174667,0.5245075-0.3026047,0.5,0.039917       c-0.0599976,0.7200928-0.0100098,1.4500732,0.1500244,2.1501465c0.1360054,0.6967316,0.3177567,1.0499496,0.4599609,1.4299316       C22.0884571,50.359127,21.6854229,50.7045021,21.5461025,50.3905525z M49.2461128,42.9806404       c-1.6847496-1.446804-4.0799217-0.8881073-4.3900146,0.1398926c-0.0875549,0.3210373-0.5771255,0.1752396-0.4799805-0.1398926       c0.4212608-1.4044838,3.274498-2.0276451,5.1999512-0.380127       C49.810894,42.8119812,49.5065231,43.1936493,49.2461128,42.9806404z"/></g><g><path fill="#0e2365" d="M31.5948448,35.7385597l1.7099609-0.6699219c0.3094139-0.1205215,0.4899063,0.345665,0.1826172,0.4648438      l-1.7099609,0.6699219C31.4676876,36.3233147,31.2877731,35.8576508,31.5948448,35.7385597z"/></g><g><path fill="#0e2365" d="M17.4039268,45.5129738c-0.7941933-1.986496,0.186285-4.2473984,2.1918945-5.0253906l5.0283203-1.9892578      c0.3104973-0.1198845,0.4891186,0.3440285,0.1835938,0.4648438l-5.0297852,1.9902344      c-1.7478046,0.678524-2.6005135,2.6455994-1.9101563,4.3740234      C17.9911213,45.6351547,17.5263882,45.8191261,17.4039268,45.5129738z"/></g><g><path fill="#0e2365" d="M25.6094933,66.2707825c-0.1206684-0.3069382,0.3453903-0.4903107,0.4658203-0.1816406      c0.112793,0.2880859,0.4086914,0.4404297,0.722168,0.3789063c0.0078125-0.0019531,0.0668945-0.0097656,0.074707-0.0107422      c0.1032162-0.0405731,6.2773857-2.4658623,5.8847656-2.3076172c0.2338867-0.0820313,0.5249023-0.1845665,0.5571289-0.3554649      c0.0166016-0.09375-0.0185547-0.2246094-0.0551758-0.3398438c-0.0332031-0.109375-0.1166992-0.2167969-0.2050781-0.3300781      c-0.0668945-0.0859375-0.1333008-0.1728516-0.1870117-0.2636719c-0.9550781-1.5019531-1.1079102-3.375-0.4042969-5.0029297      c1.6927261-3.9176865,7.0859032-4.3649635,9.3818359-0.7734375c0.4394531,0.6982422,0.7109375,1.4472656,0.8071289,2.2285156      c0.0553589,0.4409523,0.4677811,0.7303276,0.8798828,0.5703125l5.8623047-2.3125      c0.3413086-0.1347656,0.5039063-0.5068359,0.3696289-0.8476563c-0.1199722-0.3075066,0.3417435-0.4908295,0.4658203-0.1835938      c0.2324219,0.5927734-0.0600586,1.2636719-0.6523438,1.4960938l-5.8623047,2.3125      c-0.3261719,0.1279297-0.684082,0.0996094-0.9838867-0.0771484c-0.889164-0.5272179-0.2738762-1.2732925-1.3081055-2.9189453      c-2.0546036-3.2140388-6.9525185-2.8786049-8.5009766,0.7041016c-0.6474609,1.4980469-0.5117188,3.1533203,0.371582,4.5439453      c0.0473633,0.0800781,0.1015625,0.1484375,0.1552734,0.2167969c0.1074219,0.1386719,0.2294922,0.2949219,0.2880859,0.4902344      c0.0541992,0.1699219,0.1054688,0.375,0.0693359,0.5771484c-0.0854492,0.4570274-0.5654297,0.6259727-0.8833008,0.7373009      c-1.5787544,0.6067352-5.8152409,2.3112869-5.9936523,2.3320313      C26.3678989,67.0724792,25.8147717,66.7951202,25.6094933,66.2707825z"/></g><g><path fill="#0e2365" d="M42.7862511,39.063755c-0.1206627-0.3092728,0.3437653-0.4887352,0.4658203-0.1835938      c0.1486168,0.3816071,0.6352654,0.5467873,0.9472656,0.2900391c0.6879883-0.5800781,1.5039063-0.9580078,2.4233398-1.1220703      c0.3174591-0.0651207,0.4197617,0.4327126,0.0878906,0.4921875c-0.8320313,0.1484375-1.5688477,0.4902344-2.190918,1.0136719      C43.9401665,40.0329475,43.0595284,39.7568474,42.7862511,39.063755z"/></g><g><path fill="#fca8d7" d="M27.1861172,38.3206062c-0.8300171-0.1099854-1.4200439-0.8000488-1.5700073-1.4200439       c-0.1500244-0.5999756-0.2200317-2.4299316-0.0800171-3.0500488c0.0100098-0.0799561,0.1099854-0.1599121,0.2700195-0.1799316       c1.1007309-0.0918236,2.1597996,0.0211067,3.3399658,0.4099121c0.1199951,0.0500488,0.210022,0.130127,0.2300415,0.2200928       c0.1799927,1.0999756,0.1299438,2.9000244-0.4500122,3.4100342       C28.6861172,37.9305916,28.026083,38.4205818,27.1861172,38.3206062z"/><path fill="#fca8d7" d="M23.7660732,25.9405994c0.0300293,0.3000488-0.2099609,0.5600586-0.25,0.8499756       c-0.039978,0.210083,0.0100098,0.4400635-0.0199585,0.6600342c-0.0700073,0.7399902-0.25,1.4599609-0.3099976,2.1999512       c-0.2460003,3.174387,0.5409184,7.5923824,2.1099854,10.2299824c1.1785011,1.9944153,3.3292637,2.1397362,4.8900146,0.4599609       c2.4007435-2.5334435,0.9353333-6.8181267,2.2199688-9.8898945c0,0.4399414,4.039978,1.619997,4.4299927,1.6899433       c1.6000366,0.3000488,3.2600098,0.3000488,4.8599854,0c1.3000488-0.2399921,3.2700195-0.6699238,4.1400146-1.7500019       C53.5369301,20.8386059,22.6819,9.641551,23.7660732,25.9405994z M25.1261196,37.0106697       c-0.1600342-0.6601563-0.2300415-2.5700684-0.0800171-3.2700195c0.0599976-0.3000488,0.3499756-0.5300293,0.7099609-0.5600586       c1.1900024-0.1099854,2.3600464,0.0300293,3.5500488,0.4299316c0,0,0,0,0.0099487,0       c0.2900391,0.1000977,0.5100098,0.3400879,0.5500488,0.6101074c0.1300049,0.75,0.2799683,3.0699463-0.6000366,3.8598633       c-0.7341785,0.6542473-1.6341877,0.830761-2.1399536,0.7301025       C26.066061,38.6805916,25.316061,37.8105965,25.1261196,37.0106697z"/><path fill="#0e2365" d="M25.0850792,40.0090675c-1.7121143-2.9036751-2.8184185-8.2635517-1.765625-12.9003906       c0.0740376-0.3220024,0.5609131-0.2111454,0.4873047,0.1113281c-1.0353222,4.5642128,0.0871563,9.7828522,1.7089844,12.5351563       c1.0605888,1.8001556,2.9931774,2.01754,4.4892578,0.4179688c2.3555946-2.5192261,0.8426247-6.7022247,2.1801758-9.8457031       c0.0633507-0.1481781,0.2391663-0.1920795,0.3642578-0.1132813c3.8789063,2.4697266,9.1376953,2.5449219,13.0859375,0.1875       c0.282196-0.1700287,0.5412331,0.2582283,0.2558594,0.4296875c-4.0195313,2.4003906-9.3452148,2.375-13.3530273-0.0361328       c-1.0822258,2.9910126,0.2566795,7.1250954-2.1679688,9.7197266       C28.6658077,42.3390388,26.3278084,42.1189346,25.0850792,40.0090675z"/></g><g><path fill="#0e2365" d="M27.7300987,54.2278175c-1.3193359-2.59375-1.7431641-5.5957031-1.1923828-8.4511719      c0.2464752-1.276577,1.2242851-1.5924225,2.0161133-0.3544922l4.2392578,6.5996094      c0.1789131,0.2783051-0.2431068,0.5479164-0.4208984,0.2695313l-4.2392578-6.5996094      c-0.5268517-0.8204422-0.940443-0.6748352-1.1040039,0.1796875c-0.5297852,2.7470703-0.1225586,5.6347656,1.1464844,8.1298828      C28.3260574,54.2955399,27.8793106,54.5229225,27.7300987,54.2278175z"/></g><g><path fill="#0e2365" d="M27.296505,50.7209816l2.1328125-1c0.3024807-0.1386871,0.5100994,0.3133507,0.2119141,0.453125      l-2.1328125,1C27.2048035,51.3129005,26.9988861,50.8604889,27.296505,50.7209816z"/></g><g><path fill="#0e2365" d="M36.5567589,50.032505c-0.9760742-2.2294922-2.0390625-4.4570313-3.159668-6.6210938       c-0.1511078-0.2929192,0.2911758-0.5250969,0.4443359-0.2304688c1.1254883,2.1748047,2.1933594,4.4121094,3.1733398,6.6503906       C37.1463318,50.1340523,36.6889114,50.334568,36.5567589,50.032505z"/><path fill="#0e2365" d="M31.9395714,42.9983253c1.2294922-0.6777344,2.5507813-1.1699219,3.9272461-1.4619141       c0.3191643-0.0724831,0.4306259,0.4197884,0.1035156,0.4882813c-1.328125,0.2822266-2.6030273,0.7568359-3.7895508,1.4111328       C31.8943157,43.5974197,31.6482716,43.1580696,31.9395714,42.9983253z"/><path fill="#0e2365" d="M35.2745323,51.367466c1.3149414-0.9755859,2.7592773-1.7646484,4.293457-2.34375       c0.3049316-0.1219711,0.4889565,0.3513412,0.1767578,0.4667969c-1.4907227,0.5634766-2.8945313,1.3300781-4.1723633,2.2792969       C35.3097687,51.963913,35.0078926,51.5671501,35.2745323,51.367466z"/></g><g><path fill="#0e2365" d="M25.5924034,89.8528137c2.0027428-12.1016541,2.0148163-11.5126801,1.8032227-11.8515625       c-0.1650391-0.2646484-0.5620117-0.3994141-0.8486328-0.3681641c-0.5072765,0.0466461-0.2757282-0.0109863-8.6225586,5.4882813       c-0.219902,0.1420898-0.4801483-0.1023941-0.3574219-0.328125c2.7342834-5.0335083,8.2633018-7.9980927,7.659668-8.5429688       c-0.1003361-0.0919113,0.5943813,0.1938324-12.9082031-4.9833984       c-0.2931013-0.1116562-0.1485195-0.5517349,0.1464844-0.4765625l12.7109375,2.9921875       c0.3235168,0.0750198,0.2057228,0.5677414-0.1142578,0.4863281l-9.1103516-2.1445313       c10.0383778,3.8486252,9.4173164,3.5781555,9.6123047,3.7568359c1.2622108,1.1562958-3.9254761,3.3941269-7.012207,8.2285156       c7.3712158-4.8570862,7.2825069-4.9141846,7.9492188-4.9746094c0.4428711-0.0449219,1.0390625,0.1513672,1.3198242,0.6025391       c0.3467426,0.5562363,0.2552624,0.2505798-1.5576172,11.1347656c2.3837891-3.421875,3.8256836-6.5429688,5.0019531-9.0898438       c0.1392326-0.2993469,0.5924149-0.0910797,0.4541016,0.2089844c-1.2851563,2.7832031-2.8847656,6.2460938-5.6782227,10.0507813       C25.8858776,90.2517548,25.5491524,90.1123276,25.5924034,89.8528137z"/><path fill="#0e2365" d="M12.8541222,73.1907043c-0.2755766-0.0156326-0.3628407-0.4469986,0.0283203-0.5       c4.3612213,0.2434311,5.0004692-0.4849243,5.0771484,0.0556641c0.0195313,0.1367188-0.0751953,0.2626953-0.2119141,0.2822266       C16.1467419,73.2592468,14.4631758,73.2792053,12.8541222,73.1907043z"/><path fill="#0e2365" d="M20.9610558,85.2727356l2.4199219-3.7041016c0.1833382-0.2773514,0.5988579-0.0022659,0.4189453,0.2734375       l-2.4199219,3.7041016C21.1968327,85.8237076,20.7811699,85.5484085,20.9610558,85.2727356z"/></g><g><path fill="#0e2365" d="M89.9390869,41.6077003c2.1851883-6.5875053-1.3594742-11.5386086-5.8686523-11.5507813      c0.0176697,0.9689922-0.417366,2.0360832-1.2822266,2.3808594c-1.8715286,0.7392426-2.9192352-2.4680271,0.7373047-2.8486328      c-0.5720139-3.2261486-6.2790527-5.1298809-10.2597656-2.2470703c-0.272377,0.1925373-0.5591888-0.2113171-0.2929688-0.4042969      c4.3319016-3.1332474,10.4732361-1.0101662,11.0532227,2.6201172c2.3706055-0.03125,4.8085938,1.4306641,6.050293,3.7714844      c1.2260742,2.3105469,1.3491211,5.3847656,0.3374023,8.4365234      C90.3100586,42.0782661,89.8343964,41.9252853,89.9390869,41.6077003z M83.5718994,30.086216      c-2.8351669,0.3065033-2.1501465,2.3590813-0.9692383,1.8867188      C83.2643967,31.710083,83.579567,30.8247356,83.5718994,30.086216z"/></g><g><path fill="#0e2365" d="M44.7906456,92.3762512c-0.2677269-0.1949234,0.0312195-0.5990906,0.2958984-0.4023438      c4.3642578,3.1992188,10.6166992,3.4345703,15.2055664,0.5703125c0.2825012-0.1725693,0.5443192,0.2490387,0.2646484,0.4238281      C55.7949562,95.9381561,49.3148422,95.6933899,44.7906456,92.3762512z"/></g><g><path fill="#0e2365" d="M51.4244347,99.3108215c-0.2892761-0.1550522-0.0621414-0.5925522,0.2353516-0.4414063      c1.0600586,0.5664063,2.3837891,0.578125,3.4541016,0.0292969c0.2951355-0.1475677,0.5221825,0.2933197,0.2275391,0.4453125      C54.1384239,99.9593353,52.6399078,99.9582977,51.4244347,99.3108215z"/></g></svg>