<svg xmlns="http://www.w3.org/2000/svg" data-name="&lt;Layer&gt;" viewBox="0 0 2745 1830" width="2745" height="1830"><ellipse cx="1372.5" cy="1578.48" fill="#efd4c2" rx="1082.61" ry="112.45"/><path fill="#e88585" fill-rule="evenodd" d="M1303.12,496.86c9.25-9.25,20.35-14.8,34.77-18.5,11.84-3,22.57-8.88,36.25-9.24,23.31-.75,39.59,8.5,51.42,18.86a94.43,94.43,0,0,1,26.64,39.95s-3.33,23.68,1.11,34c4.8,11.1,18.12,12.58,20.71,32.19.74,6.66-4.81,22.56-4.07,29.22.74,7.4,12.21,17.39,11.47,23.68s-9.25,12.94-11.84,18.12c-2.22,4.81,5.92,14.8,3,18.5-5.18,7-13.31,9.61-21.45,12.2a101.34,101.34,0,0,1-26.27,4.07l-117.63-1.85s-30-.74-44-15.53c-4.07-4.44,5.18-14.06,1.85-20-3-5.18-9.25-10.36-10.36-17.39-1.48-7.39,10.36-14.79,11.1-23.67.37-7-5.55-24-4.81-31.44,1.85-15.17,15.91-15.54,21.09-28.49,4.8-12.57,3-25.52,6.65-39.21C1291.28,512.77,1298.68,501.67,1303.12,496.86Z"/><path fill="#ffddc0" fill-rule="evenodd" d="M1305.34,571.56c5.18-3.33,6.29-.37,12.21-4.07,7-4.44,12.94-20,16.27-28.11,3.33-7.77,10.73-23.67,17.39-24.78,3-.37,21.45-8.51,28.48.74,1.85,2.59,9.25,16.64,15.54,24a14.59,14.59,0,0,0,9.25,5.18s4.07,11.84,8.5,16.28c8.14,8.13,14.43,8.87,18.5,10,11.84,3.33,10,17,7,23.31-4.44,8.88-14.43,10.36-14.43,10.36s-4.07,13.68-10,23.3a66.32,66.32,0,0,1-13.32,15.54s-2.22,28.11,3,37c7.76,12.95,39.58,24.41,39.58,24.41a190.46,190.46,0,0,1-155.37,0,49,49,0,0,1,13-7.4c10.7-4.05,17.54-2.11,22.77-7.56,1.07-1.11,2.27-2.74,4.23-9.45,5.92-20.26,5.18-40.69,5.18-40.69h0A148.51,148.51,0,0,1,1322,622.24a125.69,125.69,0,0,1-7-17.39s-10.36-1.1-15.17-9.61C1297.57,589.32,1293.13,579,1305.34,571.56Z"/><path fill="#77a7bc" fill-rule="evenodd" d="M1259.73,1006.45h209.72q12,44.23,22.9,92.41,8.34,37.26,14.93,72.74a253.47,253.47,0,0,1-129.13,30.49q-3.23-25.53-6.46-51.07a11,11,0,0,0-5.85-3.28,11.3,11.3,0,0,0-8.67,2.07q-4.85,26.13-9.68,52.25a237.39,237.39,0,0,1-125.91-30.46c4.38-29.53,10.37-61.29,18.51-94.83C1246.14,1051.83,1252.79,1028.37,1259.73,1006.45Z"/><path fill="#fff" fill-rule="evenodd" d="M1321.57,694.18a72.24,72.24,0,0,0,40.64,16.38c28.27,1.94,47.77-14,51.84-17.49l51.11,18.32a330.73,330.73,0,0,1,99.26,129,54.85,54.85,0,0,1,2.9,46.86,369,369,0,0,1-43.38,66.87c-7.71,9.46-15.47,18-23,25.69a92.1,92.1,0,0,1-12.17-7.34A93.33,93.33,0,0,1,1470.21,955l44.54-91.27h0l-1.41-2a138.07,138.07,0,0,0-14.25-16.47s-7.83-7.64-31.71-33.2h0s-7.56,70.92-2.87,144.91c1.35,21.44,3.47,38.78,4.94,49.53a216.16,216.16,0,0,1-209.72,0c4.06-27.7,5.83-51.19,6.64-68.9,3.26-71.29-8.14-66.43-2.7-111.16.66-5.34,2-14.81-1.3-16.23l-42,50.57q21.6,45.46,43.17,90.94c-3.09,3.59-6.6,7.35-10.59,11.15a154.56,154.56,0,0,1-18.54,15.12q-18.47-21.74-38.26-46.12s-8.08-10-22.39-32c-6.52-10-9.86-15.88-11-24.24-1.28-9.11.65-16.6,2.08-22.18a77.53,77.53,0,0,1,10.64-23.72,384.13,384.13,0,0,1,73.1-103.45l30.33-19.9Z"/><path fill="#ffddc0" fill-rule="evenodd" d="M1262.69,951.59l5.94,1.53,36.77-19.9,26.16,5.54c0,.27.13,3.29-1.88,4.53a3.42,3.42,0,0,1-1.16.45l-14-1.64-17.37,6.48a95.52,95.52,0,0,1,38.58,13l-3.63,6.4-6-3,8.29,10.89-7.73,2.65L1305,970.26l-.52,4.79,11.1,10.09-6.24,2.86-22.73-9.2s-27.83,4.81-30.33,4.63-16-8.82-16-8.82A152.38,152.38,0,0,0,1253,962.82C1256.64,959,1259.88,955.17,1262.69,951.59Z"/><path fill="#ffddc0" fill-rule="evenodd" d="M1470.21,955h-3.53s-40.53-20.45-40.72-20.3-22.22,7-22.22,7l2.57,4.54,17.64-1.35,16.76,5.4s-20,3.51-19.9,3.49-23.16,10.62-23.16,10.62l3.28,4.84,25.75-7.56-23.45,13.47s3.24,7,3.93,6.2,24.21-8.47,24.21-8.47l-9.12,10.83-3.59,6.86,5.14.77,23.46-10.62s32.68,5.93,33.14,5.62,16.15-8.85,16.15-8.85Z"/><path fill="#ffddc0" fill-rule="evenodd" d="M1399.72,1201.7a343.58,343.58,0,0,0,87-19.51q1.38,41.57,2.75,83.12l10.27,68.19a353.42,353.42,0,0,1-.65,112.09l-4.74,53.19-13.53-6.24H1465l-7.19,9.16-7.31,4.34-15.42-133.88-9.65-36.32Z"/><path fill="#ffddc0" fill-rule="evenodd" d="M1242.46,1182.19a346.68,346.68,0,0,0,85.55,19.9q-12.12,67.48-24.23,135l-6.94,17.55-17.29,149.61-8.15-.84-5.74-10.83-24.1,2.48-5.17,7.2-2.27-5.07-8.36-96.24a265.15,265.15,0,0,1,9.64-101.09c2.08-13.15,3.85-27.09,5.14-41.76A605.75,605.75,0,0,0,1242.46,1182.19Z"/><path fill="#fff" fill-rule="evenodd" d="M1443.52,1509l16.14-4.75,3.23-9,20.18-2.65,8.86,5.13,5.76,10.37a276.9,276.9,0,0,0,26.24,93.5,49,49,0,0,1-14.63,11.13c-9.78,4.81-18.16,4.68-34.3,4.44-12.48-.19-18.84-.37-24.89-4.23a31.44,31.44,0,0,1-11.36-13.53l2.76-26.23,5.64-50.85Z"/><path fill="#e0ccba" fill-rule="evenodd" d="M1436,1604.55v11.14a70.46,70.46,0,0,0,43.69,15.54c25.76,0,42.69-14.38,46.67-18-.66-5-1-8-1-8h0c.12.37-21,15.52-45.28,14.82a71.16,71.16,0,0,1-24.41-5.45S1452.37,1613.33,1436,1604.55Z"/><path fill="#e0ccba" fill-rule="evenodd" d="M1203.63,1606.05v11.15c18.55,11.91,34.11,13.1,42.26,12.92,23.39-.52,47.86-13.82,47.44-15.21v0c-1.21-2-1-9.3-2.88-10.34s-6.23,3.58-6.42,3.78c-10.78,11.25-33.58,11.46-37.93,11.5,0,0-7,.06-42.46-13.78Z"/><path fill="#fff" fill-rule="evenodd" d="M1229.85,1506c.3-.1,5.77-.74,6-1.58s2.72-8.3,2.72-8.3l10.79-4.24,18.56,1.81L1273,1503l10.89,5.74.31,38.84,5.65,36.54,2,18.95a69.75,69.75,0,0,1-19.67,11.1c-11.85,4.31-21.88,4.25-29,4.14-6.83-.11-12-.2-18.47-2.32a48.61,48.61,0,0,1-20.68-13.72l12.21-27.34,9.89-26.64s4.13-29,3.83-29S1229.85,1506,1229.85,1506Z"/><path fill="#f4d77d" fill-rule="evenodd" d="M1301.51,443.47V397.88l29.78,27,36.7-37.54,35.41,37.44,31.08-25.42v44.07a307.24,307.24,0,0,1-75.37,7.12A303.38,303.38,0,0,1,1301.51,443.47Z"/><path fill="#fb5452" fill-rule="evenodd" d="M1228.19,457.35c1.14-.49,3.75-3.91,5.22-8.8a30.46,30.46,0,0,0,1.46-9.46c0-4.89-4.56-7.82-8-5.21-3.26,2.44-4.73,8.64-4.73,8.64a18,18,0,0,0-6.68-3.26c-3.59-.66-6.85,1.3-7.17,4.89-.49,5.05,6.84,10.1,11.89,12.22Z"/><path fill="#fb5452" fill-rule="evenodd" d="M1553.58,698.05c.91.83,5.11,1.78,10.17,1.08a30.36,30.36,0,0,0,9.2-2.61c4.45-2,5.22-7.4,1.42-9.43-3.58-1.94-9.82-.7-9.82-.7a18.09,18.09,0,0,0,.18-7.43c-.9-3.54-4-5.68-7.43-4.49-4.8,1.66-6.34,10.43-6.16,15.91Z"/><path fill="#fb5452" fill-rule="evenodd" d="M1153.59,654.6c1.14-.49,3.75-3.91,5.22-8.8a30.46,30.46,0,0,0,1.46-9.46c0-4.89-4.56-7.82-8-5.21-3.26,2.44-4.73,8.64-4.73,8.64a18,18,0,0,0-6.68-3.26c-3.59-.66-6.85,1.3-7.17,4.89-.49,5.05,6.84,10.1,11.89,12.22Z"/><path fill="#fb5452" fill-rule="evenodd" d="M1413.29,310.71c.92.84,5.12,1.78,10.18,1.08a30,30,0,0,0,9.2-2.6c4.45-2,5.22-7.4,1.42-9.43-3.58-1.95-9.82-.7-9.82-.7a17.94,17.94,0,0,0,.18-7.44c-.9-3.53-4-5.68-7.43-4.48-4.79,1.66-6.34,10.43-6.16,15.9Z"/><path fill="#fb5452" fill-rule="evenodd" d="M1312.24,275c1.14-.49,3.75-3.92,5.21-8.8a30.19,30.19,0,0,0,1.47-9.46c0-4.89-4.56-7.82-8-5.21-3.26,2.44-4.73,8.63-4.73,8.63a18.07,18.07,0,0,0-6.68-3.25c-3.59-.66-6.85,1.3-7.18,4.88-.48,5.06,6.85,10.11,11.9,12.23Z"/><path fill="#fb5452" fill-rule="evenodd" d="M1480.85,481.66c1.08.62,5.38.69,10.18-1a30.23,30.23,0,0,0,8.47-4.44c3.94-2.91,3.58-8.32-.55-9.52-3.9-1.17-9.75,1.33-9.75,1.33a17.94,17.94,0,0,0-1.36-7.31c-1.6-3.27-5.11-4.73-8.19-2.86-4.35,2.61-4.06,11.51-2.76,16.83Z"/><path fill="#f4d77d" d="M1376.62,374.9a8.63,8.63,0,1,1-8.63-8.63A8.63,8.63,0,0,1,1376.62,374.9Z"/><path fill="#f4d77d" d="M1443.11,387.38a8.63,8.63,0,1,1-8.63-8.63A8.64,8.64,0,0,1,1443.11,387.38Z"/><path fill="#f4d77d" d="M1310.14,387.38a8.63,8.63,0,1,1-8.63-8.63A8.64,8.64,0,0,1,1310.14,387.38Z"/><path fill="#56302a" d="M1369.72,659.49c-7.77,0-30.37-5.42-44.42-24.55-7.31-10.39-11.09-23.78-13.82-35.51a3,3,0,1,1,5.93-1.39c2.61,11.17,6.17,23.86,12.84,33.33,12.85,17.49,34.08,22.33,39.87,22a3,3,0,0,1,3.21,2.89,3.05,3.05,0,0,1-2.88,3.21Z"/><path fill="#56302a" d="M1234.41,981a3.06,3.06,0,0,1-2.1-.84c-27.39-25.95-59-74.87-68.77-97.15-10.44-23.86-.69-41,42.32-109.53,33.39-53.24,64.43-67.41,76.22-71,6.19-1.9,10.89-3.55,15.24-5.33,3.74-1.54,7.22-2.71,10.59-3.85,12.36-4.16,19.83-6.67,22.4-20.38,1.4-8.41,1.06-25.08.69-30.29a3.05,3.05,0,1,1,6.09-.43c.4,5.59.74,22.69-.78,31.78-3.24,17.29-14,20.91-26.46,25.11-3.27,1.1-6.66,2.24-10.21,3.7-4.47,1.83-9.48,3.59-15.77,5.52-11.14,3.42-40.54,16.94-72.84,68.45-42.46,67.69-51.13,82.76-41.91,103.84,9.36,21.39,39.35,67.88,65.82,93.66,4.87-2.67,18.12-10.64,24.82-21.69L1217.61,862a3,3,0,0,1,.51-3.34l41-45a3.05,3.05,0,1,1,4.51,4.11L1224,861.28l42,90.11a3.07,3.07,0,0,1-.09,2.74c-8.79,16.12-29.26,26.14-30.13,26.56A3.11,3.11,0,0,1,1234.41,981Z"/><path fill="#56302a" fill-rule="evenodd" d="M1337.37,576.92c0-3.33,2.22-5.92,5.18-5.92s5.18,2.59,5.18,5.92-2.22,5.91-5.18,5.91A6.31,6.31,0,0,1,1337.37,576.92Z"/><path fill="#56302a" d="M1315.93,609.18a3.05,3.05,0,0,1-.67-.07c-10.18-2.26-16.56-8.24-18.94-17.77-1.67-6.94-.27-13.55,3.75-17.71,3.45-3.57,8.39-4.9,13.88-3.77a3.05,3.05,0,0,1-1.23,6c-3.44-.71-6.29,0-8.27,2-2.52,2.61-3.36,7.21-2.2,12,1.82,7.28,6.37,11.51,14.34,13.28a3,3,0,0,1-.66,6Z"/><path fill="#56302a" d="M1313,592.17a3,3,0,0,1-2.65-1.53,12.9,12.9,0,0,0-3.2-3.47,3.05,3.05,0,0,1,3.55-5,18.54,18.54,0,0,1,4.94,5.41,3,3,0,0,1-2.64,4.56Z"/><path fill="#56302a" d="M1425,608.44a3.05,3.05,0,0,1-.7-6c6.93-1.63,11.41-6,13.28-13,1.13-4.36.44-8.56-1.87-11.22a8.58,8.58,0,0,0-7.78-2.71,3,3,0,0,1-.68-6.06,14.58,14.58,0,0,1,13.07,4.77c3.62,4.18,4.8,10.45,3.16,16.78-3.13,11.63-11.4,15.86-17.79,17.36A2.71,2.71,0,0,1,1425,608.44Z"/><path fill="#56302a" d="M1427.23,591.42a3.11,3.11,0,0,1-1.52-.4,3,3,0,0,1-1.12-4.15,18.54,18.54,0,0,1,4.94-5.41,3.05,3.05,0,1,1,3.55,5,12.71,12.71,0,0,0-3.2,3.48A3.07,3.07,0,0,1,1427.23,591.42Z"/><path fill="#56302a" d="M1370.15,659.49h-.76a3.05,3.05,0,0,1-2.89-3.21,3,3,0,0,1,3.21-2.89c6.82.35,28-5.46,39.88-22,5.28-7.5,9.6-18.41,13.21-33.34a3,3,0,1,1,5.92,1.43c-2.41,10-6.51,24.57-14.15,35.44C1400.87,654.06,1378.06,659.49,1370.15,659.49Z"/><path fill="#56302a" fill-rule="evenodd" d="M1390.26,576.92c0-3.33,2.21-5.92,5.18-5.92s5.17,2.59,5.17,5.92-2.22,5.91-5.17,5.91S1390.26,580.25,1390.26,576.92Z"/><path fill="#56302a" d="M1370.47,628.41c-6.09,0-12.08-1.54-16.24-4.16a3.05,3.05,0,0,1,3.26-5.16c6.32,4,19.36,4.62,26.09-.58a3.05,3.05,0,1,1,3.73,4.83C1382.74,626.87,1376.55,628.41,1370.47,628.41Z"/><path fill="#56302a" d="M1369.92,607.33a3,3,0,0,1-2.2-5.16c3.37-3.5,3.44-4.64,3.44-4.69a13.58,13.58,0,0,0-1.28-1.22,13.05,13.05,0,0,1-4.81-7.7,30.94,30.94,0,0,1,.72-8.84c.15-.78.28-1.51.37-2.12a3.05,3.05,0,1,1,6,.86c-.1.68-.25,1.48-.4,2.35a27.67,27.67,0,0,0-.7,6.82c.34,1.84,1.5,2.88,2.84,4.08s3.22,2.87,3.32,5.55-1.4,5.25-5.15,9.14A3,3,0,0,1,1369.92,607.33Z"/><path fill="#56302a" d="M1404.68,552.6a3,3,0,0,1-1.41-.35c-.06,0-6.69-3.34-13.34-.62a3,3,0,1,1-2.31-5.64c9.35-3.82,18.11.67,18.48.86a3.05,3.05,0,0,1-1.42,5.75Z"/><path fill="#56302a" d="M1336.27,553a3,3,0,0,1-1.42-5.75c.37-.19,9.13-4.68,18.47-.86A3.05,3.05,0,0,1,1351,552c-6.75-2.77-13.27.58-13.33.61A3,3,0,0,1,1336.27,553Z"/><path fill="#56302a" d="M1407.5,549c-15,0-21.44-15.44-25.23-24.51l-.27-.59c-1.79-4-6.56-14.62-11-15.1-1.93-.22-3.93,1.93-5.28,3.75a3,3,0,1,1-4.9-3.62c3.33-4.52,7-6.6,10.83-6.2,7.32.79,12.06,10.06,15.93,18.68l.29.65c6,14.34,12.29,25.59,28.59,18.78a3.05,3.05,0,1,1,2.35,5.63A29.34,29.34,0,0,1,1407.5,549Z"/><path fill="#56302a" d="M1421.47,567.31c-8,0-12.78-6-14.42-9.92a3,3,0,0,1,5.61-2.38c.4.91,4.08,8.67,13.16,5.36a3,3,0,0,1,2.09,5.73A18.78,18.78,0,0,1,1421.47,567.31Z"/><path fill="#56302a" d="M1315,566.57a17.51,17.51,0,0,1-3.37-.34,3.05,3.05,0,1,1,1.17-6c8.76,1.73,13.43-7.53,19.54-21.86,5.34-12.5,10.86-25.43,22.56-26.26a3,3,0,1,1,.43,6.08c-8,.57-12.76,11.76-17.38,22.58C1332.77,552.93,1327,566.57,1315,566.57Z"/><path fill="#56302a" d="M1267.1,685.37a3,3,0,0,1-1.82-.61c-8.84-6.63-5.23-13.88-3.08-18.21.81-1.63,1.72-3.47,1.55-4.35-.53-2.77-2.51-5-4.8-7.59-3-3.44-6.48-7.33-6.72-13.22-.24-7.48,3.19-11.75,6.21-15.53,2.4-3,4.47-5.58,4.89-9.69.48-4.92-.66-9.16-1.87-13.65-1.41-5.21-2.87-10.6-1.8-17.21,1.17-7.74,6.52-13.14,11.7-18.36,3.83-3.87,7.45-7.52,9.19-11.87,2.15-5.81,2.71-12.68,3.25-19.32.33-4.07.67-8.27,1.39-12.26,5.23-29.18,29.53-46,51.29-49.81a3,3,0,1,1,1,6c-19.66,3.41-41.62,18.6-46.33,44.87-.66,3.7-1,7.58-1.31,11.69-.58,7-1.17,14.34-3.64,21-2.23,5.58-6.46,9.84-10.55,14-4.69,4.74-9.13,9.21-10,15-.87,5.35.36,9.88,1.65,14.68s2.65,9.8,2.06,15.85-3.58,9.62-6.2,12.89-5,6.3-4.88,11.5c.16,3.69,2.49,6.33,5.2,9.4,2.52,2.85,5.38,6.08,6.21,10.47.58,2.89-.76,5.6-2.07,8.22-2.36,4.75-3.29,7.19,1.28,10.62a3.05,3.05,0,0,1-1.84,5.49Z"/><path fill="#56302a" d="M1291.52,693.13a3.19,3.19,0,0,1-1-.15c-15.58-5.05-15.76-24-13.44-31.86a3,3,0,1,1,5.85,1.72c-1.53,5.18-2.12,20.58,9.48,24.34a3,3,0,0,1-.94,6Z"/><path fill="#56302a" d="M1308.16,697.57h-.26c-4.06-.34-11.65-4.67-11.3-18.65a3.09,3.09,0,0,1,3.13-3,3,3,0,0,1,3,3.12c-.29,11.49,5.53,12.4,5.78,12.43a3.08,3.08,0,0,1,2.67,3.35A3,3,0,0,1,1308.16,697.57Z"/><path fill="#56302a" d="M1469.77,686.85a3.05,3.05,0,0,1-1.83-5.49c4.57-3.43,3.63-5.87,1.27-10.62-1.3-2.62-2.65-5.33-2.06-8.25.83-4.36,3.68-7.59,6.2-10.44,2.71-3.07,5.05-5.71,5.2-9.43.16-5.17-2.17-8.09-4.88-11.47s-5.59-7-6.2-12.87c-.59-6.07.76-11,2.06-15.87s2.52-9.33,1.66-14.65c-.88-5.83-5.31-10.3-10-15-4.09-4.13-8.31-8.4-10.52-13.9-2.68-6.58-2.19-13.38-1.71-20a57.05,57.05,0,0,0,0-12.18c-3.09-20.13-20.16-40.73-42.47-51.24-20-9.41-40.44-9-57.6,1.28a3,3,0,0,1-3.12-5.24c19-11.31,41.44-11.86,63.32-1.56,24.07,11.34,42.51,33.78,45.91,55.86a63,63,0,0,1,0,13.52c-.44,6.15-.86,12,1.29,17.23,1.75,4.37,5.37,8,9.2,11.89,5.17,5.22,10.52,10.62,11.7,18.39,1.06,6.58-.39,12-1.8,17.18-1.21,4.49-2.36,8.73-1.88,13.67.42,4.08,2.5,6.67,4.89,9.67,3,3.78,6.45,8,6.22,15.5-.25,5.92-3.69,9.81-6.73,13.25-2.29,2.59-4.27,4.82-4.79,7.57-.18.9.74,2.74,1.54,4.36,2.16,4.34,5.77,11.59-3.07,18.22A3,3,0,0,1,1469.77,686.85Z"/><path fill="#56302a" d="M1445,694.61a3,3,0,0,1-.94-6c11.59-3.76,11-19.16,9.48-24.34a3,3,0,1,1,5.85-1.72c2.31,7.86,2.14,26.81-13.45,31.86A3.08,3.08,0,0,1,1445,694.61Z"/><path fill="#56302a" d="M1428.34,699.79a3.05,3.05,0,0,1-.25-6.09c.18,0,6-.93,5.71-12.42a3,3,0,0,1,3-3.12h.07a3,3,0,0,1,3.05,3c.35,14-7.24,18.31-11.3,18.65Z"/><path fill="#56302a" d="M1354.38,504.89a3,3,0,0,1-3-2.58c0-.08-1.4-8.35-7.52-12.33a3,3,0,1,1,3.32-5.11c8.45,5.48,10.16,16.06,10.23,16.51a3.05,3.05,0,0,1-2.55,3.48A3.71,3.71,0,0,1,1354.38,504.89Z"/><path fill="#56302a" d="M1312.68,991.71c-3.61,0-8.76-2.43-15.75-5.91a66.64,66.64,0,0,0-7.57-3.45c-5-1.34-11.59.24-18,1.77-6.1,1.45-12.42,3-18,2.14-4.23-.62-9.1-3.13-14.9-7.69a3.05,3.05,0,0,1,3.77-4.8c4.87,3.83,8.91,6,12,6.46,4.44.64,9.91-.66,15.71-2.05,7.15-1.7,14.54-3.47,21.07-1.7a62.6,62.6,0,0,1,8.63,3.85c3.7,1.84,10.4,5.18,12.77,5.29-.66-1.11-3.28-3.2-4.32-4-4.28-3.64-5.33-4.16-11.13-7.06-5.21-2.61-13.78-3.06-13.87-3.07a3,3,0,0,1,.3-6.09c.4,0,9.93.52,16.28,3.69,5.93,3,7.53,3.77,12.3,7.83,3.71,3,6.61,5.54,6.66,8.85a6.05,6.05,0,0,1-2.38,4.78A5.25,5.25,0,0,1,1312.68,991.71Z"/><path fill="#56302a" d="M1329,981.88c-4.16,0-9.67-2.57-14.75-4.93-2.06-1-4-1.87-5.23-2.28-5-1.68-10.27-3.42-22.25-2.77a3,3,0,0,1-3.21-2.88,3.05,3.05,0,0,1,2.88-3.21c13.13-.73,19.18,1.3,24.51,3.08a63.12,63.12,0,0,1,5.88,2.53c2.91,1.35,9.35,4.36,11.9,4.38-.85-1.28-4.19-4.81-16.92-10.94-5.73-2.77-17.56-4.41-23.75-4.64a3.05,3.05,0,0,1,.23-6.1c6.43.25,19.21,1.89,26.17,5.25,16.38,7.88,19.45,12.35,20.34,15a5.58,5.58,0,0,1-.31,4.43A5.66,5.66,0,0,1,1329,981.88Z"/><path fill="#56302a" d="M1333.31,969.68c-4.78,0-11.7-1.88-20.43-4.78-1.08-.36-1.87-.63-2.21-.71a3.08,3.08,0,0,1-2.27-3.66,3,3,0,0,1,3.61-2.3c.39.09,1.39.41,2.79.88,11.16,3.71,16.24,4.53,18.56,4.53a31.71,31.71,0,0,0-4.49-2.62c-2.63-1.24-5.61-2.43-8.25-3.48-1.47-.59-2.83-1.13-4-1.62-4-1.66-11-4-25.48-4.7a3,3,0,0,1,.31-6.09c11.73.59,20.48,2.23,27.55,5.18,1.11.48,2.42,1,3.84,1.56,2.72,1.09,5.8,2.31,8.65,3.66,5.87,2.94,8.57,5.31,9.08,8a4.61,4.61,0,0,1-1.13,4C1338.22,969,1336.14,969.68,1333.31,969.68Z"/><path fill="#56302a" d="M1268.63,956.17a3,3,0,0,1-1.47-5.72c.31-.17,31.49-17.29,39.11-18.76,5.09-1,9.4.19,13.19,1.27,1,.27,2,.55,2.93.78l1.15.31c5.22,1.39,9.73,2.58,10.84,6a5.08,5.08,0,0,1-1.09,4.89c-2.92,4-9.44,3-15.19,2.18-2.52-.37-5.65-.83-6.78-.49a100.77,100.77,0,0,0-11.65,5,3.05,3.05,0,0,1-2.73-5.46,105.25,105.25,0,0,1,12.63-5.36c2.42-.73,5.66-.25,9.41.29,2.11.31,6.53,1,8.53.57a56.59,56.59,0,0,0-5.54-1.68l-1.08-.28c-1-.24-2-.54-3.09-.83-3.43-1-6.68-1.88-10.35-1.16-4.69.91-24.66,11.14-37.35,18.12A3,3,0,0,1,1268.63,956.17Z"/><path fill="#56302a" d="M1500.89,982.84a3.14,3.14,0,0,1-1.33-.3c-.86-.42-21.33-10.44-30.12-26.56a3,3,0,0,1-.09-2.74l42-90.11-42.15-46.23a3.05,3.05,0,0,1,4.51-4.11l43.51,47.73a3,3,0,0,1,.51,3.34l-42.14,90.51c6.69,11.06,19.94,19,24.81,21.7,26.47-25.77,56.46-72.26,65.82-93.66,9.22-21.08.56-36.14-41.9-103.85-32.31-51.5-61.71-65-72.85-68.44-6.39-2-11.25-3.67-15.76-5.52-3.56-1.46-6.94-2.6-10.22-3.7-12.46-4.2-23.22-7.82-26.45-25-1.53-9.16-1.18-26.25-.78-31.84a3,3,0,1,1,6.08.43c-.37,5.2-.71,21.87.7,30.35,2.57,13.65,10,16.16,22.4,20.32,3.36,1.14,6.84,2.31,10.58,3.85,4.33,1.78,9,3.42,15.24,5.33,11.8,3.62,42.83,17.79,76.22,71,43,68.58,52.77,85.68,42.33,109.53C1562,907.14,1530.38,956.06,1503,982A3.06,3.06,0,0,1,1500.89,982.84Z"/><path fill="#56302a" d="M1422.62,993.56a5.25,5.25,0,0,1-3.57-1.2,6.05,6.05,0,0,1-2.38-4.78c.06-3.31,2.95-5.89,6.73-8.91,4.7-4,6.29-4.8,12.21-7.76,6.37-3.18,15.9-3.68,16.3-3.7a3,3,0,1,1,.3,6.09c-.08,0-8.66.46-13.85,3.06-5.82,2.91-6.87,3.43-11.08,7-1.11.89-3.73,3-4.38,4.1,2.37-.12,9.06-3.45,12.76-5.29a62.13,62.13,0,0,1,8.58-3.83c6.58-1.79,14,0,21.12,1.68,5.8,1.39,11.28,2.68,15.71,2.05,3.1-.46,7.14-2.63,12-6.46a3.05,3.05,0,1,1,3.77,4.8c-5.8,4.56-10.67,7.07-14.89,7.69-5.6.82-11.91-.69-18-2.14-6.41-1.53-13-3.11-18.06-1.75a66.84,66.84,0,0,0-7.51,3.42C1431.38,991.13,1426.24,993.56,1422.62,993.56Z"/><path fill="#56302a" d="M1406.29,983.73a5.66,5.66,0,0,1-5.49-3.06,5.57,5.57,0,0,1-.3-4.43c.88-2.67,4-7.14,20.34-15,6.94-3.35,19.73-5,26.16-5.24a3,3,0,0,1,.23,6.09c-6.19.24-18,1.88-23.74,4.65-12.74,6.13-16.07,9.66-16.93,10.94,2.55,0,9-3,11.9-4.38a63.12,63.12,0,0,1,5.88-2.53c5.33-1.78,11.37-3.81,24.51-3.08a3.05,3.05,0,0,1,2.88,3.21,3,3,0,0,1-3.21,2.88c-12-.65-17.2,1.09-22.25,2.77-1.23.41-3.18,1.32-5.24,2.28C1416,981.17,1410.45,983.73,1406.29,983.73Z"/><path fill="#56302a" d="M1402.05,971.51c-2.88,0-5-.68-6.29-2.22a4.56,4.56,0,0,1-1.07-3.94c.51-2.66,3.21-5,9-7.94,2.92-1.38,6-2.61,8.73-3.7,1.41-.56,2.71-1.08,3.8-1.54,7.09-3,15.84-4.6,27.57-5.19a3,3,0,0,1,.31,6.09c-14.46.72-21.48,3-25.51,4.72-1.1.47-2.45,1-3.92,1.59-2.63,1-5.63,2.24-8.31,3.52a29.75,29.75,0,0,0-4.48,2.62c2.22,0,7.29-.8,18.6-4.56,1.41-.47,2.41-.79,2.8-.88a3.05,3.05,0,0,1,1.33,6c-.34.08-1.13.35-2.21.71C1413.73,969.64,1406.84,971.51,1402.05,971.51Z"/><path fill="#56302a" d="M1466.67,958a3,3,0,0,1-1.46-.38c-12.7-7-32.68-17.22-37.33-18.11-3.7-.75-6.94.17-10.37,1.14-1.06.3-2.12.6-3.19.85l-1,.27c-1.56.42-3.85,1-5.37,1.62,2.18.38,6.35-.22,8.38-.51,3.74-.55,7-1,9.4-.3a104.75,104.75,0,0,1,12.63,5.37,3.05,3.05,0,1,1-2.73,5.46,99,99,0,0,0-11.65-5c-1.13-.34-4.26.12-6.77.48-5.76.84-12.27,1.79-15.27-2.27a5,5,0,0,1-1-4.78c1.12-3.39,5.62-4.59,10.83-6l1.07-.29c1.08-.26,2-.53,3-.81,3.79-1.07,8.09-2.29,13.2-1.26,7.58,1.46,38.78,18.58,39.09,18.76a3,3,0,0,1-1.47,5.72Z"/><path fill="#56302a" d="M1343.87,1205.14a271,271,0,0,1-121.69-28.81,3,3,0,0,1-1.66-3.11c3.48-27.16,8.13-54.49,13.83-81.24,6.17-29,13.73-58.08,22.47-86.43a3,3,0,0,1,1.75-1.92,3.11,3.11,0,0,1,2.6.13,219.22,219.22,0,0,0,206.84,0,3.11,3.11,0,0,1,2.6-.13,3,3,0,0,1,1.75,1.92c8.74,28.36,16.3,57.44,22.47,86.43,5.69,26.73,10.35,54.06,13.83,81.24a3,3,0,0,1-1.66,3.11,271,271,0,0,1-127.22,28.75,3,3,0,0,1-2.93-2.47l-9.42-49.45a2.89,2.89,0,0,0-5.68,0l-9.42,49.46a3,3,0,0,1-2.93,2.47C1347.55,1205.12,1345.71,1205.14,1343.87,1205.14Zm-117-33.3a264.8,264.8,0,0,0,120,27.18l9-47a9,9,0,0,1,17.66,0l8.95,47a264.81,264.81,0,0,0,120-27.18c-3.43-26.3-8-52.73-13.47-78.59-5.87-27.62-13-55.32-21.25-82.39a225.34,225.34,0,0,1-206,0c-8.23,27.06-15.38,54.76-21.26,82.39C1234.8,1119.13,1230.27,1145.56,1226.85,1171.84Z"/><path fill="#56302a" d="M1234.83,1501.83a3,3,0,0,1-3-3c0-.26-.66-27.18-6.73-77.91-7.12-59.62,4-109.83,7.59-123.8,6.17-24.05,6.9-109.86,6.77-114.69a3.06,3.06,0,0,1,4.24-3c2.06.87,2.69,1.14.89,51.33-1.23,34.36-3.24,57.22-6,67.92-3.52,13.71-14.44,63-7.44,121.56,6.11,51.08,6.76,78.25,6.76,78.51a3,3,0,0,1-3,3.12Z"/><path fill="#56302a" d="M1279.55,1507.26h-.29a3,3,0,0,1-2.75-3.32c.53-5.62,13.07-137.88,21.55-158.09,7.16-17,18.6-85.65,26.93-144.18a3.08,3.08,0,0,1,3.45-2.59,3,3,0,0,1,2.59,3.45c-4.07,28.59-18.06,123.56-27.35,145.68-8.12,19.36-21,154.93-21.1,156.3A3,3,0,0,1,1279.55,1507.26Z"/><path fill="#56302a" d="M1246.3,1622.16c-10.77,0-19.64-1.54-24-3-8.35-2.67-18.46-7.49-19-15.27-.45-5.81,2.21-11.72,6.24-20.68a248.38,248.38,0,0,0,11.15-28.27c2.44-7.78,3.63-17,5-27.68.8-6.22,1.63-12.66,2.81-19.71a3,3,0,0,1,1.31-2c1.63-1.09,7.25-4.46,11.29-2.3,1.44.78,3.16,2.49,3.16,6.27,0,5.63-3.14,25.16-5.67,40.85-1.27,7.89-2.37,14.7-2.61,17-.76,4.84-4.44,6.51-8,8.13-3.8,1.72-8.52,3.87-12.59,10.42a3.16,3.16,0,0,1-.73.81c-3.4,7.55-5.61,12.64-5.29,16.76.22,3.27,5.88,7.06,14.79,9.91,4.07,1.35,18.54,4.29,36.74,1.68,13.2-2.08,24.59-7.58,25.89-12.5.88-3.35.7-8.2,0-14a3,3,0,0,1-1.28-1c-4-5.3-8.73-6.87-13.34-8.4-6.43-2.13-13.72-4.55-11.68-18.32,2.44-16.92,1.5-34.66.94-45.25-.54-10.25-.66-12.38,1.58-13.73,4.81-2.74,11-.18,15.58,1.7a23.51,23.51,0,0,0,3,1.11h0a4.25,4.25,0,0,1,3,1.38c2.34,2.48,2.18,7.5,1.65,16.9-.23,4.07-.46,8.27-.34,12,.49,13.62,2.64,26.42,4.54,37.72,2.29,13.56,4.09,24.27,2.19,31.47-2.46,9.32-18.17,15-30.88,17A108.91,108.91,0,0,1,1246.3,1622.16Zm20.89-115.4c0,1.79.15,5.18.32,8.48.58,10.82,1.54,28.93-1,46.45-1.29,8.71,1.3,9.57,7.57,11.65a35.74,35.74,0,0,1,11.26,5.4c-.27-1.66-.56-3.36-.85-5.1-1.93-11.48-4.12-24.49-4.63-38.52-.13-4,.12-8.34.35-12.54s.55-9.88.07-12a26,26,0,0,1-4-1.43C1273.7,1508.11,1269.66,1506.43,1267.19,1506.76Zm-32.92,3.17c-1,6.4-1.8,12.34-2.54,18.1-1.41,11-2.62,20.44-5.23,28.75-1.86,5.8-3.74,10.86-5.54,15.35,1.6-.91,3.13-1.6,4.49-2.22,3.39-1.54,4.27-2.1,4.47-3.38.24-2.31,1.3-8.87,2.63-17.18,2.37-14.65,5.6-34.73,5.6-39.87a3.9,3.9,0,0,0-.08-.89A13,13,0,0,0,1234.27,1509.93Z"/><path fill="#56302a" d="M1235.81,1507.5a3.05,3.05,0,0,1-3-3.65c3-15.08,16.43-14.54,22.17-14.31h0c11.49,0,18.62,4.94,19.44,13.54a3,3,0,1,1-6.07.58c-.64-6.63-7.69-8-13.51-8-10.4-.42-14.59,2-16.06,9.41A3,3,0,0,1,1235.81,1507.5Z"/><path fill="#56302a" d="M1244.46,1632.7c-1.18,0-2.33,0-3.43-.09-18.8-.71-37.13-9.51-40.8-19.62-1.75-5.23,3.27-15.32,4.84-18.29a3.05,3.05,0,0,1,5.39,2.86c-2.93,5.52-5,11.79-4.47,13.42,2.17,6,16.68,14.83,35.33,15.54,20.09,1.12,46.32-8.16,48.37-15.08,2.19-7.5-2.39-19.48-2.44-19.6a3.05,3.05,0,0,1,5.69-2.21c.22.57,5.38,14,2.6,23.53C1292.12,1624.69,1263.59,1632.7,1244.46,1632.7Z"/><path fill="#56302a" d="M1264.21,1520.08a3.06,3.06,0,0,1-1.07-.19c-5.18-1.94-16.12-2.53-20.21-.49a3,3,0,1,1-2.73-5.45c6.3-3.15,19.27-2,25.08.23a3,3,0,0,1-1.07,5.9Z"/><path fill="#56302a" d="M1264.21,1535.54a2.93,2.93,0,0,1-1-.16c-6.18-2.05-18.84-2.88-22.84-.88a3,3,0,0,1-2.73-5.45c6-3,20.58-1.76,27.49.55a3,3,0,0,1-1,5.94Z"/><path fill="#56302a" d="M1264.21,1550.64a3,3,0,0,1-1.16-.23c-5.71-2.35-20.45-3.45-24.29-1.25a3,3,0,0,1-3-5.29c6.52-3.73,23.59-1.59,29.64.9a3,3,0,0,1-1.16,5.87Z"/><path fill="#56302a" d="M1261.7,1565.74a3.06,3.06,0,0,1-.74-.09c-7.38-1.84-20.62-2.49-24.06-.63a3.05,3.05,0,0,1-2.9-5.37c5.93-3.19,21.43-1.67,28.43.08a3.05,3.05,0,0,1-.73,6Z"/><path fill="#56302a" d="M1247.34,1604.58h-1.18c-18.68-.44-23.61-6.38-27.38-13-1.76-3.08-2.36-4.13-5.82-3.93a3.08,3.08,0,0,1-3.21-2.88,3,3,0,0,1,2.89-3.21c7.22-.37,9.55,3.7,11.44,7,2.55,4.46,5.44,9.51,22.23,9.9,14.62.37,22.58-6.76,28.33-11.94,3.75-3.39,6.71-6,10.44-5.34,3.47.67,5.58,4.16,7,7.13a3.05,3.05,0,1,1-5.48,2.68c-1.73-3.54-2.7-3.82-2.71-3.82-.77-.11-3.54,2.37-5.21,3.87C1272.72,1596.47,1263.72,1604.58,1247.34,1604.58Z"/><path fill="#56302a" d="M1494.35,1501.83h-.25a3.06,3.06,0,0,1-2.8-3.29c0-.18,1.57-19,6.21-69,4.89-52.74.06-103.72-6.89-130.86-2.75-10.7-4.76-33.56-6-67.92-1.79-50.19-1.17-50.46.89-51.33a3.06,3.06,0,0,1,4.24,3c-.13,4.83.6,90.64,6.77,114.69,6.57,25.62,12.35,75.81,7,132.94-4.64,50-6.18,68.77-6.19,69A3.06,3.06,0,0,1,1494.35,1501.83Z"/><path fill="#56302a" d="M1449.63,1507.26a3,3,0,0,1-3-2.76c-.13-1.37-13-136.94-21.1-156.3-9.3-22.13-23.29-117.1-27.35-145.68a3.05,3.05,0,0,1,6-.86c8.32,58.52,19.77,127.13,26.93,144.18,8.48,20.21,21,152.47,21.55,158.09a3,3,0,0,1-2.75,3.32Z"/><path fill="#56302a" d="M1482.88,1622.16a109.78,109.78,0,0,1-15.47-1.08c-12.75-2-28.46-7.66-30.92-17-1.9-7.2-.1-17.91,2.18-31.47,1.91-11.3,4.06-24.1,4.56-37.73.11-3.71-.12-7.91-.35-12-.53-9.4-.69-14.42,1.65-16.9a4.34,4.34,0,0,1,3.18-1.38c.33-.06,1.81-.67,2.89-1.11,4.54-1.87,10.78-4.44,15.52-1.73,2.29,1.37,2.18,3.51,1.64,13.77-.56,10.59-1.5,28.32,1,45.25,2,13.76-5.26,16.18-11.69,18.31-4.61,1.53-9.37,3.1-13.34,8.4a3,3,0,0,1-1.28,1c-.71,5.82-.89,10.67,0,14,1.3,4.92,12.69,10.42,25.93,12.51,18.17,2.59,32.63-.33,36.67-1.68,8.94-2.86,14.6-6.65,14.82-9.89.32-4.15-1.89-9.24-5.29-16.79a3.16,3.16,0,0,1-.73-.81c-4.07-6.55-8.79-8.7-12.59-10.42-3.55-1.62-7.22-3.29-8-8-.26-2.46-1.36-9.28-2.63-17.19-2.53-15.67-5.67-35.18-5.67-40.81,0-3.78,1.72-5.49,3.16-6.27,4-2.16,9.66,1.21,11.29,2.3a3,3,0,0,1,1.31,2c1.18,7,2,13.49,2.81,19.72,1.37,10.67,2.56,19.9,5,27.69a247.71,247.71,0,0,0,11.14,28.25c4,9,6.69,14.87,6.24,20.71-.51,7.75-10.62,12.57-19,15.25C1502.51,1620.63,1493.64,1622.16,1482.88,1622.16Zm-34-111.56c-.48,2.1-.17,7.75.07,12s.47,8.54.35,12.52c-.51,14.05-2.7,27.06-4.63,38.54-.29,1.74-.58,3.44-.85,5.1a35.74,35.74,0,0,1,11.26-5.4c6.26-2.08,8.86-2.94,7.57-11.64-2.54-17.53-1.58-35.64-1-46.46.17-3.31.35-6.71.32-8.5-2.4-.3-6.5,1.36-9.07,2.43A26,26,0,0,1,1448.9,1510.6Zm42.21-2a3.83,3.83,0,0,0-.08.89c0,5.14,3.23,25.2,5.59,39.84,1.34,8.33,2.4,14.9,2.66,17.37.18,1.12,1.06,1.68,4.45,3.22,1.36.62,2.89,1.31,4.49,2.22-1.8-4.49-3.68-9.55-5.53-15.34-2.62-8.32-3.83-17.79-5.24-28.76-.74-5.75-1.51-11.69-2.55-18.1A10.7,10.7,0,0,0,1491.11,1508.59Z"/><path fill="#56302a" d="M1493.37,1507.5a3,3,0,0,1-3-2.45c-1.47-7.37-5.69-9.83-15.94-9.42-5.94,0-13,1.4-13.63,8a3,3,0,0,1-3.32,2.75,3.05,3.05,0,0,1-2.75-3.33c.82-8.6,8-13.54,19.57-13.54,5.61-.23,19-.77,22,14.31a3.05,3.05,0,0,1-2.39,3.59A3.13,3.13,0,0,1,1493.37,1507.5Z"/><path fill="#56302a" d="M1484.68,1632.7c-19.08,0-47.63-8-51-19.53-2.78-9.52,2.38-23,2.6-23.54a3,3,0,0,1,3.94-1.74,3.07,3.07,0,0,1,1.75,3.95c0,.12-4.63,12.1-2.44,19.62,2,6.9,28.35,16.18,48.32,15.06,18.7-.71,33.21-9.57,35.41-15.61.52-1.56-1.57-7.83-4.5-13.35a3.05,3.05,0,0,1,5.39-2.86c1.58,3,6.59,13.06,4.87,18.21-3.7,10.19-22,19-40.89,19.7C1487,1632.67,1485.85,1632.7,1484.68,1632.7Z"/><path fill="#56302a" d="M1465,1520.08a3,3,0,0,1-1.07-5.9c5.81-2.18,18.78-3.38,25.08-.23a3,3,0,1,1-2.72,5.45c-4.1-2-15-1.45-20.22.49A3.06,3.06,0,0,1,1465,1520.08Z"/><path fill="#56302a" d="M1465,1535.54a3,3,0,0,1-1-5.94c6.92-2.31,21.51-3.55,27.5-.55a3,3,0,0,1-2.73,5.45c-4-2-16.66-1.17-22.84.88A2.93,2.93,0,0,1,1465,1535.54Z"/><path fill="#56302a" d="M1465,1550.64a3,3,0,0,1-1.16-5.87c6-2.49,23.11-4.63,29.64-.9a3,3,0,1,1-3,5.29c-3.84-2.19-18.58-1.1-24.29,1.25A3,3,0,0,1,1465,1550.64Z"/><path fill="#56302a" d="M1467.48,1565.74a3.05,3.05,0,0,1-.73-6c7-1.75,22.5-3.27,28.43-.08a3.05,3.05,0,1,1-2.9,5.37c-3.44-1.86-16.68-1.2-24.06.63A3.06,3.06,0,0,1,1467.48,1565.74Z"/><path fill="#56302a" d="M1481.84,1604.58c-16.38,0-25.38-8.11-31.38-13.53-1.66-1.5-4.47-4-5.21-3.87,0,0-1,.28-2.71,3.82a3.05,3.05,0,0,1-5.48-2.68c1.46-3,3.57-6.46,7-7.13,3.75-.72,6.7,2,10.44,5.34,5.76,5.18,13.71,12.37,28.33,11.94,16.79-.39,19.68-5.44,22.23-9.9,1.89-3.29,4.17-7.35,11.44-7a3,3,0,1,1-.32,6.09c-3.5-.2-4.06.85-5.82,3.93-3.77,6.59-8.7,12.53-27.38,13Z"/><path fill="#56302a" d="M1259.74,1009.5a2.36,2.36,0,0,1-.38,0,3.06,3.06,0,0,1-2.66-3.4l2.64-21.32a3.05,3.05,0,0,1,6.06.75l-2.64,21.32A3.05,3.05,0,0,1,1259.74,1009.5Z"/><path fill="#56302a" d="M1265.74,954.87h-.22a3,3,0,0,1-2.82-3.26,410.89,410.89,0,0,0,.73-48.29l-3.79-103.88a3,3,0,0,1,2.93-3.16,3,3,0,0,1,3.16,2.93l3.8,103.89a417.88,417.88,0,0,1-.75,49A3,3,0,0,1,1265.74,954.87Z"/><path fill="#56302a" d="M1470.2,1009.5a3.05,3.05,0,0,1-3-2.67L1464.35,984a3.05,3.05,0,0,1,2.66-3.4,3,3,0,0,1,3.4,2.65l2.82,22.81a3,3,0,0,1-2.65,3.4A2.42,2.42,0,0,1,1470.2,1009.5Z"/><path fill="#56302a" d="M1464.19,954.87a3,3,0,0,1-3-2.82,415.71,415.71,0,0,1-.75-49l3.79-103.89a3.1,3.1,0,0,1,3.16-2.93,3.05,3.05,0,0,1,2.94,3.16l-3.8,103.88a412.94,412.94,0,0,0,.74,48.29,3,3,0,0,1-2.82,3.26Z"/><path fill="#56302a" d="M1368.83,714.44c-27,0-44.68-16.28-49.47-21.29a3.05,3.05,0,0,1,4.42-4.21c4.36,4.57,20.43,19.4,45,19.4h.45c22.28-.17,37.25-12.27,42.66-17.47a3.05,3.05,0,0,1,4.23,4.4c-5.93,5.7-22.37,19-46.84,19.17Z"/><path fill="#e88585" fill-rule="evenodd" d="M1249.27,246.61c-.25-3.8-5.68-4.4-12.8-11.25-12.2-11.92-23.42-43.28-46.49-61.18-18.36-13.75-39.2-26.7-60.36-29.79-16.36-2.44-34.17,2.19-45.61,7.06-20.72,8.64-48.37,33.28-58.33,56.16-9.71,21.91-13.4,48.51-12.46,63.06.73,11.39,4.47,15.28,4.47,15.28s6.13,11.36,50.89,20.87C1113,316,1178.14,291.52,1196,321.5c6.8,11.95,11.28,7.54,11.28,7.54s1.89-10.29,9.61-13.64c10.47-5.12,24.58-13,29.15-20.93,10.59-18.16-9.13-43.25-9.13-43.25S1249.51,250.4,1249.27,246.61Z"/><path fill="#ffddc0" fill-rule="evenodd" d="M1206.27,294.16s-4.81-20.34-15.31-20.62c-8.6-.4-23,7.2-34.6,10.17a47.63,47.63,0,0,1-18.65,1.51s-19.79,8.26-31.79-.5c-11-7.87-14.54-23.52-23.85-25.14-19.86-2.54-23.85,24.4-23.85,24.4a39.06,39.06,0,0,1-15.23,5.1,110.06,110.06,0,0,1-18.43-.08A108.11,108.11,0,0,0,1008.09,305c-3.63,4.39-5.53,7.43-9.07,7.92-6,.83-9.52-6.66-13.67-8.16C977.8,302,962,316.81,929.6,373.24l79.11,69.56c5.62-1.77,25.22-8.71,35.65-28.42a54.6,54.6,0,0,0,5.81-18.28l10.45-5.55s23.38,27.72,33,28.38c11.51,1.16,32.09-19.54,48.19-31.05,9.12-6.3,13.54-1.82,22.33-8.42,7.9-5.59-5.62-13.3-.12-21.6,8.93-14.23,28-28.48,36.07-41.7C1208.35,302,1206.27,294.16,1206.27,294.16Z"/><path fill="#96bbd6" fill-rule="evenodd" d="M981.6,304.69a170.5,170.5,0,0,0-24-15.24c-19.11-10-41.2-16.86-41.52-16.06,0,0,0,0,0,0-.05,1-15.12-.56-26.18,1-18.32,2.64-33,15-41,21.77-1.67,1.41-3,2.62-3.94,3.48-19.42,15.17-39.41,32-59.62,50.7A941.6,941.6,0,0,0,667.92,481.45a60.09,60.09,0,0,0-10,28.08,58.78,58.78,0,0,0,.86,16.28L590.59,646.38,592.5,672a510.64,510.64,0,0,0,281.23,85.8,23.6,23.6,0,0,0,8-4.68,24,24,0,0,0,7-11.25l20.43-45.09,25.2,11.18a36.27,36.27,0,0,0,20.58.51,35.89,35.89,0,0,0,15.13-8.49c5.59-5.53,46.69-35.27,28.69-67.24-2.34-4.16-8.2-34-8.2-34l102.87-114.87a122.32,122.32,0,0,0,2.42-23,124.52,124.52,0,0,0-7.56-43.88l-27.69-26.43-10.45,5.55c-3,17.74-14.21,31.66-27.84,34.2-22,4.1-38.33-23.79-40.46-27.44-8.32-14.27-8.3-28-8.27-45.81A179.06,179.06,0,0,1,981.6,304.69Z"/><path fill="#ffddc0" fill-rule="evenodd" d="M878.84,612.34c15,9.34,27.37,11.48,35.94,11.67,6.28.13,7-.85,29.61-2.63,17.28-1.37,21.33-1.14,25.7-.17a50.89,50.89,0,0,1,23,12.32,81,81,0,0,1,16.53,18,79.55,79.55,0,0,1,6.82,12.43,61.95,61.95,0,0,1-22.67,27.69l-6.53,1.43H975.62L965.05,692l1.29-7.74a8.51,8.51,0,0,1-6.81,3.18,8.66,8.66,0,0,1-6.75-4.19,10.74,10.74,0,0,1-8.38,7.37c-5.91,1-9.85-3.47-10-3.68H922.8l-8.92-12.06-17.52,1.56-36.55-20.29a51.55,51.55,0,0,0,19-43.77Z"/><polygon fill="#ffddc0" fill-rule="evenodd" points="655.27 1472.15 708.5 1485.23 685.97 1501.48 669.13 1503.99 653.93 1498.96 655.27 1472.15"/><polygon fill="#ffddc0" fill-rule="evenodd" points="744.56 1439.38 771.54 1431.25 774.95 1447.25 762.68 1455.69 749.26 1474.94 735.35 1481.2 734.1 1477.65 735.83 1465.32 741.09 1443.55 744.56 1439.38"/><path fill="#bfbab6" fill-rule="evenodd" d="M651,1498.43s10.92,5.56,14.55,5.56,22.6-2.78,22.6-2.78l20.4-16,17.55-2.13,8.05,6.41,7.71,33.86,27.59,36.44c24.89,21.6,39.77,31.6,49,36.72,3.75,2.07,10.08,5.27,15.13,12.3,0,0,2.31,3.22,9,18.77a46,46,0,0,1-14.23,10.08c-9.34,4.19-17.6,3.94-23.61,3.84-10.52-.17-25.25,0-45.55,1.26a73.64,73.64,0,0,1-42.38-20.53l-33.1-24.92c-5.76-.42-18.23-2.17-29.44-11.42a48.49,48.49,0,0,1-9.18-10.05Z"/><path fill="#999593" fill-rule="evenodd" d="M644.13,1581v16.54l12.73,5.84,26.39,7,17,1,24.95,30.11,22.35,9.76,36.24,4.16,41.21-4.19,22.34-9.73s-1.58-7.47-1.09-8.07-2.72-6.67-2.72-6.67l-9.7,8.69s-13.66,5.28-14.3,5.66-37.56,3.06-37.56,3.06l-31.7-3.12-41.72-26.33-21-17.21-26.23-9.68Z"/><path fill="#999593" fill-rule="evenodd" d="M749.26,1530.44c1,.31,28.47,6.17,29.25,6.22s89-3.82,89-3.82,30.86-10.62,31.87-9.47,12.42-8.16,12.42-8.16v10.73l-12.17,8.24-29,7.42s-38.29,3.77-38.9,3.8-34.62-1.12-34.62-1.12l-22.55-4.86-15.39,9.49Z"/><path fill="#bfbab6" fill-rule="evenodd" d="M730.68,1481.2c1.54-.39,14.37.14,13.88-1.1s13.9-14.78,13.9-14.78L771.21,1447h10.91l16.78,17.08,23.91,15,42.29,13.16,29.92,7.81,14.42,14.83-10.09,8.49-24.41,8L832.77,1536l-35.66-.1s-24.71.3-25.9.1-24.4-2.43-24.4-2.43L736.72,1510s-5.82-19.12-6-20.46S730.68,1481.2,730.68,1481.2Z"/><path fill="#929596" fill-rule="evenodd" d="M589.91,672l-7.38,76.73a740.48,740.48,0,0,0,6.54,110.66C595.81,909,604.64,935.2,620.71,1017c6.51,33.19,11.23,60.28,14.1,77.35q-4.8,28.72-9.59,57.44a647.49,647.49,0,0,0,5.87,170.5q7.71,74.06,15.43,148.13l45.57,10.74a46,46,0,0,0,25.19,3,45.37,45.37,0,0,0,16.82-6.5l8.07-40.53a26.82,26.82,0,0,0,12.92,2,27.34,27.34,0,0,0,16.45-7.9l63.93-258.73q10.24-48.48,20.5-97,11.5-158.8,23-317.59c-7.2.63-17.52,1.28-29.92,1.15-15.35-.16-46.72-1.65-94.37-15.68C681.68,722,608.5,682.23,589.91,672Z"/><path fill="#56302a" d="M1188.71,320.57a3.06,3.06,0,0,1-2.78-1.78c-5-11-15-11.65-15.38-11.67a3.06,3.06,0,0,1-2.9-3.19,3.11,3.11,0,0,1,3.16-2.91c.58,0,14.06.74,20.67,15.24a3,3,0,0,1-1.51,4A3.14,3.14,0,0,1,1188.71,320.57Z"/><path fill="#56302a" d="M1064.51,305.68a3.08,3.08,0,0,1-2.52-1.31c-4.91-7.12-10.58-18.3-3.09-33.11,4.39-8.65,12.07-13.94,20-13.67,7.63.2,14.3,5.52,18.3,14.57a3.05,3.05,0,0,1-5.58,2.47c-3-6.92-7.63-10.8-12.89-10.94-5.59-.22-11.06,3.81-14.37,10.33-5.92,11.7-2,20.15,2.67,26.88a3,3,0,0,1-2.5,4.78Z"/><path fill="#56302a" d="M1075.81,288.76a3,3,0,0,1-.78-.11,3,3,0,0,1-2.17-3.72,13.44,13.44,0,0,0-.17-6.28,3,3,0,1,1,5.84-1.75,19,19,0,0,1,.22,9.58A3,3,0,0,1,1075.81,288.76Z"/><path fill="#56302a" d="M1154.7,385.59a24,24,0,0,1-2.47-.13,3.05,3.05,0,0,1,.61-6.07c3.05.31,7.05,0,8.83-3.06.42-.72-.34-3.34-.9-5.25-1.1-3.81-2.47-8.56-.92-13.43s8.41-10.81,9.19-11.46a3,3,0,1,1,3.93,4.66c-2.59,2.19-6.58,6.33-7.3,8.64-1,3.12,0,6.56,1,9.89,1,3.62,2,7,.32,10C1165.56,381.8,1162.17,385.59,1154.7,385.59Z"/><path fill="#56302a" d="M1186.82,335.62a3,3,0,0,1-2.15-5.22c6.8-6.7,18.29-20.29,18.88-36.06a3.05,3.05,0,0,1,6.1.23c-.64,17-11.61,31.22-20.69,40.18A3.07,3.07,0,0,1,1186.82,335.62Z"/><path fill="#56302a" fill-rule="evenodd" d="M1163.1,339.18c3-2.74,3.35-7.2,1.29-9.61-2.4-2.71-6.49-2.13-9.49.61s-3.35,7.2-1.29,9.61S1160.1,341.91,1163.1,339.18Z"/><path fill="#56302a" d="M1028.24,295.34c-1.27,0-2.51,0-3.72-.14a3,3,0,0,1,.48-6.08c12.72,1,32.09-4.52,32.29-4.57a3,3,0,1,1,1.68,5.86C1058.21,290.63,1041.62,295.34,1028.24,295.34Z"/><path fill="#56302a" d="M1016.39,288.44a3,3,0,0,1-2.69-1.6c-10.42-19.37,2.35-72.75,15.67-92.76,15.39-22.91,32.23-36.78,50.06-41.21a3,3,0,0,1,1.47,5.92c-16.08,4-32.15,17.38-46.46,38.68-13.51,20.3-24.11,70.22-15.37,86.48a3.05,3.05,0,0,1-1.24,4.13A3,3,0,0,1,1016.39,288.44Z"/><path fill="#56302a" d="M1251.38,247.93a3.08,3.08,0,0,1-1.14-.22c-15.22-6.11-24.68-21.92-30.33-31.37l-.8-1.33c-22.07-36.73-58.31-62.95-92.32-66.79-8.89-1-15.18.46-20.73,1.75-8.67,2-16.16,3.75-27.15-5.52a3,3,0,1,1,3.93-4.66c8.66,7.3,13.62,6.15,21.84,4.23,5.73-1.33,12.87-3,22.79-1.87,35.84,4,73.86,31.42,96.87,69.72l.81,1.34c5.25,8.79,14,23.49,27.37,28.84a3.05,3.05,0,0,1-1.14,5.88Z"/><path fill="#56302a" d="M1147.91,288.78c-9.57,0-19.75-4.57-29.71-19.17a3.05,3.05,0,1,1,5-3.44c16.6,24.33,32.16,16.67,47.21,9.26,10.86-5.36,23.16-11.42,31.15,2.43a3,3,0,1,1-5.28,3c-4.91-8.51-11-6-23.17,0C1165.82,284.51,1157.15,288.78,1147.91,288.78Z"/><path fill="#56302a" d="M1209.79,287.77a3,3,0,0,1-2.29-5.06c4.57-5.21,3.08-15.91-3-21.22a3,3,0,1,1,4-4.58c8.62,7.58,10.33,22.07,3.51,29.82A3,3,0,0,1,1209.79,287.77Z"/><path fill="#56302a" d="M1206.65,332.76h-.19a3,3,0,0,1-2.86-3.22c.75-12.55,9.49-16.45,17.93-20.22a65.55,65.55,0,0,0,10.49-5.46,30.31,30.31,0,0,0,13-20.83c1.49-10.49-2.43-21.67-11.34-32.34a3,3,0,1,1,4.68-3.91c12.7,15.2,13.91,28.57,12.7,37.11a36.36,36.36,0,0,1-15.67,25,70.6,70.6,0,0,1-11.41,6c-8.81,3.94-13.82,6.58-14.33,15A3.05,3.05,0,0,1,1206.65,332.76Z"/><path fill="#56302a" d="M1128,394.35a3,3,0,0,1-1.28-.28c-8.63-4-18-13.13-19.36-24.45a3,3,0,0,1,6.05-.75c1.11,9,8.78,16.37,15.88,19.67a3,3,0,0,1-1.29,5.81Z"/><path fill="#56302a" d="M1122.25,292.54c-12,0-19.48-8.84-19.85-9.28a3.05,3.05,0,0,1,4.69-3.91c.32.39,8.28,9.59,20.21,6.4a3,3,0,1,1,1.58,5.89A25.34,25.34,0,0,1,1122.25,292.54Z"/><path fill="#56302a" d="M1030.77,416.3a3,3,0,0,1-2.1-.85,3,3,0,0,1-.11-4.31c11.27-11.82,17.12-15.5,22.77-19.05,2.24-1.41,4.35-2.74,6.79-4.57a3.05,3.05,0,1,1,3.66,4.88c-2.64,2-5,3.44-7.2,4.85-5.34,3.36-10.86,6.83-21.6,18.1A3,3,0,0,1,1030.77,416.3Z"/><path fill="#56302a" d="M1094.56,422.09c-3.37,0-6.88-1.18-10.66-4-8.58-6.2-20.76-20.49-29.28-31.78a3.05,3.05,0,1,1,4.87-3.68c10.37,13.74,21.38,25.74,28,30.56,7.55,5.7,12.47,2.6,24.64-7.72a3.05,3.05,0,1,1,3.94,4.66C1108.69,416.38,1102,422.09,1094.56,422.09Z"/><path fill="#56302a" d="M990.58,324.1a3.05,3.05,0,0,1-2.06-5.3l8.67-8c6.3-5.81,12.42-11.44,18.18-16.65a3,3,0,1,1,4.09,4.51c-5.74,5.21-11.85,10.83-18.14,16.63l-8.68,8A3.05,3.05,0,0,1,990.58,324.1Z"/><path fill="#56302a" d="M859,659.92a2.8,2.8,0,0,1-1-.18c-142.93-51.33-172.69-75-200.82-130-4.42-8.65-3.84-20.3,1.74-34.62,28.91-74.21,185.5-207.7,223.45-221.75,43-15.91,115.19,35.43,118.24,37.63A3,3,0,1,1,997,316c-.72-.52-72.61-51.66-112.56-36.86-36.37,13.46-192.18,147.13-219.89,218.24C659.63,510,659,520,662.56,527c27.16,53,56.24,76.18,195.69,126.37,4.68-4.64,20.65-22.52,17.4-47.26-8-6.24-62.84-49.17-84.32-69-22.15-20.46-51.38-22.92-51.67-23a3,3,0,0,1-2.81-3.27,3,3,0,0,1,3.27-2.81c1.28.1,31.59,2.61,55.35,24.55,22.89,21.14,84.28,69,84.9,69.44a3,3,0,0,1,1.14,1.94c5.08,32.83-19.5,54.29-20.55,55.19A3,3,0,0,1,859,659.92Z"/><path fill="#56302a" d="M764.68,520.34a3,3,0,0,1-.22-6.09c.55,0,12.71-1.3,23-19.85,11.54-20.74,89.6-88.32,92.92-91.18a3,3,0,1,1,4,4.61c-.81.7-80.56,69.73-91.57,89.53-12.08,21.7-27.31,22.93-28,23Z"/><path fill="#56302a" d="M592.5,675a3.07,3.07,0,0,1-2.66-1.55C574,645.54,648.78,538.72,657.36,526.63a3.05,3.05,0,0,1,5,3.53c-22.7,32-79,119.5-67.19,140.3a3.05,3.05,0,0,1-1.15,4.16A3,3,0,0,1,592.5,675Z"/><path fill="#56302a" d="M711.09,1488.3c-27.13,0-63.72-14.23-65.69-15a3,3,0,0,1-1.91-2.51c-.18-1.66-17.64-166.75-23.43-228.43-4.22-44.92,3.53-101.27,8.52-130.87a96.33,96.33,0,0,0-.57-35.26c-8.06-39.81-28.19-140.1-41.1-211.51-16.5-91.19-.18-192.23,0-193.24a3,3,0,0,1,4.63-2.09c1.54,1,155.39,96.61,287.05,85.35a3,3,0,0,1,2.38.84,3.07,3.07,0,0,1,.92,2.36c-.63,11.92-15.75,292.49-26.42,341.69-10.62,49-77.43,326.56-78.1,329.36a3.08,3.08,0,0,1-.41,1c-.35.52-8.43,12.5-32.45,12.5h-.21c-2.42,17.48-3.91,28.11-4,28.56a18.26,18.26,0,0,1-9.48,13.29C725.66,1487.17,718.75,1488.3,711.09,1488.3Zm-61.73-20c9.88,3.68,59.57,21.28,78.48,10.68a12.26,12.26,0,0,0,6.46-9c.45-2.58,47.76-342.79,48.76-383.86,1-39.85,0-262.75,0-265a3,3,0,0,1,3-3.07,3,3,0,0,1,3.07,3c0,2.25,1,225.23,0,265.17-.81,33.27-31.85,261.85-44,350.12,18-.16,25-7.59,26.44-9.38,3.52-14.61,67.56-280.79,77.93-328.62,9.93-45.82,24.29-304.13,26.1-337.25C754.69,769.74,617.15,691.76,592.25,677c-2.92,20.47-13.68,107.4.66,186.67,12.91,71.35,33,171.6,41.07,211.39a102.29,102.29,0,0,1,.62,37.49c-5,29.29-12.62,85-8.47,129.28C631.59,1299.87,647.4,1449.78,649.36,1468.27Z"/><path fill="#56302a" d="M945.71,621.43a3,3,0,0,1-2.49-4.8c5.87-8.39,11.92-14.77,18-19,25.73-17.79,81.3-81.74,81.86-82.38a3.05,3.05,0,1,1,4.61,4c-2.3,2.65-56.63,65.17-83,83.4-5.46,3.77-11,9.64-16.45,17.44A3.08,3.08,0,0,1,945.71,621.43Z"/><path fill="#56302a" d="M878.84,760.81a3.05,3.05,0,0,1-2-5.33c.09-.07,8.52-7.63,12.58-16.42,2-4.38,5.77-14.34,9.74-24.89,4.54-12,9.22-24.51,12-30.39a3.05,3.05,0,1,1,5.52,2.6c-2.66,5.65-7.31,18-11.8,29.94-4,10.65-7.8,20.72-9.91,25.29-4.6,10-13.69,18.1-14.07,18.44A3,3,0,0,1,878.84,760.81Z"/><path fill="#56302a" d="M655.27,1501.48H655a3.05,3.05,0,0,1-2.78-3.3,187.66,187.66,0,0,0,.28-23.11,3,3,0,0,1,2.92-3.17,3,3,0,0,1,3.17,2.92,192.3,192.3,0,0,1-.29,23.88A3.05,3.05,0,0,1,655.27,1501.48Z"/><path fill="#56302a" d="M784.06,1647.2c-13.15,0-24.95-1-31.15-2.41-20.63-4.2-32.25-14.82-43.49-25.09a171.26,171.26,0,0,0-15.18-12.82c-8.77-6.36-18.61-9.7-27.29-12.64-10.39-3.52-18.6-6.3-21.65-13-2.83-5.66-1.74-17.69-.69-29.32.15-1.65.3-3.27.43-4.81.75-8.6,1.25-19.26,1.68-28.67.4-8.55.74-15.94,1.2-20.31a3.73,3.73,0,0,1,2-3c2-.93,3.67.07,6,1.46,3.9,2.3,11.16,6.59,21.75,4.58,5.76-.88,10.09-4.31,15.1-8.27,7.67-6.08,16.35-13,31.79-11.43,9.35.86,11,9.42,12.53,17.7a62.47,62.47,0,0,0,3,11.54c7.92,21,23.07,39.46,31.33,46.8,14.49,13.35,27.79,22.31,39.53,30.21,17.75,12,30.57,20.59,34.3,36.1a11.26,11.26,0,0,1-3.17,11C833,1644.19,806.53,1647.2,784.06,1647.2ZM653.68,1502.34c-.3,4.19-.57,9.94-.86,16.36-.44,9.47-.94,20.21-1.71,28.91-.13,1.54-.27,3.17-.42,4.84-.84,9.26-2,21.94.11,26.14,2,4.42,9.47,7,18.11,9.87s19.39,6.58,28.91,13.48a178.78,178.78,0,0,1,15.72,13.26c11.11,10.16,21.61,19.75,40.64,23.63,19.42,4.31,72.44,3.12,83.54-8.27a5.18,5.18,0,0,0,1.61-5.27c-3.17-13.23-15.17-21.31-31.78-32.49-11.33-7.63-25.42-17.12-40.22-30.75-7.45-6.62-24-25.46-32.91-49.11a66.78,66.78,0,0,1-3.27-12.62c-1.66-8.76-2.77-12.37-7.1-12.76h0c-13-1.29-20,4.26-27.41,10.14-5.22,4.13-10.61,8.4-17.87,9.5C666.75,1509.48,658.2,1505,653.68,1502.34Z"/><path fill="#56302a" d="M786.55,1657.43c-15.79,0-30.18-1.21-36.93-2.56-19.11-3.88-26.84-13.13-35-22.92-4.39-5.24-8.93-10.67-15.57-15.48-4.69-3.46-7.29-3.32-11.22-3.11a35.62,35.62,0,0,1-10.68-.7c-1.24-.25-32.22-6.57-35.34-17.48-2.06-7.18,1-25.23,1.36-27.26a3.05,3.05,0,1,1,6,1c-.9,5.14-2.92,19.58-1.51,24.53,1.14,4,15.51,10.14,30.76,13.19a30.07,30.07,0,0,0,9.08.58c4.48-.25,8.71-.46,15.14,4.28,7.23,5.24,12,11,16.64,16.49,7.81,9.33,14.55,17.4,31.55,20.86,16.21,3.23,75,5.06,89.65-6.68,1.72-1.37,2.57-2.78,2.61-4.32a2,2,0,0,1,0-.42c.3-1.78-1.15-7.68-3.42-11.31a3.05,3.05,0,1,1,5.18-3.24c2.5,4,4.82,11.32,4.29,15.32-.14,3.32-1.79,6.26-4.89,8.74C834.28,1655,809,1657.43,786.55,1657.43Z"/><path fill="#56302a" d="M711.86,1530.73a3,3,0,0,1-1.86-5.47c8.68-6.64,19.45-8.18,26.57-9.19a3.17,3.17,0,0,1,3.59,2.57,3,3,0,0,1-2.46,3.43l-.27,0c-6.49.93-16.31,2.33-23.72,8A3,3,0,0,1,711.86,1530.73Z"/><path fill="#56302a" d="M721.45,1551.35a3,3,0,0,1-2-5.38c7.43-6.26,17.66-10,29.58-10.78a3.1,3.1,0,0,1,3.24,2.84,3.06,3.06,0,0,1-2.84,3.25c-7.4.49-17.93,2.51-26.05,9.35A3,3,0,0,1,721.45,1551.35Z"/><path fill="#56302a" d="M735.83,1568.14a3.05,3.05,0,0,1-1.69-5.59c9.58-6.39,19.18-9.62,28.55-9.62a3,3,0,0,1,0,6.1c-8.14,0-16.61,2.89-25.17,8.59A3,3,0,0,1,735.83,1568.14Z"/><path fill="#56302a" d="M734.87,1593.55a3,3,0,0,1-1.81-5.5c.35-.26,8.8-6.74,4.41-14.79-1.31-2.41-4.08-5.31-7.29-8.67-9.7-10.17-24.36-25.55-24.73-53.65a3,3,0,0,1,3-3.09h0a3.06,3.06,0,0,1,3,3c.34,25.71,13.46,39.47,23,49.52,3.51,3.67,6.53,6.85,8.23,10,5.56,10.19-1.58,19.25-6.14,22.61A3,3,0,0,1,734.87,1593.55Z"/><path fill="#56302a" d="M779.75,1601.5c-12,0-25.08-4.43-31.45-9.59a3.05,3.05,0,1,1,3.84-4.74c6.43,5.21,21.72,9.69,33.36,7.8,6.06-1,10.42-3.53,13-7.54a3,3,0,1,1,5.14,3.27c-3.48,5.47-9.4,9-17.14,10.29A42.2,42.2,0,0,1,779.75,1601.5Z"/><path fill="#56302a" d="M798.42,1540.5c-7.41,0-15.2-.49-22.77-1-3-.19-6-.38-9-.53a44.16,44.16,0,0,1-8.68-1.64c-2.74-.73-5.34-1.41-7.56-1.26A3,3,0,1,1,750,1530c3.24-.23,6.45.62,9.56,1.44a38.18,38.18,0,0,0,7.45,1.45q4.49.24,9,.53c8.84.55,18,1.12,26.33.89,45.35-.65,96.79-6.34,102.67-17.3.48-.9.85-2.22-.59-4.47-6.53-9.84-14.91-12.53-31.17-16-19.84-4-32.38-6.73-59-17.69-9-3.7-16.06-11.06-22.3-17.56s-11.77-12.24-16.3-11.15c-4,1-7.36,5.94-11.19,11.71-5.19,7.81-11.66,17.54-23.34,21.49-3.27,1.14-7,1.12-11.45-.07a3,3,0,1,1,1.58-5.89c3.2.87,5.78.92,7.89.19,9.74-3.29,15.31-11.69,20.24-19.1,4.35-6.56,8.47-12.76,14.88-14.27,7.94-1.87,14.49,5,22.08,12.86,5.83,6.07,12.44,12.94,20.23,16.15,26.12,10.74,38.42,13.47,57.92,17.35,16,3.36,27,6.46,35,18.59,3,4.64,2.11,8.37.87,10.7-9.53,17.72-85,20.18-107.92,20.51C801.15,1540.48,799.79,1540.5,798.42,1540.5Z"/><path fill="#56302a" d="M775.56,1449.15a3.05,3.05,0,0,1-2.72-1.65c-6-11.65-5-16.25-3.83-18a3.05,3.05,0,0,1,5.29,3c-.08.45-.41,3.65,4,12.14a3,3,0,0,1-2.7,4.45Zm-1.48-16.21h0Zm0,0Z"/><path fill="#56302a" d="M759.17,1550.72a3.05,3.05,0,0,1-.65-6,17.91,17.91,0,0,0,6.77-3.16c2.43-1.62,5.17-3.46,9.86-3.55a54.56,54.56,0,0,1,16,1.89,93.35,93.35,0,0,0,19.34,2.8c16.82.7,68.23-1.84,89.61-12.06,5-2.35,7.82-4.85,8.47-7.44.56-2.19-.35-4.94-2.71-8.17a3,3,0,0,1,4.93-3.59c3.48,4.77,4.72,9.24,3.69,13.27-1.14,4.49-5,8.23-11.76,11.44-24.18,11.55-79.13,13.19-92.53,12.64a100.35,100.35,0,0,1-20.47-3,48.73,48.73,0,0,0-14.45-1.72c-2.88.05-4.35,1-6.56,2.52a24,24,0,0,1-8.87,4.05A2.94,2.94,0,0,1,759.17,1550.72Z"/><path fill="#56302a" d="M783.29,1482a3.05,3.05,0,0,1-2.56-4.69c4.08-6.4,9.94-11.1,14.59-14.49a3,3,0,1,1,3.58,4.93c-4.21,3.07-9.5,7.3-13,12.84A3.06,3.06,0,0,1,783.29,1482Z"/><path fill="#56302a" d="M800,1492.56a3,3,0,0,1-2.87-4.07c2.5-7,7.42-12.14,11.44-15.81a3.05,3.05,0,1,1,4.11,4.51c-3.49,3.18-7.76,7.58-9.8,13.34A3.06,3.06,0,0,1,800,1492.56Z"/><path fill="#56302a" d="M817.56,1499.91a3.1,3.1,0,0,1-1.46-.37,3,3,0,0,1-1.21-4.14A56.09,56.09,0,0,1,826,1480.85a3.05,3.05,0,1,1,4.12,4.5,51,51,0,0,0-9.88,13A3,3,0,0,1,817.56,1499.91Z"/><path fill="#56302a" d="M827.35,1519.78a3.22,3.22,0,0,1-1.09-.2,3,3,0,0,1-1.75-3.94c.13-.35,3.15-8.67-3.24-12.4a75.77,75.77,0,0,0-8.59-3.37c-12.42-4.42-31.19-11.08-40.75-27.39a3,3,0,1,1,5.26-3.08c8.43,14.39,25.95,20.6,37.53,24.72a76.74,76.74,0,0,1,9.53,3.79c8.81,5.15,7.74,15.27,6,19.91A3,3,0,0,1,827.35,1519.78Z"/><path fill="#56302a" d="M841.83,1507a40.32,40.32,0,0,1-4.88-.3,3,3,0,1,1,.73-6c10.11,1.22,19.49-2,25.08-8.73a3,3,0,0,1,4.68,3.91C861.45,1503,852.12,1507,841.83,1507Z"/><path fill="#56302a" d="M991.49,694.69a3.05,3.05,0,0,1-1.86-5.48c.16-.12,15.89-12.19,23.24-21.64.19-.25.79-1,.45-3-1.89-10.94-25.11-31.69-34.82-37.89-9.2-5.88-43-1.7-55.66-.13-1.72.22-3.15.39-4.23.51-10.27,1.15-37.06-10.51-38.74-13.05a3,3,0,0,1,4.63-3.91c3,2,25.29,11.77,33.44,10.9l4.15-.5c24-3,49.95-5.19,59.69,1,9.38,6,35.14,28,37.55,42a9.46,9.46,0,0,1-1.65,7.76c-7.83,10.08-23.67,22.24-24.34,22.75A3.09,3.09,0,0,1,991.49,694.69Z"/><path fill="#56302a" d="M983.84,697.26a7.68,7.68,0,0,1-3.7-1,3.05,3.05,0,0,1,2.92-5.36c3.74,2.06,12.15-11.47,15.72-17.24,1.6-2.58,3-4.81,4.16-6.41,1.2-2.95-9.92-16.18-23.33-27.73a3,3,0,1,1,4-4.62c11.6,10,30.18,27.93,24.26,36-1,1.4-2.35,3.53-3.88,6C998.53,685.68,991.36,697.26,983.84,697.26Z"/><path fill="#56302a" d="M970.39,698.57a10.53,10.53,0,0,1-5.85-1.85l-.28-.21c-.4-.34-3.87-3.52-1.81-10.47a3.05,3.05,0,1,1,5.85,1.73c-.74,2.49-.27,3.69,0,4.08a4,4,0,0,0,3,.51c5.17-1.21,10.81-11,14.54-17.46,1-1.73,1.9-3.3,2.7-4.57,2.14-3.37-7.16-14.06-16.86-21.53a3.05,3.05,0,0,1,3.73-4.83c5.84,4.5,24.42,19.94,18.28,29.63-.76,1.2-1.62,2.7-2.57,4.34-4.51,7.83-10.68,18.54-18.43,20.36A10,10,0,0,1,970.39,698.57Z"/><path fill="#56302a" d="M931.4,691.63c-3.44,0-8.52-1.31-13.34-7.5-6.58-8.47-14.78-19-11-30.42a130.72,130.72,0,0,1,6.44-15.27c2.58-5.25,7.38-8.38,11.7-7.6,1.89.34,6.39,2,7.23,10.32a3.05,3.05,0,1,1-6.07.61c-.28-2.8-1.16-4.74-2.24-4.93s-3.61,1.16-5.14,4.29a123.43,123.43,0,0,0-6.13,14.51c-2.56,7.69,3,15.75,10,24.74,5.22,6.71,10.18,5,10.39,4.89a3.07,3.07,0,0,1,3.92,1.74,3,3,0,0,1-1.64,3.92A11.69,11.69,0,0,1,931.4,691.63Z"/><path fill="#56302a" d="M944.42,693h-.33c-4.71-.16-9.25-3.54-13.49-10l-1.79-2.75c-8.76-13.37-11.71-17.88-6.53-30.57a128.9,128.9,0,0,1,7.51-15.23,10.22,10.22,0,0,1,14.94-3.15,3.05,3.05,0,1,1-3.62,4.91,4.1,4.1,0,0,0-6,1.27,125.2,125.2,0,0,0-7.15,14.51c-4,9.72-2.45,12,6,24.92l1.81,2.76c3,4.58,6,7.17,8.53,7.28a5.3,5.3,0,0,0,3.82-1.86,3.05,3.05,0,0,1,4.86,3.69A11.22,11.22,0,0,1,944.42,693Z"/><path fill="#56302a" d="M960.93,690l-.88,0c-4.17-.3-8.17-2.72-11.9-7.17-9.7-11.58-13-21.6-10.37-31.54,1-3.82,2.56-8.74,4.61-14.61a10.36,10.36,0,0,1,15-5.54,3,3,0,0,1,.8.67c.25.3,6.15,7.45,3.76,15.52-1.61,5.45,1.18,17,3.72,20.56,3,4.24,6,9.49,3.49,18.12a3.09,3.09,0,0,1-.9,1.43A11.5,11.5,0,0,1,960.93,690Zm5.3-4.87h0Zm-14.05-49.33a4.44,4.44,0,0,0-1.48.26,4.25,4.25,0,0,0-2.55,2.61c-2,5.64-3.52,10.53-4.48,14.15-2.09,8,.73,16,9.15,26.06,5.25,6.27,9.2,5.21,10.75,4.38,1.26-5.41-.48-8.48-2.88-11.89-3.41-4.82-6.81-18.3-4.59-25.81,1.2-4-1.32-8.1-2.26-9.42A4.15,4.15,0,0,0,952.18,635.75Z"/><path fill="#56302a" d="M967,679.45a3.05,3.05,0,0,1-.4-6.08,2.28,2.28,0,0,0,.41-.08c-.07-1.25-1.77-5.16-7.26-11.33l-.28-.34a3.05,3.05,0,0,1,4.78-3.79c7.08,8,9.91,13.94,8.48,17.79-.45,1.21-1.74,3.32-5.32,3.8Z"/><path fill="#56302a" d="M906.21,680.1a38.46,38.46,0,0,1-8.12-.73c-4-.89-11.23-5.06-19.59-9.89-6.58-3.8-13.39-7.73-18.27-9.8a3,3,0,0,1,2.37-5.62c5.23,2.21,12.21,6.24,19,10.14,7.25,4.2,14.76,8.53,17.85,9.22,6,1.33,16.16,0,16.26,0a3,3,0,0,1,.83,6A85,85,0,0,1,906.21,680.1Z"/><path fill="#56302a" d="M946.38,712.29c-18.1,0-33.88-9.82-34.13-10a3,3,0,0,1,3.26-5.15c1.44.91,35.47,22,57.84-2.93a3,3,0,0,1,4.54,4.07A40.8,40.8,0,0,1,946.38,712.29Z"/><path fill="#56302a" d="M998.78,642.6a3,3,0,0,1-3-2.41l-8.2-38.56a3,3,0,0,1,.75-2.72c.72-.76,71.4-76.4,95-105,22.49-27.17-.18-76.52-.41-77a3,3,0,1,1,5.52-2.58c1,2.16,24.51,53.38-.41,83.5C1066,524.58,1003,592.2,993.9,601.91l7.86,37a3,3,0,0,1-2.35,3.61A2.7,2.7,0,0,1,998.78,642.6Z"/><path fill="#56302a" d="M1020,432.88c-7,0-16-2.42-26.62-10.26-39.3-29.06-15.7-115.75-14.68-119.42a3.05,3.05,0,1,1,5.88,1.63c-1,3.51-23.53,86.29,12.42,112.88,14,10.34,24.23,10,30.38,7.87,10.43-3.59,18.13-15,20.1-29.73a3.05,3.05,0,1,1,6,.81c-2.28,17-11.54,30.34-24.17,34.69A28.75,28.75,0,0,1,1020,432.88Z"/><path fill="#d2926a" fill-rule="evenodd" d="M1516.76,276.83c.27-3.34,2.26-10.22,7-23.74,3.8-11,6.52-18.9,12.71-30.57,19.82-36.33,45.31-65.11,79.14-72.46,13-2.82,22.8-1.5,37.09.4,23.19,3.08,53.63,7.13,71,28.68,6.28,7.77,13,20.38,29.24,29a55.48,55.48,0,0,0,8.17,3.63c16.23,5.63,23.59-.57,42.37,1.79,10.45,1.31,17.08,2.14,23.12,7.35,8.48,7.31,8.46,16.9,16.32,19,6.51,1.72,11.1-3.64,14.13-1.17,3.49,2.83-.68,11.46-1.82,19.67-1.24,8.95.53,21.65,13.3,38.48L1727,449.34c-46.3,8.68-58.61,19.26-59.71,28.17-1.57,12.82,20.47,18.71,26,43,4.9,21.35-6.67,40.64-11.3,48.35-5.24,8.73-23.63,35.68-55.58,38.94-19.16,2-45.29-4.42-50-18.64-3.65-11.07,7.93-20.08,2.34-33.71-2.51-6.14-5.85-6.75-13.76-14.88-5.78-5.94-19.14-19.67-21.82-34.53-3.12-17.27,11-20.45,13.62-45.45,2.22-21.13-5.8-38.58-7.88-43-10-21.17-21.07-20.18-25.73-38.14-.83-3.2-.33-14.5.71-37,1.23-26.67,1.76-27.5.8-33.24C1521.92,292.23,1515.73,290,1516.76,276.83Z"/><path fill="#ffddc0" fill-rule="evenodd" d="M1655.89,402.48a61.7,61.7,0,0,0-8.79,43.86,112.92,112.92,0,0,0,31.13,49l62.4,62.55c13,12.87,24.63,22.86,33.38,30,32.84,26.78,50,33.3,57.89,35.9,13.21,4.36,28.41,9.38,38.47,1.73,9-6.85,14.14-24.06,13.35-24.51h0c-1.5-.08-10.78-36.23-12.55-42.67-1.54-5.57-1.66-4.13-10.76-25.42-6.9-16.15-12.37-29.92-16.34-40.27a397.09,397.09,0,0,0,131.34,80.27c2.59,1,12.72,4.42,23.5-.2,11.21-4.81,18.67-16.45,19.14-29.76a210.91,210.91,0,0,0-3.24-75.5c-6.68-31-13.8-55.84-19.2-73.12-8.54-27.33-22-65.27-22-65.27h0l8.69-10.77h0c-6.25-12.27-24.43-43.8-62.61-63a140.4,140.4,0,0,0-57.47-14.78l-55.71,92.31-63.63,44.46-43.32-7.45-12.34,19.84-17.79,14.05Z"/><path fill="#ffddc0" fill-rule="evenodd" d="M1768.78,352.82s5.45-14.73,5.45-15.34,2-16.74,2-16.74l9.69-2.46,4.84,15.17s46.61-63.93,47.21-64.35,13.29-15.77,13.29-15.77l8.69,2.44,4.18,8.85-72.36,102.5Z"/><path fill="#fcafaf" fill-rule="evenodd" d="M1833.1,412.21a38.57,38.57,0,0,0,15.47-9.45,39.75,39.75,0,0,0,11.08-24.48l25.46-7.32q12.6,41.32,25.21,82.64Z"/><path fill="#fcafaf" fill-rule="evenodd" d="M1745.67,480.84c.61-2.42-2.82-30.57-2.82-30.57h21.8l12.82,54.48Z"/><path fill="#fcafaf" fill-rule="evenodd" d="M1973.09,331.54q5.09-6,10.15-11.92c9.81,14.08,24.87,36.17,42.31,63.87,53.39,84.81,84.57,135.21,102,206.31,10.47,42.8,12.25,78,13.13,97.15a553.9,553.9,0,0,1-8.5,125.06l-35.79,150.81c.21,9.4.65,23.3,1.71,40.1,3,47.81,8.44,78.66,12.86,111.54,3.51,26,7.69,63,10.17,108.56a345.5,345.5,0,0,1-89,45.46c-27.23,9.16-46.59,11.68-52.29,12.37-13.15,1.57-33.94,3.9-60.35-.7a187,187,0,0,1-59-21c-.48-7.92-1.39-22.41-2.71-40.53-5.27-71.85-10.65-112.43-6.64-162.39a199.54,199.54,0,0,1,8.44-45.16,194.93,194.93,0,0,1,18.13-40.8L1840.94,855a366.17,366.17,0,0,1-13.53-138.37q7.27-43.58,14.53-87.14a31.68,31.68,0,0,0,40.25-40.58c-20.45-54.66-36.73-96.9-38.07-96.43,0,0-.07.07-.08.17-.61,4.86,121.06,79.76,121.06,79.76a40.7,40.7,0,0,0,55.24-46.45,493,493,0,0,0-47.25-194.4Z"/><path fill="#ffddc0" fill-rule="evenodd" d="M1919.46,1280.15a239.84,239.84,0,0,0,112.64-11.67q-1.74,15.27-3.47,30.54a428.43,428.43,0,0,1,26.16,70.2c2.91,10.73,6.69,26.58,17.85,44.91a140.08,140.08,0,0,0,17.88,23.37,132.78,132.78,0,0,0,8.68,61.85,152,152,0,0,1-7.58,64.49,57.34,57.34,0,0,1-50.72,26.58l-1-72.44a160.92,160.92,0,0,0-22.15-64.71q-2.6,10.39-5.2,20.79l-4.89,36.51-8.53,58.21L1981,1588.92a124.59,124.59,0,0,1-60-10.44l7.67-11.59a236,236,0,0,0,7.66-26.86c4-17.91,4.57-30.37,6.06-48.83,1-12.86,2.73-31.43,5.55-54.32-.55-10.2-1.37-25.6-2.33-44.54-.53-10.6-1.16-21.18-1.63-31.78-1.68-38.2-.56-39.27-3.2-46.51C1940.68,1314.05,1939,1309.56,1919.46,1280.15Z"/><path fill="#e59191" fill-rule="evenodd" d="M2095.55,1436.88h0c-.07.16,9.1,3.06,17,8.16a82.75,82.75,0,0,1,14.46,12.4h0l2.42,14.36-12.62,38.09a113.78,113.78,0,0,0-1.47,34.36c1.82,16.07,6.68,26.36,3,41.44a52.55,52.55,0,0,1-5.89,14.44A220.14,220.14,0,0,1,2078.3,1622c-28.18,14.51-61,23.49-61,23.51h0s-4.23.47-6.25-1.15c-2.91-2.32-1.37-14.82-1.4-11.09h0l28.46-38.93,41.29-15.84a60.37,60.37,0,0,0,13.37-19.48c1.73-4.11,3.53-9.68,5-26.23a328.63,328.63,0,0,0,1.34-33.42,79.86,79.86,0,0,1-3.65-62.47Z"/><path fill="#e59191" fill-rule="evenodd" d="M2018.3,1457.1a73.92,73.92,0,0,0-6.59,16.14,74.84,74.84,0,0,0-2.39,26.44v19.17l-13.56,57.73a35.13,35.13,0,0,1-8.07,8.65,36.19,36.19,0,0,1-17.55,7,74.82,74.82,0,0,1-49.23-13.79,103,103,0,0,0-26.17,17.56c-6,5.56-12.13,11.38-10.75,16.63,1.14,4.35,7,6.41,10.75,7.53,22.19,6.65,65.5,8.84,79.84,9.46,4.3.8,12.75,1.69,18.56-3.27a17.8,17.8,0,0,0,5.4-9.57c6.58-25.65,13.17-67.31,13.17-67.31a29.5,29.5,0,0,0,8.27-10.83,29.13,29.13,0,0,0,2.33-9l15.85-25.56a165.28,165.28,0,0,0-19.86-47Z"/><path fill="#e59191" fill-rule="evenodd" d="M2129.93,1468.13q22.55,53,45.08,106a8.58,8.58,0,0,1-12.18,5.28l-35.51-64.71-10.52-4.82Q2123.36,1489,2129.93,1468.13Z"/><polygon fill="#e59191" fill-rule="evenodd" points="2023.45 1608.82 2019.67 1528.63 2038.16 1504.13 2042.27 1524.24 2038.16 1594.32 2023.45 1608.82"/><path fill="#ffddc0" fill-rule="evenodd" d="M1554.67,292.28c1.13-1.85,4.72-2.58,11.73-.13,10.69,4.12,27.29,13.13,41.69,12,8.11-.6,25.59-8.17,37.48-20.36,12.75-13.11,19.92-30.84,25.36-30.44,21.4.71,21.91,22.67,21.91,22.67,13.68,3.08,22.73,8.29,28.47,12.49,7.49,5.47,11.87,11.06,23.45,18a116.39,116.39,0,0,0,13,6.66c31.85,14.44,66,33.83,66,33.83h0l-63.1,68s-40.4-42.15-56.13-44c-4.54-.73-12.46,12.81-20.52,22.74-6.62,8.38-14.9,12.3-18.55,11.23-6.68-1.56-16.59-9-24.92-14.43-2.16-1.42,2.84-4.32,3.51-10.66.65-6.95-3.07-17.95-4.61-18.8-1.85-1.13-13.67,21-15.52,19.84-11.36-5.89-18.82-4.11-22.51-6.38-5.26-3.72,2.74-15.46-2.32-21.89-9.47-11.69-26.93-19.77-37-31.44C1550.1,307.2,1548.92,299.72,1554.67,292.28Z"/><path fill="#56302a" d="M1627.66,613.3a3,3,0,0,1-1.24-.27c-33.6-15.12-21.39-53.5-21.26-53.88a3,3,0,0,1,5.79,1.9c-.44,1.37-10.59,33.56,18,46.42a3,3,0,0,1-1.26,5.83Z"/><path fill="#56302a" d="M1641.55,604a3,3,0,0,1-2.34-1.11c-.44-.55-10.69-13.69,5.44-40.21,14.07-23.12-9.1-61.5-9.33-61.89a3,3,0,1,1,5.2-3.18c1,1.7,25.33,42,9.35,68.25-13.71,22.51-6,33.11-5.9,33.21a3.06,3.06,0,0,1-2.42,4.93Z"/><path fill="#56302a" d="M1794.59,592.86a3.07,3.07,0,0,1-2.81-1.84c-.43-1-10.66-25-14.87-69.54-2.69-28.43-16.8-68.7-23.57-88.05a3,3,0,1,1,5.75-2c6.86,19.58,21.13,60.33,23.89,89.5,4.12,43.57,14.3,67.45,14.4,67.68a3,3,0,0,1-1.58,4A3.1,3.1,0,0,1,1794.59,592.86Z"/><path fill="#56302a" d="M1988.55,577.39c-48.37,0-143.9-79.42-148.57-83.33a3,3,0,0,1,3.91-4.68c35.72,29.9,134,102,159.39,77,47.09-46.45-38.59-247.38-39.46-249.41a3,3,0,0,1,5.6-2.41c3.63,8.42,88.18,206.81,38.15,256.16C2002.81,575.36,1996.28,577.39,1988.55,577.39Z"/><path fill="#56302a" d="M1988.59,510.49a3.06,3.06,0,0,1-2.72-1.66c-.14-.27-14.14-26.49-60.59-44.08-28.55-10.81-73.77-37.52-91.9-48.51a15,15,0,0,1-7.13-11.5,14.12,14.12,0,0,1,4.78-12c5.38-4.58,25.64-39.83,31.21-57,3.42-10.55,8-25.15,11-34.65a2.09,2.09,0,0,0-3.12-2.38,18.24,18.24,0,0,0-5.66,5.57,3.05,3.05,0,1,1-5.13-3.31,24.35,24.35,0,0,1,7.53-7.42,8.19,8.19,0,0,1,12.2,9.37c-3,9.51-7.58,24.13-11,34.7-5.3,16.34-25.87,53.64-32.85,59.58a8.16,8.16,0,0,0-2.86,7,8.88,8.88,0,0,0,4.22,6.81c18,10.89,62.82,37.38,90.89,48,48.86,18.51,63.27,45.86,63.86,47a3,3,0,0,1-1.33,4.1A3,3,0,0,1,1988.59,510.49Z"/><path fill="#56302a" d="M1910.41,458.13a3,3,0,0,1-2.93-2.21c-.22-.75-21.81-75.34-34.25-104.85a3.05,3.05,0,0,1,5.63-2.37c12.57,29.84,34.26,104.78,34.48,105.53a3.06,3.06,0,0,1-2.93,3.9Z"/><path fill="#56302a" d="M1774.42,507.8a3.09,3.09,0,0,1-2-.7L1715,459.28a3,3,0,0,1,3.9-4.69l57.51,47.81a3.06,3.06,0,0,1,.39,4.3A3,3,0,0,1,1774.42,507.8Z"/><path fill="#56302a" d="M1950.76,1285.58c-30.19,0-61.61-6.5-91.81-23.79a3.08,3.08,0,0,1-1.53-2.65c0-29.42-2.69-60.18-5.3-89.93-5.83-66.52-11.33-129.36,11.46-176.42,29.62-61.15,41.42-92.7,56.36-132.63,6.75-18,14.39-38.45,24.57-63.86a3.05,3.05,0,1,1,5.67,2.27c-10.16,25.34-17.79,45.74-24.52,63.73-15,40.08-26.85,71.74-56.59,133.15C1847,1041,1852.45,1103,1858.2,1168.68c2.56,29.28,5.21,59.54,5.32,88.68,111.26,62.24,239.87-25.42,254.39-35.79-1.31-15.55-11.3-132.67-20.33-191.35-9.71-63.11-7-72.82,19.31-165.67l1.27-4.5c26.3-93,26.33-215.2.05-290.55-24.93-71.52-130.94-257.61-179.87-297.38-46.81-38.06-76.45-27.13-76.74-27a3.08,3.08,0,0,1-4-1.72,3,3,0,0,1,1.69-3.95c1.33-.53,33-12.59,82.86,27.94,49.54,40.27,156.65,228,181.78,300.11,26.64,76.41,26.67,200.15.06,294.22l-1.27,4.5c-25.94,91.7-28.65,101.29-19.15,163.08,9.66,62.83,20.41,192.18,20.53,193.48a3.07,3.07,0,0,1-1.21,2.69C2121.87,1226.26,2041.93,1285.58,1950.76,1285.58Z"/><path fill="#56302a" d="M1872.23,967.88a3,3,0,0,1-2.92-2.19c-.14-.46-14-47.3-36.18-127.42-22.4-80.83,5.55-203.18,5.84-204.4a3,3,0,1,1,5.93,1.38c-.27,1.21-27.88,122.07-5.89,201.39,22.18,80.06,36,126.86,36.14,127.32a3,3,0,0,1-2.05,3.79A2.91,2.91,0,0,1,1872.23,967.88Z"/><path fill="#56302a" d="M1674.62,580.16a3,3,0,0,1-1.94-5.4C1692,559,1684.11,529.5,1684,529.21a3.05,3.05,0,1,1,5.88-1.63c.37,1.36,9,33.55-13.36,51.89A3,3,0,0,1,1674.62,580.16Z"/><path fill="#56302a" d="M1964.25,1632.68a298.07,298.07,0,0,1-59.94-6.72c-21.49-5-24.43-9.63-24.6-13.15-.15-2.35-.61-9.64,23.65-27.53,6.45-4.73,11.86-8.18,14.13-9,3-.89,5,.32,7.24,1.71,3,1.89,8.16,5,20.92,8.11,11.84,2.85,28.32,4.68,39.61-2.72,6.41-4.21,10.51-11.13,12.17-20.56,1.46-7.65,3-14.8,4.5-21.71,2.69-12.39,5-23.1,6-32.59a3.05,3.05,0,1,1,6.07.63c-1,9.82-3.37,20.68-6.08,33.25-1.49,6.88-3,14-4.47,21.52-2,11.11-7,19.39-14.83,24.56-13.11,8.6-31.37,6.68-44.38,3.56-13.71-3.29-19.56-6.91-22.7-8.86a11.12,11.12,0,0,0-2.06-1.13c-1,.38-5.33,2.91-12.48,8.16-20,14.77-21.28,20.79-21.18,22.28,1.86,4.23,32.1,12.22,68.37,13.88,28,1.29,37.72-2.51,39.06-4.95,3.53-6.44,4.52-13.43,5.88-23.1a249.75,249.75,0,0,1,11.51-49.77c4.52-13.37,11.55-25.11,17.75-35.47,2.15-3.59,4.23-7,6.09-10.41a3.05,3.05,0,0,1,5.33,3c-1.89,3.41-4,6.93-6.18,10.57-6,10.1-12.9,21.55-17.21,34.3a241.17,241.17,0,0,0-11.25,48.66c-1.45,10.31-2.5,17.76-6.57,25.18C1995.22,1630.45,1981.19,1632.68,1964.25,1632.68Z"/><path fill="#56302a" d="M2019,1533.84a3,3,0,0,1-2.73-1.68c-17.13-34.05-6.44-61.64-1.88-73.42.62-1.6,1.31-3.39,1.47-4.11a3,3,0,0,1,5.88-1.47c.66,1.78-.07,3.67-1.66,7.79-4.27,11-14.27,36.83,1.64,68.47a3,3,0,0,1-2.72,4.42Zm-3-78.57h0Zm-.13-.8Z"/><path fill="#56302a" d="M2023.53,1613.54a3.05,3.05,0,0,1-3-2.79c-.1-1.07-.17-3.92-.29-8.63-.27-10-.71-26.63-1.78-42.79l-1.8-24.56a3,3,0,1,1,6.08-.45l1.81,24.58c1.08,16.31,1.52,33,1.78,43.06.11,4.12.2,7.38.27,8.26a3,3,0,0,1-2.77,3.3Z"/><path fill="#56302a" d="M2038.16,1597.37h0a3,3,0,0,1-3-3.09c.24-16.21.74-49.94,2.25-71.41a3,3,0,0,1,3.26-2.83,3,3,0,0,1,2.82,3.25c-1.5,21.32-2,54.92-2.23,71.08A3.05,3.05,0,0,1,2038.16,1597.37Z"/><path fill="#56302a" d="M1922.3,1581.53a3.05,3.05,0,0,1-1.6-5.65c10.37-6.35,14.55-31.35,17.51-57.42,3.27-28.73,5.51-57.25,6.48-82.47.72-19.07-2-59.7-8.37-124.23a3.05,3.05,0,0,1,6.08-.59c6.38,64.8,9.12,105.71,8.38,125-1,25.37-3.22,54-6.51,82.93-3.73,32.81-8.44,54.62-20.38,61.93A3.09,3.09,0,0,1,1922.3,1581.53Z"/><path fill="#56302a" d="M2090.52,1439.93a3.06,3.06,0,0,1-2.07-.81,94.91,94.91,0,0,1-17.24-22.08c-9.74-17.68-53.21-138.31-55-143.44a3.05,3.05,0,0,1,5.74-2.07c.45,1.25,45.15,125.31,54.63,142.52a87.59,87.59,0,0,0,16,20.59,3,3,0,0,1-2.06,5.29Z"/><path fill="#56302a" d="M2040.51,1595.32a3.16,3.16,0,0,1-.68-.08,3.05,3.05,0,0,1-2.3-3.65c6.31-27.76,3.28-66.33-8.32-105.81-11-37.35-108.54-199.84-109.53-201.47a3.05,3.05,0,1,1,5.23-3.15c4,6.71,99,164.8,110.16,202.91,11.87,40.44,14.94,80.13,8.41,108.87A3,3,0,0,1,2040.51,1595.32Z"/><path fill="#56302a" d="M2015.77,1648.32a7.36,7.36,0,0,1-4.58-1.14,11.43,11.43,0,0,1-4.32-8.39c-.7-9.91,8.63-24.89,28.52-45.81l.71-.76c1.72-1.62,4.52-2.36,10.71-3.91,12.48-3.12,33.36-8.34,41.27-24.14,6.44-12.23,9.3-35.19,8.07-64.69a3.14,3.14,0,0,1,.09-.87,73.42,73.42,0,0,1-8.67-30c-1.32-26.53,2.82-32.18,6.06-34.12a5.89,5.89,0,0,1,6.22,0c.68.39,1.75,1,3.06,1.65,7.39,3.88,21.13,11.12,26.65,19.63,6.67,10,2.59,19.39-2.13,30.29-3.36,7.77-7.17,16.58-7.95,27.46-2.39,27.88-.82,39,1,52,.25,1.77.51,3.56.75,5.42,1.25,12.81,3.11,32-26.7,46.55C2065.07,1632.15,2029.47,1648.32,2015.77,1648.32Zm86.75-139c.22,20-1.47,43.37-9,57.68-9.13,18.25-31.72,23.89-45.21,27.27-3.34.83-7.12,1.78-8,2.37l-.53.58c-22.9,24.09-27.24,35.69-26.86,41.18a5.26,5.26,0,0,0,2,4c4.11,1.7,32.53-8.33,76.84-30.39,26-12.7,24.6-27.41,23.34-40.39-.23-1.74-.48-3.51-.73-5.27-1.56-11.11-3-21.69-1.77-43.16C2108.68,1518.2,2105.33,1513.58,2102.52,1509.28Zm-5.77-69.52c-.12,0-4.38,2.6-3.09,28.43.84,11.31,3.9,24.75,19.66,45.88l.09-1c.84-11.87,4.87-21.18,8.42-29.4,4.34-10,7.48-17.27,2.63-24.52-4.67-7.2-18-14.22-24.39-17.59-1.41-.74-2.55-1.34-3.31-1.78Z"/><path fill="#56302a" d="M2165.59,1583.91c-.21,0-.41,0-.61,0a5.66,5.66,0,0,1-4.91-3.2c-1.13-2.44-11.27-22.6-21.94-42.2-10.07-18.5-13.24-23.28-21.25-27.76a3,3,0,0,1,3-5.32c9.34,5.22,13,10.73,23.63,30.16,9.92,18.23,20.07,38.26,22,42.26,1.5.15,5.34-1.62,6.48-3-3.16-6.58-20.59-45.21-30.46-70.11-10.41-26.25-15.36-41.14-15.41-41.28a3.05,3.05,0,1,1,5.79-1.92c0,.14,4.95,14.88,15.29,41s28.8,66.86,30.57,70.3a5,5,0,0,1-.51,5.15C2175.07,1581.11,2169.59,1583.91,2165.59,1583.91Zm6.71-8.37h0Z"/><path fill="#56302a" d="M2031.56,1310.05h-.1a3.05,3.05,0,0,1-3-3.15l1.3-38.79a3.06,3.06,0,0,1,3-2.95h.1a3.05,3.05,0,0,1,3,3.15l-1.31,38.79A3,3,0,0,1,2031.56,1310.05Z"/><path fill="#56302a" d="M1853.06,630.67h-1.44c-46.38-.93-108.71-65.07-154.23-111.91-10.13-10.43-19.7-20.28-27.92-28.2-46-44.35-15.3-91.16-15-91.63a3,3,0,0,1,5.06,3.4c-1.16,1.74-28,43.11,14.17,83.84,8.28,8,17.89,17.88,28,28.34,44.78,46.08,106.11,109.18,150,110.06,12.31.26,20.15-2.67,24.14-8.9,12.21-19.08-11.64-68.22-36.9-120.24-13.47-27.75-27.4-56.44-37.64-83.82-4.28-7.36-1.56-16.15,2.82-21.24,1.52-1.72,3-3.31,4.4-4.88a175,175,0,0,0,21.36-27.69c3.53-5.74,6.75-12.86,9.86-19.75a201.12,201.12,0,0,1,10.14-20.36c4-6.68,13.46-22.32,11.84-25.23a2.93,2.93,0,0,0-1.39-1.09c-2.29.12-7.28,7.82-8.92,10.36-1,1.42-2,2.78-3,4.17-5.93,8.33-12.65,17.77-19,32.36a3.05,3.05,0,0,1-5.6-2.43c6.57-15.17,13.49-24.89,19.59-33.46,1-1.38,1.94-2.72,2.86-4.05,5.34-8.25,9.13-12.81,13.68-13,2.39-.11,4.56,1,6.45,3.36,4.31,5.29-1.42,15.7-11.37,32.2a195,195,0,0,0-9.81,19.73c-3.19,7.05-6.49,14.35-10.24,20.46a180.69,180.69,0,0,1-22,28.57c-1.41,1.55-2.84,3.12-4.31,4.78-2.16,2.51-5.41,8.78-2,14.33a3.54,3.54,0,0,1,.25.52c10.15,27.18,24.06,55.83,37.51,83.54C1871.62,548.69,1895.07,597,1881,619,1876,626.73,1866.64,630.67,1853.06,630.67Z"/><path fill="#56302a" d="M1816.88,332.1a3,3,0,0,1-2.75-4.35,340.27,340.27,0,0,1,20.19-37.42c5.48-9,8.55-13.6,11.8-18.48,1.58-2.37,3.22-4.83,5.22-7.93,4.36-6.72,8.26-7.44,10.78-6.85,3.19.74,5.5,3.92,6,8.3.58,6.32-5.72,21-7,23.89a3.05,3.05,0,1,1-5.59-2.45c2.9-6.57,6.83-17.37,6.51-20.81-.23-1.91-1-2.92-1.33-3s-1.85.49-4.28,4.23c-2,3.12-3.67,5.6-5.26,8-3.22,4.83-6.25,9.38-11.67,18.27a334.74,334.74,0,0,0-19.89,36.85A3,3,0,0,1,1816.88,332.1Z"/><path fill="#56302a" d="M1806.47,329.15a3,3,0,0,1-2.73-4.39A315.09,315.09,0,0,1,1822.27,292c1.75-2.79,3.54-5.63,5.41-8.7,5.24-9,8.81-14.3,12.59-19.93,1.68-2.49,3.38-5,5.28-8,4.62-7.13,9.13-7,11.41-6.28,3.77,1.18,6.2,5.41,6,10.52a3.09,3.09,0,0,1-3.14,3,3.06,3.06,0,0,1-3-3.15c.08-2.56-1-4.26-1.77-4.51s-2.54.83-4.46,3.78-3.64,5.53-5.33,8.05c-3.73,5.54-7.25,10.77-12.42,19.64-1.92,3.15-3.71,6-5.48,8.83a309.37,309.37,0,0,0-18.22,32.24A3.06,3.06,0,0,1,1806.47,329.15Z"/><path fill="#56302a" d="M1781,350.47a3.05,3.05,0,0,1-2.53-4.75c4-5.88,7-10.68,9.93-15.21,6-9.3,11.11-17.32,21.39-31,7-9.41,14.1-17.33,21-25,2.85-3.15,5.62-6.23,8.28-9.31a3,3,0,0,1,4.61,4c-2.68,3.11-5.48,6.22-8.35,9.4-6.8,7.56-13.83,15.37-20.64,24.56-10.16,13.51-15.25,21.45-21.14,30.64-2.93,4.56-6,9.4-10,15.32A3,3,0,0,1,1781,350.47Z"/><path fill="#56302a" d="M1756.21,435.47a3.06,3.06,0,0,1-2.92-2.16c-.25-.84-6.24-20.64-7.08-30.17-1-11.56,5.94-25.1,8.09-29a237.25,237.25,0,0,0,15.27-31.2,54.06,54.06,0,0,0,3.36-13.27c.18-3.33.56-9.76,5.75-13.13,3.55-2.16,6.29-1.21,7.61-.45,5.27,3,6.52,12.69,6.45,17.38a3.12,3.12,0,0,1-3.1,3,3,3,0,0,1-3-3.09c.08-5-1.59-11-3.38-12-.12-.06-.42-.23-1.34.32-2.32,1.52-2.71,4.86-2.91,8.44a61.44,61.44,0,0,1-3.77,15.05,243.94,243.94,0,0,1-15.65,32c-4,7.11-8,17.58-7.3,25.39.78,8.89,6.78,28.72,6.84,28.92a3,3,0,0,1-2.92,3.94Z"/><path fill="#56302a" d="M1876.05,301.72a3.15,3.15,0,0,1-.8-.11,3.05,3.05,0,0,1-2.15-3.74l6.76-24.9a.6.6,0,0,0-.18-.64.59.59,0,0,0-.63-.14c-5.2,1.77-10.11,12.71-12,19.19a3,3,0,1,1-5.86-1.69c.59-2,6-19.9,15.88-23.28a6.75,6.75,0,0,1,8.67,8.16l-6.76,24.9A3.06,3.06,0,0,1,1876.05,301.72Z"/><path fill="#56302a" d="M1877.68,270.26a3.05,3.05,0,0,1-2.68-1.59c-.6-1.08-2.44-3.48-4-3.59-1.15,0-2.7,1.51-3.42,2.48a3.05,3.05,0,1,1-4.88-3.66c2.62-3.49,5.57-5.15,8.76-4.9,5.34.39,8.58,6.11,8.93,6.76a3.05,3.05,0,0,1-2.68,4.5Z"/><path fill="#56302a" d="M1747,480.22a3,3,0,0,1-3-2.57l-4-25.21c-49.39-45.64-43.46-77.53-43.18-78.87a3.05,3.05,0,0,1,6,1.22c-.07.36-5.21,30.52,42.11,73.88a3,3,0,0,1,.95,1.76l4.19,26.26a3,3,0,0,1-2.53,3.49A2.67,2.67,0,0,1,1747,480.22Z"/><path fill="#56302a" d="M1762.56,454h-19.71a3,3,0,1,1,0-6.1h19.71a3,3,0,0,1,0,6.1Z"/><path fill="#56302a" d="M1835,416.69a3.05,3.05,0,0,1-1.69-5.59c.18-.13,18.69-12.65,23.72-33.15a3,3,0,0,1,2.42-2.27l25.16-4.49a3,3,0,0,1,1.07,6l-23.24,4.15c-6.22,21.68-24.94,34.3-25.76,34.84A3.06,3.06,0,0,1,1835,416.69Z"/><path fill="#56302a" d="M1860,381.73a3.05,3.05,0,0,1-2.42-1.19L1848.65,369a3,3,0,0,1,4.84-3.71l8.89,11.55a3.06,3.06,0,0,1-.56,4.28A3,3,0,0,1,1860,381.73Z"/><path fill="#56302a" d="M1973.57,335.81a3.12,3.12,0,0,1-1.57-.43,3.06,3.06,0,0,1-1-4.19l8.7-14.48a3.05,3.05,0,1,1,5.23,3.14l-8.7,14.48A3,3,0,0,1,1973.57,335.81Z"/><path fill="#56302a" d="M1571.59,321.5a3.11,3.11,0,0,1-1-.17,3.06,3.06,0,0,1-1.91-3.86c4.89-14.42,17.64-16.4,18.18-16.48a3.05,3.05,0,0,1,.88,6c-.43.07-9.63,1.65-13.28,12.4A3,3,0,0,1,1571.59,321.5Z"/><path fill="#56302a" d="M1641.37,392.66a3,3,0,0,1-1.51-.41,3,3,0,0,1-1.13-4.16,22.23,22.23,0,0,0,.59-22,76.7,76.7,0,0,1-12.77,16.45,3,3,0,0,1-4.16-4.46c8.2-7.66,13.89-19.11,13.95-19.23a3.05,3.05,0,0,1,5-.67,28.79,28.79,0,0,1,2.66,32.95A3,3,0,0,1,1641.37,392.66Z"/><path fill="#56302a" d="M1668.21,407.84c-4.89,0-10.29-2.84-18.59-8.21a3.05,3.05,0,0,1,3.32-5.12c14.3,9.26,16.47,8.95,23.54,2.85,6.62-5.9,14.2-16,20.88-25a14.89,14.89,0,0,1,3-3,9.17,9.17,0,0,1,7.17-1.21c5.67.93,18.67,3,35.86,6a3.05,3.05,0,0,1-1,6c-17.16-3-30.14-5.11-35.59-6-1-.17-2.14-.38-2.82.11a7.89,7.89,0,0,0-1.58,1.6l-.27.33c-6.67,8.95-14.44,19.36-21.56,25.7C1675.88,405.93,1672.22,407.84,1668.21,407.84Z"/><path fill="#56302a" d="M1688,295.49a3,3,0,0,1-1.47-.38,3.05,3.05,0,0,1-1.2-4.14c3.72-6.76,6.62-15.06,0-25.48-3.72-5.78-9.23-9-14.41-8.3-4.89.63-8.79,4.7-11,11.46a3.05,3.05,0,1,1-5.8-1.89c2.92-9,8.76-14.69,16-15.62,7.53-1,15.32,3.26,20.32,11.06,8.55,13.33,4.25,24.48.27,31.71A3.06,3.06,0,0,1,1688,295.49Z"/><path fill="#56302a" d="M1675.42,280.3a3,3,0,0,1-2.85-2,18.26,18.26,0,0,1-.72-9.14,3.05,3.05,0,0,1,6,1.15,12.48,12.48,0,0,0,.44,5.87,3.05,3.05,0,0,1-2.87,4.1Z"/><path fill="#56302a" d="M1608.58,379.39c-5.85,0-8.93-2.88-10.34-4.85-2-2.69-1.34-6-.69-9.59.59-3.21,1.2-6.53,0-9.33-.9-2.1-5-5.59-7.68-7.4a3.05,3.05,0,0,1,3.44-5c1.31.9,7.94,5.58,9.84,10s1.1,9.11.42,12.84c-.29,1.62-.79,4.34-.37,4.92,1.93,2.67,5.67,2.55,8.47,2a3.05,3.05,0,0,1,1.23,6A21.68,21.68,0,0,1,1608.58,379.39Z"/><path fill="#56302a" d="M1575.14,335.81a3,3,0,0,1-1.91-.67c-9.28-7.45-20.88-19.75-23.45-36a3.05,3.05,0,1,1,6-.95c2.26,14.31,12.8,25.4,21.24,32.19a3,3,0,0,1-1.91,5.42Z"/><path fill="#56302a" fill-rule="evenodd" d="M1598.14,336.12c-3.09-2.29-3.85-6.48-2.14-8.95,2-2.78,5.93-2.63,9-.33s3.86,6.48,2.14,9C1605.16,338.57,1601,338.73,1598.14,336.12Z"/><path fill="#56302a" d="M1604.11,307.33q-13.83,0-28.76-8.07c-21.23-11.19-30.84-10.71-33.17-8.66-1.41,1.25-.69,3.92-.13,5.4a3.06,3.06,0,0,1-5.72,2.15c-2.58-6.88,0-10.55,1.82-12.13,6.17-5.43,20-2.71,40.08,7.86,24.82,13.38,46,8.54,66.73-15.18a3.05,3.05,0,1,1,4.6,4C1635.21,299.15,1620.17,307.33,1604.11,307.33Z"/><path fill="#56302a" d="M1778.32,324.1l-.37,0c-12.25-1.49-23.33-5.64-32-12a90.83,90.83,0,0,1-9.87-8.68c-5.09-4.95-10.36-10.06-19.82-15.27a92.42,92.42,0,0,0-23.19-8.89,3.05,3.05,0,0,1,1.41-5.94,98.65,98.65,0,0,1,24.72,9.49c10.19,5.6,16,11.25,21.13,16.24a86.29,86.29,0,0,0,9.22,8.13c7.85,5.75,17.94,9.5,29.15,10.86a3.05,3.05,0,0,1-.36,6.08Z"/><path fill="#56302a" d="M1859,254.86a2.9,2.9,0,0,1-.58-.05,3.06,3.06,0,0,1-2.42-3.57c.45-2.34.83-4.73,1.14-7.12-7.53-3.14-12.14-1.33-12.35-1.24a3.1,3.1,0,0,1-3.83-1.27c-5.9-10.14-13.33-17.36-22.09-21.47-10.06-4.72-18.21-3.73-27.63-2.58-7.28.89-14.8,1.82-23.84.15-15.83-2.93-23.4-11.61-32.17-21.67-5.71-6.57-12.2-14-22.2-21.35-.44-.32-47.41-31.67-100.14-20.95-24.76,5-61.35,41.75-76.77,77-2.46,5.1-4.6,11.05-4.62,11.11a3,3,0,1,1-5.74-2c.09-.26,2.26-6.32,4.82-11.61,14.49-33.16,51.39-74.43,81.09-80.46,55.24-11.23,104.51,21.66,105,22,10.55,7.74,17.27,15.45,23.2,22.26,8.66,9.95,14.93,17.14,28.67,19.68,8.1,1.49,15.17.63,22-.2,9.5-1.16,19.31-2.36,31,3.11,9.31,4.37,17.22,11.73,23.56,21.92,3.24-.6,9.19-.79,16.77,3a3,3,0,0,1,1.67,3.06c-.36,3.29-.85,6.58-1.47,9.79A3,3,0,0,1,1859,254.86Z"/><path fill="#56302a" d="M1576.42,587.94a3.06,3.06,0,0,1-2.5-4.8,27.39,27.39,0,0,0,5.31-14.49c.47-10.67-7.06-17.5-15.78-25.41-7.51-6.81-16-14.54-20.61-26-6.11-15.32-1.13-26.51,4.15-38.36,5-11.32,10.26-23,7.38-40.61-2.51-15.4-9.26-22.86-16.4-30.76-7.94-8.76-16.14-17.83-18.75-37.41-1.8-13.56.4-22.73,2.34-30.82,2.27-9.46,4.24-17.64-.25-31.33-.63-1.91-1.37-3.88-2.12-5.9-3.59-9.61-7.66-20.5-3.45-32.83a38,38,0,0,1,8.6-13.75,3.05,3.05,0,0,1,4.48,4.15,32,32,0,0,0-7.31,11.57c-3.5,10.26,0,19.65,3.39,28.73.79,2.09,1.55,4.14,2.2,6.13,5,15.33,2.78,24.72.39,34.66-1.9,7.94-3.87,16.16-2.22,28.58,2.35,17.71,9.57,25.68,17.22,34.13,7.42,8.21,15.1,16.69,17.91,33.87,3.16,19.39-2.68,32.5-7.84,44.08s-9.21,20.68-4.06,33.61c4.07,10.19,11.69,17.1,19,23.78,9.45,8.57,18.37,16.66,17.77,30.19a33.29,33.29,0,0,1-6.4,17.72A3,3,0,0,1,1576.42,587.94Z"/></svg>