<svg xmlns="http://www.w3.org/2000/svg" viewBox="0 0 4680 3120" width="4680" height="3120"><defs><clipPath id="a"><circle cx="2525.86" cy="772.72" r="14.13" fill="none"/></clipPath><clipPath id="b"><path fill="none" d="M2514.62 769.17c1.26-4.59 5.19-7.5 8.78-6.51s5.46 5.5 4.2 10.08-5.19 7.5-8.78 6.51-5.46-5.5-4.2-10.08Z"/></clipPath></defs><g data-name="4"><ellipse cx="1131.42" cy="2472.08" fill="#c0623e" rx="182.54" ry="16.63"/><path fill="#fadaab" d="M3691 765.58c-193.6-165.83-522.87-149.14-766.17-95.17-199.65 44.28-386.39 124.83-563.87 216-99.29 51-189.88 93.05-309.29 77.74-212.4-27.25-398.64-130.56-616.06-146.15-162-11.62-275.49 21.2-362.19 133.65-59.7 77.42-104.35 164.09-141.18 251.4-89.32 211.77-139.26 450.48-94 675 48.53 240.51 226.72 422.77 498 491.14 230.34 58 468.43 23.82 703.76-3.82 47.35-5.57 94.6-10.86 141.65-15.09 146.2-13.12 271.49-11.61 410.06 28.41 134.46 38.83 271.28 79.26 414.9 59.61 162-22.16 263.49-122.76 288.91-262.12 35-191.92 108.88-373.68 255.31-522.58 58.11-59.09 130.46-108.22 173.6-176.88 133.31-212.08 182.91-525.83-33.43-711.14Z"/><g opacity=".09"><path d="M2088.52 844.64h1135.86v42.1H2088.52z"/><path d="M3224.38 844.13H2088.52a.51.51 0 0 0-.51.51v42.1a.5.5 0 0 0 .51.5h1135.86a.5.5 0 0 0 .5-.5v-42.1a.5.5 0 0 0-.5-.51Zm-.51 42.1H2089v-41.09h1134.87Z"/></g><path fill="#c15b4d" d="M2078.46 833.02h1135.86v42.1H2078.46z"/><path fill="#dd9f07" d="M2776.51 752.3c-11.36-.2-19.38-.82-30.74-1 5.48 23.29-.05 53.92-14.62 72.88H2796c-15.45-20.45-22.06-46.41-19.49-71.88ZM2831.68 575.24c-.2 7.08-2.28 12.33-.67 19.23 19.61 2.8 35.28 2.21 55 1-4 44.35-34.08 84.62-76.91 96.84-.6 1.76-2.21 4.59-2.81 6.35a119.16 119.16 0 0 0 73.52-40.46c18.51-21.8 27.14-51.8 26.47-80.39ZM2638.69 595.43c19.77 1.25 35.45 1.84 55.06-1 1.6-6.9-.48-12.15-.68-19.23l-74.65 2.53c-.67 28.59 8 58.59 26.47 80.39a119.16 119.16 0 0 0 73.52 40.46c-.6-1.76-2.2-4.59-2.81-6.35-42.83-12.18-72.85-52.45-76.91-96.8Z"/><path fill="#ffbc01" d="M2684 534.44c-14.44 81.27 1.47 158.13 43.32 231.28h65.87q65-108.29 43.32-231.28Z"/><g style="mix-blend-mode:screen" opacity=".3"><path fill="#fff" d="M2738.72 534.44h-44.15c-13 77.24 1.21 159.34 39.29 226.49h23.39c-19.94-73.79-25.94-150.08-18.53-226.49Z"/><path d="m2739.22 534.49.06-.55h-45.14l-.07.42c-13 77.19 1.38 159.86 39.35 226.82l.15.26h24.34l-.18-.64c-19.73-73.14-25.98-149.28-18.51-226.31Zm-5.06 225.94c-37.68-66.59-51.95-148.74-39.16-225.43h43.16c-7.38 76.74-1.18 152.59 18.43 225.48Z"/></g><path fill="#ffbc01" d="m2730.03 813.07-37.89 22.18h142.84l-37.9-22.18h-67.05z"/><path fill="#fff" d="M2709.53 833h30.06a105.1 105.1 0 0 0 9.36-17.86c-5.14-.29-10.74 0-15.88-.33a70.46 70.46 0 0 1-23.54 18.19Z" opacity=".27"/><path fill="#fff" d="M2753.66 769a103.39 103.39 0 0 1-7.46 40.42 121.27 121.27 0 0 1 14.89 0c2.06-12.95 1-25.27-1.07-38.21-2.87-1.05-3.5-1.21-6.36-2.21Z" opacity=".27"/><path fill="#ffa201" d="M2785.42 534.44a644.64 644.64 0 0 1-10.28 231.28h13.09a509.44 509.44 0 0 0 39.17-128c5.69-34.18 7.79-69.64.06-103.31Z"/><path fill="#e26fab" d="m2537.52 406.13-44.68-6.69c-3.4-1.26-4.5-5.81-3.31-9.23 4.56-13 18.16-18.21 30.8-16.7 3.92.47 7.92 1.6 10.83 4.26s4.39 7.17 2.65 10.71a21.89 21.89 0 0 0 7.6-1.15c2.38-1 4.49-3 4.78-5.6.44-4.08-3.59-7.13-7.26-9a79.87 79.87 0 0 0-29-8.11c-4.43-.37-8.35-.4-12.48-1.5-3.5-.93-5.57-3.45-9.77-3.12-7.1.56-16.89 6.94-18.53 14.14-.72 3.14-1.43 6.78-4.27 8.3s-6.52 0-9.47-1.6l-20-10.73c-1.64 2.67-.88 6.28 1 8.8s4.62 4.19 7.3 5.81c4.24 2.53 8.69 5.14 13.62 5.42a15.69 15.69 0 0 0 15-9.42 34.05 34.05 0 0 0-2.37 16.44c1.65 17.12 15 33.51 30.31 40.58 1.58.73 3.41 1.39 5 .75 2.36-.94 2.9-4.28 1.73-6.53s-3.47-3.65-5.67-4.91c-2.47-1.42-5.06-2.89-6.62-5.27-11.79-17.94 42.24-2.3 42.84-2.44 4.13-1 9.3-3.33 8.77-7.55-.48-3.7-5.08-5.1-8.8-5.66Z"/><circle cx="2500.35" cy="455.61" r="21.86" fill="#f78abe"/><g style="mix-blend-mode:screen" opacity=".3"><path fill="#fff" d="M2496.55 440c-5.55-1.53-11.63 3-13.59 10.07s1 14.09 6.51 15.61 11.63-3 13.58-10.07-.96-14.04-6.5-15.61Z"/><path d="M2496.68 439.55a9.85 9.85 0 0 0-8.57 1.89 16.56 16.56 0 0 0-5.17 18.76 9.85 9.85 0 0 0 6.39 6 8.84 8.84 0 0 0 2.33.32c5.09 0 10.12-4.37 11.88-10.75a15.86 15.86 0 0 0-.46-10.22 9.86 9.86 0 0 0-6.4-6Zm5.88 16c-1.87 6.81-7.69 11.17-13 9.72a8.89 8.89 0 0 1-5.73-5.43 15.55 15.55 0 0 1 4.84-17.56 9.46 9.46 0 0 1 5.62-2 7.72 7.72 0 0 1 2.08.28 8.83 8.83 0 0 1 5.73 5.42 14.75 14.75 0 0 1 .46 9.54Z"/></g><path fill="#e26fab" d="M2463.13 475.76h79.88v26.88h-79.88z"/><path fill="#ff5f81" d="M2498.23 526.55a16.3 16.3 0 0 0-16.46-17 17.86 17.86 0 0 0-17.75 17 16.28 16.28 0 0 0 9.9 15.7h-9.39l-3.31 217.7h6.05a14.71 14.71 0 0 0-8.85 12.82 13.49 13.49 0 0 0 13.63 14.09 14.79 14.79 0 0 0 14.7-14.08 13.46 13.46 0 0 0-7.88-12.83h5.28l13.22-217.69h-10.23a17.85 17.85 0 0 0 11.09-15.71ZM2584.88 526.57a16.3 16.3 0 0 0-16.46-17 17.87 17.87 0 0 0-17.75 17 16.24 16.24 0 0 0 9.9 15.69h-9.4l-3.3 217.69h6a14.74 14.74 0 0 0-8.85 12.82 13.51 13.51 0 0 0 13.63 14.09 14.78 14.78 0 0 0 14.7-14.09 13.44 13.44 0 0 0-7.87-12.82h5.27L2584 542.26h-10.23a17.86 17.86 0 0 0 11.11-15.69Z"/><circle cx="2439.44" cy="772.72" r="14.13" fill="#f7a4be"/><g style="mix-blend-mode:screen" opacity=".3"><path fill="#fff" d="M2437 762.66c-3.58-1-7.51 1.92-8.77 6.51s.62 9.1 4.2 10.08 7.51-1.92 8.78-6.51-.64-9.1-4.21-10.08Z"/><path d="M2437.12 762.17c-3.85-1.06-8.06 2-9.4 6.86s.71 9.65 4.56 10.71a5.94 5.94 0 0 0 1.57.21 6.89 6.89 0 0 0 4.12-1.46 10.89 10.89 0 0 0 3.4-12.33 6.51 6.51 0 0 0-4.25-3.99Zm3.58 10.44a9.34 9.34 0 0 1-3.33 5.07 5.58 5.58 0 0 1-4.83 1.09c-3.31-.92-5-5.16-3.85-9.47s4.85-7.07 8.16-6.16a5.58 5.58 0 0 1 3.59 3.41 9.38 9.38 0 0 1 .26 6.06Z"/></g><path fill="#f7a4be" d="M2438.64 508.79a17.06 17.06 0 1 0 17.06 17.05 17 17 0 0 0-17.06-17.05Z"/><path fill="#f7a4be" d="M2427.63 759.86h22.86l4.95-218.28h-32.76l4.95 218.28z"/><g style="mix-blend-mode:screen" opacity=".3"><path fill="#fff" d="M2427.63 759.86h11.02V541.58h-15.97l4.95 218.28z"/><path d="M2427.14 760.37h12v-219.3h-17Zm11-1h-10l-4.92-217.28h15Z"/></g><g style="mix-blend-mode:screen" opacity=".3"><path fill="#fff" d="M2435.68 513.69c-4.33-1.19-9.08 2.33-10.6 7.86s.74 11 5.07 12.18 9.08-2.32 10.6-7.86-.75-10.99-5.07-12.18Z"/><path d="M2435.81 513.2a7.87 7.87 0 0 0-6.79 1.49 13.07 13.07 0 0 0-4.07 14.78 7.81 7.81 0 0 0 5.07 4.75 7 7 0 0 0 1.86.25 8.25 8.25 0 0 0 4.92-1.74 13 13 0 0 0 4.07-14.77 7.79 7.79 0 0 0-5.06-4.76Zm4.45 12.54a11.39 11.39 0 0 1-4.06 6.18 6.45 6.45 0 0 1-10.32-2.84 11.52 11.52 0 0 1-.32-7.39 11.37 11.37 0 0 1 4.07-6.18A7.26 7.26 0 0 1 2434 514a5.7 5.7 0 0 1 1.59.22 6.8 6.8 0 0 1 4.4 4.17 11.39 11.39 0 0 1 .27 7.35Z"/></g><g clip-path="url(#a)"><path fill="#c3c4c7" d="m2511.73 761.57 1.16-2.98h-1.16v2.98z"/><path fill="#c2c3c6" d="M2511.73 761.57v3.14l2.39-6.12h-1.23l-1.16 2.98z"/><path fill="#c1c2c5" d="M2511.73 764.71v3.15l3.61-9.27h-1.22l-2.39 6.12z"/><path fill="#c0c1c4" d="M2511.73 767.86V771l4.84-12.41h-1.23l-3.61 9.27z"/><path fill="#bfc0c3" d="M2511.73 771v3.14l6.07-15.55h-1.23l-4.84 12.41z"/><path fill="#bebfc2" d="M2511.73 774.14v3.15l7.3-18.7h-1.23l-6.07 15.55z"/><path fill="#bdbec1" d="M2511.73 777.29v3.14l8.52-21.84h-1.22l-7.3 18.7z"/><path fill="#bcbdc0" d="M2511.73 780.43v3.14l9.75-24.98h-1.23l-8.52 21.84z"/><path fill="#bbbcbf" d="M2511.73 783.57v2.95l.07.03 10.91-27.96h-1.23l-9.75 24.98z"/><path fill="#babbbe" d="m2511.8 786.55.75.3h.36l11.02-28.26h-1.22l-10.91 27.96z"/><path fill="#b9babd" d="M2512.91 786.85h1.22l11.03-28.26h-1.23l-11.02 28.26z"/><path fill="#b8b9bc" d="M2514.13 786.85h1.23l11.03-28.26h-1.23l-11.03 28.26z"/><path fill="#b7b8bb" d="M2515.36 786.85h1.23l11.02-28.26h-1.22l-11.03 28.26z"/><path fill="#b6b7ba" d="M2516.59 786.85h1.23l11.02-28.26h-1.23l-11.02 28.26z"/><path fill="#b5b6b9" d="M2517.82 786.85h1.22l11.03-28.26h-1.23l-11.02 28.26z"/><path fill="#b3b5b8" d="M2519.04 786.85h1.23l11.02-28.26h-1.22l-11.03 28.26z"/><path fill="#b2b4b7" d="M2520.27 786.85h1.22l11.03-28.26h-1.23l-11.02 28.26z"/><path fill="#b1b3b6" d="M2521.49 786.85h1.23l11.03-28.26h-1.23l-11.03 28.26z"/><path fill="#b0b2b5" d="M2522.72 786.85h1.23l11.02-28.26h-1.22l-11.03 28.26z"/><path fill="#afb1b4" d="M2523.95 786.85h1.23l11.02-28.26h-1.23l-11.02 28.26z"/><path fill="#aeb0b3" d="M2525.18 786.85h1.22l11.03-28.26h-1.23l-11.02 28.26z"/><path fill="#adafb2" d="M2526.4 786.85h1.23l11.02-28.26h-1.22l-11.03 28.26z"/><path fill="#acaeb1" d="m2538.65 758.59-11.02 28.26h1.23l10.93-28.01-.63-.25h-.51z"/><path fill="#abadb0" d="M2528.86 786.85h1.22l9.9-25.37v-2.57l-.19-.07-10.93 28.01z"/><path fill="#aaacaf" d="m2531.31 786.85 8.67-22.23v-3.14l-9.9 25.37h1.23z"/><path fill="#a9abae" d="m2532.54 786.85 7.44-19.09v-3.14l-8.67 22.23h1.23z"/><path fill="#a8aaad" d="m2533.76 786.85 6.22-15.94v-3.15l-7.44 19.09h1.22z"/><path fill="#a7a9ac" d="m2534.99 786.85 4.99-12.8v-3.14l-6.22 15.94h1.23z"/><path fill="#a6a8ab" d="m2536.22 786.85 3.76-9.65v-3.15l-4.99 12.8h1.23z"/><path fill="#a5a7aa" d="m2537.44 786.85 2.54-6.51v-3.14l-3.76 9.65h1.22z"/><path fill="#a4a6a9" d="m2538.67 786.85 1.31-3.37v-3.14l-2.54 6.51h1.23z"/><path fill="#a3a5a8" d="m2539.9 786.85.08-.22v-3.15l-1.31 3.37h1.23z"/><path fill="#a3a5a8" d="M2539.98 786.85v-.22l-.08.22h.08z"/></g><path d="M2525.86 758.09a14.63 14.63 0 1 0 14.63 14.63 14.64 14.64 0 0 0-14.63-14.63Zm0 28.25a13.62 13.62 0 1 1 13.62-13.62 13.64 13.64 0 0 1-13.62 13.62Z"/><g style="mix-blend-mode:screen"><g clip-path="url(#b)"><path fill="#a4a5a6" d="M2513.36 761.67z"/><path fill="#a3a4a6" d="M2513.36 761.67v.33l.22-.33h-.22z"/><path fill="#a2a3a5" d="M2513.36 762v.33l.44-.66h-.22l-.22.33z"/><path fill="#a1a2a4" d="M2513.36 762.33v.33l.66-.99h-.22l-.44.66z"/><path fill="#a0a1a3" d="M2513.36 762.66v.33l.88-1.32h-.22l-.66.99z"/><path fill="#9fa0a2" d="M2513.36 762.99v.33l1.11-1.65h-.23l-.88 1.32z"/><path fill="#9e9fa1" d="M2513.36 763.32v.33l1.33-1.98h-.22l-1.11 1.65z"/><path fill="#9e9ea0" d="M2513.36 763.65v.33l1.55-2.31h-.22l-1.33 1.98z"/><path fill="#9d9d9f" d="M2513.36 763.98v.33l1.77-2.64h-.22l-1.55 2.31z"/><path fill="#9c9c9e" d="M2513.36 764.31v.33l1.99-2.97h-.22l-1.77 2.64z"/><path fill="#9b9c9d" d="M2513.36 764.64v.33l2.21-3.3h-.22l-1.99 2.97z"/><path fill="#9a9b9c" d="M2513.36 764.97v.33l2.43-3.63h-.22l-2.21 3.3z"/><path fill="#999a9b" d="M2513.36 765.3v.33l2.65-3.96h-.22l-2.43 3.63z"/><path fill="#98999b" d="M2513.36 765.63v.33l2.87-4.29h-.22l-2.65 3.96z"/><path fill="#97989a" d="M2513.36 765.96v.33l3.09-4.62h-.22l-2.87 4.29z"/><path fill="#969799" d="M2513.36 766.29v.33l3.32-4.95h-.23l-3.09 4.62z"/><path fill="#959698" d="M2513.36 766.62v.33l3.54-5.28h-.22l-3.32 4.95z"/><path fill="#959597" d="M2513.36 766.95v.33l3.76-5.61h-.22l-3.54 5.28z"/><path fill="#949496" d="M2513.36 767.28v.33l3.98-5.94h-.22l-3.76 5.61z"/><path fill="#939395" d="M2513.36 767.61v.33l4.2-6.27h-.22l-3.98 5.94z"/><path fill="#929294" d="M2513.36 767.94v.33l4.42-6.6h-.22l-4.2 6.27z"/><path fill="#919193" d="M2513.36 768.27v.33l4.64-6.93h-.22l-4.42 6.6z"/><path fill="#909092" d="M2513.36 768.6v.33l4.86-7.26h-.22l-4.64 6.93z"/><path fill="#8f8f91" d="M2513.36 768.93v.33l5.08-7.59h-.22l-4.86 7.26z"/><path fill="#8e8e90" d="M2513.36 769.26v.33l5.3-7.92h-.22l-5.08 7.59z"/><path fill="#8d8d8f" d="M2513.36 769.59v.33l5.53-8.25h-.23l-5.3 7.92z"/><path fill="#8c8c8e" d="M2513.36 769.92v.33l5.75-8.58h-.22l-5.53 8.25z"/><path fill="#8b8b8d" d="M2513.36 770.25v.33l5.97-8.91h-.22l-5.75 8.58z"/><path fill="#8a8a8c" d="M2513.36 770.58v.33l6.19-9.24h-.22l-5.97 8.91z"/><path fill="#89898b" d="M2513.36 770.91v.33l6.41-9.57h-.22l-6.19 9.24z"/><path fill="#88888a" d="M2513.36 771.24v.33l6.63-9.9h-.22l-6.41 9.57z"/><path fill="#878789" d="M2513.36 771.57v.33l6.85-10.23h-.22l-6.63 9.9z"/><path fill="#868688" d="M2513.36 771.9v.33l7.07-10.56h-.22l-6.85 10.23z"/><path fill="#858587" d="M2513.36 772.23v.33l7.29-10.89h-.22l-7.07 10.56z"/><path fill="#848486" d="M2513.36 772.56v.33l7.52-11.22h-.23l-7.29 10.89z"/><path fill="#838385" d="M2513.36 772.89v.33l7.74-11.55h-.22l-7.52 11.22z"/><path fill="#828284" d="M2513.36 773.22v.33l7.96-11.88h-.22l-7.74 11.55z"/><path fill="#818183" d="M2513.36 773.55v.33l8.18-12.21h-.22l-7.96 11.88z"/><path fill="#808081" d="M2513.36 773.88v.33l8.4-12.54h-.22l-8.18 12.21z"/><path fill="#7f7f80" d="M2513.36 774.21v.33l8.62-12.87h-.22l-8.4 12.54z"/><path fill="#7e7e7f" d="M2513.36 774.54v.33l8.84-13.2h-.22l-8.62 12.87z"/><path fill="#7d7d7e" d="M2513.36 774.87v.33l9.06-13.53h-.22l-8.84 13.2z"/><path fill="#7c7c7d" d="M2513.36 775.2v.33l9.28-13.86h-.22l-9.06 13.53z"/><path fill="#7b7b7c" d="M2513.36 775.53v.33l9.5-14.19h-.22l-9.28 13.86z"/><path fill="#7a7a7b" d="M2513.36 775.86v.33l9.73-14.52h-.23l-9.5 14.19z"/><path fill="#79787a" d="M2513.36 776.19v.33l9.95-14.85h-.22l-9.73 14.52z"/><path fill="#787779" d="M2513.36 776.52v.33l10.17-15.18h-.22l-9.95 14.85z"/><path fill="#777678" d="M2513.36 776.85v.33l10.39-15.51h-.22l-10.17 15.18z"/><path fill="#767577" d="M2513.36 777.18v.33l10.61-15.84h-.22l-10.39 15.51z"/><path fill="#757476" d="M2513.36 777.51v.33l10.83-16.17h-.22l-10.61 15.84z"/><path fill="#747375" d="M2513.36 777.84v.33l11.05-16.5h-.22l-10.83 16.17z"/><path fill="#737274" d="M2513.36 778.17v.33l11.27-16.83h-.22l-11.05 16.5z"/><path fill="#727172" d="M2513.36 778.5v.33l11.49-17.16h-.22l-11.27 16.83z"/><path fill="#717071" d="M2513.36 778.83v.33l11.71-17.49h-.22l-11.49 17.16z"/><path fill="#706f70" d="M2513.36 779.16v.25l.04.03 11.9-17.77h-.23l-11.71 17.49z"/><path fill="#6f6e6f" d="m2513.4 779.44.15.1 11.97-17.87h-.22l-11.9 17.77z"/><path fill="#6e6d6e" d="m2513.55 779.54.15.1 12.04-17.97h-.22l-11.97 17.87z"/><path fill="#6d6b6d" d="m2513.7 779.64.15.1 12.11-18.07h-.22l-12.04 17.97z"/><path fill="#6c6a6c" d="m2513.85 779.74.16.11 12.17-18.18h-.22l-12.11 18.07z"/><path fill="#6a696b" d="m2514.01 779.85.15.1 12.24-18.28h-.22l-12.17 18.18z"/><path fill="#69686a" d="m2514.16 779.95.15.1 12.31-18.38h-.22l-12.24 18.28z"/><path fill="#686768" d="m2514.31 780.05.15.1 12.38-18.48h-.22l-12.31 18.38z"/><path fill="#676667" d="m2514.46 780.15.13.09h.04l12.43-18.57h-.22l-12.38 18.48z"/><path fill="#666566" d="M2514.63 780.24h.22l12.43-18.57h-.22l-12.43 18.57z"/><path fill="#656465" d="M2514.85 780.24h.22l12.44-18.57h-.23l-12.43 18.57z"/><path fill="#646264" d="m2527.51 761.67-12.44 18.57h.22l12.41-18.53-.07-.04h-.12z"/><path fill="#636163" d="M2515.29 780.24h.22l12.34-18.42-.15-.11-12.41 18.53z"/><path fill="#626062" d="M2515.51 780.24h.22l12.27-18.32-.15-.1-12.34 18.42z"/><path fill="#615f60" d="M2515.73 780.24h.22l12.2-18.22-.15-.1-12.27 18.32z"/><path fill="#605e5f" d="M2515.95 780.24h.22l12.14-18.12-.16-.1-12.2 18.22z"/><path fill="#5e5d5e" d="M2516.17 780.24h.22l12.07-18.01-.15-.11-12.14 18.12z"/><path fill="#5d5c5d" d="M2516.39 780.24h.23l11.99-17.91-.15-.1-12.07 18.01z"/><path fill="#5c5a5c" d="M2516.62 780.24h.22l11.92-17.81-.15-.1-11.99 17.91z"/><path fill="#5b595b" d="M2516.84 780.24h.22l11.8-17.63v-.11l-.1-.07-11.92 17.81z"/><path fill="#5a585a" d="m2517.28 780.24 11.58-17.3v-.33l-11.8 17.63h.22z"/><path fill="#595758" d="m2517.5 780.24 11.36-16.97v-.33l-11.58 17.3h.22z"/><path fill="#585657" d="m2517.72 780.24 11.14-16.64v-.33l-11.36 16.97h.22z"/><path fill="#575556" d="m2517.94 780.24 10.92-16.31v-.33l-11.14 16.64h.22z"/><path fill="#565455" d="m2518.16 780.24 10.7-15.98v-.33l-10.92 16.31h.22z"/><path fill="#545254" d="m2518.38 780.24 10.48-15.65v-.33l-10.7 15.98h.22z"/><path fill="#535152" d="m2518.61 780.24 10.25-15.32v-.33l-10.48 15.65h.23z"/><path fill="#525051" d="m2518.83 780.24 10.03-14.99v-.33l-10.25 15.32h.22z"/><path fill="#514f50" d="m2519.05 780.24 9.81-14.66v-.33l-10.03 14.99h.22z"/><path fill="#504e4f" d="m2519.27 780.24 9.59-14.33v-.33l-9.81 14.66h.22z"/><path fill="#4f4c4e" d="m2519.49 780.24 9.37-14v-.33l-9.59 14.33h.22z"/><path fill="#4e4b4d" d="m2519.71 780.24 9.15-13.67v-.33l-9.37 14h.22z"/><path fill="#4c4a4b" d="m2519.93 780.24 8.93-13.34v-.33l-9.15 13.67h.22z"/><path fill="#4b494a" d="m2520.15 780.24 8.71-13.01v-.33l-8.93 13.34h.22z"/><path fill="#4a4849" d="m2520.37 780.24 8.49-12.68v-.33l-8.71 13.01h.22z"/><path fill="#494748" d="m2520.59 780.24 8.27-12.35v-.33l-8.49 12.68h.22z"/><path fill="#484547" d="m2520.82 780.24 8.04-12.02v-.33l-8.27 12.35h.23z"/><path fill="#474445" d="m2521.04 780.24 7.82-11.69v-.33l-8.04 12.02h.22z"/><path fill="#464344" d="m2521.26 780.24 7.6-11.36v-.33l-7.82 11.69h.22z"/><path fill="#444243" d="m2521.48 780.24 7.38-11.03v-.33l-7.6 11.36h.22z"/><path fill="#434042" d="m2521.7 780.24 7.16-10.7v-.33l-7.38 11.03h.22z"/><path fill="#423f40" d="m2521.92 780.24 6.94-10.37v-.33l-7.16 10.7h.22z"/><path fill="#413e3f" d="m2522.14 780.24 6.72-10.04v-.33l-6.94 10.37h.22z"/><path fill="#403d3e" d="m2522.36 780.24 6.5-9.71v-.33l-6.72 10.04h.22z"/><path fill="#3f3c3d" d="m2522.58 780.24 6.28-9.38v-.33l-6.5 9.71h.22z"/><path fill="#3d3a3c" d="m2522.8 780.24 6.06-9.05v-.33l-6.28 9.38h.22z"/><path fill="#3c393a" d="m2523.03 780.24 5.83-8.72v-.33l-6.06 9.05h.23z"/><path fill="#3b3839" d="m2523.25 780.24 5.61-8.39v-.33l-5.83 8.72h.22z"/><path fill="#3a3738" d="m2523.47 780.24 5.39-8.06v-.33l-5.61 8.39h.22z"/><path fill="#393637" d="m2523.69 780.24 5.17-7.73v-.33l-5.39 8.06h.22z"/><path fill="#373435" d="m2523.91 780.24 4.95-7.4v-.33l-5.17 7.73h.22z"/><path fill="#363334" d="m2524.13 780.24 4.73-7.07v-.33l-4.95 7.4h.22z"/><path fill="#353233" d="m2524.35 780.24 4.51-6.74v-.33l-4.73 7.07h.22z"/><path fill="#343132" d="m2524.57 780.24 4.29-6.41v-.33l-4.51 6.74h.22z"/><path fill="#332f30" d="m2524.79 780.24 4.07-6.08v-.33l-4.29 6.41h.22z"/><path fill="#322e2f" d="m2525.01 780.24 3.85-5.75v-.33l-4.07 6.08h.22z"/><path fill="#302d2e" d="m2525.24 780.24 3.62-5.42v-.33l-3.85 5.75h.23z"/><path fill="#2f2c2d" d="m2525.46 780.24 3.4-5.09v-.33l-3.62 5.42h.22z"/><path fill="#2e2a2b" d="m2525.68 780.24 3.18-4.76v-.33l-3.4 5.09h.22z"/><path fill="#2d292a" d="m2525.9 780.24 2.96-4.43v-.33l-3.18 4.76h.22z"/><path fill="#2c2829" d="m2526.12 780.24 2.74-4.1v-.33l-2.96 4.43h.22z"/><path fill="#2a2728" d="m2526.34 780.24 2.52-3.77v-.33l-2.74 4.1h.22z"/><path fill="#292526" d="m2526.56 780.24 2.3-3.44v-.33l-2.52 3.77h.22z"/><path fill="#282425" d="m2526.78 780.24 2.08-3.11v-.33l-2.3 3.44h.22z"/><path fill="#272324" d="m2527 780.24 1.86-2.78v-.33l-2.08 3.11h.22z"/><path fill="#252223" d="m2527.22 780.24 1.64-2.45v-.33l-1.86 2.78h.22z"/><path fill="#242021" d="m2527.45 780.24 1.41-2.12v-.33l-1.64 2.45h.23z"/><path fill="#231f20" d="m2527.67 780.24 1.19-1.79v-.33l-1.41 2.12h.22z"/><path fill="#231f20" d="M2528.86 780.24v-1.79l-1.19 1.79h1.19z"/></g><path d="M2523.53 762.17c-3.85-1.06-8.06 2-9.4 6.86s.71 9.65 4.56 10.71a6 6 0 0 0 1.57.21 6.87 6.87 0 0 0 4.12-1.46 10.85 10.85 0 0 0 3.4-12.33 6.51 6.51 0 0 0-4.25-3.99Zm3.58 10.44a9.34 9.34 0 0 1-3.33 5.07 5.56 5.56 0 0 1-4.82 1.09c-3.31-.92-5-5.16-3.85-9.47s4.84-7.07 8.15-6.16a5.58 5.58 0 0 1 3.59 3.41 9.32 9.32 0 0 1 .26 6.06Z"/></g><path fill="#f7a4be" d="M2525.06 508.79a17.06 17.06 0 1 0 17.06 17.05 17.05 17.05 0 0 0-17.06-17.05Z"/><path fill="#f7a4be" d="M2514.04 759.86h22.87l4.94-218.28h-32.76l4.95 218.28z"/><g style="mix-blend-mode:screen" opacity=".3"><path fill="#fff" d="M2514.04 759.86h11.03V541.58h-15.98l4.95 218.28z"/><path d="M2513.55 760.37h12v-219.3h-17Zm11-1h-10l-4.93-217.28h14.95Z"/></g><g style="mix-blend-mode:screen" opacity=".3"><path fill="#fff" d="M2522.09 513.69c-4.33-1.19-9.07 2.33-10.6 7.86s.75 11 5.07 12.18 9.08-2.32 10.6-7.86-.74-10.99-5.07-12.18Z"/><path d="M2522.22 513.2c-4.59-1.26-9.62 2.43-11.22 8.22s.84 11.54 5.43 12.8a6.85 6.85 0 0 0 1.84.25c4 0 8-3.44 9.38-8.46 1.6-5.8-.84-11.54-5.43-12.81Zm4.46 12.54c-1.45 5.26-5.93 8.63-10 7.51s-6.17-6.31-4.72-11.56 5.92-8.63 10-7.51 6.17 6.3 4.72 11.56Z"/></g><path fill="#f78abe" d="m2410.44 787.6-2.65 47.65h166.71l-2.64-47.65h-161.42zM2410.44 512.14h171.42l2.65-10.76h-176.72l2.65 10.76z"/><path fill="#5a5a5a" d="m2530.35 787.6 7.31 47.65h41.47l-2.17-47.65h-46.61z"/><path d="m2529.76 787.1 7.47 48.66h42.43l-2.22-48.66Zm8.34 47.65-7.16-46.65h45.54l2.12 46.65Z"/><path fill="#c08abe" d="M2543.78 512.14h47l2.18-10.76h-47.7l-1.48 10.76z"/><g style="mix-blend-mode:screen" opacity=".3"><path fill="#fff" d="m2467.22 497.78 24.84-.77 4.1-18.69-29.71-.51.77 19.97z"/><path d="m2466.74 498.3 25.73-.8 4.31-19.68-30.85-.53Zm28.79-19.49-3.88 17.71-23.94.74-.73-18.94Z"/></g><g style="mix-blend-mode:screen" opacity=".3"><path fill="#fff" d="M2479.8 366.74a24.28 24.28 0 0 0-4 7.28c-.69 1.66-1.29 3.79 0 5.09a4.12 4.12 0 0 0 3.39.88c5.31-.46 12.44-5.14 12.57-11.08.11-6.91-8.6-5.91-11.96-2.17Z"/><path d="M2489.15 363.77c-3-1.16-7.4 0-9.73 2.63a24.87 24.87 0 0 0-4.1 7.42c-.69 1.68-1.42 4.09.06 5.64a4 4 0 0 0 3 1.07h.78c5.22-.45 12.89-5.17 13-11.57.11-2.55-.98-4.38-3.01-5.19Zm-10.05 15.72a3.64 3.64 0 0 1-3-.73c-.82-.86-.78-2.3.14-4.55a24 24 0 0 1 3.92-7.13 9.1 9.1 0 0 1 6.44-2.74 6 6 0 0 1 2.16.37c1.64.65 2.49 2.1 2.44 4.19-.12 5.84-7.2 10.17-12.1 10.59Z"/></g><g style="mix-blend-mode:screen" opacity=".3"><path fill="#fff" d="M2475.28 404.9c0 2.42 1.39 4.59 2.69 6.63l5.52 8.63a4.74 4.74 0 0 0 1.3 1.51 1.62 1.62 0 0 0 1.88 0 2.46 2.46 0 0 0 .6-1.61q.42-3.9.83-7.8a15.83 15.83 0 0 0 0-5.62c-1.4-5.44-12.96-10.42-12.82-1.74Z"/><path d="M2488.54 406.53c-.91-3.67-6.28-7.29-10.09-6.79-1.4.18-3.74 1.1-3.67 5.16 0 2.64 1.55 5 2.77 6.9l5.51 8.63a5.08 5.08 0 0 0 1.46 1.66 2.46 2.46 0 0 0 1.3.39 1.78 1.78 0 0 0 1.18-.42 2.82 2.82 0 0 0 .77-1.94l.84-7.79a16.9 16.9 0 0 0-.07-5.8Zm-.94 5.69-.84 7.79a2 2 0 0 1-.42 1.28 1.13 1.13 0 0 1-1.27 0 4.41 4.41 0 0 1-1.16-1.36l-5.51-8.63c-1.15-1.79-2.58-4-2.62-6.37s.93-3.91 2.81-4.15a4.08 4.08 0 0 1 .61 0c3.28 0 7.62 3.07 8.36 6.07a15.58 15.58 0 0 1 .04 5.37Z"/></g><path fill="#5f7ac7" d="m2161.68 559.03-17.35 274.67 197.57 1.55-6.03-276.22h-174.19z"/><g opacity=".09"><path d="M2211.26 559.34v.16c0 .05.14-.04 0-.16Z"/><path d="m2275.66 558.06-27.56-.59c-8.52 44.33-15.24 82.94-23.45 126.26-.43 0-.85.08-1.27.11a34.16 34.16 0 0 0-4.17-.1c-2.83-41.2-7.36-82.11-7.94-124.24-.1 0-.23 0-.06.18l-27.75-.58c5.57 46 11.14 85.82 16.7 131.14a31 31 0 0 0-8.34 8.73c-10.18 16.45-.55 48.91 18.81 54.69a28.47 28.47 0 0 0 10.91.91 33 33 0 0 0 18.24-3.63c12.59-6.53 20.86-20.78 19.91-34.93a35.92 35.92 0 0 0-16.5-27.26l32.63-131Z"/><path d="m2275.67 557.6-.3-.07v.06l-27.66-.59-.08.42c-4.67 24.3-8.87 47.26-12.93 69.46-3.33 18.18-6.77 37-10.45 56.42h-.81a33.38 33.38 0 0 0-3.74-.11c-.84-12.12-1.84-24.41-2.81-36.31-2.29-28.23-4.66-57.41-5.09-86.74h.56l-.52-.56a.6.6 0 0 0-.21-.64l-.86-.81v1l-27.86-.58.07.57c2.94 24.29 5.93 47.24 8.82 69.44 2.57 19.73 5.23 40.13 7.84 61.41a31.19 31.19 0 0 0-8.24 8.7c-5.21 8.43-5.57 21.78-.91 34 4.2 11.06 11.49 18.86 20 21.4a27.53 27.53 0 0 0 7.8 1.09c1 0 2.12-.06 3.21-.16a33.47 33.47 0 0 0 18.52-3.69c12.84-6.66 21.13-21.21 20.17-35.4a36.41 36.41 0 0 0-16.42-27.46l32.55-130.69Zm-33 131-.09.35.3.19a35.44 35.44 0 0 1 16.27 26.88c.93 13.8-7.15 28-19.64 34.44a32.65 32.65 0 0 1-18.06 3.58 27.83 27.83 0 0 1-10.72-.89c-8.21-2.45-15.27-10-19.36-20.79-4.55-12-4.22-25 .83-33.15a30.23 30.23 0 0 1 8.22-8.6l.24-.17v-.29c-2.63-21.39-5.3-41.89-7.88-61.71-2.87-22-5.83-44.79-8.75-68.86l26.75.56c.43 29.38 2.8 58.58 5.1 86.83 1 12 2 24.51 2.83 36.78v.48h.48a33 33 0 0 1 4.19.1h.43l.83-.07h.39l.07-.39c3.71-19.58 7.17-38.51 10.52-56.81 4-22.07 8.21-44.9 12.85-69l26.59.56Z"/></g><path fill="#5f64c7" d="m2296.47 559.03 6.99 276.22h38.44l-6.03-276.22h-39.4z"/><path fill="#ffa201" d="m2203.34 557.93-27.75-.58c5.88 48.54 11.76 90.15 17.63 138.69 6.55-1.52 12.22-2.94 18.77-4.46-2.73-44.46-8-88.44-8.59-133.83-.1.02-.23.02-.06.18Z"/><path fill="#ffa201" d="M2203.39 557.59a.86.86 0 0 1 0 .16c.08-.01.14-.04 0-.16ZM2240.23 555.72c-9.33 48.54-16.48 90.16-25.81 138.7 7-1.52 20.17-4.47 20.17-4.47L2268 556l-.16.35Z"/><path fill="#ffa201" d="M2226.86 683.1c-13.64-3.87-29.58 2.06-37 14.12-10.17 16.45-.54 48.91 18.81 54.69 7.68 2.29 16.17 1 23.28-2.72 12.59-6.53 20.86-20.78 19.91-34.92s-11.36-27.27-25-31.17Z"/><path fill="#ffbc01" d="M2221 683.1c-13.64-3.87-29.58 2.06-37 14.12-10.17 16.45-.55 48.91 18.81 54.69 7.67 2.29 16.17 1 23.28-2.72 12.59-6.53 20.86-20.78 19.9-34.92S2234.63 687 2221 683.1Z"/><path fill="#fff" d="M2204 693.79c-7 2.05-13.08 7.67-15 14.75-1.72 6.47 0 13.36 2.54 19.57 2.26 5.62 5.46 11.32 10.87 14-3.31-6.21-6.5-13.66-6.11-20.68s3.32-14 8.61-18.66 13.54-8.35 20.2-6.09a27.62 27.62 0 0 0-21.11-2.89Z" opacity=".27"/><path fill="#c64262" d="m2981.22 765.11-4.55 58.72h120.17l-4.54-58.72h-111.08z"/><path fill="#ff4262" d="m2943.15 765.11-4.54 58.72h120.17l-4.54-58.72h-111.09z"/><path fill="#ff6862" d="m2926.55 824.01 1.79 11.24h176.6l2.23-14.12h-181.06l.44 2.88z"/><path fill="#da6862" d="M3066.6 835.25h38.34l2.23-14.12h-38.78l-1.79 14.12z"/><g style="mix-blend-mode:screen" opacity=".3"><path fill="#fff" d="m2926.11 821.13.44 2.88 16.17 2.43 2.17 8.81h36.61l1.15-10.47s112.58-3.26 113.79-2.88l-.19-.77Z"/><path d="m2925.52 820.63.59 3.82 16.2 2.44 2.19 8.87h37.5l1.15-10.49c38.6-1.12 111.33-3.14 113.19-2.89l.86.27-.51-2Zm57.12 3.64h-.44l-1.15 10.47h-35.76l-2.16-8.76-16.13-2.41-.3-1.93h153.56c-28.03.63-83.62 2.23-97.62 2.63Z"/></g><path fill="#ff6862" d="M3017.18 492.14a16 16 0 1 0 16 16 16 16 0 0 0-16-16Z"/><g style="mix-blend-mode:screen" opacity=".3"><path fill="#fff" d="M3014.39 496.76c-4.07-1.12-8.53 2.18-10 7.39s.71 10.33 4.78 11.45 8.53-2.18 10-7.39-.71-10.33-4.78-11.45Z"/><path d="M3014.52 496.27c-4.33-1.19-9.08 2.28-10.58 7.74s.79 10.89 5.12 12.08a6.52 6.52 0 0 0 1.74.24c3.8 0 7.54-3.25 8.85-8a11.8 11.8 0 0 0-.34-7.59 7.37 7.37 0 0 0-4.79-4.47Zm4.16 11.81c-1.36 4.92-5.56 8.09-9.35 7s-5.78-5.91-4.42-10.84 5.55-8.08 9.35-7a6.38 6.38 0 0 1 4.11 3.91 10.73 10.73 0 0 1 .31 6.93Z"/></g><path fill="#ff6862" d="M3017.58 730.52c-1.81-.55-2.66-2.39-4.48-2.93-8.1 14.67-21.1 31.41-36.45 38.06h57.12c6 0 12.28-.14 18.26-.12a81.1 81.1 0 0 1-34.45-35.01Z"/><path fill="#ff4262" d="M3015 710.19a13.32 13.32 0 1 0 13.32 13.32 13.32 13.32 0 0 0-13.32-13.32Z"/><g style="mix-blend-mode:screen" opacity=".3"><path fill="#fff" d="M3012.69 714c-3.38-.93-7.09 1.82-8.28 6.14s.58 8.58 4 9.51 7.09-1.82 8.28-6.14-.62-8.51-4-9.51Z"/><path d="M3012.82 713.53a6.21 6.21 0 0 0-5.39 1.18 9.83 9.83 0 0 0-3.51 5.31c-1.26 4.59.68 9.13 4.32 10.14a5.81 5.81 0 0 0 1.49.2 6.54 6.54 0 0 0 3.9-1.38 9.87 9.87 0 0 0 3.51-5.31c1.26-4.59-.68-9.13-4.32-10.14Zm3.34 9.87a8.78 8.78 0 0 1-3.13 4.77 5.21 5.21 0 0 1-4.52 1c-3.11-.85-4.73-4.84-3.61-8.89a8.84 8.84 0 0 1 3.13-4.77 5.22 5.22 0 0 1 4.52-1c3.11.85 4.73 4.84 3.61 8.89Z"/></g><path fill="#ff8862" d="M2943.53 553.59c-5.94 61.46 10.35 114.81 55.39 157.68 7.35 5 15.34 5.88 23.83 4a55.55 55.55 0 0 0 11.63-4c2.11-2.1 4.09-4.21 6.07-6.39 42-45.68 55.2-96.66 49.32-151.29-27.21-35.9-112.57-47.85-146.24 0Z"/><path fill="#ed6d4a" d="M3032.15 527c3.38 8.31 4.34 15.72 2.68 22.3l-84.78 2.68 82.1 12c6.45 38.08-.07 93-9.4 151.36a55.55 55.55 0 0 0 11.63-4c2.11-2.1 4.09-4.21 6.07-6.39C3068 652.05 3085.94 600.74 3080 553l9.77.57c-19.16-12.5-38.33-23.36-57.62-26.57Z"/><g style="mix-blend-mode:screen" opacity=".3"><path fill="#fff" d="M2985.51 546.08a49 49 0 0 1 26.43-17.81c-21.25.53-41.67 6-58.85 18.51 10.32-.78 22.09.09 32.42-.7Z"/><path d="m2952.79 546.38-1.44 1 1.78-.13c5.14-.4 10.75-.38 16.17-.36s11.06.05 16.25-.35h.22l.14-.18a48.26 48.26 0 0 1 26.15-17.62l4.17-1.1-4.31.11c-23.08.59-42.92 6.85-59.13 18.63Zm32.45-.79c-5.08.38-10.6.36-15.94.34-4.82 0-9.79 0-14.47.23 14.81-10.34 32.7-16.13 53.26-17.23a49.25 49.25 0 0 0-22.85 16.66Z"/></g><g style="mix-blend-mode:screen" opacity=".3"><path fill="#fff" d="M2984.79 641.39a291.62 291.62 0 0 1-5.28-38.47c-.23-3.22.18-36.18-.28-36.32a71.39 71.39 0 0 0-28.13-2.82c-1.43 35.14 5.39 72.35 19.69 104.48 7.39 16.64 17.45 32.35 32.78 42.54 3.66-9.55-5.45-23.26-8.48-32a292.41 292.41 0 0 1-10.3-37.41Z"/><path d="M2995.56 678.65a293.71 293.71 0 0 1-15.56-75.77c-.09-1.32-.08-7.94-.06-15 .06-21.62 0-21.64-.57-21.81a72 72 0 0 0-28.33-2.84h-.43v.44c-1.46 35.65 5.55 72.84 19.73 104.71 8.85 19.9 19.63 33.89 33 42.75l.52.35.23-.59c2.79-7.28-1.49-16.58-5.26-24.78-1.3-2.65-2.49-5.23-3.27-7.46Zm7.75 31.37c-12.92-8.77-23.41-22.51-32.06-42-14.06-31.6-21-68.45-19.66-103.82a71 71 0 0 1 27.22 2.76c.18 1.82.15 12.8.13 20.93 0 7.33 0 13.67.06 15a294.61 294.61 0 0 0 15.61 76c.79 2.27 2 4.87 3.26 7.63 3.58 7.89 7.62 16.69 5.44 23.48Z"/></g><g style="mix-blend-mode:screen" opacity=".3"><path fill="#fff" d="M2989.29 761.42c7.82.83 10.58-1.47 18.4-.64a34.34 34.34 0 0 0 6.7-17.95c-1.81 0-2.19.52-4 .52-6.69 6.18-14.39 11.89-21.1 18.07Z"/><path d="M3012.27 742.6a7.52 7.52 0 0 1-1.89.24h-.19l-.15.14c-3.33 3.08-7 6.1-10.53 9s-7.21 6-10.56 9l-.82.76 1.11.12a32.32 32.32 0 0 0 3.39.18 40.86 40.86 0 0 0 5.93-.51 33.4 33.4 0 0 1 9.08-.32h.28l.18-.23a35 35 0 0 0 6.79-18.22v-.54h-.54a7.87 7.87 0 0 0-2.08.38Zm-4.81 17.64a34.81 34.81 0 0 0-9 .36 33.78 33.78 0 0 1-7.94.42c3.1-2.81 6.44-5.57 9.68-8.24 3.49-2.89 7.11-5.87 10.42-8.93a8.54 8.54 0 0 0 1.92-.27 7.58 7.58 0 0 1 1.34-.23 34.1 34.1 0 0 1-6.42 16.89Z"/></g><path fill="#d66862" d="M3021.25 761.9c6.89.74 14.91.8 21.79 1.54q-9.48-9.56-18.95-19.1c-.77 5.97-2.09 11.58-2.84 17.56Z"/><path fill="#5f7ac7" d="m2534.05 1062.22-207.15 569-257.25 55.4-9.62 155.8h382.28l379.87-71.75 293.64-782-427-8.54a176.67 176.67 0 0 0-154.77 82.09Z"/><path fill="#1f3f99" d="M3115.82 988.6a52.3 52.3 0 0 0-61.19 35.68l-229 668.64a52.27 52.27 0 0 1-50.17 36.89l-343.07-1.31a52.29 52.29 0 0 0-52.49 52.29v9.29a52.29 52.29 0 0 0 52.29 52.29h419.33a52.28 52.28 0 0 0 50-37l253-750.4a52.29 52.29 0 0 0-38.7-66.37Z"/><path fill="#1f1f1f" d="M2490.4 1804.93h72.48v557.95h-72.48z"/><path d="M2489.89 2363.39h73.49v-559h-73.49Zm1-557.95h71.47v556.94h-71.46Z"/><path fill="#343434" d="M2515.29 1804.93h47.59v563.97h-47.59z"/><path d="M2514.78 2369.41h48.6v-565h-48.6Zm1-564h46.58v563h-46.58Z"/><path fill="#171717" d="M2852.56 2304.06H2208.2a102.16 102.16 0 0 0-102.2 102.16h848.68a102.16 102.16 0 0 0-102.12-102.16Z"/><path d="M2852.56 2303.55H2208.2a102.79 102.79 0 0 0-102.67 102.67v.51h849.69v-.51a102.78 102.78 0 0 0-102.66-102.67Zm-746 102.17a101.78 101.78 0 0 1 101.66-101.16h644.36a101.77 101.77 0 0 1 101.65 101.16Z"/><ellipse cx="1626.39" cy="2368.95" fill="#c0623e" rx="687.41" ry="62.61"/><ellipse cx="2735.87" cy="2697.39" fill="#c0623e" rx="1062.05" ry="62.61"/><path fill="#ff4262" d="M3382.42 988.03h339.05v284.91h-339.05z"/><path fill="#ff6a62" d="M3398.78 1004.39h306.33v252.19h-306.33z"/><circle cx="3519.63" cy="1121.59" r="89.72" fill="#ffa862" transform="rotate(-45 3519.629 1121.592)"/><circle cx="3611.3" cy="1127.66" r="49.23" fill="#fff" opacity=".45" transform="rotate(-15.48 3611.776 1127.725)"/><path fill="#2747a0" d="M1049.65 681.42h842.92v1695.67h-842.92z"/><path fill="#5f7ac7" d="M1096.58 728.35h749.05v1601.81h-749.05z"/><path fill="#b1b1e5" d="M1224.85 1004.14h492.51v166.67h-492.51z"/><path fill="#3f62b2" d="M1297.06 1056.59a15.82 15.82 0 0 0-5.21-2.37 21.36 21.36 0 0 0-2.61-.61 14.45 14.45 0 0 0-2.14-.18l-3-.09h-18.97v63.09h11.72v-23.9h2.29l3.5-.08h4a16.25 16.25 0 0 0 2.71-.23 23.15 23.15 0 0 0 2.75-.65 15.25 15.25 0 0 0 5.8-2.87 18.82 18.82 0 0 0 5.58-7.11 21.59 21.59 0 0 0 1.92-9 19.05 19.05 0 0 0-2.25-9 18.82 18.82 0 0 0-6.09-7Zm-4.9 20.89a8 8 0 0 1-4.15 3 10.08 10.08 0 0 1-1.56.44 7.19 7.19 0 0 1-1.44.15h-8.17v-16.47h4.58l3.51.13a7.74 7.74 0 0 1 1.27.08c.35.06.84.15 1.48.29a8.46 8.46 0 0 1 4.4 2.73 7.23 7.23 0 0 1 1.65 4.78 8 8 0 0 1-1.57 4.87ZM1344.64 1090.91a19.84 19.84 0 0 0 5.19-4 18.67 18.67 0 0 0 3.69-6.28 21.38 21.38 0 0 0 1.12-3.79 18.52 18.52 0 0 0 .34-3.59 19.72 19.72 0 0 0-2-8.59 20.34 20.34 0 0 0-5.32-6.92 18.28 18.28 0 0 0-7.78-3.75 25.72 25.72 0 0 0-3.79-.54c-1.45-.11-3.06-.17-4.84-.17H1313v63.09h11.71v-24.17l16.56 24.19h14.43l-17.06-23.31a27.22 27.22 0 0 0 6-2.17Zm-13.6-7.59h-6.38v-18.68h6.47c1 0 2 0 2.71.08s1.37.13 1.87.21a10.35 10.35 0 0 1 4.13 1.82 8 8 0 0 1 2.59 3.15 9.53 9.53 0 0 1 .83 4 9.06 9.06 0 0 1-2.88 6.83 9.34 9.34 0 0 1-4.42 2.17 21.15 21.15 0 0 1-4.96.42ZM1362.48 1053.3h11.72v63.09h-11.72zM1425.82 1099.38l-26.27-46.08h-13.17v63.09h11.71v-45.95l26.48 45.95h12.97v-63.09h-11.72v46.08zM1478.82 1063.43a21.64 21.64 0 0 1 16.55 7.88h13.3a29.37 29.37 0 0 0-11.94-14 33.4 33.4 0 0 0-18-5.19 31 31 0 0 0-22.8 9.65 31.54 31.54 0 0 0-9.59 23 32.16 32.16 0 0 0 9.61 23.37 31.23 31.23 0 0 0 23.12 9.78 32.4 32.4 0 0 0 17.43-5 29.06 29.06 0 0 0 11.84-13.68h-13.55a23.81 23.81 0 0 1-7.38 5.46 20 20 0 0 1-8.51 1.88 19.76 19.76 0 0 1-14.63-6.4 20.77 20.77 0 0 1-6.22-15 21.51 21.51 0 0 1 6.11-15.35 19.52 19.52 0 0 1 14.66-6.4ZM1516.18 1053.3h11.72v63.09h-11.72zM1572 1056.59a15.82 15.82 0 0 0-5.21-2.37 21.36 21.36 0 0 0-2.61-.61 14.45 14.45 0 0 0-2.14-.18l-3-.09h-18.97v63.09h11.72v-23.9h2.29l3.5-.08h4.05a16.25 16.25 0 0 0 2.71-.23 23.15 23.15 0 0 0 2.75-.65 15.25 15.25 0 0 0 5.8-2.87 18.72 18.72 0 0 0 5.58-7.11 21.59 21.59 0 0 0 1.92-9 19.05 19.05 0 0 0-2.25-9 18.82 18.82 0 0 0-6.14-7Zm-4.9 20.89a8 8 0 0 1-4.15 3 9.78 9.78 0 0 1-1.56.44 7.19 7.19 0 0 1-1.44.15h-8.17v-16.47h4.58l3.51.13a7.74 7.74 0 0 1 1.27.08c.35.06.84.15 1.48.29a8.46 8.46 0 0 1 4.4 2.73 7.23 7.23 0 0 1 1.65 4.78 8 8 0 0 1-1.56 4.87ZM1609 1053.3l-26.31 63.09h12.92l7-16.31H1625l6.83 16.31h12.89l-26.56-63.09Zm-2.13 35.4 6.75-19.1 6.76 19.1ZM1662.83 1053.3h-11.72v63.09h31.02v-11.34h-19.3v-51.75z"/><path fill="#fff" d="M2813.94 990.92h-.05A485.06 485.06 0 0 0 2746.8 971a462.42 462.42 0 0 0-46.43-7.71q-3.24-.36-6.52-.69a436.506 436.506 0 0 0-41.86-2.1 418.6 418.6 0 0 0-81.29 7.82q-7.93 1.56-16 3.46-9.21 2.19-18.55 4.85c-1.67.48-3.35 1-5 1.47q-3.12.93-6.27 1.93c-38.72 12.22-78.78 30.89-119.39 58-7.63 16.12-18 56.89-29.49 109.48-35.92 165.18-81.79 446.89-81.79 446.89l14.51 1.51 216.16 22.56 159.61 16.53 160.5 16.76s-83.47-348.66 61.18-613.86c0 .03-34.74-25.29-92.23-46.98Z"/><path fill="#e04262" d="M2605.82 1067.15s-22.48-18.19-35.75-2.66c0 0-.09.76-.25 2.19-2.93 24.65-29.65 250.32-30.8 257.86 6.12 14.09 49.27 96.22 49.27 96.22l54.2-96.83-36.38-254.79Z"/><g opacity=".09"><path d="M2570.07 1064.49s-.09.76-.25 2.19c.08.23.16.45.25.67 13.27 3.88 35.75 2.65 35.75 2.65l.29-.86-.29-2s-22.48-18.14-35.75-2.65Z"/><path d="M2606.14 1066.75c-.23-.18-23-18.31-36.46-2.59l-.1.12v.16l-.26 2.18V1066.85c.09.23.17.46.26.68l.09.23.24.07c8.18 2.39 19.94 2.85 27.74 2.85 4.79 0 8.09-.17 8.18-.17h.35l.1-.33.29-.86v-.11l-.34-2.31Zm-.69 2.76c-2.86.14-22.83.89-35-2.58l-.12-.31c.12-1 .19-1.64.22-1.92 12.25-14.11 32.82 1.19 34.8 2.72l.24 1.67Z"/></g><path fill="#ff4262" d="M2562.92 1026.7s2.45 25.74 7.15 37.79c13.28 3.88 35.75 2.65 35.75 2.65a190.08 190.08 0 0 0 7.76-37.18c2.25-21.04-40.65-36.77-50.66-3.26Z"/><path fill="#0a133c" d="m2376 1147.41-67.28 448.4-6.84 45.57 223 5.7V980c-38.72 12.22-78.78 30.89-119.39 58-7.66 16.05-18.07 56.82-29.49 109.41ZM2906.17 1037.93s-34.74-25.32-92.23-47h-.05c-42.84-12.42-87.08-24.22-107.59-26.45L2684.49 1635l261.76 19.26s-184.73-351.13-40.08-616.33Z"/><g opacity=".13"><path d="M2821.22 1396.9c.16-7.72.37-15.55.71-23.44a946.93 946.93 0 0 1 13.68-127.8c12.52-70 34.41-141.47 70.56-207.73-1.17 0-75.44-2.16-124.72 181-49.66 184.62-256.6 144.59-256.6 144.59v254.82l421.4 35.92s-61.68-99.26-62.51-229.26c-.07-9.31-62.74-18.52-62.52-28.1Z"/><path d="M2915.78 1588.22c-14.15-37.43-31.11-96.15-31.53-163.26 0-5-15.2-9.47-31.24-14.25-14.7-4.38-31.37-9.34-31.28-13.8.17-8.72.4-16.38.7-23.43a948.48 948.48 0 0 1 13.68-127.73c13.84-77.35 37.56-147.19 70.5-207.58l.39-.71h-.81c-.79 0-19.68-.55-44.68 21.93-41.05 36.9-66.46 107.09-80.55 159.47-11.3 42-31.78 75.72-60.87 100.21-23.27 19.6-52.09 33.38-85.65 41-57.18 12.91-109 3.17-109.5 3.07l-.6-.12v255.9l422.87 36-.53-.85c-.15-.29-15.57-25.29-30.9-65.85Zm-390.43 29.69v-253.75c6 1 55.23 9 109.29-3.18 33.72-7.61 62.68-21.45 86.09-41.15 29.26-24.63 49.85-58.53 61.21-100.74 14-52.25 39.38-122.24 80.25-159 22.08-19.85 39.2-21.56 43.13-21.67-32.79 60.31-56.4 130-70.21 207.13a950.8 950.8 0 0 0-13.68 127.86c-.3 7.06-.54 14.73-.71 23.46-.11 5.22 15.49 9.87 32 14.79 14.29 4.25 30.48 9.07 30.52 13.29.42 67.26 17.42 126.1 31.59 163.61 13.79 36.47 27.66 60.41 30.48 65.12Z"/></g><path fill="#010101" d="M2505.9 771.7s-26.77 66.11 13.76 108.8c14.82-76.66 25.44-107.92-13.76-108.8Z"/><path d="M2505.91 771.2h-.34l-.13.32a142.54 142.54 0 0 0-8.36 38.55c-1.5 20.05 1.15 48.6 22.21 70.79l.67.71.19-1c1.48-7.68 2.91-14.79 4.28-21.67 8.42-42.15 13.5-67.58 3.94-79.51-4.3-5.33-11.44-7.95-22.46-8.19Zm17.53 87.53c-1.32 6.59-2.68 13.4-4.09 20.7-20.18-21.8-22.72-49.65-21.27-69.27a143.7 143.7 0 0 1 8.16-37.94c10.5.28 17.29 2.78 21.34 7.83 9.26 11.56 4.22 36.83-4.14 78.68Z"/><path fill="#ff9995" d="M2507.58 873.92c3.82 33.91 53.66 21.86 53.66 21.86l-19.95-54.41s-37.54-1.37-33.71 32.55Z"/><path d="M2524.94 874.29a8.41 8.41 0 0 0-.71-.85c-.05.33-.11.67-.15 1Z"/><path d="M2524.25 867.38a9.86 9.86 0 0 0-2.27-2.89 10.43 10.43 0 0 0-3.07-1.9 12.71 12.71 0 0 1 4.55 5.18 9.33 9.33 0 0 1 .83 3.27 10.74 10.74 0 0 1 0 1.7c0 .24 0 .47-.08.7a8.41 8.41 0 0 1 .71.85l-.86.16c0-.34.1-.68.15-1a13.31 13.31 0 0 0-2.44-2 17.55 17.55 0 0 0-1.8-1 18.5 18.5 0 0 0-1.88-.83c1.15.75 2.26 1.53 3.31 2.36a12.86 12.86 0 0 1 2.73 2.79l.63 1 .22-1.12a11.42 11.42 0 0 0 .29-3.69 9 9 0 0 0-1.02-3.58Z"/><path fill="#feb8ac" d="m2643.19 929.59-66.13 2.28 1.18 34.39a33.08 33.08 0 0 0 66.13-2.27Z"/><path fill="#ff9995" d="m2577.06 931.87 1.11 32.19c10.76.34 47.26-.32 65.42-22.82l-.4-11.65Z"/><path fill="#feb8ac" d="M2616.82 745.51c-75.76-7-96 33.8-96 33.8s-35.39 166.79 70.25 166.35 92-119.46 92-119.46 9.51-73.72-66.25-80.69Z"/><path d="M2571.25 882.71c-3.13.37-6.25.79-9.37 1.21l-.33 1.23-1-1.06 1.29-.17 1.36-5 1.63-6.23c1.07-4.16 2.12-8.32 3.12-12.49s2-8.36 2.9-12.55c.46-2.1.91-4.2 1.33-6.3s.87-4.21 1.25-6.33c-.68 2-1.3 4.1-1.94 6.15s-1.25 4.11-1.85 6.17q-1.8 6.18-3.47 12.4t-3.17 12.48l-1.56 6.24-1.5 6.26-.31 1.29 1.27-.23c3.53-.64 7.05-1.28 10.57-2 1.76-.33 3.51-.72 5.27-1.08s3.51-.73 5.25-1.14c-1.79.15-3.57.34-5.35.54s-3.64.39-5.39.61Z"/><path d="m2561.55 885.15.33-1.23-1.29.17Z"/><path fill="#010101" d="M2551 819c-6.76 2.5-10.45 9.35-9.32 12.42s6.66 1.17 13.42-1.33 12.18-4.65 11-7.72-8.39-5.84-15.1-3.37Z"/><path d="M2560.77 818.15a16.25 16.25 0 0 0-17.85 6.59c-1.71 2.54-2.38 5.18-1.75 6.88.51 1.39 1.71 1.93 3.36 1.93 2.72 0 6.64-1.45 10.7-3a55.91 55.91 0 0 0 8.57-3.68c.91-.55 3.69-2.22 2.78-4.68-.58-1.67-2.86-3.19-5.81-4.04Zm2.51 7.89a55.32 55.32 0 0 1-8.4 3.61c-6.66 2.46-11.83 4.14-12.76 1.62-.51-1.38.13-3.72 1.64-6a15.47 15.47 0 0 1 7.37-5.8 15 15 0 0 1 5.26-.94 15.46 15.46 0 0 1 4.11.55c2.61.72 4.62 2.07 5.13 3.46.27.76.31 1.9-2.35 3.46Z"/><path fill="#010101" d="M2606.45 818.79c-6.66-2.76-14-.24-15.27 2.77s4.08 5.39 10.73 8.15 12.1 4.87 13.35 1.85-2.16-10.01-8.81-12.77Z"/><path d="M2606.64 818.33c-6.91-2.87-14.58-.21-15.93 3-1.5 3.61 4.58 6.14 11 8.81 4.14 1.72 8.13 3.37 10.85 3.37a3 3 0 0 0 3.16-1.79c1.36-3.21-2.18-10.53-9.08-13.39Zm8.16 13c-1 2.48-6.14.6-12.69-2.13s-11.5-5-10.47-7.48c.81-2 4.48-3.64 8.74-3.64a15.24 15.24 0 0 1 5.87 1.14c6.28 2.65 9.75 9.33 8.55 12.15Z"/><path fill="#010101" d="M2557.15 839.19c-4.4-.41-8.43 4.17-9 10.21s2.55 11.29 7 11.7 8.42-4.17 9-10.22-2.6-11.28-7-11.69Z"/><path d="M2557.2 838.69c-4.67-.43-9 4.35-9.54 10.67s2.74 11.81 7.41 12.24a5.83 5.83 0 0 0 .59 0c4.44 0 8.39-4.65 9-10.7a13.79 13.79 0 0 0-1.69-8.27 7.54 7.54 0 0 0-5.77-3.94Zm6.4 12.15c-.53 5.76-4.31 10.14-8.44 9.75s-7-5.38-6.5-11.14c.52-5.53 4-9.78 7.94-9.78h.5a6.56 6.56 0 0 1 5 3.49 12.79 12.79 0 0 1 1.5 7.68Z"/><path fill="#010101" d="M2600.3 841.46c-4.41-.41-8.43 4.16-9 10.21s2.55 11.29 7 11.7 8.43-4.17 9-10.22-2.6-11.28-7-11.69Z"/><path d="M2600.34 841c-4.66-.43-9 4.35-9.54 10.67s2.74 11.8 7.42 12.24h.6a7.72 7.72 0 0 0 5.76-2.89 13.78 13.78 0 0 0 3.17-7.81c.59-6.33-2.75-11.82-7.41-12.21Zm6.41 12.15a12.74 12.74 0 0 1-2.93 7.24 6.6 6.6 0 0 1-5.51 2.51c-4.12-.38-7-5.38-6.5-11.14.51-5.53 4-9.78 7.94-9.78h.5c4.12.37 7.03 5.36 6.5 11.13ZM2580.21 895.49a43.17 43.17 0 0 1-9.77-.14 56.24 56.24 0 0 1-9.72-2.1 30.63 30.63 0 0 0 9.46 3.63 33.18 33.18 0 0 0 10.24.6 32.45 32.45 0 0 0 5.07-1 28.08 28.08 0 0 0 4.8-1.91 25.79 25.79 0 0 0 7.95-6.31 42.35 42.35 0 0 1-8.6 4.89 34.66 34.66 0 0 1-9.43 2.34Z"/><path fill="#ff838e" d="M2618.8 859.36c-7.48 2.76-11.69 10-9.4 16.2s10.2 9 17.68 6.2 11.69-10 9.41-16.21-10.21-8.96-17.69-6.19ZM2540.35 864.73c-4.1 2.4-5.08 8.37-2.18 13.34s8.59 7 12.7 4.65 5.08-8.37 2.18-13.34-8.59-7.05-12.7-4.65Z"/><path fill="#010101" d="M2685.86 717.38C2633 700 2591.47 711.8 2573.6 715s-65.2-8.8-75.86 16.82c-10.29 24.74 11.14 105 106.67 56.85a70.75 70.75 0 0 0 13.85-9.44c5-4.24 18.32 37.34 30.67 62.75 17.65 36.3 21.08-5.27 37.56-15s-19.72 72.09-19.48 80c66.23-37.37 71.68-172.21 18.85-189.6Z"/><path d="M2686 716.9c-47.25-15.56-85.42-7.83-105.92-3.68-2.5.51-4.66.95-6.59 1.29-4.94.89-12.08.6-20.34.27-21.42-.86-48.08-1.93-55.89 16.86-2.89 6.94-3.19 17.39-.8 28 2.75 12.22 8.83 23.19 17.11 30.89 14.17 13.17 41.46 23.63 91-1.35a70.57 70.57 0 0 0 13.94-9.51.67.67 0 0 1 .64-.16c3.28.8 9.87 17 16.25 32.59 4.26 10.42 8.65 21.19 13 30.15 4.87 10 9 14.76 12.85 14.89 4.55.16 8-5.85 12-12.8 3.66-6.36 7.8-13.56 13.41-16.86 1.3-.77 2.23-.93 2.76-.49 3.94 3.28-7.17 33.74-14.52 53.9-4.79 13.12-8.57 23.48-8.49 26.19v.84l.72-.42c19.06-10.76 34.31-30.14 44.12-56.06a169 169 0 0 0 10-73.82c-3.08-32.26-15.95-54.37-35.25-60.72Zm24.43 134.1c-9.59 25.32-24.39 44.33-42.84 55.07.58-3.62 4.2-13.57 8.35-24.91 10.6-29.06 18.38-51.57 14.21-55a2 2 0 0 0-1.36-.47 5.22 5.22 0 0 0-2.55.87c-5.84 3.44-10 10.76-13.77 17.22-3.84 6.68-7.18 12.47-11.11 12.3-3.43-.12-7.35-4.8-12-14.32-4.33-8.93-8.73-19.69-13-30.09-8.17-20-13.35-32.31-16.95-33.19a1.66 1.66 0 0 0-1.53.37 69.72 69.72 0 0 1-13.75 9.37l.23.45-.23-.45c-49.07 24.73-76 14.48-89.9 1.52-12.07-11.22-24-38.61-16.07-57.72 7.54-18.14 33.81-17.09 54.92-16.24 8.32.33 15.51.62 20.56-.29 1.93-.34 4.1-.78 6.61-1.29 20.41-4.13 58.41-11.83 105.41 3.65 18.88 6.22 31.5 28 34.63 59.82a168.08 168.08 0 0 1-9.86 73.33Z"/><path fill="#feb8ac" d="M2721.32 835.38c-10.54-14.31-33.51-18.59-47.57-7.2-2.84 2.3-6.68 6.16-7.57 9.92 0 0-5.82 24.82 4.76 41.16 11.6 4.78 25.49 8 37.62 3.21 11.12-4.44 17.64-15.41 18.21-27.11a33.93 33.93 0 0 0-2.66-15.12 25.2 25.2 0 0 0-2.79-4.86Z"/><path d="M2685.81 848.53a21.29 21.29 0 0 1 2.85-2.4 34.93 34.93 0 0 1 6.71-3.64 53.69 53.69 0 0 1 7.48-2.46 28.2 28.2 0 0 0-8 .85 27.45 27.45 0 0 0-7.61 3.07 24.5 24.5 0 0 0-3.38 2.49 19.51 19.51 0 0 0-2.83 3.18 18.57 18.57 0 0 0-3.23 7.85l-.55 3.11 2.67-1.6a24.51 24.51 0 0 1 4.28-1.92c1.5-.56 3.07-1 4.65-1.47s3.17-.86 4.78-1.28l4.85-1.19a44.43 44.43 0 0 0-5 0c-1.68.07-3.35.26-5 .48a46.12 46.12 0 0 0-5 1c-.66.19-1.32.4-2 .62a19.63 19.63 0 0 0-.81 2.74l-2.12-1.51a22.26 22.26 0 0 1 2.93-1.23 18.22 18.22 0 0 1 2-3.93 17 17 0 0 1 2.33-2.76Z"/><path d="M2680.62 858a19.63 19.63 0 0 1 .81-2.74 22.26 22.26 0 0 0-2.93 1.23ZM2566.23 850.94h-45.91l-.18.77c-.1.4-2.26 9.83 3.19 16.84 3.58 4.61 9.56 7 17.78 7.15h.71c8 0 14.15-2.26 18.4-6.73 6.65-7 6.1-16.7 6.07-17.11Zm-7.45 16.66c-4 4.18-9.91 6.24-17.64 6.1-7.57-.12-13-2.27-16.23-6.37-4-5.16-3.34-12.1-3-14.39h42.37c-.02 2.5-.6 9.51-5.5 14.66ZM2620 850.94h-45.92l-.18.77c-.09.4-2.25 9.83 3.19 16.84 3.59 4.61 9.57 7 17.79 7.15h.71c8 0 14.15-2.26 18.4-6.73 6.64-7 6.09-16.7 6.07-17.11Zm-7.46 16.66c-4 4.18-9.9 6.23-17.63 6.1-7.57-.12-13-2.27-16.23-6.37-4-5.16-3.34-12.1-3-14.39h42.36c-.04 2.5-.58 9.51-5.49 14.66Z"/><path d="m2563.14 861 .75 1.85c.06 0 5.68-2.22 10.81.35l.89-1.79c-5.95-2.97-12.18-.5-12.45-.41Z"/><path fill="#272727" d="M2614.5 1427.45c33.38 172.68 103.75 189.1 103.75 189.1 7.41-72.55-56.36-173.85-103.75-189.1Z"/><path d="m2614.65 1427-.81-.26.16.84c17.27 89.31 44.61 136 64.5 159.53 21.63 25.52 39.45 29.92 39.63 30l.56.13.06-.57c3.42-33.43-8-75.83-31.39-116.33-21.8-37.87-49.66-65.95-72.71-73.34Zm103.15 188.9c-3.16-1-19.33-6.77-38.61-29.57-35.65-42.15-54.48-109.08-64-158.13 47.7 16.28 109.44 116.98 102.61 187.7Z"/><path fill="#feb8ac" d="M2510 1372.82c-12.76-11.38-52.84 9.62-14.07 46.1s68.8 12.87 68.8 12.87c-.43-.17-42.01-47.59-54.73-58.97Z"/><g opacity=".09"><path d="M2461.73 1408.22c-24.21-.77-72.45 7.1-81.7 23.6-8.24 14.69 3.71 27.4 3.71 27.4s-12 6.12-16.12 18.35c-4.75 14 15.14 27.6 15.14 27.6s-10.83 8.71-13.91 22.08c-3.19 13.88 14.93 30.45 14.93 30.45s-5.57 13.63 0 27.11c3.59 8.72 19.23 17.26 36.37 23.67a205.86 205.86 0 0 0 34.71 9.68c23.86 4.17 95.44-6.37 109.29-7 64 1.91 21.58-156.94 21.58-156.94s-95.24-45.09-124-46Z"/><path d="m2586.15 1453.86-.21-.1c-.24-.11-24.13-11.41-51.23-22.66-36.43-15.14-61-23-73-23.38-13.19-.41-31.48 1.67-46.6 5.33-13.29 3.22-30.25 9-35.56 18.52-7.42 13.23 1.29 25 3.37 27.51-2.44 1.4-12.18 7.56-15.82 18.33-2 5.91 0 12.67 5.89 19.55a54.55 54.55 0 0 0 8.92 8.25c-2.19 1.93-10.89 10.2-13.59 21.93-3.05 13.26 12.54 28.55 14.83 30.7-.8 2.18-5 14.81.11 27.17 4.34 10.53 24.83 19.52 36.66 23.94a208.07 208.07 0 0 0 34.8 9.71 93.47 93.47 0 0 0 15.33 1c20.69 0 50.89-3.39 72.53-5.82 10-1.11 17.81-2 21.52-2.17 10 .29 18-3.3 23.83-10.67 27.68-34.94-1.46-145.79-1.76-146.9Zm1 146.5c-5.64 7.12-13.39 10.59-23 10.29-3.73.17-11.61 1-21.6 2.17-28 3.14-70.19 7.87-87.58 4.84a207.81 207.81 0 0 1-34.61-9.67c-19.87-7.42-33-16-36.09-23.38-5.41-13.13 0-26.6 0-26.73l.13-.33-.26-.23c-.18-.17-17.86-16.54-14.78-30 3-13 13.63-21.72 13.74-21.8l.53-.43-.56-.38c-.2-.14-19.53-13.53-15-27 4-11.89 15.76-18 15.87-18.06l.6-.31-.46-.49c-.12-.12-11.61-12.6-3.64-26.81 8.84-15.76 54.32-23.38 78.14-23.38h3.11c27.67.87 118.52 43.46 123.58 45.84 1.5 5.73 28.73 112.07 1.91 145.86Z"/></g><path fill="#dcdcdc" d="M2475 1401.29c-24.21-.77-72.45 7.09-81.7 23.59-8.24 14.69 3.72 27.4 3.72 27.4s-12 6.12-16.13 18.36c-4.75 14 15.15 27.6 15.15 27.6s-10.84 8.71-13.92 22.08c-3.19 13.87 14.93 30.44 14.93 30.44s-5.57 13.63 0 27.12c3.59 8.71 19.23 17.25 36.37 23.66a206.22 206.22 0 0 0 34.71 9.69c23.86 4.17 95.44-6.37 109.29-7 64 1.91 21.59-156.94 21.59-156.94s-95.21-45.09-124.01-46Z"/><path d="m2599.46 1446.92-.21-.1c-.24-.11-24.13-11.4-51.23-22.66-36.43-15.13-61-23-73-23.38-13.19-.41-31.48 1.68-46.6 5.34-13.29 3.22-30.25 9-35.56 18.51-7.42 13.23 1.3 25 3.37 27.51-2.44 1.4-12.17 7.57-15.82 18.33-2 5.91 0 12.67 5.89 19.55a55 55 0 0 0 8.92 8.25c-2.19 1.93-10.89 10.21-13.59 21.93-3.05 13.27 12.54 28.55 14.83 30.7-.8 2.18-5 14.81.11 27.17 4.34 10.53 24.83 19.52 36.66 23.94a209.1 209.1 0 0 0 34.8 9.72 94.74 94.74 0 0 0 15.33 1c20.69 0 50.89-3.38 72.54-5.81 9.94-1.12 17.81-2 21.51-2.17 10 .29 18-3.3 23.83-10.68 27.68-34.94-1.46-145.79-1.76-146.9Zm1 146.5c-5.64 7.12-13.39 10.59-23 10.3-3.73.17-11.61 1-21.6 2.17-28 3.14-70.18 7.88-87.57 4.84a206.61 206.61 0 0 1-34.62-9.66c-27.21-10.17-34.29-19-36.09-23.39-5.41-13.12 0-26.59 0-26.73l.13-.32-.26-.24c-.18-.16-17.86-16.54-14.77-30 3-13 13.63-21.71 13.73-21.8l.53-.43-.56-.38c-.2-.13-19.53-13.52-15-27 4-11.89 15.76-18 15.87-18.07l.6-.31-.46-.49c-.11-.12-11.61-12.6-3.64-26.8 8.84-15.76 54.32-23.39 78.14-23.39h3.11c27.67.88 118.52 43.47 123.58 45.84 1.5 5.73 28.68 112.07 1.91 145.86Z"/><path fill="#c1c1c1" d="M2476.84 1448.37c-26.22-1.12-52.34-3.72-78.28 1.64a.64.64 0 0 0 .1 1.26c26.06.37 52.07-3.4 78.13-2a.46.46 0 0 0 .05-.9Z"/><path d="M2476.86 1447.87q-6.21-.27-12.41-.61c-21.67-1.11-44.08-2.27-66 2.26a1.13 1.13 0 0 0-.88 1.23 1.08 1.08 0 0 0 1.08 1h3.68c10.4 0 20.9-.59 31.08-1.17 14.21-.8 28.9-1.63 43.35-.85a.91.91 0 0 0 .84-.41 1 1 0 0 0 .05-1 .88.88 0 0 0-.79-.45Zm-43.5 1.75c-11.37.65-23.13 1.31-34.69 1.14 0 0-.08 0-.09-.1s0-.14.08-.15a178.87 178.87 0 0 1 36.3-3.25c9.88 0 19.74.51 29.44 1l4.3.22c-11.85-.19-23.76.52-35.34 1.14Z"/><path fill="#c1c1c1" d="M2472.09 1504.61c-12.62-2.26-25.3-4.15-38-5.76q-9.52-1.2-19.09-2.09c-5.92-.55-12.15-1.47-18.06-.43a.91.91 0 0 0-.08 1.75c5.74 1.71 12 1.63 18 2q9.57.63 19.13 1.41c12.73 1 25.42 2.42 38.1 4 .54.1.56-.78 0-.88Z"/><path d="M2472.18 1504.11c-12-2.16-24.84-4.09-38-5.76-6.51-.82-12.93-1.52-19.1-2.09l-2.65-.27c-5.13-.51-10.44-1-15.54-.16a1.35 1.35 0 0 0-1.11 1.29 1.39 1.39 0 0 0 1 1.45c4.58 1.36 9.51 1.6 14.27 1.83 1.28.07 2.55.13 3.81.21 6.87.46 13.12.92 19.11 1.41 11.6 1 24.06 2.26 38.09 4h.13a.88.88 0 0 0 .88-.76 1 1 0 0 0-.89-1.15ZM2434 1501c-6-.5-12.26-1-19.13-1.42-1.27-.08-2.55-.14-3.83-.21-4.7-.22-9.57-.46-14-1.79-.26-.08-.25-.38-.25-.42a.36.36 0 0 1 .28-.35c5-.87 10.2-.34 15.27.17l2.65.26c6.16.57 12.58 1.28 19.08 2.09 12.45 1.57 24.54 3.39 36 5.41-13.26-1.6-25.07-2.82-36.07-3.74Z"/><path fill="#c1c1c1" d="M2466 1558.83c-11.62-1.17-23.19-2.73-34.76-4.31q-8.68-1.17-17.35-2.45c-5.09-.75-11.14-2.36-16.23-1.26a.32.32 0 0 0-.11.58c4.45 2.39 10.67 2.54 15.59 3.11q8.68 1 17.37 1.91c11.81 1.23 23.63 2.2 35.45 3.33.55.05.59-.85.04-.91Z"/><path d="M2466 1558.33c-11.8-1.19-23.46-2.77-34.74-4.31-5.65-.77-11.49-1.59-17.34-2.45-1.09-.16-2.21-.36-3.36-.56-4.2-.74-8.95-1.58-13.06-.69a.84.84 0 0 0-.64.7.81.81 0 0 0 .4.82c3.73 2 8.63 2.47 13 2.88 1 .09 1.91.18 2.81.28 5.73.67 11.58 1.31 17.38 1.91 7.36.77 14.85 1.45 22.09 2.1q6.67.6 13.36 1.23h.09a.92.92 0 0 0 .92-.85 1 1 0 0 0-.91-1.06Zm-13.41-.32c-7.24-.66-14.72-1.33-22.07-2.1-5.8-.61-11.65-1.25-17.37-1.91l-2.83-.29c-4-.38-8.59-.82-12.08-2.51 3.79-.67 8 .08 12.14.8 1.16.2 2.3.4 3.39.57 5.86.86 11.7 1.68 17.35 2.45 9.17 1.25 18.6 2.53 28.13 3.59Z"/><path fill="#dcdcdc" d="M2591.39 1449.25s-48.93 97.27-36.88 157.3c82.47-.77 170.71-33.58 170.71-33.58l-55.7-151.53Z"/><path d="m2591 1448.84-.09.18a482.48 482.48 0 0 0-23 56.21c-9.81 29.09-20.18 70.3-13.94 101.42l.09.41h.41c81.62-.76 170-33.28 170.88-33.61l.47-.17-56-152.47ZM2554.92 1606c-6-30.85 4.26-71.63 14-100.48a485.24 485.24 0 0 1 22.85-55.9l77.46-27.57 55.36 150.58c-7.11 2.61-91.44 32.58-169.67 33.37Z"/><path fill="#0a133c" d="M2906.18 1037.93c-59.35 4.94-93.15 218.87-131 311.79s-132.25 65.37-160.68 77.73c16.05 5.73 34.2 36.68 51.51 72.92 20 42 39 91 52.24 116.18 95.19-1.24 294.25-50.7 325.17-262.12 14.12-96.6-13.31-171-47.29-223.32-40.36-62.19-89.95-93.18-89.95-93.18Z"/><path fill="#272727" d="M2579.15 1634.75s66.85-27.43 72.27-203.22c-44.36 22.61-91.16 132.8-72.27 203.22Z"/><path d="M2591.1 1515c-16.61 43.71-21.14 87.39-12.44 119.85l.15.55.53-.21c.17-.07 17.07-7.25 34.34-35.9 28.81-47.75 36.7-117.59 38.24-167.78v-.85l-.76.39c-21.54 11.02-44.57 43.19-60.06 83.95Zm21.79 83.66c-15.4 25.58-30.44 33.89-33.41 35.35-18-68.73 26.88-178 71.41-201.67-2.89 90.1-22.25 140.18-38 166.35Z"/><path fill="#c1c1c1" d="M2754.9 1477.87c-11.72 19-4.07 46.38 9.39 64.21 17.43-6.31 36.65-1.94 54.88 1.45s38.46 5.39 54-4.7a40 40 0 0 0 16.68-22.83c-26.06-20.57-51-43-77.1-63.52-17.51-13.83-46.14 6.38-57.85 25.39Z"/><path d="M2851.64 1483.85c-12.55-10.56-25.53-21.47-38.56-31.76-5.2-4.11-11.6-5.53-19-4.22-15.68 2.78-31.79 17.06-39.6 29.74-5.5 8.91-7.16 20.29-4.81 32.9a77.59 77.59 0 0 0 14.22 31.88l.23.29.35-.12c16.07-5.82 33.7-2.49 50.74.74l3.87.73a138.79 138.79 0 0 0 25.13 2.75c10.41 0 20.58-1.89 29.27-7.52a40.59 40.59 0 0 0 16.88-23.13l.09-.32-.26-.21c-13.03-10.28-26.01-21.19-38.55-31.75Zm21.28 54.56c-15.45 10-35.79 8-53.66 4.63l-3.87-.73c-10.32-2-20.84-4-31.15-4a58.78 58.78 0 0 0-19.78 3.12c-18.14-24.26-17.47-49.81-9.13-63.34 7.69-12.49 23.53-26.55 38.92-29.27 7.11-1.26 13.24.09 18.2 4 13 10.28 26 21.19 38.54 31.75s25.35 21.33 38.3 31.56a39.58 39.58 0 0 1-16.37 22.28Z"/><path fill="#dcdcdc" d="M2787.91 1432.85a37.23 37.23 0 0 0-30-12.08c-29.15 2-58.22 6.12-85.75 15.47-3 1-6.06 2.14-9.06 3.3-35.73 13.89-71.27 36.57-90.38 69.8-15.09 26.23-16.48 60.27-2 86.83s45 44 75.1 41.38a78.22 78.22 0 0 0 14.48-2.69c19.39-5.45 37.6-17.68 52.69-30.71 13.19 7.49 21.48 14.38 34.09 22.82 7.9 5.28 18.31 6.59 23-4.61-8.81-14-17.53-28.1-26.34-42.08l36.64 33.4c4.9 4.46 10.12 9.08 16.6 10.5s16.12-2 17.5-8.49q-6.32-16.26-12.62-32.51c5.16 2 9.39 5.84 13.64 9.4s8.9 7 14.33 8.14a13.24 13.24 0 0 0 14-6.74c-4-9.78-7.17-19-11.14-28.83a20 20 0 0 0 14.39 9.51c5.9.77 10.63-3.07 14.88-7.24q-10.41-27.68-20.85-55.34c-11.39-30.08-31.47-55.4-53.2-79.23Z"/><path d="M2841.53 1511.9c-11.86-31.49-33.57-57.81-53.24-79.4a37.57 37.57 0 0 0-30.44-12.24c-34.36 2.35-61.64 7.27-85.88 15.5-3.24 1.12-6.21 2.2-9.08 3.31-53.61 20.84-78.88 49.58-90.63 70-15.48 26.9-16.27 61.18-2 87.32 13.8 25.31 41.76 41.91 69.56 41.91 2 0 4-.08 6-.26a81 81 0 0 0 14.57-2.71c16.83-4.74 34.53-15 52.61-30.58a245.31 245.31 0 0 1 21.89 14.37c3.7 2.63 7.52 5.35 11.86 8.25 5.33 3.56 10.93 4.84 15.38 3.5 3.7-1.12 6.51-3.92 8.36-8.33l.1-.25-.14-.22q-6.61-10.5-13.2-21.08-5.58-8.94-11.16-17.85l15.9 14.5 18 16.39c4.48 4.08 10.05 9.14 16.83 10.62a18.86 18.86 0 0 0 13.33-2.57 10.21 10.21 0 0 0 4.77-6.31v-.15l-12.25-31.53c4.14 1.89 7.74 4.92 11.23 7.86l1.19 1c4 3.36 8.84 7 14.55 8.25a13.78 13.78 0 0 0 14.54-7l.1-.21-.08-.22c-2-4.87-3.81-9.71-5.57-14.39-1.32-3.53-2.68-7.14-4.12-10.8a20.64 20.64 0 0 0 12.41 6.57c6 .8 10.91-3.08 15.29-7.38l.24-.23-.12-.3q-10.33-27.68-20.8-55.34Zm5.57 62.26a19.58 19.58 0 0 1-14-9.26l-.91.44c2 4.89 3.81 9.72 5.57 14.4s3.53 9.39 5.48 14.21a12.74 12.74 0 0 1-13.32 6.28c-5.49-1.15-10.16-4.75-14.11-8l-1.19-1c-3.85-3.25-7.84-6.6-12.6-8.49l-1.07-.43 13 33.45a9.28 9.28 0 0 1-4.3 5.52 17.79 17.79 0 0 1-12.57 2.43c-6.51-1.42-11.74-6.17-16.36-10.37l-18-16.4-18.65-17-2.75-2.51 2 3.15q6.6 10.47 13.14 21t13.07 20.87c-1.73 4-4.29 6.5-7.62 7.51-4.16 1.25-9.45 0-14.53-3.37-4.33-2.9-8.14-5.61-11.83-8.23a244.56 244.56 0 0 0-22.3-14.61l-.31-.17-.26.23c-18.06 15.59-35.72 25.89-52.5 30.6a78.77 78.77 0 0 1-14.38 2.68c-29.32 2.59-60-14.32-74.62-41.12-14.09-25.84-13.31-59.73 2-86.34 11.67-20.3 36.79-48.85 90.13-69.58 2.85-1.1 5.81-2.18 9-3.29 24.14-8.2 51.35-13.11 85.61-15.45.85-.06 1.7-.08 2.54-.08a36.48 36.48 0 0 1 27.09 12c19.61 21.51 41.25 47.73 53.05 79.07q10.38 27.52 20.73 55c-4.77 4.62-9.03 7.54-14.23 6.86Z"/><path d="M2711.38 1535.67a.51.51 0 0 0-.8.62l49.33 62.9a.49.49 0 0 0 .39.2.56.56 0 0 0 .32-.11.51.51 0 0 0 .08-.71ZM2719.36 1608.44l-31.05-18.66a.51.51 0 0 0-.69.18.49.49 0 0 0 .17.69l31.05 18.65a.48.48 0 0 0 .26.07.51.51 0 0 0 .44-.24.51.51 0 0 0-.18-.69ZM2742 1494.56a.51.51 0 0 0-.83.58l63.57 89.69a.52.52 0 0 0 .42.22.46.46 0 0 0 .29-.1.51.51 0 0 0 .12-.7ZM2768.94 1456.25a.5.5 0 0 0-.69-.17.49.49 0 0 0-.17.69l67.86 112.54a.51.51 0 0 0 .44.25.56.56 0 0 0 .26-.08.51.51 0 0 0 .17-.69Z"/><g opacity=".13"><path d="M2480.4 1380.41c-52.18-85.7-15.57-347.06-74.94-342.48 0 0-118.91 42-178 161.9-27.59 56-40.42 134.9-11.08 228 64.23 203.79 268.63 220.86 362.81 206.91 1.89-5.62 3.85-12.31 5.91-19.78 7.8-28.35 16.77-67.93 27.14-103.24 6.65-22.71 13.9-43.64 21.78-58.7 5.5-10.49 11.3-18.13 17.44-21.5-30.08-7.66-118.91 34.59-171.06-51.11Z"/><path d="M2617.94 1432c-19.91 2.31-44.69 5.18-69.16-.47-28.71-6.61-50.93-23.42-68-51.39-24.45-40.16-29.44-120.34-33.84-191.09-4.33-69.67-8.07-129.83-27.77-147a18.21 18.21 0 0 0-13.8-4.67h-.13c-.3.11-30.21 10.82-67 36-33.92 23.29-80.77 64.08-111.36 126.11-15.08 30.56-24.14 64.29-26.94 100.25-3.23 41.44 2.1 84.55 15.83 128.13 15 47.67 38.8 88.2 70.66 120.47 27.45 27.78 61 49.64 99.81 65 51.73 20.42 102.42 25.44 139.75 25.44a370.81 370.81 0 0 0 53.14-3.61h.31l.1-.3c1.73-5.15 3.67-11.63 5.91-19.8 3.14-11.39 6.46-24.61 10-38.6 5.13-20.4 10.95-43.52 17.15-64.64 7.66-26.11 14.77-45.28 21.75-58.6 5.78-11 11.58-18.19 17.23-21.3l1.12-.62-1.23-.31c-7.78-2-19.71-.59-33.53 1Zm15.59 20.79c-7 13.38-14.14 32.61-21.82 58.79-6.21 21.14-12 44.27-17.16 64.67-3.52 14-6.85 27.2-10 38.58-2.2 8-4.1 14.37-5.8 19.46-23.83 3.49-106.54 12-192.07-21.82-38.65-15.27-72.12-37-99.46-64.73-31.75-32.15-55.44-72.55-70.42-120.06-13.69-43.46-19-86.44-15.79-127.75 2.79-35.83 11.82-69.44 26.84-99.89 30.49-61.82 77.19-102.48 111-125.7 35.84-24.61 65.15-35.36 66.69-35.92a17 17 0 0 1 13 4.43c19.37 16.85 23.28 79.71 27.42 146.26 4.41 70.87 9.4 151.19 34 191.56 27.81 45.69 66.31 55.13 100.44 55.13 13.55 0 26.42-1.49 37.66-2.79 13-1.51 24.33-2.82 32-1.28-5.52 3.51-10.94 10.42-16.53 21.07Z"/></g><g opacity=".09"><path d="m2652.35 967.15-66.55 41.36-14.62-33.51h-.13c-5.29 1-24 .69-29.34 2 0 0-1 .25-7.21 2l24.5 78.6 25.78-37.09s26.66 36.26 28.33 37.08c1.42.68 72.33-71.46 93.17-91.9-2.16-.24-6.07-.74-8.25-1-13.5-1.29-31.3 2.48-45.68 2.46Z"/><path d="M2703.16 964.82c-1.81-.22-3.75-.46-5.07-.59-7.83-.77-17.17.17-26.21 1.07-6.61.67-13.44 1.34-19.54 1.34h-.15l-66.19 41.14-14.52-33.37-.55.05c-2.45.49-7.83.67-13.52.85-6.37.22-12.95.43-15.84 1.12 0 0-1.08.28-7.23 2l-.5.15 25 80.12 26-37.35c5.29 7.19 26.45 35.86 28.1 36.67.53.25 1 .46 21.3-19.65 11.79-11.65 27.15-27.06 40.7-40.65 12.87-12.91 25-25.11 31.75-31.7l.76-.74-1.06-.12Zm-29 32.21c-24.41 24.49-57.65 57.84-61 60-2.16-2-17.75-22.86-28-36.81l-.41-.56-25.59 36.81-24.06-77.17c5.68-1.62 6.7-1.88 6.7-1.88 2.79-.66 9.32-.88 15.63-1.09a127 127 0 0 0 13.42-.82l14.68 33.75 66.92-41.6c6.09 0 12.9-.68 19.49-1.34 9-.9 18.29-1.83 26-1.07 1.31.13 3.25.36 5.05.58l2.14.25c-6.8 6.73-18.54 18.51-30.94 30.92Z"/></g><path fill="#fff" d="m2652.35 962.24-66.55 41.37-14.62-33.61h-.13q-7.93 1.56-16 3.46-9.21 2.19-18.55 4.85l22.52 70.34 26.28-38.41s26.15 37.59 27.82 38.4c1.41.69 66.76-63.23 87.61-83.67q-3.24-.36-6.52-.69a453.698 453.698 0 0 0-41.86-2.04Z"/><ellipse cx="1684.62" cy="2484" fill="#c0623e" rx="328.44" ry="52.69"/><path fill="#d04262" d="m1918.28 2149.15-391.44-6.28a55.88 55.88 0 0 0-56.32 48.62l-34.28 261a36.94 36.94 0 0 0 36 41.74l446.46 7.17a38.69 38.69 0 0 0 39.3-38.1l4.31-268.63a44.8 44.8 0 0 0-44.03-45.52Z"/><path fill="#424242" d="M1926.15 2150c-7.79 2.8-25.4 17.21-30.81 89.49-7 93.81-30.58 183.67-36.63 216.72s35.18 44.77 60 45.17a38.69 38.69 0 0 0 39.29-38.08l4.31-268.63a44.79 44.79 0 0 0-36.16-44.67Z"/><path d="M1926.25 2149.49h-.14l-.13.05c-4.25 1.53-10.58 6.06-16.58 19-7.31 15.68-12.21 39.56-14.57 71-5.43 72.51-20.93 143.57-30.2 186-2.82 12.93-5.05 23.14-6.42 30.64-1.76 9.61.31 18.1 6.15 25.22 11.29 13.77 35.44 20.24 54.37 20.54h.64a39.25 39.25 0 0 0 39.18-38.57l4.31-268.63a45.22 45.22 0 0 0-36.61-45.25Zm31.29 313.8a38.21 38.21 0 0 1-38.8 37.57c-18.69-.3-42.52-6.65-53.6-20.17-5.64-6.88-7.64-15.09-5.94-24.4 1.38-7.48 3.6-17.69 6.42-30.6 9.27-42.49 24.78-113.6 30.22-186.18 5.4-72 22.92-86.23 30.36-89a44.21 44.21 0 0 1 35.65 44.15Z"/><path fill="#ac4262" d="m1471.21 2193.16-25.35 193.08c100.25 2.5 305.6 7.21 355.48 5.16 66.67-2.73 69.67-71.21 73.94-132.06s27-110.44 27-110.44l-372.89-6a57.79 57.79 0 0 0-58.18 50.26Z"/><path fill="#ff4262" d="M1470.52 2191.49 1446 2378.28c97 2.42 295.66 7 343.92 5 64.5-2.64 67.4-68.9 71.53-127.76s26.16-106.85 26.16-106.85l-360.75-5.79a55.88 55.88 0 0 0-56.34 48.61Z"/><path fill="#b24262" d="m1768.16 2085.83-113.1-1.82c-35.14-.56-44.92 60.9-44.92 60.9s6.6-.6 26.37-.28c-1.75-28.08 18.23-40.85 18.23-40.85s89-3 101 2.72 12.53 40.95 12.53 40.95l25.25.41c.94-58.09-25.36-62.03-25.36-62.03Z"/><path fill="#e84262" d="m1768.16 2085.83-113.1-1.82c-17.57-.28-28.8 14.94-35.64 30.24 27.52-37 114.52-14.13 132.89-8.79a15.77 15.77 0 0 1 3.43 1c12 5.68 12.53 40.95 12.53 40.95l25.25.41c.94-58.05-25.36-61.99-25.36-61.99Z"/><path fill="#fff" d="M1733.36 2322.64h-.24a11.75 11.75 0 0 0-11.83 10.12l-10.23 72.87a11.77 11.77 0 0 0 11.46 13.4h.24a11.76 11.76 0 0 0 11.83-10.12l10.23-72.88a11.76 11.76 0 0 0-11.46-13.39Z"/><path fill="#fff" d="M1526.84 2142.87a55.88 55.88 0 0 0-56.32 48.62l-34.28 261a36.72 36.72 0 0 0 3.3 20.74c46.09-26.27 115.56-79.79 125.08-167.21 14.4-132.36 113.06-160 113.06-160l-4-.77Z" opacity=".26"/><path fill="#fff" d="M1519.79 2319.21h-.24a11.76 11.76 0 0 0-11.84 10.12l-10.22 72.87a11.77 11.77 0 0 0 11.45 13.4h.24a11.76 11.76 0 0 0 11.84-10.12l10.22-72.88a11.76 11.76 0 0 0-11.45-13.39Z"/><path fill="#8c4262" d="m1500.58 2379.27 24.06.39 1.69-12.06-23.93-.39-1.82 12.06zM1714.2 2382.7l24.06.39 1.69-12.06-23.93-.39-1.82 12.06z"/><path fill="#642739" d="M1761.31 1799.04h1949.12v898.35H1761.31z"/><g opacity=".09"><path d="M1761.31 1777.08h1949.12v97.9H1761.31z"/><path d="M3710.43 1776.57H1761.31a.5.5 0 0 0-.5.51V1875a.5.5 0 0 0 .5.5h1949.12a.5.5 0 0 0 .51-.5v-97.9a.51.51 0 0 0-.51-.53Zm-.5 97.9H1761.82v-96.89h1948.11Z"/></g><path fill="#823b53" d="M1673.83 1605.51h2124.09v193.8H1673.83z"/><path fill="#ffaa01" d="M1837.48 1197h27.73v359.19h-27.73z"/><path fill="#0a133c" d="M2064.29 1210.86h5.94v145.59h-5.94z"/><path fill="#1f3f99" d="M2067.26 1349c-8.07 0-14.61 13.3-14.61 29.71s6.54 29.71 14.61 29.71 14.61-13.3 14.61-29.71-6.55-29.71-14.61-29.71Z"/><g opacity=".09"><path d="M2071.7 1350.43c2.6 5.35 4.21 12.74 4.21 20.89 0 16.4-6.54 29.71-14.6 29.71a8.09 8.09 0 0 1-4.45-1.4c2.66 5.45 6.35 8.83 10.4 8.83 8.07 0 14.61-13.31 14.61-29.72 0-13.26-4.27-24.49-10.17-28.31Z"/><path d="m2072 1350-1.52-1 .79 1.63c2.68 5.52 4.16 12.86 4.16 20.67 0 16.1-6.33 29.2-14.1 29.2a7.59 7.59 0 0 1-4.17-1.31l-1.53-1 .8 1.64c2.86 5.88 6.72 9.11 10.85 9.11 8.33 0 15.11-13.55 15.11-30.22-.02-13.14-4.2-24.72-10.39-28.72Zm-4.72 58c-3.39 0-6.61-2.5-9.19-7.09a8.18 8.18 0 0 0 3.24.67c8.33 0 15.11-13.55 15.11-30.21a51.58 51.58 0 0 0-3.43-19.25c5.07 4.67 8.37 15 8.37 26.67-.02 16.06-6.38 29.21-14.12 29.21Z"/></g><g opacity=".09"><path d="M1837.35 1222.74h11.89v324.4h-11.89z"/><path d="M1836.84 1547.65h12.9v-325.41h-12.9Zm1-324.4h10.88v323.39h-10.88Z"/></g><path fill="#ffbc01" d="M2098.85 1124.61c-6.78-13.82-21.82-22.7-38.39-22.7h-228.08c-16.58 0-31.61 8.89-38.4 22.7l-29.09 59.25c-9 18.26 5.66 38.88 27.56 38.88h308c21.91 0 36.53-20.63 27.56-38.88Z"/><g opacity=".09"><path d="M2097.08 1124.58c-5.12-10.44-15-18.06-26.62-21.16a36.79 36.79 0 0 1 4.33 6.8l29.11 59.26c9 18.25-5.66 38.89-27.58 38.89h-307.94a33.14 33.14 0 0 1-4.39-.29c5 8.51 14.74 14.64 26.67 14.64h308c21.92 0 36.54-20.64 27.56-38.89Z"/><path d="M2097.53 1124.35c-5.11-10.42-14.93-18.23-26.94-21.42l-1.49-.4 1 1.2a36.94 36.94 0 0 1 4.27 6.72l29.11 59.25a24.74 24.74 0 0 1-1.27 24.43c-5.36 8.6-15 13.73-25.86 13.73h-307.97a32 32 0 0 1-4.32-.28l-1-.14.53.89c5.35 9.19 15.74 14.89 27.1 14.89h308c11.18 0 21.17-5.31 26.71-14.21a25.7 25.7 0 0 0 1.3-25.4Zm26.93 84.12c-5.35 8.61-15 13.75-25.85 13.75h-308c-10.63 0-20.38-5.16-25.7-13.52 1.12.11 2.26.17 3.42.17h307.94c11.18 0 21.17-5.31 26.72-14.21a25.72 25.72 0 0 0 1.32-25.4l-29.07-59.26a38.63 38.63 0 0 0-3.44-5.68 40.36 40.36 0 0 1 24.82 20.48l29.1 59.25a24.71 24.71 0 0 1-1.26 24.42Z"/></g><path fill="#ff8001" d="M1956.81 1558.11c-3.7-6.67-11.91-11-21-11H1811.4c-9.05 0-17.26 4.29-21 11l-15.88 28.62c-4.89 8.81 3.09 18.78 15 18.78h168c12 0 19.94-10 15-18.78Z"/><g opacity=".09"><path d="m1791.3 1576.33 15.88-28.61.25-.41c-7.33 1.07-13.65 5-16.75 10.63l-15.89 28.63c-4.89 8.8 3.08 18.77 15 18.77h168.05c8.09 0 14.33-4.56 16-10.24h-167.49c-11.97 0-19.94-9.95-15.05-18.77Z"/><path d="M1791.87 1587.23a10.4 10.4 0 0 1-.13-10.66l15.88-28.6c.07-.12.14-.25.22-.37l.7-1-1.18.17c-7.57 1.1-14 5.17-17.13 10.88l-15.88 28.63a11.47 11.47 0 0 0 .15 11.65c2.86 4.86 8.74 7.88 15.34 7.88h168.05c7.85 0 14.65-4.36 16.52-10.6l.2-.65h-168.26c-6.25.04-11.8-2.79-14.48-7.33Zm166 17.61h-168.03c-6.25 0-11.79-2.83-14.47-7.38a10.36 10.36 0 0 1-.14-10.65l15.89-28.63c2.85-5.17 8.54-8.93 15.34-10.2l-15.6 28.1a11.51 11.51 0 0 0 .14 11.66c2.86 4.85 8.74 7.87 15.35 7.87h166.88c-2.02 5.46-8.23 9.23-15.34 9.23Z"/></g><path fill="#cb3129" d="M2178.21 1498.82c-16.26-31.18-53.54-31.91-76.46-14.92 0 0-30.61-26.54-67.33-4.08-24.52 15-30.5 65.78-4.12 98q.35.43.72.84c13.21 15.63 34.2 26.71 64.62 26.84 74 .31 99.59-54.3 86.94-95.93a61.79 61.79 0 0 0-4.37-10.75Z"/><path fill="#7b1d01" d="M2057.85 1436.31a13.4 13.4 0 0 0-2.56 7.15c43.58 16.77 47.1 53.19 47.1 53.19-1.39-51.25-44.54-60.34-44.54-60.34Z"/><path fill="#019388" d="M2094.11 1474.08c58.5-30 41.72-75.63 41.72-75.63-62.46 34.77-41.72 75.63-41.72 75.63Z"/><path fill="#34cba0" d="M2094.11 1474.08s16.86-59.63 41.72-75.63c0 0-61.77 21.69-41.72 75.63Z"/><g opacity=".09"><path d="M2178.21 1498.82c-30.42 85.73-149.84 76.52-149.84 76.52.64.87 1.29 1.72 1.93 2.53q.35.43.72.84c13.21 15.63 34.2 26.71 64.62 26.84 74 .31 99.59-54.3 86.94-95.93a61.79 61.79 0 0 0-4.37-10.8Z"/><path d="M2178.69 1498.66v-2.82l-1 2.77c-15.63 44.07-55.37 62.43-85.94 70.08a223.43 223.43 0 0 1-63.38 6.11l-1.1-.09.65.89c.64.87 1.3 1.73 1.94 2.54.25.31.49.59.74.86 14.83 17.55 37.31 26.89 65 27h.62c33.28 0 60.19-11.55 75.83-32.55a72.32 72.32 0 0 0 11-64 61.45 61.45 0 0 0-4.36-10.79Zm-7.44 74.2c-15.44 20.74-42.06 32.14-75 32.14h-.61c-27.38-.11-49.59-9.33-64.25-26.67-.24-.26-.47-.53-.69-.82l-1.28-1.64a226.86 226.86 0 0 0 62.58-6.19c19.61-4.9 36.52-12.43 50.26-22.37a100.05 100.05 0 0 0 36-47.26 62.3 62.3 0 0 1 3.81 9.68 71.34 71.34 0 0 1-10.82 63.13Z"/></g><path fill="#2747a0" d="M3361.49 506.05h497.21V868.4h-497.21z"/><path fill="#fcf4e7" d="M3371.73 516.28h476.74v341.88h-476.74z"/><path fill="#2747a0" d="M3371.73 567a50.7 50.7 0 0 0 50.7-50.71h-50.7ZM3848.46 567v-50.72h-50.7a50.71 50.71 0 0 0 50.7 50.72ZM3371.73 807.46v50.7h50.7a50.69 50.69 0 0 0-50.7-50.7ZM3797.76 858.16h50.7v-50.7a50.7 50.7 0 0 0-50.7 50.7Z"/><path fill="#d6bc99" d="M3397.33 679.29h425.53v11.94h-425.53zM3397.33 705.49h425.53v11.94h-425.53zM3397.33 731.69h425.53v11.94h-425.53zM3442.29 799.12h94.52v11.94h-94.52z"/><path fill="#2747a0" d="M3467.85 610.81c0-11.76 15.61-12.72 18.12-2.89h8.34c-1.06-8.68-8.53-14.56-17.21-14.56a17.38 17.38 0 1 0 0 34.75c8.77 0 16-5.83 17.26-14.65H3486c-2.34 9.98-18.15 9.16-18.15-2.65ZM3506.55 614.76h13.83v-8h-13.83v-4.91h14.12v-7.96h-22.22v33.74h22.27v-7.95h-14.17v-4.92zM3537.68 593.89h-13.11v33.74h8.2v-11.42h1.34l7 11.42h8.77v-1.54l-7.23-10.7c10.41-4.97 8.43-21.5-4.97-21.5Zm-.19 14.85h-4.72v-6.94h4.72a3.48 3.48 0 1 1 0 6.94ZM3551.95 601.6h9.11v26.03h8.24V601.6h9.06v-7.71h-26.41v7.71zM3581.64 601.41h5.58v18.85h-5.58v7.37h19.42v-7.37h-5.59v-18.85h5.59v-7.52h-19.42v7.52zM3624.24 607.77h-11.81v-6.02h11.81v-7.86h-20v33.74h8.19v-12.19h11.81v-7.67z"/><path fill="#2747a0" d="M3625.93 620.26h-5.59v7.37h19.42v-7.37h-5.59v-18.85h5.59v-7.52h-13.83v26.37zM3650.79 610.81c0-11.76 15.62-12.72 18.12-2.89h8.34c-1.06-8.68-8.53-14.56-17.2-14.56a17.38 17.38 0 1 0 0 34.75c8.77 0 16-5.83 17.25-14.65h-8.3c-2.4 9.98-18.21 9.16-18.21-2.65ZM3691 593.51l-13.5 34.12h8.82l1.88-5h11.52l1.88 5h9.3l-14-34.12Zm.19 21.49.29-.77 2.51-7.13 2.6 7.32.19.58ZM3709.49 601.6h9.11v26.03h8.24V601.6h9.07v-7.71h-26.42v7.71zM3746.07 614.76h13.84v-8h-13.84v-4.91h14.13v-7.96h-22.22v33.74h22.26v-7.95h-14.17v-4.92z"/><path fill="#d6bc99" d="M3727.45 767.88q-6.93 0-16 5.2a64.18 64.18 0 0 0-10.09 7.07 108.09 108.09 0 0 0-10.4 10.6q-10 11.37-12.34 13.92a55.08 55.08 0 0 1-5 4.88c-2.11 1.82-3.32 2.72-3.66 2.72v-.08a1.33 1.33 0 0 1 .29-.41 81.64 81.64 0 0 0 10.84-15.3 27.54 27.54 0 0 0 3.37-12.55 13 13 0 0 0-3.07-9 10.21 10.21 0 0 0-8-3.44q-8.31 0-16.47 7.94t-8.16 16.07a10 10 0 0 0 2.44 7 8.16 8.16 0 0 0 6.32 2.69q6.14 0 11.91-7t5.57-12.59a5.34 5.34 0 0 0-1.2-3.64 4 4 0 0 0-3.15-1.39 4.64 4.64 0 0 0-3.13 1.12 3.38 3.38 0 0 0-1.32 2.65 1.63 1.63 0 0 0 1.81 1.87 2.31 2.31 0 0 0 1.64-.66 2.06 2.06 0 0 0 .7-1.56c0-1-.44-1.44-1.31-1.44l-.91.12h-.23c-.14 0-.21-.06-.21-.17 0-.32.33-.62 1-.92a4.55 4.55 0 0 1 2-.46 3.48 3.48 0 0 1 2.79 1.24 5.08 5.08 0 0 1 1 3.35q0 4.68-4.39 10.62-6.14 8.29-12.63 8.3a6.85 6.85 0 0 1-5.29-2.11 8.05 8.05 0 0 1-2-5.73 20.16 20.16 0 0 1 2.21-8.67 31 31 0 0 1 5.89-8.4 30 30 0 0 1 7.51-5.61 16 16 0 0 1 7.28-2.17q8 0 8 9.89 0 6.13-3.7 15.32a66.1 66.1 0 0 1-8.87 15.88c-.43.59-.64.89-.64.91s.06.16.17.16a17.79 17.79 0 0 0 3.16-2.1q5.45-4 16.17-16.17 9.09-10.32 12.39-13.54a56.19 56.19 0 0 1 8.34-6.46q10.23-6.58 17.77-6.58a24.58 24.58 0 0 1 2.63.18h.5c.55 0 .82-.24.82-.7s-.75-.85-2.35-.85Z"/><path fill="#ff4262" d="m3349 596.72-4 1.17a4.45 4.45 0 0 1-5.19-2.16c-2.76-5.08-2.74-6.26-7.95-5.78l-18.51 49 18.42-4.55 10.8 15.59 17.8-47.12c-5.44.8-5.66-7.87-11.37-6.15ZM3416.2 595.73a4.47 4.47 0 0 1-5.2 2.16l-3.95-1.17c-6-1.78-6.33 8.49-12.52 5.83l16.33 43.22 10.8-15.59 18.42 4.55-17-44.88c-4.19-.39-4.73 1.91-6.88 5.88Z"/><path fill="#ffbc01" d="M3464.15 507.2a4.47 4.47 0 0 1-.48-4.89l1.92-3.64a4.47 4.47 0 0 0-1.09-5.52l-3.16-2.64a4.46 4.46 0 0 1-1.42-4.7l1.17-3.95a4.47 4.47 0 0 0-2.16-5.19l-3.62-2a4.46 4.46 0 0 1-2.32-4.33l.37-4.09a4.48 4.48 0 0 0-3.12-4.68l-3.94-1.22a4.45 4.45 0 0 1-3.12-3.8l-.43-4.09a4.47 4.47 0 0 0-4-4l-4.1-.43a4.48 4.48 0 0 1-3.8-3.12l-1.22-3.94a4.49 4.49 0 0 0-4.67-3.13l-4.11.38a4.46 4.46 0 0 1-4.33-2.32l-2-3.62a4.45 4.45 0 0 0-5.19-2.16l-3.95 1.17a4.46 4.46 0 0 1-4.7-1.42l-2.64-3.17a4.47 4.47 0 0 0-5.51-1.09l-3.65 1.92a4.48 4.48 0 0 1-4.89-.48l-3.21-2.59a4.46 4.46 0 0 0-5.62 0l-3.2 2.59a4.47 4.47 0 0 1-4.89.48l-3.64-1.92a4.48 4.48 0 0 0-5.52 1.09l-2.64 3.17a4.46 4.46 0 0 1-4.7 1.42l-4-1.17a4.47 4.47 0 0 0-5.2 2.16l-2 3.62a4.46 4.46 0 0 1-4.33 2.32l-4.11-.38a4.48 4.48 0 0 0-4.67 3.13l-1.22 3.94a4.48 4.48 0 0 1-3.8 3.12l-4.1.43a4.47 4.47 0 0 0-4 4l-.44 4.11a4.45 4.45 0 0 1-3.11 3.79l-3.94 1.22a4.47 4.47 0 0 0-3.12 4.67l.37 4.11a4.46 4.46 0 0 1-2.32 4.32l-3.62 2a4.46 4.46 0 0 0-2.15 5.19l1.16 3.95a4.46 4.46 0 0 1-1.42 4.7l-3.17 2.64a4.46 4.46 0 0 0-1.09 5.52l1.92 3.64a4.47 4.47 0 0 1-.48 4.9l-2.59 3.2a4.48 4.48 0 0 0 0 5.62l2.59 3.21a4.46 4.46 0 0 1 .48 4.89l-1.92 3.64a4.46 4.46 0 0 0 1.09 5.52l3.17 2.64a4.46 4.46 0 0 1 1.42 4.7l-1.16 4a4.46 4.46 0 0 0 2.15 5.19l3.62 2a4.46 4.46 0 0 1 2.31 4.33l-.37 4.1a4.49 4.49 0 0 0 3.13 4.68l3.93 1.21a4.47 4.47 0 0 1 3.13 3.8l.43 4.1a4.47 4.47 0 0 0 4 4l4.1.44a4.45 4.45 0 0 1 3.8 3.12l1.22 3.94a4.47 4.47 0 0 0 4.68 3.12l4.1-.37a4.47 4.47 0 0 1 4.33 2.32l2 3.62a4.48 4.48 0 0 0 5.2 2.15l4-1.16a4.44 4.44 0 0 1 4.69 1.42l2.64 3.16a4.47 4.47 0 0 0 5.52 1.09l3.64-1.91a4.45 4.45 0 0 1 4.89.47l3.2 2.59a4.47 4.47 0 0 0 5.62 0l3.21-2.6c3.15-2.54 6.06.4 8.86 1.6a4.47 4.47 0 0 0 5.19-1.25l2.64-3.16a4.46 4.46 0 0 1 4.7-1.42l3.95 1.16a4.46 4.46 0 0 0 5.19-2.15l2-3.62a4.46 4.46 0 0 1 4.33-2.32l4.1.37a4.47 4.47 0 0 0 4.68-3.12l1.22-3.94a4.44 4.44 0 0 1 3.79-3.12l4.1-.44a4.47 4.47 0 0 0 4-4l.43-4.1a4.46 4.46 0 0 1 3.12-3.8l3.93-1.21a4.48 4.48 0 0 0 3.13-4.68l-.37-4.09a4.46 4.46 0 0 1 2.32-4.33l3.62-2a4.48 4.48 0 0 0 2.16-5.2l-1.17-4a4.46 4.46 0 0 1 1.42-4.7l3.16-2.64a4.45 4.45 0 0 0 1.09-5.51l-1.92-3.65a4.47 4.47 0 0 1 .48-4.89l2.6-3.21a4.48 4.48 0 0 0 0-5.62Z"/><path fill="#ff4262" d="M3378 433.38a79.84 79.84 0 1 0 79.84 79.84 79.84 79.84 0 0 0-79.84-79.84Z"/><path fill="#ff4262" d="M3378 433.38a79.84 79.84 0 1 0 79.84 79.84 79.84 79.84 0 0 0-79.84-79.84Z"/><path fill="#fff" d="M3319.73 479.56c-25.85 44.78 6.51 101 58.31 101s84.2-56.12 58.3-101-90.71-44.86-116.61 0Zm58.27 98.29c-49.65 0-80.84-53.88-56-96.94s87.07-43.07 111.94 0-6.18 96.94-55.94 96.94Z"/><path fill="#fff" d="m3394.39 496.06-16.35-33.12-16.35 33.12-36.55 5.31 26.45 25.78-6.24 36.4 32.69-17.18 32.69 17.18-6.24-36.4 26.45-25.78-36.55-5.31z"/><path fill="#642739" d="M3736.88 1456.84h-501.55c-7.45 0-13.49 2.52-13.49 5.66v52.91c0 3.14 6 5.68 13.49 5.68h501.55c7.46 0 13.49-2.54 13.49-5.68v-52.91c0-3.14-6.03-5.66-13.49-5.66Z"/><path fill="#ffbc01" d="M3676.86 1392.58H3360.3c-4.71 0-8.52 2.53-8.52 5.66v52.92c0 3.13 3.81 5.68 8.52 5.68h316.56c4.7 0 8.51-2.55 8.51-5.68v-52.92c0-3.13-3.81-5.66-8.51-5.66Z"/><path fill="#ffa201" d="M3351.78 1452.94c0 2.14 3.82 3.9 8.52 3.9h316.56c4.7 0 8.51-1.76 8.51-3.9v-8h-333.59Z"/><path fill="#7b7b7b" d="M3377.6 1392.58h162.55v64.26H3377.6z"/><path d="M3377.09 1457.34h163.56v-65.26h-163.56Zm1-64.25h161.54v63.24H3378.1Z"/><path fill="#727272" d="M3377.6 1444.95h161.99v11.88H3377.6z"/><path d="M3377.09 1457.34h163v-12.89h-163Zm1-11.88h161v10.87h-161Z"/><path fill="#4c192a" d="M3221 1514.49c0 3.64 6.05 6.6 13.5 6.6h502.34c7.46 0 13.51-3 13.51-6.6V1501H3221Z"/><path fill="#585858" d="M3340.11 1456.84h111.99v64.25h-111.99z"/><path d="M3339.6 1521.59h113v-65.26h-113Zm1-64.25h111v63.24h-111Z"/><path fill="#541d2f" d="M3573.52 1456.84h15.71v64.25h-15.71z"/><path fill="#3b3b3b" d="M3340.11 1500.99h111.99v20.1h-111.99z"/><path d="M3339.6 1521.59h113v-21.11h-113Zm1-20.1h111v19.09h-111Z"/><path fill="#2d0d19" d="M3573.52 1500.99h15.71v20.1h-15.71z"/><path fill="#414141" d="M3674.86 1521.09h-390.52c-5.8 0-10.5 3.33-10.5 7.45v69.52c0 4.11 4.7 7.45 10.5 7.45h390.52c5.8 0 10.51-3.34 10.51-7.45v-69.52c0-4.12-4.71-7.45-10.51-7.45Z"/><path d="M3674.86 1520.58h-390.52c-6.07 0-11 3.57-11 8v69.52c0 4.38 4.94 8 11 8h390.52c6.08 0 11-3.57 11-8v-69.52c.02-4.43-4.92-8-11-8Zm10 77.48c0 3.83-4.49 6.94-10 6.94h-390.52c-5.51 0-10-3.11-10-6.94v-69.52c0-3.83 4.49-7 10-7h390.52c5.52 0 10 3.12 10 7Z"/><path fill="#bc6115" d="M3674.86 1521.09h-390.52c-5.8 0-10.5 3.33-10.5 7.45v69.52c0 4.11 4.7 7.45 10.5 7.45h390.52c5.8 0 10.51-3.34 10.51-7.45v-69.52c0-4.12-4.71-7.45-10.51-7.45Z"/><path fill="#994c13" d="M3274.52 1598.06c0 4.11 4.71 7.45 10.51 7.45h390.53c5.79 0 10.5-3.34 10.5-7.45v-15.25h-411.54Z"/><path fill="#c97231" d="M3601.62 1521.09h15.34v84.42h-15.34z"/><path fill="#aa5b26" d="M3601.62 1582.81h14.87v22.7h-14.87z"/><path fill="#c97231" d="M3310.34 1521.09h121.25v84.42h-121.25z"/><path fill="#aa5b26" d="M3310.34 1582.81h121.25v22.7h-121.25z"/><path fill="#db8a53" d="M3348.1 1521.09h53.72v84.42h-53.72z"/><path fill="#8d8d8d" d="M3348.1 1582.81h53.91v22.7h-53.91z"/><path d="M3347.59 1606h54.92v-23.7h-54.92Zm1-22.7h52.9v21.7h-52.9Z"/><path fill="#929292" d="M3434.6 1392.58h15.34v64.26h-15.34z"/><path d="M3434.09 1457.34h16.35v-65.26h-16.35Zm1-64.25h14.33v63.24h-14.32Z"/><path fill="#929292" d="M3458.68 1392.58h15.34v64.26h-15.34z"/><path d="M3458.17 1457.34h16.35v-65.26h-16.35Zm1-64.25h14.33v63.24h-14.33Z"/><path fill="#828282" d="M3434.6 1444.95h15.34v11.88h-15.34z"/><path d="M3434.09 1457.34h16.35v-12.89h-16.35Zm1-11.88h14.33v10.87h-14.32Z"/><path fill="#828282" d="M3458.68 1444.95h15.34v11.88h-15.34z"/><path d="M3458.17 1457.34h16.35v-12.89h-16.35Zm1-11.88h14.33v10.87h-14.33Z"/><path fill="#0e7f79" d="M3343.76 1571h-352.35a14.33 14.33 0 0 0-13.63 10.88l-6.4 23.6h381.86l4.14-15.28c2.62-9.63-4.19-19.2-13.62-19.2Z"/><path fill="#41bec4" d="M3630 1171.36h-462.71a18.74 18.74 0 0 0-18.29 14.44l-75.12 317.69a18.77 18.77 0 0 0 18.27 23.08h462.73a18.74 18.74 0 0 0 18.26-14.45l4.62-19.56 1.81-7.64 68.69-290.49a18.76 18.76 0 0 0-18.26-23.07Z"/><path fill="#fff" d="M3097.32 1492.56h480.47l1.81-7.64h-482.28v7.64z" opacity=".47"/><path fill="#fff" d="M3391.23 1325.18c-20 0-38 16.21-40.2 36.2s12.22 36.21 32.22 36.21 38-16.21 40.2-36.21-12.22-36.2-32.22-36.2Z" opacity=".47"/><path fill="#199390" d="m3149 1185.8-75.11 317.69a18.76 18.76 0 0 0 18.26 23.08h13.47l80-355.22h-18.33a18.76 18.76 0 0 0-18.29 14.45ZM3305.62 1605.51h46.37l14.03-78.94h-46.36l-14.04 78.94z"/><path fill="#199390" d="M3403.57 1580.68a18 18 0 0 0-16-9.69h-127.12a18.07 18.07 0 0 0-14.72 7.59l-9.5 13.34a8.6 8.6 0 0 0 7 13.59h159.11a8.6 8.6 0 0 0 7.62-12.59Z"/><path fill="#272727" d="M2579.15 1634.75s66.85-27.43 72.27-203.22c-44.36 22.61-91.16 132.8-72.27 203.22Z"/><path d="M2591.1 1515c-16.61 43.71-21.14 87.39-12.44 119.85l.15.55.53-.21c.17-.07 17.07-7.25 34.34-35.9 28.81-47.75 36.7-117.59 38.24-167.78v-.85l-.76.39c-21.54 11.02-44.57 43.19-60.06 83.95Zm21.79 83.66c-15.4 25.58-30.44 33.89-33.41 35.35-18-68.73 26.88-178 71.41-201.67-2.89 90.1-22.25 140.18-38 166.35Z"/><path fill="#ff9995" d="M2754.9 1477.87c-11.72 19-4.07 46.38 9.39 64.21 17.43-6.31 36.65-1.94 54.88 1.45s38.46 5.39 54-4.7a40 40 0 0 0 16.68-22.83c-26.06-20.57-51-43-77.1-63.52-17.51-13.83-46.14 6.38-57.85 25.39Z"/><path fill="#feb8ac" d="M2787.91 1432.85a37.23 37.23 0 0 0-30-12.08c-29.15 2-58.22 6.12-85.75 15.47-3 1-6.06 2.14-9.06 3.3-35.73 13.89-71.27 36.57-90.38 69.8-15.09 26.23-16.48 60.27-2 86.83s45 44 75.1 41.38a78.22 78.22 0 0 0 14.48-2.69c19.39-5.45 37.6-17.68 52.69-30.71 13.19 7.49 21.48 14.38 34.09 22.82 7.9 5.28 18.31 6.59 23-4.61-8.81-14-17.53-28.1-26.34-42.08l36.64 33.4c4.9 4.46 10.12 9.08 16.6 10.5s16.12-2 17.5-8.49q-6.32-16.26-12.62-32.51c5.16 2 9.39 5.84 13.64 9.4s8.9 7 14.33 8.14a13.24 13.24 0 0 0 14-6.74c-4-9.78-7.17-19-11.14-28.83a20 20 0 0 0 14.39 9.51c5.9.77 10.63-3.07 14.88-7.24q-10.41-27.68-20.85-55.34c-11.39-30.08-31.47-55.4-53.2-79.23Z"/><path d="M2711.38 1535.67a.51.51 0 0 0-.8.62l49.33 62.9a.49.49 0 0 0 .39.2.56.56 0 0 0 .32-.11.51.51 0 0 0 .08-.71ZM2719.36 1608.44l-31.05-18.66a.51.51 0 0 0-.69.18.49.49 0 0 0 .17.69l31.05 18.65a.48.48 0 0 0 .26.07.51.51 0 0 0 .44-.24.51.51 0 0 0-.18-.69ZM2742 1494.56a.51.51 0 0 0-.83.58l63.57 89.69a.52.52 0 0 0 .42.22.46.46 0 0 0 .29-.1.51.51 0 0 0 .12-.7ZM2768.94 1456.25a.5.5 0 0 0-.69-.17.49.49 0 0 0-.17.69l67.86 112.54a.51.51 0 0 0 .44.25.56.56 0 0 0 .26-.08.51.51 0 0 0 .17-.69Z"/><path fill="#0a133c" d="M2405.46 1037.93s-118.91 42-178 161.9c-27.59 56-40.42 134.9-11.08 228 64.23 203.79 268.63 220.86 362.81 206.91 1.89-5.62 3.85-12.31 5.91-19.78 7.8-28.35 16.77-67.93 27.14-103.24 6.65-22.71 13.9-43.64 21.78-58.7 5.5-10.49 11.3-18.13 17.44-21.5-30-7.67-93.71 12.82-171-51.12-100.26-82.84-15.63-347.05-75-342.47Z"/><path fill="#009285" d="M1185.07 1955.91v-2.15c-.56-43.07-2.86-86.12-8.57-128.68-10-73.35-30.78-146.26-68.24-208.51-3.15 19.11-13.34 38-19.8 58.24a501.23 501.23 0 0 0-20.14-112.71c-48.22-54-113.46-92.15-183.82-97.24a297.7 297.7 0 0 0-16.22 95.56 507 507 0 0 1 120.53 118.37c-40.18-22-76.72-43.74-116.31-65.69 3.78 21.63 10.17 42.36 19.44 61.06 25 50.53 65.43 90.14 99.65 134.2 2.81 3.68 5.57 7.32 8.25 11a.05.05 0 0 1 0 .05 876.27 876.27 0 0 1 93.48 46.25c-23.69-3-43.76-4-66-6.15a833.49 833.49 0 0 1 43.4 77.68c21.6 43.5 40.15 88.9 57.36 134.94 12.12 32.49 23.56 65.25 34.9 97.81.26.67.51 1.35.77 2.07.2-.81.41-1.66.65-2.47a2.16 2.16 0 0 1 .26-.9c2.07-7.92 4.38-16.07 6.7-24.27 5.79-20.91 11.33-42.54 11.88-63 1.12-41.69 2.3-83.54 1.79-125.27Z"/><path fill="#007285" d="M1185.07 1955.91v-2.15a238.44 238.44 0 0 0-14 22.79c-22.24-102.31-65.32-200.58-125.75-283.9 46.49 94.57 82.19 196.88 101 301.65-22.34-27.84-46.93-48.18-77.36-65.7.65 2.88 1.25 5.7 1.9 8.58 21.6 43.5 40.15 88.9 57.36 134.94 12.12 32.49 23.56 65.25 34.9 97.81.26.67.51 1.35.77 2.07.2-.81.41-1.66.65-2.47a2.16 2.16 0 0 1 .26-.9c2.07-7.92 4.38-16.07 6.7-24.27 5.79-20.91 11.33-42.54 11.88-63 1.12-41.69 2.3-83.54 1.79-125.27Z"/><path fill="#2ecb98" d="M1365.92 1662.65a204.5 204.5 0 0 0-16.11-65.54c-48.91 8.89-92.59 40.48-123.59 81.89a357.63 357.63 0 0 0-8.43 80.28c-5.52-13.64-13.59-26.08-16.75-39.19-23 46.33-33.94 98.85-37.24 150.87-1.87 30.16-1.32 60.42.44 90.56 0 .5.07 1 .09 1.5v.14c1.73 29.19 4.65 58.34 7.52 87.39 1.41 14.24 6.36 28.94 11.45 43.11 2 5.55 4 11.07 5.9 16.45a1.61 1.61 0 0 1 .22.61c.21.54.4 1.12.58 1.67.14-.52.29-1 .43-1.5 6.3-23.61 12.65-47.37 19.5-71 9.72-33.47 20.41-66.6 33.32-98.64a612.43 612.43 0 0 1 26.44-57.56c-15.41 3.2-29.38 5.38-45.78 9.29a645.76 645.76 0 0 1 63-39.4c1.68-2.77 3.43-5.52 5.21-8.31 21.71-33.37 48-64.12 62.92-101.33a162.14 162.14 0 0 0 10.53-44.13c-26.57 18.34-51 36.33-78 54.72a375.7 375.7 0 0 1 78.35-91.88Z"/><path fill="#2ea098" d="M1175.18 1976.38a157.8 157.8 0 0 0-10.94-14.86c0 .5.07 1 .09 1.5v.14c1.73 29.19 4.65 58.34 7.52 87.39 1.41 14.24 6.36 28.94 11.45 43.11 2 5.55 4 11.07 5.9 16.45a1.61 1.61 0 0 1 .22.61c.21.54.4 1.12.58 1.67.14-.52.29-1 .43-1.5 6.3-23.61 12.65-47.37 19.5-71 9.72-33.47 20.41-66.6 33.32-98.64.31-2.06.6-4.08.91-6.13-20.39 14.54-36.56 30.62-50.77 51.77 7.87-74.63 27.69-148.82 55.44-218.43-38.04 62.81-63.23 134.74-73.65 207.92Z"/><path fill="#009285" d="M1177.34 2152.23c-12.73-51.34-35.81-99.72-67-140.35-25.44-33.07-56.74-61.81-93.62-77.33a450 450 0 0 1 26.39 76.25 314.71 314.71 0 0 0-65.77-86.88c-28.54-3.56-58 1.29-82.89 16.54 1 41.09 21.14 79.14 47.7 107.94a262.28 262.28 0 0 0 21.22 20.48 278.17 278.17 0 0 1 118.25 4.56c-28.52 3.78-57.27 11.3-85.13 21 12.18 8.54 24.66 16.61 37.05 24.7 12.08 7.87 24.06 15.85 35.72 24.33 18 13.05 35.25 27.25 50.85 43.92 23.14 24.75 37.2 63.76 45.89 97.61a2.86 2.86 0 0 1 .07.28.91.91 0 0 1 .31.05c4.17.55 10.94 3.05 16 4.29h.06a32 32 0 0 0 3.22.62c.06-.54.14-1.05.2-1.6a2.24 2.24 0 0 0 0-.52c1.16-9 1.93-18.08 2.36-27.13a375.12 375.12 0 0 0-10.88-108.61Z"/><path fill="#007285" d="M1077.55 2049.61c41.18 54.21 72.9 117 93 184.14-2-36.6-11.34-70.24-29.87-100.62s-40.02-57.19-63.13-83.52Z"/><path fill="#009285" d="M1256.12 1902a334.79 334.79 0 0 0-14.42 71.72c-3.57-13-9.46-25.11-11-37.32-24.07 39.38-38.16 85.71-45.63 132.41-4.29 27.1-6.49 54.55-7.64 82 0 .45 0 .91-.06 1.36v.13c-1.09 26.61-1.15 53.31-1.23 79.92 0 13 2.94 26.89 6.09 40.28 1.26 5.25 2.52 10.47 3.65 15.54a1.54 1.54 0 0 1 .14.58c.13.52.24 1.06.35 1.58.17-.46.34-.89.51-1.31 7.55-20.68 15.15-41.47 23.17-62.09 11.39-29.22 23.58-58 37.6-85.59a550.58 550.58 0 0 1 28-49.17c-13.63 1.2-25.92 1.63-40.47 3.35a537.32 537.32 0 0 1 58-28.69c1.7-2.32 3.46-4.62 5.25-6.94 21.75-27.81 47.25-52.72 63.46-84.75a149.35 149.35 0 0 0 13-38.78c-24.63 13.66-47.39 27.24-72.38 40.9a324 324 0 0 1 75.94-74.46 195.8 195.8 0 0 0-8.14-61.1c-43.06 2.67-83.68 26.43-114.19 60.43Z"/><path fill="#007285" d="M1185.56 2165.52a149.27 149.27 0 0 0-8.16-14.65c0 .45 0 .91-.06 1.36v.13c-1.09 26.61-1.15 53.31-1.23 79.92 0 13 2.94 26.89 6.09 40.28 1.26 5.25 2.52 10.47 3.65 15.54a1.54 1.54 0 0 1 .14.58c.13.52.24 1.06.35 1.58.17-.46.34-.89.51-1.31 7.55-20.68 15.15-41.47 23.17-62.09 11.39-29.22 23.58-58 37.6-85.59.46-1.82.88-3.62 1.33-5.45a167.35 167.35 0 0 0-48.55 41.24c13.43-66.67 37.17-131.62 67.37-191.55-38.52 52.63-66.7 114.94-82.21 180.01Z"/><path fill="#2ecb98" d="M1355.65 2154.32c-10.14.29-21.22-1.06-30-1.45-7.5-.32-15-.89-22.51-1.65-5.09-.56-16.06-4.39-20.75-2.8a244.2 244.2 0 0 1 43.22-10.86c-18.35-6.72-38.17-8.07-56.35-3-29.69 8.29-53.12 32.89-66.8 62.07a177.54 177.54 0 0 0-10.24 27.9 254.09 254.09 0 0 0-7.61 39.74c-.51 4.32-.93 8.64-1.28 13-.05.63-.09 1.29-.16 2q-.48 6.66-.78 13.33a35.41 35.41 0 0 1 9.34-1.62l.89-.08a.45.45 0 0 1 .2 0l.88-.08a35.61 35.61 0 0 0 8.91-1.6c16-34.73 47.94-56.74 83.76-64.09 13.77-2.83 28.45-4.11 43.14-5.62q-20.19-18.36-40.4-36.8c3.91 3.56 15.35 4.85 20.39 6.84a213.15 213.15 0 0 1 20.47 9.25c9.18 4.69 19.68 10.13 28.66 16.76 12.69-2.41 24.87-6 35.91-11.94-9.16-19.32-22.54-36.55-38.89-49.3Z"/><path fill="#2ecb98" d="M1137.32 2178.65c-18.26-19.59-42.61-31.15-68.14-35.22a135.67 135.67 0 0 0-32-1.22 158.22 158.22 0 0 0-32.29 6.11c8.73 6.83 16.57 17.91 22.42 27.08a200.32 200.32 0 0 0-44.89-18.87 254.63 254.63 0 0 0-46.76 27 92.55 92.55 0 0 0 66 42.91c26.56 3.75 53.64 1.24 80.29 4.33s54.27 13.1 70.71 36.12c4.37 6.11 7.89 13.06 13.27 18.1a3.73 3.73 0 0 0 .38.33c4.62 4.14 10.57 6.29 16 4.29h.06a11.23 11.23 0 0 0 2.57-1.24c-1.17-4.66-2.36-9.35-3.61-14-9.12-35.19-20.43-70.43-44.01-95.72Z"/><path fill="#2ea098" d="M1130.53 2185.5c-14.24-9.76-30.91-14.08-47.15-8.85 24.4-1 47.32 14.33 62.78 34.82s24.62 45.68 33.09 70.62c-3.23-18.09-9-38.71-16.38-55.24s-18.1-31.59-32.34-41.35ZM1188.15 2277.24c14.46-35.54 38.66-72.93 65-99-34.65 19.25-59.37 56.88-65 99Z"/><path fill="#ffbc01" d="M1037.69 2265c1.26 75.95 9.17 145.18 26.46 204.95h220.14a1010.06 1010.06 0 0 0 26.39-207.33c.14-5.94.21-11.89.28-17.84h-273.4c0 6.82.06 13.54.13 20.22Z"/><g opacity=".09"><path d="M1037.69 2265c55.37 4.41 109.48 6.65 165.4 12-1.33 63.77-3 129-4.41 193h49.91c5.46-15.89 7.49-38.78 9.73-49.56 10-49.55 13.51-100.23 13.65-150.7 12.88-2.38 25.83-4.69 38.71-7.07.14-5.94.21-11.89.28-17.84h-273.4c0 6.77.06 13.49.13 20.17Z"/><path d="M1311 2244.3h-273.4a.51.51 0 0 0-.51.51c0 6.83.07 13.64.14 20.23a.5.5 0 0 0 .46.5c22.9 1.82 46 3.3 68.26 4.73 31.48 2 64 4.1 96.67 7.19-.74 35.39-1.6 71.82-2.43 107.05-.66 28.09-1.35 57.14-2 85.46a.51.51 0 0 0 .14.36.52.52 0 0 0 .36.16h49.91a.51.51 0 0 0 .48-.34c3.78-11 5.9-25.22 7.61-36.66.77-5.16 1.44-9.62 2.14-13 9-44.61 13.48-93.8 13.65-150.38q9.46-1.74 18.94-3.45 9.69-1.77 19.36-3.54a.49.49 0 0 0 .41-.48c.14-6 .21-12 .28-17.86a.54.54 0 0 0-.14-.36.55.55 0 0 0-.33-.12Zm-.78 17.93q-9.45 1.76-19 3.46l-19.35 3.54a.49.49 0 0 0-.41.49c-.16 56.68-4.62 105.94-13.64 150.6-.7 3.37-1.37 7.84-2.15 13-1.68 11.27-3.78 25.27-7.45 36.13h-49c.62-28.16 1.3-57 2-84.95.83-35.38 1.7-72 2.44-107.52a.51.51 0 0 0-.46-.51c-32.81-3.12-65.53-5.22-97.17-7.24-22.14-1.42-45-2.89-67.77-4.69-.07-6.28-.14-12.76-.14-19.26h272.39c-.13 5.58-.2 11.29-.33 16.95Z"/></g><g opacity=".28"><path fill="#fff" d="M1048.26 2292.75c9.1 60 22.19 119.41 42.7 177.23h48q-11.45-88.39-23-176.67c-24.3.63-43.41-1.12-67.7-.56Z"/><path d="M1128 2382q-5.77-44.32-11.53-88.7l-.06-.45h-.45c-12.31.32-23.48 0-34.28-.27-10.53-.28-21.42-.57-33.41-.29h-.57l.09.57c10.14 66.88 24.11 124.88 42.72 177.32l.11.34h48.88l-.07-.57q-5.72-44.05-11.43-87.95Zm-36.66 87.53c-18.47-52.15-32.36-109.8-42.47-176.24 11.73-.25 22.43 0 32.78.31 10.68.29 21.73.58 33.88.28q5.71 44.16 11.47 88.25 5.68 43.68 11.35 87.4Z"/></g><g opacity=".34"><path fill="#fff" d="M1844.59 1932.32h367.17v692.26h-367.17z" opacity=".24"/><path fill="#fff" d="M3259.98 1932.32h367.17v692.26h-367.17z" opacity=".24"/><path fill="#fff" d="M2343.02 1932.32h785.71v692.26h-785.71z" opacity=".24"/></g></g></svg>