<svg xmlns="http://www.w3.org/2000/svg" enable-background="new 0 0 2767.4 2641.2" viewBox="0 0 2767.4 2641.2" width="2767.39990234375" height="2641.199951171875"><path fill="#fed648" fill-rule="evenodd" d="m1042.1 477.1 55.9-193.5s12.9-22.8 25.7-24.8c1.4 1.6 5.3 26.4 4.9 30.7-.4 4.3-55.2 200.8-55.2 200.8s-7 14.2-22.6 4.3c-8.2-4.7-8.7-17.5-8.7-17.5zM1793.4 334.4s4.8-10.5 4.1-15c-.7-4.5-3.5-16.8-2-22.5 1.5-5.7 12.1-89.4 92.3-66.4 26.5 12.6 40.4 35.2 39.4 58.3-1 23.1-11.2 72.7-81.4 70.3-12 7.4-15.5 11.1-15.5 11.1l-36.9-35.8z" clip-rule="evenodd"/><path fill="#edb601" fill-rule="evenodd" d="M1793.5 329.9s-31.3 42.4-31.7 54.2c-.4 11.8 20.9 23 25.8 23.2 5 .2 9.6 1.3 18.5-8s24.1-29 24.1-29l-36.7-40.4z" clip-rule="evenodd"/><path fill="#ffc8a3" fill-rule="evenodd" d="m1626.4 1699-58.7 146.8s74.8 21.1 79.3 27.7c4.5-12.1 42.6-101.2 52.4-142.9-53.8-20.9-73-31.6-73-31.6zM1068.9 1756.1l32.5-20.2 32 13.8s1.4 10.8 2.7 12.1c3.6 4.1 84.2 92.7 84.2 92.7l-66.1 39.2-85.3-137.6z" clip-rule="evenodd"/><path fill="#ddc3a3" d="m1951.4 1352.6-11.9-14.8-100 23.2c-61.6 22.4-126.3 48.2-193.4 78-84 37.3-160.9 76.2-230.9 114.7-7.4 3.9-14.8 7.7-22.2 11.6L1067.3 1722l32.2 13.4 33 13.4 2.8 11.2 97.6 108.6 72.1-57.5 458.3-142.5s201.7-66.9 229.2-142.7c19.3-55.3 16.1-96.4-41.1-173.3z"/><path fill="#ddc3a3" d="m1568.5 1846 59-146.6-1.1-.5 4.1-8.7 7.9-16.9-127.2-58.3-6.2 13.8-487.2-255.1s-29.1 22.2-74.2 5.6c-31.2-13.5-57.6-28.2-57.6-28.2s-65.2 45.6-75.1 110.7c-10 65.1-8.1 105.9 51.8 164.4 52.6 28.8 188.9 88.9 235.4 108.9s319 120.3 319 120.3l-3.1 5.7 13.1 3 112.4 45 28.3-63.4.7.3z"/><path fill="#fff" d="m1708.5 1704.1-9.1 26.4-.8-.3-53 142.4 2.1.7-8.3 22.2s44.6 28.9 58.3 61.3c11.8 20.9 29.7 49.4 36 92.5 0 0 13.6 75.2 2 109.8 24.8 10.9 79 28.7 79 28.7l142.4-397-248.6-86.7z"/><path fill="#454545" d="m1351.3 789.1-4.3-66.9-28-13.5-4.9-11.9-11.6-43.7s-37.8 0-55.1-25.3c-13.4-22-20.6-50.6 5.7-65.6-2.5-7.8-28.6-66.1-12.2-112.6 11.6-25.7 34.8-33.6 46.9-34.5 5.6-12.1 35-89.9 106.3-114.7 49.9-15.5 38.3 51.2 38.3 51.2l2.2.6s65.3-81.6 141.9-33.8c29.2 24.7-2.9 73.1-2.9 73.1s33.9 7.3 31 43.8c-2.9 36.5-42.7 53.3-52.5 56.3.4 16 .4 59.5.4 59.5s11.2-12.8 21.9-6.3c10.7 6.5 32 23.8 14 66.7-5.1 10.1-30.6 35.2-52.5 33.5-6.1 28.3-11.7 57.6-11.7 57.6s-4.4 11-27.2 20.7c1.1 9.1 4.7 59.2 4.7 59.2s-101.7 24.3-150.4 6.6z"/><path fill="#ffc8a3" d="m1347 722.2 4.3 66.4s102.8 20.6 151.3-7.1c-2.6-25.3-5.5-59.3-5.5-59.3l-61.7 35.3s-5.3 3.5-13.7-.6c-13.3-6.6-74.7-34.7-74.7-34.7z"/><path fill="#ffc8a3" d="M1407 455.2s32.4 45.4 97.4 38.4l-.2 6.6s6.7 22 15.9 29.8c9.2 7.8 13.1 23.2 10.6 42.3.7 14.9 3.7 21.8 3.7 21.8l8.4 1.9 1.7-.7s-5.5-61.9 33.3-49.6c10.9 6.5 26.5 28.9 12.8 60.6-13.8 31.7-47.7 39.6-54.5 38.7-2.3 9-11.7 57.6-11.7 57.6s-2.3 7.5-17.9 15.3c-15.8 8.8-69.1 37.5-69.1 37.5s-6.7 5.4-20.3-1c-14.6-6.4-92.9-42.7-92.9-42.7s-8.4-3.7-10.2-13.6c-1.8-9.9-11-46-11-46s-26.4 4.5-51.8-19.7c-15.9-18.9-20.7-39.8-8.9-62.8 5.9-9.1 32.1-13 40.1 3s13.5 47.9 13.5 47.9 4.6 1.8 5.9-.4c1.2-2.1 9.9-19 2.5-51.7-3.1-28.3-3.3-29.9 6.2-40.2 9.5-10.2 17.9-14.5 13.1-47.5.2-5.9 3.4-10.2 3.4-10.2l7.7 2.6s36.5 24 65.6 16.8c29.2-7.2 31.2-11.6 31.2-11.6l-24.5-23.1z"/><path fill="#fff" d="m1052.4 1729.2-7.2 3.5-218.3 127.8 221.2 359.8s64.7-34.2 71.5-43.8c-2.7-5-28.7-77.3-18.7-156.7 17.6-62.8 33.9-92.6 42.3-102.4 6.3-7.4 13-12.9 15.9-15.3l-106.7-172.9z"/><path fill="#ffc8a3" d="m1716.9 1195.2 112.2 142.6s10.7 18.7 35 20c24.2 1.2 43.4-.2 78.8-20.7 35.4-20.4 229.7-137.2 282.6-185.3l19.7-17.9s65.5-54.5 94.3-149.4l11.7-66.4s28.8-86.6 5-85.8c-7.8 2.9-7.1-1.1-17.5 10.1-2.4-3.9-8.9-48.2-24.9-45.2 0 0-5.9-.5-10.4 15.9-5.1 3-18.1 7.9-13.1 31.7 2.6 18.9 3.7 41.5-.6 59.3l-11.9-4.5s-25-18.9-42.6-4.5c-15.9 7.5-20.9 11.9-20.9 11.9l-18.9 26.4s4.4 8.2 16.8 3.8c12.5-4.4 33-25.4 50.6-10.2s13.5 39.6 8.6 46.6-32.6 53.9-32.6 53.9-15 1.4-23.2-13.3c-8.2-14.7-21.2-29.6-21.2-29.6s9.7-38.7-6.7-49.8c-2 6-19.2 35.8-18.6 47.2.6 11.4 5.3 28.3 10.7 41 5.3 12.7 6.2 31.2 2.9 38.5-9.3 5.5-95.3 50.1-95.3 50.1s-115.5 44.8-151.6 71.4c-13.3-14.7-89.1-112-89.1-112s-67.5 88.4-129.8 124.2zM993.9 1130.9l-59 92.4S701 1109.2 679.9 1095c-8.1-6.4-12.2-10.3-12.2-10.3s-1.7-16.9 3-30.4c4.7-13.4 13.5-34.5 11.8-45.3-1.7-10.8-17.9-43.2-17.9-43.2s-1-2.4-2.6-1.5c-4.4 2.5-4.1 7.5-5.9 11.3-6.1 13 2.4 26.8 1.4 34.4-.8 6-29.2 41.4-38.8 45.4-8 3.4-14.1-11.4-21.7-21.2-5.9-7.5-18.5-35.8-19.8-50.3-.5-6 4.4-25.3 18.4-31.7 9.6-4.4 26.2 3.5 28 4.8 22.3 16.4 33.4 3.5 32 2.3-5.3-4.8-11.8-12.5-16.4-24.4-9.2-7.4-28.6-17.9-36-17.9s-35 12-40.8 17.1c-1.5-14.6-4.2-32.9-3-45.5 1.2-12.7 13-34.9-10.9-48.8-4.8-10-9.1-20.7-19.4-13 0 0-12.3 21-15.5 47-5.7-8.9-12.1-19.9-26.8-8.7-5.5 8.6 7.6 49.9 8.3 56.8.7 6.9 12.8 72 15.2 80.8 2.4 8.8 26.2 96.6 81.5 145.8l23.2 22.1 142.2 101.9s109.5 68.7 142.1 87.1c32.6 18.4 73.3 38.2 114.6 16.2l13.8-16.7 99.9-145.9-133.7-82.3z"/><path fill="#d6f4ff" d="m1893 629.7 122.8-133.5 27.8 3 6.8 32.1 35.8-24.6 1.3 6.3 1.7 26.6 28.2-15.9s-9.3 132.2-13.2 149.3c.2 4.6.5 5.9.5 5.9l160.2-30.8 3.5 16.8-100 146.3-168.8 5.4-23.9-18.3-82.7-168.6zM639 768s11.6-120.8 127.6-136.4c7.1 1.3 5.4-1.5 5.4-1.5s35.1-105 142.2-98.7c15.5 23.3 126.2 162.4 126.2 162.4l-5 3.5 3.5 19.8s-68.6 16.5-98.9 93.1c-17.1 8.8-17.6 14.9-17.6 14.9s-84.1 14.5-111.1 96.8c-17.5-7.4-23.9-9.2-23.9-9.2L639 768z"/><path fill="#9be83e" d="M2120.3 2402.7s-68.6-46.9-34.4-94.7c15.3-18.5 38.9-3.6 54.2 27.4-4.7-19.1-4.6-121.2 51-123.3 11 2.6 25.2 16.4 26.4 47 14.8-12.4 33.3-18.7 49.5-8.9 16.2 9.8 22.5 38.7-15.7 97.7l-4.8 6.8s39.9-38 66.5-16.6c11.1 11.8 5 45.4-19.2 64.6-19.8 1-173.5 0-173.5 0zM627.6 2405.8s-43.7-43.1-13.2-92.3c7.5-11.2 28.5-13.5 36.9-4.8l1.8-2s11.4-95 76.3-82.9c42.8 12.8 23.5 84 17.8 109.7 13.9-17 38.7-45.7 64.2-26.5 24.8 18.9-16 68.8-16 68.8s47.3-41.2 69.3-21.3c11.2 13.4-.7 36.2-11 49.2-17.4.2-226.1 2.1-226.1 2.1z"/><path fill="#9de5ff" fill-rule="evenodd" d="m766.6 631.6 152.3 170S898 807 884.5 818L728.8 642.4s17.7-12.1 37.8-10.8zM912.1 532.2l126.4 156.1-3.8 8.6 3.8 19.2-19.6 8.1-7.1-19.5-142.4-166s26.9-10.4 42.7-6.5zM2097.4 811.2l70-.8 101.2-139.8v-6.9l-91.6 18.5-79.6 129z" clip-rule="evenodd"/><path fill="#f9b88c" fill-rule="evenodd" d="M979.5 1385.7c25.1-.4 42.1-18.1 55.9-37 21.2-28.9 38.8-60.2 59.3-89.5 8.6-12.2 17.7-24.2 26.3-36.4 1.5-2.2 8.1-10.6 6.2-12.1-9.8-7.5-15.8-8.8-27.4-12.5-2.8-.8-5.7-1.8-8.5-2.8-.5-.1-2.5-1.1-3-1-.4.1-1.2 2.6-1.3 2.9-1.4 3.2-2.9 6.4-4.4 9.5-5.4 11.9-10.8 23.9-16.4 35.7-6.8 14.2-58.6 107.7-102.9 130.1-8.5 4.2-19.1 4.9-28.4 4-5.4-.4-10.9-1.3-15.9-3.2" clip-rule="evenodd"/><path fill="#c69a64" fill-rule="evenodd" d="M1231.6 1871.7c17.1-13.3 35-25.6 52.1-38.8 5.8-4.4 11.4-9.2 16.8-13.9 1.9-1.7 3.8-3.3 5.7-5 .6-.6 1.3-1.1 1.8-1.7.3-.3 1.1-.6.8-.7-2-1.4-4.9-2.2-7-3.2-6.5-2.8-13.2-5-19.9-7.4-4.3-1.4-9.2-3.3-13.8-2.8-2.8.4-5.3 2.1-7.6 3.5-4.6 2.5-9 5.1-13.5 7.8-14.3 8.3-30 15.7-42.7 26.4" clip-rule="evenodd"/><path fill="#f9b88c" fill-rule="evenodd" d="M1152.4 1891.8c17.7-10 36-18.9 53.3-29.4 4.5-2.7 10.4-4.7 14.5-7.9 0 0-2.3-2.9-2.6-3-2.8-3.2-6-6-8.9-9-4.7-4.9-9.4-9.7-14.2-14.4-1.9-1.9-6.6-5.8-6.6-5.8s-43.6 26-54.7 36.7" clip-rule="evenodd"/><path fill="#ebebeb" fill-rule="evenodd" d="M1157.7 1903.1c-48.3 48.5-66.6 124-59.7 187.9 3 27.8 10.7 55.4 21.4 81.3.4 1-1.9 4.3-2.4 5.3-3.6 6.1-12.7 11.1-19 14.3-5.9 3.1-12.5-16.1-14.6-21-10.8-24.6-20.9-50.9-24.4-77.5-7.6-58.6 6.6-116.3 32.9-168.4 10.5-20.9 23.5-44.8 42.4-59.2M1710.4 1705.2c62.7 21.7 124.9 44.5 187.7 65.9 14.5 5 29.2 9 43.5 14 3.6 1.3 7.2 2.5 10.7 4 .4.3 2.9 1.1 2.9 1.5.3 3.1-3.8 9.5-4.9 12.5-2.5 7.8-1 11.9-3.5 19.6-.8 2.9-1.4 7.1-3.1 9.7-.4.7-1.4-.8-2.2-1.3-1.3-.7-2.5-1.3-3.8-2-4.2-1.9-8.3-3.6-12.7-5.1-13.1-4.7-26.7-7.9-40-11.5-23.2-6.3-118.3-40.2-143-49.2-16.1-5.8-32.5-9.7-49.1-14.3" clip-rule="evenodd"/><path fill="#c69a64" fill-rule="evenodd" d="M1511.1 1615c31.4 16.1 63.9 30.3 96.3 44.2 8.5 3.6 16.9 7.1 25.3 11 1.4.7 7.6 2.6 8.2 4 .6 1.4-2.1 6.1-2.8 7.6-2.6 7-5.8 13.9-8.5 21-1.9 5-3.8 10.2-5.6 15.2-.1.4-1.5 4.6-1.7 4.6-2.2-.4-5.7-4.3-7.8-5.6-6.5-3.6-13.5-6.7-20.4-9.3-25.6-9.4-50-20.6-74.6-32.2-10.7-5-21.7-9.3-32-15l23.6-45.5" clip-rule="evenodd"/><path fill="#f9b88c" fill-rule="evenodd" d="M1628 1698.3c17.2 9.2 35.4 16.7 53.4 24.3 4.6 1.9 9.2 3.9 13.8 6 .7.3 4.2 1.4 4.3 2 .3.7-.4 2.4-.6 3-.7 3.2-1.4 6.5-2.1 9.7-2.8 12.1-14.7 39.6-15.4 39.3-5.3-2.4-10.7-4.2-16.1-5.8-20.8-6.8-43.6-9.9-63.4-19.7" clip-rule="evenodd"/><path fill="#c69a64" fill-rule="evenodd" d="M1018.7 1374.3c131.9 59.5 260.2 126.2 385 199 23.8 13.8 41.8 22.7 66.3 35.2 2.6 1.4 33.2 20 33.4 20.2 2.4 4.9-11 29.1-13 34.5-.8 2.5-3.6 12.4-5.7 14.4-.1.1-13.2-9.7-23.9-15.4-31-16.4-63.7-29.3-94.5-46-32.4-17.4-62.8-37.8-94.1-57-41-25.2-83.2-48.2-123.7-74.3-50.5-32.5-98.7-68.9-148.8-102.3M1938 1338.6c16.1 17.9 38.4 40.7 49.5 62.3 8.2 16 14.5 32.4 17.4 50.3 20.4 129-148.7 182.3-241.5 217.5-42.9 16.3-60.6 21.9-98.7 39-8.3 3.8-23.4 2.2-35.9-7.4-6.8-5.3 5-17.2 6.5-25.7.7-3.8-14.7-9.6-12.1-11.3 39.7-25.2 92.6-41.7 127.8-53.5 56.6-19 110.8-34 160-68.5 23.9-16.8 31.7-50.2 37.2-80.2 4-21.7-3.1-45.3-10.3-65.6-6.8-18.6-15.8-34.7-26.9-51" clip-rule="evenodd"/><path fill="#f9b88c" fill-rule="evenodd" d="M2214.7 1126.3c-27.7 18.8-57.4 40.3-84.4 60.3-70.3 52.3-146.6 101.4-226.2 138-28.2 13.1-50.2 28.9-78.9 9l15.1 16.1c48.8 24.9 118.8-20.4 180-58.2 43.2-26.8 86.9-54.1 128.1-83.9 22.8-16.5 46.7-32.4 68.9-49.8.4-.3 1.3-1 2.2-1.7l.7 1c21.1-19.7 42.8-39.3 60.7-62.1 35.7-45.4 59.9-100.3 65.7-158 2.6-26.3 13.2-49.6 17.8-75.5 1.1-6.1 1.4-13.6 0-19.7 0-.4-4.3-6-4.6-5.8-7.5 1.8-10.3 16.7-11.7 22.7-5.3 23.6-10 47.4-16.1 70.9-6.8 26.4-14.2 52.7-26.1 77.3-21.6 44.6-54.8 85.3-91.2 119.4zM1850.5 1071.9c17.4 29.2 37.8 56.7 59.5 82.8 8.8 10.6 19.6 19.9 27.8 30.7 1.1 1.4-3.1 1.8-4.6 2.6-2.9 1.7-5.7 3.5-8.6 5.3-5.3 3.6-10.4 7.5-15.7 11.4-1.7 1.3-4.3 4-6.3 4.4-.6.1-4.9-5.1-5.6-5.8-5.7-5.8-56.1-74.1-82-96" clip-rule="evenodd"/><path fill="#58b9fd" fill-rule="evenodd" d="M1340.4 784.9s39.8 11.9 78.4 9.4c38.8-2.4 97.9-17.1 97.9-17.1s13.1 11 19.2 30.2c0 0 44.8 14.8 85.8 6.4 40.9-8.2 73.4 2.2 114.9 49.5s126.4 185 126.4 185-15.4 27.2-45.9 59.4c-30.3 32.2-96.8 84.4-96.8 84.4l-42 29.2 9.1 171 9 23.3-126.7 61-174 88.7-129.5-64-135.3-71.4 18.3-61.8-6.9-151.1s-81.6-32.8-129.8-71.7l-45.1-37.7s69.1-138.5 102.9-195.9c33.8-57.2 60.5-99 152.5-89.9 79.1 7.9 85-10.5 96.7-25.5 0 .3 11.6-15.3 20.9-11.4z" clip-rule="evenodd"/><path d="M539.2 1446.8c-.7 0-1.3-.3-1.8-.8-47.6-56.5-88.8-109.9-125.9-163.3-.7-1.1-.5-2.5.6-3.3 1.1-.7 2.5-.5 3.3.6 37 53.3 78.1 106.6 125.6 163 .8 1 .7 2.5-.3 3.3-.4.4-.9.5-1.5.5zM662.9 1627.6c-.7 0-1.5-.3-1.9-1-5.2-7.2-10.7-14.4-16-21.4-4.1-5.4-8.4-11.1-12.6-16.7-.8-1.1-.5-2.5.5-3.3 1.1-.8 2.5-.5 3.3.5 4.1 5.6 8.4 11.2 12.5 16.6 5.3 7 10.8 14.2 16.1 21.5.8 1.1.5 2.5-.5 3.3-.4.4-.9.5-1.4.5zM688.7 1925.3c-.5 0-.9-.1-1.3-.4-5.5-3.8-11.1-7.7-16.7-11.5-52.9-36.4-107.6-74.1-139.9-129.9-2.2-3.8-4.2-7.6-5.9-11.3-64.4-5.8-113.2-67.8-143.6-121.2-.6-1.1-.2-2.6.9-3.2 1.1-.6 2.6-.3 3.2.9 29.4 51.6 76.2 111.5 137.3 118.6-6.7-16.4-8.3-31.2-4.8-44.1 3-11.4 11.2-21.2 20.7-25 7.2-2.9 14.6-2.2 21.4 1.9 12.9 7.8 18.5 24 14.3 41.4-3.6 14.7-15.1 30-32.7 31.1-3.8.2-7.6.3-11.3.1 1.4 2.8 2.9 5.7 4.6 8.6 31.7 54.9 86 92.2 138.5 128.4 5.6 3.9 11.2 7.7 16.7 11.5 1.1.7 1.3 2.2.6 3.3-.5.5-1.3.8-2 .8zm-160.6-157.7c4.3.3 8.8.3 13.2 0 15.2-.9 25.2-14.5 28.4-27.5 2.9-11.6 1.4-28-12.1-36.2-5.6-3.4-11.4-3.9-17.2-1.6-8.1 3.3-15.3 12-17.9 21.9-3.4 12.6-1.5 27.2 5.6 43.4zM2198.9 1417.6c-.4 0-.9-.1-1.3-.4-1.1-.7-1.4-2.2-.7-3.3 18.9-28.9 36.3-59.2 53.2-88.6 25.1-43.6 51-88.7 82.2-129.9.8-1 2.3-1.2 3.3-.5s1.2 2.3.5 3.3c-31 40.9-56.9 85.9-81.9 129.4-16.9 29.4-34.4 59.8-53.4 88.8-.4.8-1.1 1.2-1.9 1.2zM2084.2 1710.6c-.5 0-1-.1-1.4-.4-1.1-.8-1.3-2.2-.6-3.3 9.6-13.5 18.8-27.7 27.6-41.4 8.4-13 17-26.4 26.1-39.4.8-1.1 2.2-1.3 3.3-.6 1.1.8 1.3 2.2.6 3.3-9 12.8-17.7 26.2-26 39.2-8.9 13.8-18.1 28-27.7 41.6-.5.6-1.2 1-1.9 1zM2299.7 1428.1c-.4 0-.8-.1-1.2-.3-1.1-.7-1.5-2.1-.8-3.2 15.4-25.3 28.3-45.8 40.8-64.7.7-1.1 2.2-1.4 3.3-.7 1.1.7 1.4 2.2.7 3.3-12.4 18.8-25.3 39.3-40.7 64.5-.6.7-1.3 1.1-2.1 1.1zM2131 1989.3c-.9 0-1.7-.5-2.1-1.3-.6-1.2-.1-2.6 1.1-3.2 44.2-21.2 92.8-47.1 120.3-90.4-9.5-.5-18.7-3.1-27.6-8-21.3-11.6-29-42.1-23-63.3 5-17.5 18.4-26.9 36.7-25.8 12.3.8 21.5 6.3 27.5 16.4 11.8 19.8 7 50.5-.2 66-1.6 3.4-3.2 6.7-5 9.8 5.5-.5 11-1.8 16.7-3.8 28.5-10.2 60-40.6 91.1-87.8 24.8-37.7 44.8-79 55.3-105.1.5-1.2 1.9-1.8 3.1-1.3s1.8 1.9 1.3 3.1c-10.5 26.3-30.7 68-55.7 105.9-32.1 48.8-63.6 79-93.5 89.7-7.2 2.6-14.2 4-21.1 4.3-27.9 45.8-78.1 72.8-123.9 94.7-.3 0-.7.1-1 .1zm102.5-187.5c-19.7 0-26.7 13.9-29.2 22.5-5.5 19 1.7 47.5 20.7 57.9 9 4.9 18.4 7.4 28.1 7.5 2.3-3.9 4.4-7.9 6.3-12.1 7.8-16.8 10.2-45.2.5-61.6-5.1-8.7-13.1-13.4-23.8-14.1-.8 0-1.7-.1-2.6-.1zM515.1 2408.4c-14.8 0-24.6-.1-28.6-.3-1.3-.1-2.3-1.2-2.3-2.5.1-1.3 1.2-2.3 2.5-2.3 44.5 2 862.1-8.4 929.6-9.3 1.3 0 2.3 1 2.4 2.3 0 1.3-1 2.4-2.3 2.4-61.6 1-747.6 9.7-901.3 9.7zM1750 2405.8c-112.8 0-197.7-.1-206.5-.3-4.9-.1-9.9-.3-14.8-.5-16.4-.7-33.4-1.4-49.9.2-1.3.1-2.5-.8-2.6-2.1-.1-1.3.8-2.5 2.1-2.6 16.8-1.6 34-.9 50.5-.2 4.8.2 9.8.4 14.7.5 27.8.7 819.6.1 838.9-.6h.1c1.3 0 2.3 1 2.4 2.3.1 1.3-1 2.4-2.3 2.5-13 .4-388.1.8-632.6.8zM1251.8 2454.1h-26.4c-1.3 0-2.4-1.1-2.4-2.4 0-1.3 1.1-2.4 2.4-2.4 200.5.2 495.3-1.8 690.4-3.1 63.8-.4 119-.8 157.4-1 20.3-.1 35-.2 44.9-.2h15c1 0 3.3.1 3.3 2.4 0 2.4-2.2 2.4-3.9 2.5-1.1 0-2.7.1-5 .2-.5 0-1-.1-1.4-.4-24.4-.1-105 .5-210.4 1.2-186.6 1.4-464.6 3.2-663.9 3.2zM762.4 2459.5c-1.3 0-2.3-1-2.4-2.3 0-1.3 1-2.4 2.3-2.4 51-1.6 345.6-4.1 392.7-4.2 1.3 0 2.4 1.1 2.4 2.4 0 1.3-1.1 2.4-2.4 2.4-47 0-341.5 2.5-392.6 4.1.1 0 .1 0 0 0z"/><path d="M846.3 2413.1c-.7 0-1.3-.3-1.8-.8-.8-1-.7-2.5.3-3.3 11.7-9.8 20-23.3 22.2-36.1 1.2-7.3-.3-13.2-4.3-17-4.5-4.3-12-5.7-20.4-3.9-5.9 1.3-12 3.6-18.5 7.1-13 6.7-23.8 15-32.9 25.4-1.2 1.3-2.7 1-3.4.4-1.8-1.5-.6-3.1 1-5.1.9-1.3 1.9-2.7 2.9-4 3.5-4.8 6.9-9.7 10.2-14.5 7.9-12.1 24.5-41.7 6.8-54.3-18.9-13.4-42 7.2-51 16.7-4.1 4.3-7.8 8.9-11.1 13.8 0 .1-.1.1-.1.2-1.4 3.3-3.2 6.4-5.4 8.7-1.6 1.8-3.3.5-3.4.4-1.8-1.4-.9-2.8 1.1-5.9.3-.5.6-.9.8-1.2.9-1.4 1.8-2.9 2.8-4.3 1.8-4.3 3.2-9.3 4.3-13.7.4-1.6.8-3.1 1.2-4.4 6.9-23.9 10.8-58.7-1.1-78-4.6-7.5-11.5-12.2-20.3-13.9-11.8-2.2-23.3.8-34.2 8.8-20.7 15.4-33.9 45.2-36.2 66.8-.3 2.4-.4 4.6-.5 6.8 5.9 5.2 10.1 12.4 12.6 19.1 0 .1 4 12.9 2.2 16-.4.8-1.2 1.2-2 1.4-2.7.4-6.1-2.2-10.1-7.7-4.9-6.7-7.3-15.6-7.4-26.6-3.2-2.4-6.8-4.1-10.8-4.6-16.9-2.3-29.3 13.3-32.4 29.2-5 25.4 3.4 51.1 23.1 70.4.9.9.9 2.4 0 3.3-.9.9-2.4.9-3.3 0-20.9-20.5-29.8-47.7-24.5-74.7 3.6-18 18-35.7 37.6-33 3.8.5 7.3 1.8 10.4 3.7l.3-3.9c2.5-22.6 16.3-53.9 38.1-70.1 11.9-8.9 24.7-12.1 37.8-9.7 10.2 1.9 18.1 7.3 23.5 16.1 12.7 20.6 8.8 56.9 1.6 81.8-.4 1.3-.8 2.8-1.2 4.4-.1.4-.2.9-.4 1.3 1.1-1.3 2.3-2.5 3.4-3.8 9.9-10.4 35.2-32.9 57.2-17.3 20.3 14.3 5.2 44.2-5.6 60.7-.4.5-.7 1.1-1.1 1.6 5.3-4 11-7.5 17.2-10.7 6.9-3.6 13.3-6.1 19.6-7.5 10-2.2 19-.3 24.7 5.1 3.6 3.4 7.6 9.9 5.7 21.2-2.3 13.8-11.2 28.3-23.8 38.9-.4.6-.9.7-1.4.7zm-191-98.2c.6 7.8 2.7 14.2 6.3 19.1 1.5 2.1 2.9 3.6 4 4.6-.5-3.3-1.8-8.5-2.3-9.8-1.7-4.8-4.4-9.8-8-13.9zM638 2244.9c-1 0-2-.7-2.3-1.7-3.8-13.6-7.5-27-10.7-40.2-.3-1.3.5-2.5 1.7-2.9 1.3-.3 2.5.5 2.9 1.7 3.2 13.1 6.8 26.4 10.6 40 .4 1.3-.4 2.6-1.6 2.9-.2.1-.4.2-.6.2zM805.7 2237.5c-.3 0-.7-.1-1-.2-1.2-.6-1.7-2-1.1-3.1 3.7-7.7 7.2-15.7 10.6-23.3l4.2-9.3c.5-1.2 1.9-1.7 3.1-1.2 1.2.5 1.7 1.9 1.2 3.1l-4.2 9.3c-3.4 7.7-7 15.7-10.7 23.5-.4.7-1.2 1.2-2.1 1.2zM911.7 2345.7c-.8 0-1.5-.4-2-1-.7-1.1-.4-2.5.6-3.3l1-.6c3.4-2.3 6.8-4.6 10.3-6.8 1.1-.7 2.6-.3 3.3.8.7 1.1.3 2.6-.8 3.3-3.4 2.1-6.9 4.4-10.2 6.7l-1 .6c-.2.2-.7.3-1.2.3zM2117.5 2402.7c-.5 0-.9-.1-1.3-.4-16.4-11-43.7-34.5-42.2-68.4.4-8.1 2.6-22.8 13.2-30.4 5.9-4.2 12.2-5.7 18.8-4.4 14.7 3 26 19 30.5 26.3-4.3-26.4.4-56.7 13.9-85.4 10.2-21.6 22.7-31.9 37.1-30.4 23.3 2.4 30.4 25.4 32.2 44.5 6.1-4.6 12.8-8 19.8-9.7 11.9-3 27.5-1.1 35.8 9.7 18.1 23.9-2.3 60.7-12.1 78.3-2.7 4.9-5.7 9.8-9 14.9 11.3-9.4 24.1-17.7 39.4-18.5 8.6-.4 16.1 2.4 21.2 7.8 5.3 5.7 7.5 13.8 6.4 22.8-2 16.9-13.7 33.3-23.2 42.2-.9.9-2.4.8-3.3-.1-.9-1-.8-2.4.1-3.3 9.6-9 20-24.7 21.8-39.3.9-7.6-.9-14.4-5.2-19-4.2-4.5-10.2-6.7-17.5-6.3-18.3.9-32.6 13.6-46.4 25.9-1.5 1.3-3 2.7-4.5 3.9-1.3 1.3-2.8.7-3.3.2-1.7-1.5-.5-3.1.7-4.6.5-.6 1-1.3 1.3-1.7 1.5-2.1 3.1-4.3 4.5-6.5 5-7.2 9.3-13.9 13-20.6 9.3-16.8 28.7-51.7 12.4-73.2-6.9-9.1-20.5-10.5-30.9-7.9-7.2 1.8-14.3 5.7-20.5 11 .3 6.5.1 12.2-.2 15.8-.4 5.9-.9 11-1.6 15.6-1.4 8.1-3 16.6-5.7 24.9-2.6 9.1-5.5 8.6-6.5 8.4-3.4-.7-6.2-2.8-8.1-6.1-4.8-8-4.1-22.5-2-29.8 3.3-11.9 10.3-22.8 19.3-31-1.2-18.1-6.9-41.3-28.3-43.5-12.2-1.2-23.1 8.1-32.4 27.7-17 36-19.7 74.6-7.5 104 .1.3.2.5.3.8 1.6 3.1 2.5 5 .3 6.1-.6.3-2.3.6-3.3-1.2-.5-1.2-1.1-2.3-1.6-3.5-.7-1.7-1.5-3.4-2.4-5.1-2.6-5.6-5.1-10.2-7.8-14.6-3.1-5.1-14.2-21.9-27.8-24.6-5.2-1.1-10.3.2-15.1 3.6-9 6.4-10.9 19.5-11.3 26.8-1.4 31.6 24.6 53.8 40.1 64.3 1.1.7 1.4 2.2.6 3.3-.2.3-.9.7-1.7.7zm98.1-138.5c-6.9 7.2-12.4 16.3-15 25.8-1.9 6.5-2.4 19.6 1.5 26 1.1 1.8 2.5 3 4.1 3.6.6-1 1.5-3.2 1.9-4.8v-.1c2.7-7.9 4.2-16.3 5.6-24.2.7-4.4 1.2-9.3 1.5-15.2.3-2.6.5-6.6.4-11.1zM2103.8 2245.1c-.9-3-1.9-6.1-2.7-9.1-.3-1.3.4-2.6 1.7-2.9 1.3-.3 2.6.4 2.9 1.7.8 2.9 1.7 5.9 2.6 8.8l-2.2.8-2.3.7zM2326.4 2284.9c-.5 0-.9-.1-1.4-.4-1.1-.8-1.3-2.2-.6-3.3 3.8-5.3 7.5-10.7 11.3-16 .8-1.1 2.2-1.3 3.3-.6 1.1.8 1.3 2.2.6 3.3-3.8 5.4-7.5 10.7-11.3 16-.4.7-1.2 1-1.9 1zM2235.6 2159.7c-.1 0-.1 0 0 0-1.4 0-2.4-1.1-2.4-2.4.2-7.6.5-15 .9-22.6.1-1.3 1.2-2.3 2.5-2.2 1.3.1 2.3 1.2 2.2 2.5-.5 7.6-.8 14.9-.9 22.4 0 1.2-1.1 2.3-2.3 2.3zM1447.6 2127.4c-.4 0-.7-.1-1.1-.3-1.2-.6-1.6-2-1-3.2 3.5-6.6 6.9-13.2 10.4-19.8.6-1.2 2-1.6 3.2-1 1.2.6 1.6 2 1 3.2-3.5 6.6-6.9 13.2-10.4 19.8-.5.9-1.3 1.3-2.1 1.3zM857.7 987.5h-.2c-1.3-.1-2.3-1.3-2.2-2.6.3-3.6.8-7 1.2-10.4l.2-1.2c.2-1.3 1.4-2.2 2.7-2 1.3.2 2.2 1.4 2 2.7l-.2 1.2c-.5 3.3-.9 6.7-1.2 10.1 0 1.3-1.1 2.2-2.3 2.2zM1786.6 671.1c-1.1 0-2.1-.8-2.3-2-.5-3-1.1-6.1-1.6-9-.5-2.5-.9-5.1-1.4-7.6-.2-1.3.6-2.5 1.9-2.7 1.3-.2 2.5.6 2.7 1.9.4 2.5.9 5 1.4 7.6.5 3 1.1 6 1.6 9.1.2 1.3-.7 2.5-1.9 2.7h-.4zM1240.4 414.9c-.6 0-1.2-.2-1.7-.7-.9-.9-.9-2.4.1-3.3 6.4-6 15.3-10 24.5-10.9 3.3-.3 6.7-.2 9.7 0-.1-.2-.1-.3-.1-.4-1.3-4.5-2.2-8.6-2.8-12.5-1.5-9.8-1.9-19.8-1-28.9.1-1.3 1.3-2.3 2.6-2.1 1.3.1 2.2 1.3 2.1 2.6-.9 8.7-.6 18.3.9 27.7.6 3.7 1.4 7.6 2.6 11.8l.2.4c1 2.8 1.8 4.8 0 5.9-1.4 1-3.7.5-4.9.1-2.8-.1-6-.3-8.9 0-8.2.8-16.1 4.3-21.7 9.6-.4.5-1 .7-1.6.7zM1961.4 996h-.3c-1.3-.1-2.2-1.3-2.1-2.6.4-3.9 1-7.7 1.5-11.6l.2-1.5c.2-1.3 1.4-2.2 2.7-2 1.3.2 2.2 1.4 2 2.7l-.2 1.5c-.6 3.9-1.1 7.6-1.5 11.5-.1 1.1-1.1 2-2.3 2zM1250.4 557.4c-1 0-1.8-.6-2.2-1.5-7.1-18.6-15.5-46.4-15.1-73.6.5-29.5 11.1-50.6 31.8-62.8 5.9-3.6 12.8-5.8 20.3-6.5 1.3-.1 2.5.8 2.6 2.1.1 1.3-.8 2.5-2.1 2.6-6.8.7-13 2.6-18.3 5.8-19.1 11.3-29.1 31.1-29.5 58.8-.4 27.9 9.1 57 14.8 71.9.5 1.2-.1 2.6-1.4 3.1-.3 0-.6.1-.9.1zM1294.1 405.8c-.3 0-.5 0-.8-.1-1.2-.4-1.9-1.8-1.4-3 14.4-40.9 48.1-78.8 88-99 9.2-4.7 26.6-11.7 40.1-5.9 7.1 3 12.1 9.1 14.8 18.1 1.3 4.5 2 8.7 2.1 12.9.3 6.6-.3 13.4-1.8 21-.2 1.3-1.5 2.1-2.8 1.9-1.3-.2-2.1-1.5-1.9-2.8 1.4-7.2 1.9-13.7 1.7-19.9-.1-3.8-.8-7.7-1.9-11.8-2.3-7.5-6.4-12.6-12.1-15-12.2-5.2-29.4 2.3-36.1 5.8-38.8 19.7-71.6 56.6-85.7 96.4-.3.8-1.2 1.4-2.2 1.4z"/><path d="M1529.5 495.1c-1.7 0-3.4 0-5.1-.1-1.3 0-2.3-1.1-2.3-2.4s1.2-2.3 2.4-2.3c14.6.5 26.5-1.3 37.5-5.7 9.8-3.7 18.3-9 25.3-15.9 10.8-10.6 16.6-27 14.9-41.8-1.4-11.8-7.5-21.6-17.2-27.4-4-2.4-8.2-4-12.2-4.8-1.1 1.2-2.1 2.4-3.2 3.5-5.8 5.8-14.9 13.1-25.2 14.8-1.5.2-8.9.9-11.1-1-.7-.6-1.1-1.5-1-2.4.4-4 3.2-8.1 8.4-12.2 8.4-6.4 19.4-9.2 30.3-7.8 14-17.2 24-45.8 7.3-65.8-12-14.4-31.7-17.9-42.4-18.6-34.2-2.6-73.9 16.8-98.8 48.1-.8 1-2.3 1.2-3.3.4-1-.8-1.2-2.3-.4-3.3 25.8-32.5 67.2-52.6 102.8-49.9 11.4.8 32.5 4.6 45.6 20.3 17.9 21.3 8.5 51-5.7 69.8 3.8 1 7.6 2.6 11.3 4.8 11 6.6 17.9 17.6 19.5 30.9 1.9 16.2-4.5 34.2-16.2 45.7-7.5 7.3-16.6 13-26.9 16.9-10.3 4.3-21.3 6.2-34.3 6.2zm7.5-85zm.4-1.6c1.9.2 5.1.1 6.1-.1h.1c9.1-1.5 17.3-8.1 22.6-13.5.3-.3.5-.6.8-.8-8.6-.4-17 2.1-23.5 7.1-3.1 2.6-5.2 5-6.1 7.3zm6.1-.1c-.1 0-.1 0 0 0zM1491.7 498.5c-30.5 0-61.5-14.4-84.8-39.9-.9-1-.8-2.5.1-3.3 1-.9 2.5-.8 3.3.1 25.3 27.6 59.8 41.7 92.3 37.7 1.3-.2 2.5.8 2.6 2.1.2 1.3-.8 2.5-2.1 2.6-3.7.5-7.5.7-11.4.7z"/><path d="M1387.7 493.6c-2.1 0-4.2-.1-6.3-.2-17.1-1.3-34-7.7-48.7-18.6-1-.8-1.3-2.3-.5-3.3s2.3-1.3 3.3-.5c29.1 21.5 64.2 23.9 93.9 6.4 1.1-.7 2.6-.3 3.2.8.7 1.1.3 2.6-.8 3.2-13.6 8-28.8 12.2-44.1 12.2zM1301.5 622c-.6 0-1.2-.2-1.6-.7-.9-.9-1-2.4-.1-3.3 3.7-3.8 5.6-11.3 5.4-21.7 0-8.1-1.1-16.4-2.1-24.3-.5-4.2-1.1-8.6-1.5-12.8-.1-.7-.1-1.5-.2-2.2-.6-5.5-1.1-11.2-.2-16.8 1.1-6.6 5.5-10.7 9.7-14.6 2.4-2.3 4.7-4.4 6.4-7 4.7-7.4 6.1-18.9 4.3-35.2-.1-1.3.8-2.5 2.1-2.6 1.3-.1 2.5.8 2.6 2.1 1.2 11.1 2.1 27.1-5 38.2-2 3.1-4.6 5.6-7.2 7.9-3.8 3.6-7.4 6.9-8.2 12-.8 5-.3 10.3.2 15.5.1.7.2 1.5.2 2.2.4 4.2.9 8.5 1.5 12.7 1 8.1 2.1 16.5 2.1 24.9.2 11.8-2 20.2-6.7 25-.5.4-1.1.7-1.7.7zM1294.1 655.1h-.4c-27.3-4.1-59.6-21.7-60.7-57.9l-.1-1.9c-.3-8.3-.5-14.8 4.1-22.6 5.9-9.8 15.9-14.9 26.8-13.6 11.7 1.3 21.8 9.8 25.6 21.6 3.1 9.5 4.9 19.6 6.6 29.3.5 3.1 1.1 6.2 1.7 9.3.2 1.3-.6 2.5-1.9 2.8-1.3.2-2.5-.6-2.8-1.9-.6-3.1-1.2-6.3-1.7-9.3-1.7-9.6-3.4-19.5-6.5-28.7-3.3-10-11.8-17.2-21.7-18.3-9.1-1-17.2 3.1-22.2 11.4-3.9 6.6-3.7 12-3.5 20l.1 1.9c1 33.4 31.2 49.6 56.7 53.4 1.3.2 2.2 1.4 2 2.7.1.9-.9 1.8-2.1 1.8z"/><path d="M1275.4 618c-.6 0-1.1-.2-1.6-.6-2.3-2-4.6-4.1-6.9-6.1-4.3-3.8-8.6-7.7-13-11.4-1-.8-1.1-2.3-.3-3.3s2.3-1.1 3.3-.3c4.3 3.7 8.8 7.6 13 11.4 2.3 2 4.6 4.1 6.9 6.1 1 .9 1.1 2.4.2 3.3-.3.6-.9.9-1.6.9zM1533.8 594.2c-1 0-1.9-.6-2.2-1.6-2.7-8.4-2.8-17.3-2.9-25.9-.1-8.9-.1-17.2-2.9-25-1.8-4.9-5-8.4-8.3-12.1-1.7-1.8-3.4-3.7-5-5.9-4.5-6.1-7.8-13.5-10.6-23.5-.4-1.3.4-2.6 1.6-2.9 1.3-.4 2.6.4 2.9 1.6 2.6 9.4 5.8 16.4 9.9 22 1.5 1.9 3.1 3.8 4.7 5.5 3.5 3.9 7.2 7.9 9.3 13.7 3 8.5 3.1 17.7 3.1 26.6.1 8.6.1 16.8 2.7 24.5.4 1.2-.3 2.6-1.5 3h-.8zM1543.7 646.8c-1.1 0-2.1-.8-2.3-1.9-.3-1.3.6-2.5 1.8-2.8 9.8-2 20.4-7 28.4-13.3 19.7-15.5 30.2-49.5 14.8-71.8-2.1-2.9-4.5-5.4-7-7.2-5.5-4.1-10.8-5.1-15.9-3-7.5 3-13.9 12.7-15.9 24.1-1.1 6.7-1.6 14.2-1.4 23.7 0 1.3-1 2.4-2.3 2.4s-2.4-1-2.4-2.3c-.2-9.7.3-17.5 1.5-24.5 2.3-13.2 9.7-24.1 18.8-27.7 4.6-1.8 11.9-2.7 20.5 3.6 3 2.1 5.7 4.9 8.1 8.3 8 11.7 10.3 26.7 6.5 42.5-3.5 14.2-11.8 27.6-22.3 35.8-8.6 6.7-19.9 12.1-30.4 14.2-.2-.2-.4-.1-.5-.1z"/><path d="M1557.8 608.3c-.5 0-1-.1-1.4-.5-1.1-.8-1.3-2.2-.5-3.3 1.6-2.2 3.1-4.3 4.7-6.5 5.4-7.5 11-15.3 16.9-22.6.8-1 2.3-1.2 3.3-.4 1 .8 1.2 2.3.4 3.3-5.8 7.3-11.3 15-16.7 22.4-1.6 2.2-3.1 4.4-4.7 6.5-.6.8-1.3 1.1-2 1.1zM1552.1 542.1c-1.4-.1-2.4-1.2-2.3-2.5.8-16.7 1.1-31.3 1-44.8 0-1.3 1-2.4 2.3-2.4 1.3 0 2.4 1 2.4 2.3.1 13.6-.2 28.3-1 45.1-.1 1.3-1.1 2.3-2.4 2.3zM1338.7 559.7c-.7 0-1.4-.3-1.9-.9-.8-1-.6-2.5.4-3.3 17.6-13.4 38.1-16.1 54.9-7 1.1.6 1.6 2.1 1 3.2-.6 1.1-2.1 1.6-3.2 1-15.1-8.1-33.7-5.7-49.8 6.6-.4.2-.9.4-1.4.4zM1447.2 549.5c-.8 0-1.6-.4-2-1.1-.7-1.1-.3-2.6.8-3.3 16.9-10.4 37-11.4 52.4-2.6 1.1.6 1.5 2.1.9 3.2s-2.1 1.5-3.2.9c-14-7.9-32.2-7-47.6 2.6-.5.1-.9.3-1.3.3zM1368.8 611.9c-9.3 0-17.9-3.6-22.3-5.8-1.2-.6-1.6-2-1-3.2.6-1.2 2-1.6 3.2-1 4.9 2.5 22.1 9.9 34.8.8 1.1-.8 2.5-.5 3.3.5.8 1.1.5 2.5-.5 3.3-5.6 4.1-11.7 5.4-17.5 5.4zM1469.8 606.3c-5.9 0-12.1-1.3-18.4-4-1.2-.5-1.8-1.9-1.2-3.1.5-1.2 1.9-1.8 3.1-1.2 12.5 5.3 24.5 4.8 34-1.6 1.1-.7 2.6-.4 3.3.6.7 1.1.4 2.6-.6 3.3-6.1 4-12.9 6-20.2 6zM1425.3 663.6c-4.5 0-8.8-.7-12.3-1.5-1.3-.3-2.1-1.6-1.7-2.8.3-1.3 1.6-2.1 2.8-1.7 6.5 1.6 15.9 2.6 23.8-1.2 2.4-1.2 4.5-2.7 5.2-3.5-.4-.7-1.3-2-1.8-2.6-.4-.6-.8-1.1-1-1.4-2.9-4.5-5.4-9.5-7.4-15.2-4.9-12.8-6.8-28.1-5.6-45.3.1-1.3 1.2-2.3 2.5-2.2s2.3 1.2 2.2 2.5c-1.1 16.5.7 31.1 5.3 43.3 2 5.4 4.2 10.1 7 14.3 0 0 0 .1.1.1.1.2.5.7.8 1.1 1.9 2.6 3.1 4.3 2.9 5.9v.2c-.7 3.3-5.8 6.1-7.9 7.1-5 2.1-10.1 2.9-14.9 2.9zM1429.4 698.1c-9.2 0-18.8-1.9-28.5-5.8-1.2-.5-1.8-1.9-1.3-3.1.5-1.2 1.9-1.8 3.1-1.3 17.8 7.1 34.2 7.4 48.8 1 1.2-.5 2.6 0 3.1 1.2s0 2.6-1.2 3.1c-7.5 3.3-15.5 4.9-24 4.9z"/><path d="M1428.8 760.9c-2.5 0-5-.5-7.3-1.6-19.3-9-76.7-35.5-97.6-45.1-5.4-2.4-9.3-7.1-10.8-12.9-4-15.6-12.8-49.2-12.8-49.2l4.6-1.2s8.8 33.6 12.8 49.2c1.1 4.4 4.1 8 8.2 9.8 20.9 9.6 78.4 36.2 97.7 45.1 3.7 1.7 7.9 1.6 11.8-.4 8.5-4.7 24.4-13.5 39.8-22 15.5-8.6 31.6-17.4 40.4-22.3 3.8-2.1 6.5-5.8 7.3-9.9 3.6-16.9 11.6-55.9 11.7-56.3.3-1.3 1.5-2.1 2.8-1.8 1.3.3 2.1 1.5 1.8 2.8-.1.4-8.1 39.5-11.7 56.3-1.1 5.5-4.7 10.3-9.7 13.1-8.8 4.9-24.8 13.8-40.4 22.3-15.4 8.5-31.3 17.2-39.8 22-2.9 1.4-5.9 2.1-8.8 2.1z"/><path d="M1351.7 785.6c-1.2 0-2.2-.9-2.3-2.1-1.2-11.5-1.9-23.2-2.7-34.6-.6-8.5-1.1-17.3-1.9-26-.1-1.3.9-2.4 2.2-2.6 1.3-.1 2.4.9 2.6 2.2.7 8.7 1.3 17.5 1.9 26.1.7 11.3 1.5 23 2.7 34.4.1 1.3-.8 2.5-2.1 2.6h-.4zM1501.6 783.7c-1.3 0-2.3-1-2.4-2.3-.6-14.4-1.7-29-2.8-43.1-.4-5-.8-10.1-1.1-15.1-.1-1.3.9-2.4 2.2-2.5 1.3-.1 2.4.9 2.5 2.2.4 5 .8 10.1 1.1 15.1 1.1 14.2 2.2 28.8 2.8 43.3.2 1.2-.9 2.3-2.3 2.4.1 0 .1 0 0 0z"/><path d="M1402.8 796.6c-2.3 0-4.6 0-6.9-.1-18.7-.5-40.1-1.7-57.9-10-1.2-.6-1.7-2-1.1-3.1.6-1.2 2-1.7 3.1-1.1 16.9 7.9 37.7 9.1 56 9.5 16 .3 31.5-.6 44.6-1.6 23.3-1.7 48.1-4.7 72.2-14.1 1.2-.5 2.6.1 3.1 1.3s-.1 2.6-1.3 3.1c-24.7 9.7-50 12.7-73.6 14.5-11.3.8-24.5 1.6-38.2 1.6zM1310.7 813.5c-.3 0-.6-.1-.9-.2-1.2-.5-1.8-1.8-1.3-3.1 4.2-10.6 12.4-18.9 19.2-24.9 1-.9 2.5-.8 3.3.2.9 1 .8 2.5-.2 3.3-6.3 5.7-14.1 13.4-17.9 23.2-.4 1-1.3 1.5-2.2 1.5zM1410 841.4c-33.2 0-62.1-5.4-88-16.4-1.2-.5-1.8-1.9-1.3-3.1.5-1.2 1.9-1.8 3.1-1.3 29.6 12.6 63.4 17.6 103.3 15.5 23.8-1.1 42.7-4 59.5-9.2 1.2-.4 2.6.3 3 1.6.4 1.2-.3 2.6-1.6 3-17.2 5.3-36.5 8.3-60.6 9.4-5.9.3-11.7.5-17.4.5z"/><path d="M1535.8 809.3c-1 0-1.9-.6-2.2-1.6-4.6-14.1-10.4-22.7-18.8-28.1-1.1-.7-1.4-2.2-.7-3.3.7-1.1 2.2-1.4 3.3-.7 12.2 7.8 17.7 21.2 20.8 30.6.4 1.2-.3 2.6-1.5 3-.5.1-.7.1-.9.1zM1683.5 1220c-.8 0-1.5-.4-2-1-.7-1.1-.4-2.6.6-3.3 65.5-44.2 138.4-99.7 181.6-175.3.6-1.1 2.1-1.5 3.2-.9s1.5 2.1.9 3.2c-43.7 76.4-117.1 132.3-183.1 176.8-.3.4-.7.5-1.2.5zM1659.6 1164.4c-.8 0-1.5-.4-2-1.1-.7-1.1-.4-2.6.7-3.3 68.4-44.2 129.2-103.2 176-170.5.7-1.1 2.2-1.3 3.3-.6 1.1.7 1.3 2.2.6 3.3-47.2 67.9-108.5 127.3-177.3 171.8-.4.3-.9.4-1.3.4zM1146.1 1221c-.2 0-.4 0-.6-.1-25.3-7-49.1-20.2-71.3-33.1-41.8-24.2-76.9-49.4-107.5-76.8-1-.9-1-2.4-.2-3.3.9-1 2.4-1.1 3.3-.2 30.3 27.2 65.2 52.2 106.7 76.3 22 12.7 45.5 25.8 70.2 32.6 1.3.3 2 1.7 1.6 2.9-.2 1-1.2 1.7-2.2 1.7zM1157.9 1164.4c-.3 0-.6-.1-.9-.2-71.7-28.3-127.2-65.4-165.1-110.2-.8-1-.7-2.5.3-3.3s2.5-.7 3.3.3c37.4 44.3 92.3 80.9 163.2 108.9 1.2.5 1.8 1.9 1.3 3.1-.3.8-1.1 1.4-2.1 1.4z"/><path d="M1938.1 1188.7c-.6 0-1.3-.2-1.7-.7-28.9-30.6-54.1-64.8-78.4-97.8-3.9-5.3-7.9-10.7-11.8-16-.8-1-.6-2.5.5-3.3 1-.8 2.5-.6 3.3.5 4 5.3 7.9 10.7 11.8 16 24.3 32.9 49.4 67 78 97.4.9.9.9 2.4-.1 3.3-.4.4-1 .6-1.6.6zM927.7 1234.1c-.5 0-1-.2-1.4-.5-1-.8-1.2-2.3-.4-3.3 25.5-33.1 47.2-69.4 68.1-104.6l10.2-17.1c.7-1.1 2.1-1.5 3.2-.8s1.5 2.1.8 3.2l-10.2 17.1c-21 35.3-42.7 71.8-68.4 105.1-.5.6-1.2.9-1.9.9zM1825.8 1336c-.7 0-1.3-.3-1.8-.8-25.6-30.7-50.4-62.8-74.4-93.8l-22.5-29.1c-.8-1-.6-2.5.4-3.3 1-.8 2.5-.6 3.3.4l22.5 29.1c23.9 31 48.7 63 74.2 93.6.8 1 .7 2.5-.3 3.3-.4.4-.9.6-1.4.6zM1026.1 1363.7c-.5 0-1.1-.2-1.5-.5-1-.8-1.1-2.3-.3-3.3 18-21.6 37.1-51.1 55.5-79.7 16.2-25.2 31.5-48.9 46.3-67.9.8-1 2.3-1.2 3.3-.4 1 .8 1.2 2.3.4 3.3-14.7 18.8-29.9 42.5-46.1 67.6-18.5 28.7-37.6 58.4-55.8 80.2-.4.4-1.1.7-1.8.7z"/><path d="M1890.4 1220c-.6 0-1.3-.3-1.7-.8-.9-1-.8-2.5.1-3.3 47-43 106.4-68.2 163.8-92.6 39.3-16.7 80-33.9 116.1-56.7 1.1-.7 2.6-.4 3.3.7.7 1.1.4 2.6-.7 3.3-36.5 23-77.3 40.3-116.8 57-57.1 24.2-116.1 49.3-162.5 91.7-.5.5-1.1.7-1.6.7zM961.5 1247.7c-.6 0-1.1-.2-1.6-.6-46.4-42.5-105.4-67.5-162.5-91.7-39.5-16.7-80.3-34.1-116.8-57-1.1-.7-1.4-2.2-.7-3.3s2.2-1.4 3.3-.7c36.1 22.8 76.8 40 116.1 56.7 57.5 24.4 116.9 49.6 163.9 92.6 1 .9 1 2.4.1 3.3-.5.4-1.2.7-1.8.7zM1874.9 1361c-12.1 0-24.2-2.8-36-9.5-1.1-.6-1.5-2.1-.9-3.2.7-1.1 2.1-1.5 3.2-.9 38.6 22.1 79.6-.9 115.8-21.2 1.7-1 3.4-1.9 5.1-2.9 78.6-43.5 158.8-96.6 260-171.9 1-.8 2.5-.6 3.3.5.8 1 .6 2.5-.5 3.3-101.4 75.5-181.8 128.7-260.6 172.3-1.7.9-3.4 1.9-5.1 2.9-25.1 14-54.6 30.6-84.3 30.6zM977 1388.6c-29.7 0-59.2-16.6-84.4-30.7-1.7-1-3.4-1.9-5.1-2.9-78.8-43.6-159.1-96.7-260.6-172.3-1-.8-1.3-2.3-.5-3.3s2.3-1.3 3.3-.5c101.3 75.4 181.5 128.4 260 171.9 1.7.9 3.4 1.9 5.1 2.9 36.2 20.3 77.2 43.3 115.8 21.2 1.1-.6 2.6-.3 3.2.9.6 1.1.3 2.6-.9 3.2-11.8 6.9-23.9 9.6-35.9 9.6zM2244.2 1139.1c-.6 0-1.3-.2-1.7-.7-.9-.9-.9-2.4.1-3.3 58.9-55.6 93.7-121.3 103.5-195.2 2.7-20.9 7.2-41.3 11.2-58.4.7-2.7 1.4-5.5 2.2-8.2 2.4-8.6 4.8-17.5 5.1-26.2.1-4.4-1.7-8.6-4.9-10.7-2.8-1.9-6.1-2.1-9.7-.5-5.3 2.4-9 8.3-11.6 13.1-.6 1.1-2.1 1.6-3.2.9-1.1-.6-1.6-2.1-.9-3.2 3-5.5 7.2-12.1 13.8-15.2 5.1-2.2 10.2-1.9 14.3.9 4.5 3.1 7.2 8.7 7 14.8-.4 9.3-2.9 18.4-5.3 27.3-.7 2.7-1.5 5.4-2.1 8.1-4 17-8.5 37.1-11.1 57.9-9.9 75-45.2 141.6-104.9 198-.6.4-1.2.6-1.8.6zM607.7 1166.7c-.6 0-1.2-.2-1.6-.6-59.7-56.4-95-123-104.9-198-2.7-20.8-7.1-40.9-11.1-57.9-.7-2.6-1.4-5.4-2.1-8.1-2.4-8.9-4.9-18-5.3-27.3-.2-6.1 2.5-11.8 7-14.8 4.1-2.8 9.2-3.1 14.2-1 6.6 3.1 10.9 9.7 13.9 15.2.6 1.1.2 2.6-.9 3.2-1.1.6-2.6.2-3.2-.9-2.6-4.8-6.3-10.7-11.6-13.1-3.5-1.5-6.9-1.3-9.7.6-3.2 2.2-5.1 6.3-4.9 10.7.3 8.7 2.8 17.6 5.1 26.2.7 2.7 1.5 5.5 2.2 8.2 4 17.1 8.5 37.5 11.2 58.4 9.8 73.9 44.6 139.6 103.5 195.2.9.9 1 2.4.1 3.3-.7.5-1.3.7-1.9.7z"/><path d="M2320.7 922.5h-.4c-1.3-.2-2.1-1.5-1.9-2.8l1.1-5.8c3.4-17.5 6.8-35.6 11.7-53.1.3-1.3 1.6-2 2.9-1.6 1.3.3 2 1.6 1.6 2.9-4.8 17.3-8.2 35.3-11.6 52.8l-1.1 5.8c-.2 1-1.2 1.8-2.3 1.8zM531.1 950.1c-1.1 0-2.1-.8-2.3-1.9l-1.1-5.5c-3.4-17.5-6.8-35.7-11.6-53.1-.3-1.3.4-2.6 1.6-2.9 1.3-.4 2.6.4 2.9 1.6 4.9 17.6 8.4 35.9 11.7 53.5l1.1 5.5c.2 1.3-.6 2.5-1.9 2.8h-.4z"/><path d="M2309.1 913h-.3c-1.3-.2-2.2-1.3-2-2.6.5-3.9 1.1-8 1.8-12.2 2.1-13.1 4.3-26.7 2.1-38.6-1-5.2-3-10.4-4.8-15.3-3.1-8.2-6.3-16.7-5.9-26.4.2-6.8 5.7-20.9 13.8-23.5 2.8-.9 7.1-.7 11.3 5 6 7.9 8.5 18.6 10.9 29 1 4.5 2 8.7 3.3 12.5.4 1.2-.3 2.6-1.5 3-1.2.4-2.6-.3-3-1.5-1.3-4-2.3-8.3-3.4-12.9-2.3-9.9-4.7-20.2-10.1-27.3-3.2-4.3-5.4-3.6-6.1-3.3-5.1 1.6-10.3 13.1-10.5 19.1-.4 8.8 2.5 16.4 5.6 24.5 1.9 5.1 3.9 10.4 5.1 16.1 2.4 12.7.1 26.7-2.1 40.3-.7 4.2-1.3 8.2-1.8 12-.2 1.3-1.2 2.1-2.4 2.1zM542.8 940.7c-1.2 0-2.2-.9-2.3-2.1-.5-3.9-1.1-7.9-1.8-12.1-2.2-13.5-4.4-27.5-2.1-40.2 1.1-5.7 3.1-11 5.1-16.1 3.1-8.1 5.9-15.8 5.6-24.5-.2-6.1-5.4-17.6-10.5-19.1-.7-.2-3-.9-6.1 3.3-5.4 7.1-7.8 17.4-10.1 27.3-1.1 4.6-2.1 8.9-3.4 12.9-.4 1.2-1.7 1.9-3 1.5-1.2-.4-1.9-1.7-1.5-3 1.2-3.8 2.2-8 3.3-12.5 2.4-10.4 5-21.2 10.9-29.1 4.2-5.7 8.5-5.9 11.3-5 8.2 2.5 13.6 16.6 13.8 23.5.4 9.7-2.8 18.2-5.9 26.4-1.9 5-3.8 10.1-4.9 15.4-2.2 11.8 0 25.4 2.1 38.6.7 4.3 1.3 8.3 1.8 12.2.2 1.3-.8 2.5-2 2.6h-.3z"/><path d="M2289.3 919c-1.4-.1-2.4-1.2-2.3-2.5.3-6.3 1-12.7 1.7-19 1.2-10.9 2.4-22.2 1.8-33.1-.2-4-1.1-8.1-1.9-12.6-2.3-11.9-5-25.5 5.6-35.9 2.1-2.1 4.4-3.8 7.3-5.4 1.1-.6 2.6-.2 3.2.9.6 1.1.2 2.6-.9 3.2-2.5 1.4-4.5 2.9-6.2 4.6-8.8 8.7-6.6 19.9-4.3 31.7.8 4.4 1.7 8.9 2 13.2.6 11.3-.6 22.8-1.8 33.9-.7 6.2-1.3 12.5-1.7 18.7-.2 1.3-1.3 2.3-2.5 2.3zM562.6 946.6c-1.2 0-2.3-1-2.4-2.2-.3-6.2-1-12.6-1.7-18.7-1.2-11.1-2.4-22.5-1.8-33.9.3-4.3 1.1-8.8 2-13.2 2.3-11.8 4.5-23-4.3-31.7-1.8-1.8-3.8-3.2-6.3-4.7-1.1-.6-1.5-2.1-.9-3.2s2.1-1.5 3.2-.9c2.9 1.6 5.2 3.3 7.3 5.4 10.6 10.4 7.9 24 5.6 35.9-.9 4.4-1.7 8.6-1.9 12.6-.6 10.9.6 22.2 1.8 33.1.7 6.2 1.3 12.7 1.7 19 .1 1.3-.9 2.4-2.3 2.5zM2183.4 1059.5c-.2 0-.4 0-.6-.1-1.3-.3-2-1.6-1.7-2.9 3.8-14.8-1.1-27.8-6.4-41.6-3.6-9.4-7.3-19.1-8-29.5-.8-11.5 4.8-22 10.1-32.1 2.8-5.2 5.4-10.1 7.1-15.1.4-1.2 1.8-1.9 3-1.4 1.2.4 1.9 1.8 1.4 3-1.9 5.3-4.7 10.6-7.4 15.7-5 9.5-10.3 19.3-9.6 29.5.7 9.7 4.3 19.1 7.7 28.2 5.3 13.8 10.7 28.2 6.5 44.4-.1 1.2-1.1 1.9-2.1 1.9zM668.5 1087.2c-1.1 0-2-.7-2.3-1.8-4.2-16.3 1.2-30.6 6.5-44.4 3.5-9.1 7-18.5 7.7-28.2.7-10.2-4.5-20-9.6-29.5-2.7-5.1-5.5-10.4-7.4-15.7-.4-1.2.2-2.6 1.4-3 1.2-.4 2.6.2 3 1.4 1.8 5 4.4 9.9 7.1 15.1 5.4 10.1 10.9 20.5 10.1 32.1-.7 10.4-4.4 20.1-8 29.5-5.2 13.8-10.2 26.8-6.4 41.6.3 1.3-.4 2.6-1.7 2.9 0-.1-.2 0-.4 0zM2237.6 1030.3c-15.1 0-23-13-30-24.5-1.9-3.1-3.7-6-5.5-8.6-1.2-1.6-2.5-3.3-3.8-4.8-1.3-1.7-2.7-3.4-4-5.1l-.2-.2c-1.4-1.7-2.5-3.4-2.3-5.1.4-2 .9-4 1.4-5.8.8-2.9 1.5-5.7 1.7-8.5.8-8.1-.7-16.3-4.8-25.7-.5-1.2 0-2.6 1.2-3.1s2.6 0 3.1 1.2c4.5 10.2 6.1 19.1 5.2 28.1-.3 3.1-1.1 6.2-1.9 9.2-.4 1.7-.9 3.4-1.2 5.1.2.4.6 1 1.3 1.8l.3.4c1.2 1.7 2.5 3.2 3.8 4.9 1.3 1.6 2.6 3.3 3.9 5 2 2.7 3.8 5.7 5.7 8.9 6.9 11.2 14 22.9 27.1 22.2 1.3-.1 2.4.9 2.5 2.2.1 1.3-.9 2.4-2.2 2.5-.4-.1-.9-.1-1.3-.1zM614.3 1058h-1.4c-1.3-.1-2.3-1.2-2.2-2.5.1-1.3 1.2-2.3 2.5-2.2 13.2.7 20.3-10.9 27.1-22.2 1.9-3.2 3.8-6.2 5.7-8.9 1.3-1.7 2.6-3.4 3.9-5 1.4-1.7 2.6-3.3 3.8-4.9l.3-.4c.7-.8 1.1-1.5 1.3-1.8-.3-1.7-.8-3.4-1.2-5.1-.8-3-1.6-6-1.9-9.2-.9-8.9.8-17.8 5.2-28.1.5-1.2 1.9-1.7 3.1-1.2s1.7 1.9 1.2 3.1c-4.1 9.4-5.7 17.6-4.8 25.7.3 2.8 1 5.5 1.7 8.5.5 1.9 1 3.8 1.4 5.8.3 1.8-.9 3.5-2.3 5.2l-.2.3c-1.2 1.7-2.6 3.4-3.9 5.1-1.3 1.6-2.5 3.2-3.7 4.8-1.8 2.6-3.6 5.5-5.5 8.6-7.1 11.4-15 24.4-30.1 24.4zM2246.9 1018.2c-.5 0-1.1-.2-1.5-.5-1-.8-1.1-2.3-.3-3.3 7.4-8.9 14.1-19.5 20.6-32.6 3.4-6.6 6.7-13.6 7.3-20.7.8-11.4-3.4-23.3-10.8-30.3-5.3-5-12.1-7.2-19.4-6.2-3.3.4-6.5 2.4-9.6 4.3-.9.6-1.8 1.1-2.8 1.7l-.7.4c-2.6 1.4-5.2 2.9-7.8 4.3-4.9 2.9-20.5 9-27.1-.7-.7-1.1-.5-2.5.6-3.3 1.1-.7 2.5-.5 3.3.6 4.6 6.8 17.9 1.1 20.9-.7 2.6-1.5 5.2-2.9 7.8-4.3l.7-.4c.8-.5 1.7-1 2.6-1.6 3.3-2.1 7.1-4.4 11.5-5 8.8-1.2 16.8 1.4 23.3 7.4 8.4 7.9 13.2 21.3 12.3 34.1-.7 7.9-4.2 15.4-7.8 22.4-6.7 13.3-13.6 24.3-21.2 33.4-.6.7-1.3 1-1.9 1zM605 1045.8c-.7 0-1.4-.3-1.8-.9-7.6-9.2-14.5-20.1-21.2-33.5-3.6-7-7.1-14.5-7.8-22.4-.9-12.8 3.9-26.2 12.2-34.1 6.4-6 14.5-8.6 23.3-7.4 4.3.6 8.1 2.9 11.5 5 .9.5 1.8 1.1 2.6 1.6l8.5 4.7c3.1 1.8 16.3 7.5 21 .7.7-1.1 2.2-1.3 3.3-.6 1.1.7 1.3 2.2.6 3.3-6.6 9.7-22.2 3.6-27.2.7l-8.4-4.7c-.9-.5-1.9-1.1-2.8-1.7-3.1-1.9-6.3-3.9-9.6-4.3-7.4-1-14.1 1.1-19.4 6.2-7.4 6.9-11.6 18.8-10.8 30.3.6 7 3.9 14.1 7.3 20.6 6.5 13 13.3 23.7 20.6 32.6.8 1 .7 2.5-.3 3.3-.5.5-1.1.6-1.6.6z"/><path d="M2195 935.7c-.7 0-1.3-.3-1.8-.8-.9-1-.8-2.5.2-3.3 4.1-3.5 7.8-8 11.3-13.8.6-1.1 1.2-2.2 1.9-3.4 1.8-3.3 3.7-6.7 6.4-9.6 3.7-4 9-6.5 13.6-8.6l.7-.3c1.3-.6 2.7-1.4 4.1-2.1 4.3-2.3 8.7-4.6 13.5-5.6 11.7-2.4 23.5 3.9 32.9 9l1.9 1c1.2.6 1.6 2 1 3.2-.6 1.2-2 1.6-3.2 1l-1.9-1c-9.2-4.9-19.6-10.5-29.7-8.5-4.1.9-8.3 3-12.3 5.1-1.4.7-2.9 1.5-4.3 2.2l-.8.4c-4.5 2.1-9.1 4.2-12.2 7.6-2.4 2.5-4 5.5-5.7 8.6-.6 1.2-1.3 2.4-2 3.5-3.8 6.2-7.8 11-12.3 14.9-.2.3-.8.5-1.3.5zM656.9 963.3c-.5 0-1.1-.2-1.5-.6-4.5-3.9-8.5-8.7-12.3-14.8-.7-1.2-1.4-2.4-2-3.6-1.7-3.2-3.4-6.2-5.7-8.6-3.1-3.4-7.7-5.5-12.2-7.6l-.8-.4c-1.5-.7-2.9-1.5-4.3-2.2-4-2.1-8.2-4.3-12.3-5.2-10-2-20.5 3.6-29.7 8.5l-1.9 1c-1.2.6-2.6.2-3.2-1-.6-1.2-.2-2.6 1-3.2l1.9-1c9.4-5 21.1-11.3 32.8-9 4.8 1 9.2 3.3 13.5 5.6 1.4.8 2.8 1.5 4.2 2.1l.7.3c4.6 2.2 9.9 4.6 13.6 8.7 2.7 2.8 4.6 6.3 6.4 9.6.6 1.2 1.3 2.3 1.9 3.4 3.5 5.7 7.2 10.2 11.3 13.7 1 .9 1.1 2.3.2 3.3-.3.7-1 1-1.6 1zM832.1 1597.7c-.8 0-1.6-.4-2-1.2-23.2-39.4-31.1-85.8-22.4-130.7 8.9-45.9 34.5-84.8 72-109.6 1.1-.7 2.6-.4 3.3.7.7 1.1.4 2.6-.7 3.3-73.8 48.9-95.4 153.8-48.2 234 .7 1.1.3 2.6-.8 3.2-.4.2-.8.3-1.2.3zM1496.8 1626.2c-.4 0-.8-.1-1.2-.3-55.8-33.7-114.6-63.6-171.5-92.4-21.9-11.1-44.5-22.6-66.7-34.2-15.4-8.1-31-16.3-46-24.3-54.9-29-111.7-59.1-168.9-85.7-1.2-.5-1.7-2-1.1-3.1.6-1.1 2-1.7 3.1-1.1 57.3 26.7 114.2 56.7 169.1 85.8 15.1 8 30.6 16.2 46 24.3 22.1 11.6 44.8 23 66.6 34.2 56.9 28.9 115.8 58.8 171.8 92.6 1.1.7 1.5 2.1.8 3.2-.4.6-1.2 1-2 1zM1398.5 1848c-.3 0-.5 0-.8-.1-18-6.5-36-12.9-54-19.4-162.4-58.2-330.3-118.3-484-202.6-1.1-.6-1.6-2.1-.9-3.2.6-1.1 2.1-1.6 3.2-.9 153.4 84.1 321.1 144.2 483.4 202.3 18 6.5 36 12.9 54 19.4 1.2.4 1.9 1.8 1.4 3-.4.9-1.3 1.5-2.3 1.5zM1410 1869.7c-.3 0-.6-.1-.8-.2-1.2-.5-1.8-1.8-1.4-3.1 3.5-9.2 7.1-18.4 10.6-27.6 29.3-76.6 59.6-155.8 93.8-232.2.5-1.2 1.9-1.7 3.1-1.2 1.2.5 1.7 1.9 1.2 3.1-34.1 76.3-64.4 155.4-93.7 232-3.5 9.2-7 18.4-10.6 27.6-.4 1-1.2 1.6-2.2 1.6z"/><path d="M1635.1 1673.8c-.4 0-.8-.1-1.1-.3-15.9-8.8-43.2-20.5-69.6-31.9-20.3-8.8-39.5-17-52.1-23.3-1.2-.6-1.6-2-1.1-3.2.6-1.2 2-1.6 3.2-1.1 12.5 6.3 31.6 14.5 51.8 23.2 26.5 11.4 54 23.3 70.1 32.1 1.1.6 1.6 2.1.9 3.2-.5.9-1.3 1.3-2.1 1.3zM1542.7 1899.8c-.3 0-.7-.1-1-.2-1.2-.6-1.7-2-1.1-3.2 19.5-39.8 36.3-81.7 52.6-122.3 12.6-31.4 25.6-63.9 39.8-95.2.5-1.2 1.9-1.7 3.1-1.2 1.2.5 1.7 1.9 1.2 3.1-14.2 31.2-27.2 63.7-39.7 95-16.3 40.6-33.1 82.6-52.7 122.6-.5.9-1.3 1.4-2.2 1.4zM1534.2 1909.1c-.3 0-.6-.1-.9-.2-4.1-1.7-8.4-3.6-12.9-5.5-32.4-13.9-72.7-31.1-102.4-39.2-1.3-.3-2-1.6-1.7-2.9.3-1.3 1.6-2 2.9-1.7 30 8.2 70.5 25.5 103 39.4 4.5 1.9 8.8 3.8 12.8 5.5 1.2.5 1.8 1.9 1.3 3.1-.3 1-1.2 1.5-2.1 1.5zM1529.9 1878.3c-.2 0-.5 0-.8-.1-27.5-9.2-60.1-19.9-92.3-28.9-1.3-.4-2-1.7-1.6-2.9.4-1.3 1.7-2 2.9-1.6 32.4 9 64.9 19.7 92.5 29 1.2.4 1.9 1.8 1.5 3-.3.9-1.2 1.5-2.2 1.5zM1515.3 1857.3c-.3 0-.6-.1-.8-.2-12.6-4.9-26.1-10-39.5-14.6-1.2-.4-1.9-1.8-1.5-3 .4-1.2 1.8-1.9 3-1.5 13.5 4.6 27 9.8 39.7 14.7 1.2.5 1.8 1.8 1.4 3.1-.4.9-1.3 1.5-2.3 1.5zM1419.4 1553.7c-.9 0-1.7-.5-2.1-1.3-.6-1.2-.1-2.6 1-3.2 9.9-5 20-10.1 30.1-15.3 122.3-62.1 261-132.6 389.3-174.6 1.2-.4 2.6.3 3 1.5.4 1.2-.3 2.6-1.5 3-128 41.9-266.4 112.2-388.6 174.3-10.2 5.2-20.2 10.3-30.1 15.3-.3.2-.7.3-1.1.3zM1668.9 1708.3c-.9 0-1.8-.6-2.2-1.5-.5-1.2.1-2.6 1.3-3.1 10.5-4.1 21-8.5 31.2-12.7 14-5.8 28.5-11.8 43-17.2 7-2.6 14.2-5.3 22-8.2 82.6-30.5 195.8-72.2 228.6-147.2 12.8-29.3 12-61.7-2.3-96.5-8.6-20.6-21.2-41.6-39.6-66.1-.8-1-.6-2.5.5-3.3 1-.8 2.5-.6 3.3.5 18.7 24.8 31.4 46.1 40.2 67.1 14.9 36.1 15.7 69.8 2.3 100.3-33.6 76.8-147.9 118.9-231.3 149.7-7.7 2.8-15 5.5-21.9 8.1-14.4 5.4-28.9 11.3-42.9 17.1-10.2 4.2-20.8 8.6-31.3 12.7-.3.3-.6.3-.9.3zM1084.9 1701.8c-.3 0-.6-.1-.9-.2l-6.3-2.7c-56.2-24-114.4-48.7-167.3-81.4-1.1-.7-1.5-2.1-.8-3.3.7-1.1 2.1-1.5 3.3-.8 52.6 32.5 110.6 57.2 166.6 81.1l6.3 2.7c1.2.5 1.8 1.9 1.2 3.1-.3 1-1.2 1.5-2.1 1.5zM1161.7 1737c-.4 0-.7-.1-1.1-.3-12.2-6.4-24.8-12.6-37-18.7-3.4-1.7-6.8-3.4-10.1-5-1.2-.6-1.6-2-1.1-3.2.6-1.2 2-1.6 3.2-1.1 3.4 1.7 6.8 3.4 10.1 5 12.2 6 24.8 12.3 37 18.7 1.2.6 1.6 2 1 3.2-.4.9-1.2 1.4-2 1.4zM1583.5 1499c-.9 0-1.7-.5-2.1-1.3-.6-1.2-.1-2.6 1.1-3.1 33.5-16 73.4-34.4 115.3-50.1 1.2-.5 2.6.2 3 1.4.5 1.2-.2 2.6-1.4 3-41.7 15.6-81.4 34-114.9 49.9-.3.1-.6.2-1 .2zM1223.5 1861.1c-.7 0-1.3-.3-1.8-.8-12-14.2-24.9-28.1-37.3-41.6-8.5-9.2-17.2-18.7-25.7-28.3-3.9-4.5-7.9-9-11.8-13.5s-7.9-9-11.8-13.5c-.9-1-.8-2.5.2-3.3 1-.9 2.5-.8 3.3.2 3.9 4.5 7.9 9 11.8 13.5s7.9 9 11.8 13.5c8.4 9.5 17.2 19 25.7 28.2 12.4 13.5 25.3 27.5 37.4 41.7.8 1 .7 2.5-.3 3.3-.5.5-1 .6-1.5.6zM1229.7 1874.8c-.7 0-1.3-.3-1.8-.8-.8-1-.7-2.5.3-3.3 18.3-15.6 38-30.3 57-44.6 6.5-4.9 13.2-9.9 19.8-14.9 1-.8 2.5-.6 3.3.4.8 1 .6 2.5-.5 3.3-6.6 5-13.3 10-19.8 14.9-19 14.2-38.6 28.9-56.8 44.4-.4.4-.9.6-1.5.6zM1264.2 1819.6c-.7 0-1.4-.3-1.9-.9-.8-1-.6-2.5.4-3.3 6-4.6 12-9.5 17.8-14.5 1-.9 2.5-.7 3.3.2.9 1 .7 2.5-.2 3.3-5.9 5.1-12 10.1-18 14.7-.4.4-.9.5-1.4.5zM1237.4 1839.6c-.7 0-1.5-.3-1.9-1-.8-1.1-.5-2.5.6-3.3 1.9-1.3 3.7-2.7 5.5-4 2.4-1.8 4.9-3.7 7.5-5.4 1.1-.7 2.5-.5 3.3.6.7 1.1.5 2.5-.6 3.3-2.5 1.7-4.8 3.4-7.3 5.3-1.8 1.3-3.7 2.7-5.6 4.1-.5.3-1 .4-1.5.4z"/><path d="M1700.2 1733.1c-.4 0-.7-.1-1.1-.3-17.1-8.8-35.6-16.1-53.5-23.1-5.2-2-10.6-4.1-15.8-6.2-1.2-.5-1.8-1.9-1.3-3.1.5-1.2 1.9-1.8 3.1-1.3 5.2 2.1 10.6 4.2 15.7 6.2 18 7 36.7 14.3 53.9 23.3 1.2.6 1.6 2 1 3.2-.4.8-1.2 1.3-2 1.3zM1645.6 1874.7c-.3 0-.7-.1-1-.2-23.2-10.8-48.8-18.2-73.6-25.3l-1.6-.5c-1.3-.4-2-1.7-1.6-2.9.4-1.2 1.7-2 2.9-1.6l1.6.5c25 7.2 50.8 14.6 74.3 25.6 1.2.6 1.7 2 1.1 3.1-.3.8-1.2 1.3-2.1 1.3zM1063.2 1761.8c-.8 0-1.5-.4-2-1.1-.7-1.1-.4-2.6.7-3.3 10.4-6.7 21.9-13.8 36.2-22.3 1.1-.7 2.6-.3 3.2.8.7 1.1.3 2.6-.8 3.2-14.2 8.4-25.7 15.5-36.1 22.2-.4.4-.8.5-1.2.5zM1151.1 1897c-.7 0-1.5-.4-1.9-1-.7-1.1-.5-2.5.6-3.3 19.9-13.8 37.4-24.6 53.4-32.9 1.2-.6 2.6-.1 3.2 1 .6 1.2.1 2.6-1 3.2-15.8 8.2-33.1 18.8-52.9 32.5-.4.3-.9.5-1.4.5z"/><path d="M1640.7 1895.5c-.2 0-.5 0-.8-.1-1.2-.4-1.9-1.8-1.5-3 7.2-21.7 15.8-43.3 24-64.1 5.5-13.9 11.2-28.3 16.4-42.5 5.1-14 9.7-28.5 14.2-42.6 3.9-12.4 8-25.2 12.4-37.7.4-1.2 1.8-1.9 3-1.4 1.2.4 1.9 1.8 1.4 3-4.4 12.4-8.5 25.2-12.4 37.6-4.5 14.1-9.1 28.6-14.3 42.8-5.3 14.3-10.9 28.7-16.4 42.6-8.2 20.8-16.7 42.4-23.9 63.9-.2.9-1.1 1.5-2.1 1.5zM1158.2 1900.9c-.8 0-1.6-.4-2-1.2-11.5-19.6-24.3-39-36.6-57.7-8.2-12.5-16.7-25.4-24.8-38.3-8-12.8-15.5-26.1-22.8-39-6.4-11.3-13-22.9-19.8-34.1-.7-1.1-.3-2.6.8-3.2 1.1-.7 2.6-.3 3.2.8 6.9 11.3 13.5 22.9 19.9 34.2 7.3 12.8 14.8 26.1 22.7 38.9 8 12.8 16.5 25.7 24.7 38.2 12.4 18.8 25.2 38.2 36.7 57.9.7 1.1.3 2.6-.8 3.2-.4.2-.8.3-1.2.3zM1939.7 1784.7c-.2 0-.4 0-.7-.1-20.1-5.9-40.1-13.1-59.5-20.1-9.6-3.5-19.6-7-29.4-10.4-41.2-13.9-86.5-28.6-138.3-45.1-1.2-.4-1.9-1.7-1.5-3 .4-1.2 1.7-1.9 3-1.5 51.9 16.5 97.1 31.2 138.4 45.1 9.9 3.4 19.8 7 29.5 10.4 19.3 6.9 39.2 14.1 59.2 20 1.3.4 2 1.7 1.6 2.9-.4 1.1-1.3 1.8-2.3 1.8z"/><path d="M825.3 1864.2c-.8 0-1.7-.5-2.1-1.2-.6-1.1-.2-2.6 1-3.2 18.9-10.2 45.5-26.4 69-40.8 10.6-6.5 20.7-12.6 29.1-17.6 37.4-22 78.7-45.7 126.2-72.6 1.1-.6 2.6-.2 3.2.9.6 1.1.2 2.6-.9 3.2-47.5 26.8-88.7 50.6-126.1 72.5-8.4 5-18.4 11.1-29 17.6-23.5 14.4-50.1 30.7-69.2 40.9-.5.2-.9.3-1.2.3zM1814.3 2189.2c-.3 0-.6 0-.8-.2-1.2-.5-1.8-1.8-1.4-3 46.9-124.4 96.4-257 140.4-389.8.4-1.2 1.7-1.9 3-1.5 1.2.4 1.9 1.7 1.5 3-44.1 132.9-93.6 265.5-140.5 390-.4.9-1.3 1.5-2.2 1.5zM1048.7 2223.9c-.8 0-1.5-.4-2-1.1C975.2 2110.7 899.5 1991 829 1870c-.7-1.1-.3-2.6.9-3.2 1.1-.7 2.6-.3 3.2.9 70.4 120.9 146.1 240.5 217.6 352.6.7 1.1.4 2.6-.7 3.3-.5.2-.9.3-1.3.3zM1789.7 2177.2c-.2 0-.4 0-.7-.1-1.3-.4-2-1.7-1.6-2.9 9.9-33.5 22.2-66.8 34.2-99.1 5.3-14.2 10.7-28.9 15.8-43.3 27-77 54.5-157.7 84.1-246.8.4-1.2 1.7-1.9 3-1.5 1.2.4 1.9 1.7 1.5 3-29.6 89.1-57.1 169.9-84.1 246.9-5.1 14.5-10.6 29.2-15.9 43.4-11.9 32.1-24.2 65.4-34.1 98.8-.2.9-1.2 1.6-2.2 1.6zM1070.2 2207.1c-.8 0-1.7-.5-2.1-1.2-16.5-30.6-35.3-60.6-53.6-89.6-8.1-12.9-16.5-26.1-24.5-39.3-41.4-68.5-79.4-132.5-126.9-214.1-.7-1.1-.3-2.6.9-3.2 1.1-.7 2.6-.3 3.2.9 47.5 81.5 85.4 145.5 126.9 214 8 13.1 16.4 26.4 24.4 39.2 18.3 29.1 37.2 59.1 53.8 89.9.6 1.1.2 2.6-1 3.2-.3.1-.7.2-1.1.2z"/><path d="M1822.7 2192.9c-.2 0-.4 0-.7-.1-2-.6-4.1-1.2-6.2-1.8-22.6-6.6-46-13.4-66.6-24.1-1.2-.6-1.6-2-1-3.2.6-1.2 2-1.6 3.2-1 20.2 10.4 43.4 17.2 65.8 23.7 2.1.6 4.1 1.2 6.2 1.8 1.3.4 2 1.7 1.6 2.9-.3 1.2-1.3 1.8-2.3 1.8zM1048.4 2222.6c-.8 0-1.7-.5-2.1-1.2-.6-1.1-.2-2.6 1-3.2 1.9-1 3.8-2 5.7-3.1 20.5-11 41.8-22.4 59.4-36.7 1-.8 2.5-.7 3.3.3.8 1 .7 2.5-.3 3.3-18 14.6-39.4 26.1-60.2 37.2-1.9 1-3.8 2.1-5.7 3.1-.3.2-.7.3-1.1.3zM1735.2 2163.2c-.3 0-.5 0-.8-.1-1.2-.4-1.9-1.8-1.4-3 7.9-22.2 5.6-50.5 3.8-73.2-6.1-80.7-38-144.8-92.2-185.5-1-.8-1.3-2.3-.5-3.3s2.3-1.3 3.3-.5c55.3 41.5 87.9 106.9 94.1 188.9 1.9 23.2 4.2 52-4 75.2-.4.9-1.3 1.5-2.3 1.5zM1120.7 2182.2c-.8 0-1.6-.4-2-1.1-12.8-21-16.5-49.7-19.4-72.8-10.8-81.6 7.6-152.2 53.2-204.2.9-1 2.4-1.1 3.3-.2 1 .9 1.1 2.4.2 3.3-44.7 51-62.7 120.3-52.1 200.5 2.9 22.6 6.5 50.8 18.8 70.9.7 1.1.3 2.6-.8 3.2-.3.3-.8.4-1.2.4zM1889.9 1875.6c-.5 0-1.1-.2-1.5-.6-17.5-14.9-30.8-33.9-39.5-56.4-8.1-20.8-11.9-43.7-11.4-68 0-1.3 1.1-2.3 2.4-2.3h.1c1.3 0 2.3 1.1 2.3 2.4-1.1 49.8 16.4 92.7 49.3 120.7 1 .8 1.1 2.3.3 3.3-.7.6-1.3.9-2 .9zM910.2 1932.6c-.5 0-1-.2-1.4-.5-1-.8-1.2-2.3-.4-3.3 26.4-34.2 34.7-79.7 23.4-128.3-.3-1.3.5-2.5 1.8-2.8 1.3-.3 2.5.5 2.8 1.8 5.5 23.6 6.5 46.8 2.8 68.8-3.9 23.8-13 45.1-27.1 63.4-.5.6-1.2.9-1.9.9z"/><path d="M1649.9 1999c-3.4 0-6.6-.3-9.7-.8-10.1-1.8-22.2-9-24.7-18.1-1.1-4-1-10.2 6.4-16.7 8-7.1 20.7-8.3 29.9-8h.6c8.7 0 18.2 1.7 29.8 5.3 1.2.4 1.9 1.7 1.6 3-.4 1.2-1.7 1.9-3 1.6-11.4-3.6-20.7-5.2-29.1-5.1-8.4-.2-19.8.8-26.7 6.8-4.4 3.9-6.1 7.9-4.9 11.9 2 7.2 12.5 13.2 21 14.7 7.4 1.3 15.8.9 24.9-1.2 10-2.6 20.2-7.2 32-14.2 1.1-.7 2.6-.3 3.2.8.7 1.1.3 2.6-.8 3.2-12.2 7.3-22.8 11.9-33.3 14.7-6.1 1.4-11.8 2.1-17.2 2.1zM1724.7 1985.5c-.8 0-1.6-.4-2.1-1.2-.6-1.1-.2-2.6.9-3.2 18.4-10.4 37.5-31 35.9-51.7-.2-3.6-1-7.1-2.1-9.8-3-6.9-7.3-10.5-12.7-10.5-11.4 0-25.2 14.9-29.6 25.2-3 7.4-5.3 15.6-7.1 25.9-.2 1.3-1.4 2.1-2.7 1.9-1.3-.2-2.1-1.5-1.9-2.7 1.9-10.6 4.2-19.2 7.4-26.9 5-11.5 19.9-28.1 34-28.1 5.1 0 12.3 2.3 17 13.4 1.3 3.2 2.2 7.2 2.5 11.3 1.8 22.8-18.6 45.1-38.3 56.2-.4.1-.8.2-1.2.2zM1094.4 2006.1c-.2 0-.5 0-.7-.1-21.6-6.8-46.1-24.5-49-47.1-.6-4-.5-8.2.1-11.5 2.4-11.8 8.9-15.6 13.9-16.6 13.8-2.9 31.8 10.3 39 20.5 4.7 7 8.8 14.8 12.8 24.8.5 1.2-.1 2.6-1.3 3.1s-2.6-.1-3.1-1.3c-3.9-9.7-7.8-17.3-12.3-23.9-6.4-9.1-23-20.9-34.1-18.6-5.3 1.1-8.8 5.5-10.3 12.9-.5 2.9-.6 6.4-.1 10 2.7 20.7 25.6 36.9 45.8 43.3 1.2.4 1.9 1.7 1.5 3-.2.9-1.2 1.5-2.2 1.5zM1722.4 2012.1c-1.2 0-2.2-.8-2.3-2-.2-1.3.7-2.5 2-2.7 8.2-1.2 16.6-2.6 24.7-4 4-.7 7.9-1.4 11.8-2 1.3-.2 2.5.7 2.7 1.9.2 1.3-.7 2.5-1.9 2.7-3.9.7-7.9 1.3-11.8 2-8.2 1.4-16.6 2.9-24.8 4-.2.1-.3.1-.4.1zM1065.1 2033.3c-1.3 0-2.3-1-2.4-2.3-.1-1.3 1-2.4 2.3-2.5 4.2-.2 8.4-.3 12.6-.5 8.1-.3 16.4-.6 24.5-1.1 1.3-.1 2.4.9 2.5 2.2.1 1.3-.9 2.4-2.2 2.5-8.1.5-16.5.8-24.6 1.1-4.2.2-8.4.3-12.5.5-.1.1-.1.1-.2.1zM1735.2 2043.7c-1.1 0-2.1-.8-2.3-1.9-.2-1.3.6-2.5 1.9-2.8 3.6-.7 7.1-1.3 10.7-2 12.2-2.3 24.9-4.6 37.3-7.5 1.3-.3 2.5.5 2.8 1.8.3 1.3-.5 2.5-1.8 2.8-12.5 2.9-25.2 5.2-37.5 7.5-3.6.7-7.1 1.3-10.7 2-.2 0-.3.1-.4.1zM1056.5 2065.9c-3.1 0-6.3 0-9.4-.1-1.3 0-2.3-1.1-2.3-2.4s1.1-2.3 2.4-2.3c12.9.2 25.9-.1 38.5-.4 3.5-.1 7-.2 10.4-.2 1.3 0 2.3 1 2.4 2.3 0 1.3-1 2.4-2.3 2.4-3.5.1-7 .2-10.4.2-9.6.3-19.4.5-29.3.5zM1135 2016.1c-10 0-20.3-1.5-29.4-4.5-1.2-.4-1.9-1.7-1.5-3 .4-1.2 1.7-1.9 3-1.5 17 5.6 38.8 5.7 53.1.2 8.8-3.4 14.2-7.8 16.3-13.1 1.4-4 1.1-7.5-1.1-10.6-5.6-8-22.3-11.5-32.4-11.5-3.2 0-6.6.4-10.1 1.2-5 .9-9.6 2.3-14.1 4.3-1.2.5-2.6 0-3.1-1.2s0-2.6 1.2-3.1c4.8-2.1 9.7-3.6 15-4.6 3.8-.9 7.5-1.3 11.1-1.3 10.3 0 29.3 3.7 36.3 13.5 3.1 4.4 3.6 9.4 1.6 14.9-2.5 6.7-8.9 12-19 15.9-7.6 3-17 4.4-26.9 4.4zM1894.6 630.3c-.6 0-1.1-.2-1.6-.6-1-.9-1.1-2.4-.2-3.3 4.8-5.4 9.6-10.9 14.3-16.2 11.9-13.5 24.2-27.6 37-40.8 5.5-5.7 11.2-11.5 16.8-17.1 17.3-17.5 35.3-35.6 50.7-55.2.8-1 2.3-1.2 3.3-.4 1 .8 1.2 2.3.4 3.3-15.6 19.8-33.6 38-51 55.6-5.5 5.6-11.2 11.3-16.7 17-12.7 13.2-25 27.1-36.9 40.6-4.7 5.3-9.5 10.8-14.3 16.2-.5.6-1.1.9-1.8.9zM2071.6 671c-1 0-1.9-.7-2.3-1.7-4-13.2-8.9-26.5-13.6-39.4-3.3-9-6.7-18.4-9.8-27.7-7.3-21.9-14-44.4-20.4-66.2-2.9-10-6-20.4-9.1-30.5-.4-1.2.3-2.6 1.6-2.9 1.3-.4 2.6.3 2.9 1.6 3.1 10.2 6.1 20.5 9.1 30.6 6.4 21.7 13 44.2 20.3 66 3.1 9.2 6.5 18.6 9.8 27.6 4.7 12.9 9.6 26.2 13.7 39.6.4 1.2-.3 2.6-1.6 3-.1-.1-.4 0-.6 0zM1969.4 788.1c-.8 0-1.7-.5-2.1-1.3-2.5-4.7-5-9.5-7.6-14.2-23.9-44.9-46.5-87.3-64.7-134.4-.5-1.2.1-2.6 1.4-3.1 1.2-.5 2.6.1 3.1 1.4 18.1 46.8 40.6 89.1 64.5 133.9 2.5 4.7 5 9.5 7.6 14.2.6 1.2.2 2.6-1 3.2-.4.2-.8.3-1.2.3z"/><path d="M2092.7 681.5c-.4 0-.8-.1-1.1-.3-5.2-2.8-11.1-4.9-16.9-7-1.1-.4-2.3-.8-3.4-1.2-1.2-.4-1.9-1.8-1.4-3 .4-1.2 1.8-1.9 3-1.4 1.1.4 2.3.8 3.4 1.2 5.9 2.1 12 4.3 17.5 7.3 1.2.6 1.6 2 1 3.2-.5.8-1.3 1.2-2.1 1.2zM2104 680.9c-1 0-2-.7-2.3-1.7-.3-1.3.4-2.6 1.7-2.9 26-7.1 52.9-11.3 79-15.3 7.3-1.1 14.9-2.3 22.3-3.5 8.3-1.3 16.7-3.1 24.9-4.8 10.9-2.3 22.2-4.6 33.4-6.1 1.3-.2 2.5.7 2.6 2 .2 1.3-.7 2.5-2 2.6-11 1.4-22.2 3.7-33 6-8.2 1.7-16.7 3.5-25.1 4.8-7.5 1.2-15 2.4-22.4 3.5-25.9 4-52.7 8.1-78.4 15.1-.3.3-.5.3-.7.3zM1991 810.6c-.5 0-.9-.1-1.3-.4-3.1-2.1-6.3-4.1-9.5-6.1-2.4-1.5-4.9-3-7.3-4.6-1.1-.7-1.4-2.2-.7-3.3.7-1.1 2.2-1.4 3.3-.7 2.3 1.5 4.8 3.1 7.2 4.5 3.2 2 6.5 4 9.6 6.2 1.1.7 1.4 2.2.6 3.3-.5.7-1.2 1.1-1.9 1.1zM2007.1 818.1c-1.2 0-2.3-1-2.4-2.2-.1-1.3.9-2.4 2.2-2.5 45.7-2.4 95.9-4.5 153.5-6.4 1.3 0 2.4 1 2.4 2.3 0 1.3-1 2.4-2.3 2.4-57.6 1.9-107.7 4.1-153.4 6.4.1 0 .1 0 0 0zM2168.9 812.1c-.5 0-1-.2-1.4-.5-1-.8-1.2-2.3-.4-3.3 8.3-10.7 16-22.1 23.4-33.1 5-7.4 10.2-15.1 15.5-22.4 11.5-16.2 23.6-32.4 35.3-48.1 8.4-11.2 17-22.9 25.4-34.4.8-1.1 2.2-1.3 3.3-.5 1.1.8 1.3 2.2.5 3.3-8.4 11.6-17.1 23.2-25.4 34.4-11.7 15.7-23.7 31.9-35.2 48.1-5.3 7.3-10.4 15-15.4 22.3-7.5 11.1-15.3 22.6-23.6 33.4-.6.5-1.3.8-2 .8z"/><path d="M2267.9 664.1c-1.1 0-2.1-.8-2.3-1.9l-2.4-11.3c-.3-1.3.6-2.5 1.8-2.8 1.3-.3 2.5.6 2.8 1.8l2.4 11.3c.3 1.3-.6 2.5-1.8 2.8-.2 0-.3.1-.5.1zM2099.4 700.4c-1.1 0-2.1-.7-2.3-1.8-.3-1.3.5-2.5 1.8-2.8 27.8-6.2 56.3-11.5 83.9-16.6 23.8-4.4 48.4-9 72.6-14.2 1.3-.3 2.5.5 2.8 1.8.3 1.3-.5 2.5-1.8 2.8-24.2 5.2-48.8 9.8-72.7 14.2-27.5 5.1-55.9 10.4-83.7 16.6h-.6zM2089.4 700.4c-.4 0-.9-.1-1.3-.4-7.1-4.5-14.4-9.1-21.6-13.7-1.1-.7-1.4-2.2-.7-3.3.7-1.1 2.2-1.4 3.3-.7 7.2 4.6 14.5 9.2 21.5 13.7 1.1.7 1.4 2.2.7 3.3-.4.7-1.2 1.1-1.9 1.1z"/><path d="M2002 814.8c-.5 0-1.1-.2-1.5-.6-1-.8-1.1-2.3-.3-3.3 14.7-17.4 28.4-36 41.7-54 14-18.9 28.4-38.5 44-56.7.8-1 2.3-1.1 3.3-.3s1.1 2.3.3 3.3c-15.5 18-29.9 37.6-43.8 56.4-13.3 18.1-27.1 36.7-41.9 54.2-.5.7-1.2 1-1.8 1zM1971.2 803c-.5 0-1-.1-1.4-.5-1.1-.8-1.3-2.2-.5-3.3 23.3-32.1 49.6-62.9 74.9-92.7 4.2-4.9 8.4-9.8 12.6-14.8.8-1 2.3-1.1 3.3-.3s1.1 2.3.3 3.3c-4.2 4.9-8.4 9.8-12.6 14.8-25.3 29.7-51.5 60.5-74.7 92.4-.5.8-1.2 1.1-1.9 1.1zM1975.7 572c-.6 0-1.1-.2-1.6-.6-1-.9-1.1-2.4-.2-3.3 5.5-6.1 11-11.5 16.9-16.3 1-.8 2.5-.7 3.3.3.8 1 .7 2.5-.3 3.3-5.7 4.7-11.1 9.8-16.4 15.8-.4.5-1 .8-1.7.8zM2036.2 649.8c-.9 0-1.8-.6-2.2-1.5-2.4-5.9-5.3-11.7-8.1-17.4-2.1-4.2-4.2-8.6-6.2-13-1.9-4.1-3.7-8.3-5.5-12.5-6.2-14.1-12.7-28.6-19.9-42.6-.6-1.2-.1-2.6 1-3.2 1.2-.6 2.6-.1 3.2 1 7.2 14.1 13.7 28.7 20 42.8 1.8 4.1 3.7 8.3 5.5 12.4 1.9 4.3 4.1 8.7 6.1 12.9 2.8 5.7 5.7 11.7 8.2 17.7.5 1.2-.1 2.6-1.3 3.1-.2.2-.5.3-.8.3z"/><path d="M2020.7 663.6c-.9 0-1.7-.5-2.1-1.3-5.2-10.6-10.6-21.3-15.9-31.7-10-19.6-20.2-40-29.4-60.5-.5-1.2 0-2.6 1.2-3.1s2.6 0 3.1 1.2c9.1 20.4 19.4 40.7 29.3 60.3 5.3 10.4 10.7 21.1 15.9 31.8.6 1.2.1 2.6-1.1 3.2-.3 0-.7.1-1 .1zM2027.9 660.6c-.7 0-1.3-.3-1.8-.8-.8-1-.7-2.5.3-3.3 3.2-2.8 6.3-6 9.3-9.1.9-.9 2.4-1 3.3-.1.9.9 1 2.4.1 3.3-3.1 3.2-6.2 6.5-9.6 9.4-.5.4-1.1.6-1.6.6zM2043.8 501.7c-.2 0-.5 0-.7-.1-5.9-1.8-12.5-2.8-21.2-3.2-1.3-.1-2.3-1.2-2.3-2.5.1-1.3 1.2-2.3 2.5-2.3 9.2.4 16.1 1.4 22.5 3.4 1.2.4 1.9 1.7 1.6 3-.5 1-1.4 1.7-2.4 1.7z"/><path d="M2082.4 654.8c-1.1 0-2.1-.8-2.3-1.9-2.7-13.1-6.7-26.3-10.5-39-2.1-7-4.3-14.2-6.2-21.3-8-29.3-15-59.7-20.8-90.6-.2-1.3.6-2.5 1.9-2.8 1.3-.2 2.5.6 2.8 1.9 5.7 30.7 12.7 61 20.7 90.2 1.9 7.1 4.1 14.3 6.2 21.2 3.9 12.8 7.9 26.1 10.6 39.4.3 1.3-.6 2.5-1.8 2.8-.2.1-.4.1-.6.1z"/><path d="M2056 528.9c-.8 0-1.5-.4-2-1.1-.7-1.1-.4-2.6.7-3.3 9.5-6.4 19.1-12.6 28.3-18.6 1.1-.7 2.6-.4 3.3.7.7 1.1.4 2.6-.7 3.3-9.2 6-18.8 12.2-28.3 18.5-.4.4-.8.5-1.3.5z"/><path d="M2097.7 669.2h-.1c-1.3-.1-2.3-1.2-2.2-2.5 1.5-31.4-1.8-63.5-5-94.6-2.1-20.7-4.3-42.2-5.1-63.2 0-1.3 1-2.4 2.3-2.4 1.3-.1 2.4 1 2.4 2.3.8 20.9 2.9 42.2 5.1 62.9 3.2 31.2 6.5 63.5 5 95.3-.1 1.3-1.2 2.2-2.4 2.2z"/><path d="M2090 541.6c-.8 0-1.6-.4-2.1-1.2-.6-1.1-.2-2.6.9-3.2 10.1-5.7 19.2-10.9 27.6-16 1.1-.7 2.6-.3 3.2.8.7 1.1.3 2.6-.8 3.2-8.5 5.1-17.6 10.4-27.7 16.1-.3.2-.7.3-1.1.3z"/><path d="M2104.3 674.4c-.2 0-.3 0-.5-.1-1.3-.3-2.1-1.5-1.8-2.8 3.9-18.4 5.4-37.7 6.7-56.3.4-5.1.8-10.5 1.2-15.7.6-6.6 1.2-13.1 1.8-19.7 1.7-18.5 3.5-37.7 4.2-56.8 0-1.3 1.2-2.3 2.4-2.3 1.3 0 2.3 1.1 2.3 2.4-.7 19.2-2.5 38.4-4.2 57-.6 6.5-1.2 13.1-1.8 19.7-.4 5.2-.8 10.5-1.2 15.6-1.4 18.8-2.9 38.2-6.8 57-.2 1.3-1.2 2-2.3 2zM1796 312.9c-1.2 0-2.3-1-2.4-2.2-1.8-27.7 8.2-53.7 26.6-69.7 19.9-17.2 49.6-21.4 72.2-10.2 14.8 7.5 27.4 21.4 34.5 38.1.5 1.2-.1 2.6-1.3 3.1s-2.6-.1-3.1-1.3c-6.6-15.5-18.6-28.9-32.2-35.7-21-10.3-48.5-6.4-67 9.6-17 14.8-26.6 40-25 65.8.1 1.3-.9 2.4-2.3 2.5.1 0 .1 0 0 0zM1847.6 362.9c-1.3 0-2.3-1-2.4-2.3 0-1.3 1-2.4 2.3-2.4h.2c10.7-.3 21.9-.6 32-3.8 20.3-6.2 37.2-22.9 43.1-42.4 2.5-8.3 2.7-16.9 2.7-26.4 0-1.3 1.1-2.4 2.4-2.4s2.4 1.1 2.4 2.4c0 9.9-.2 18.8-2.9 27.7-6.4 21-24.5 38.9-46.2 45.6-10.8 3.4-22.2 3.7-33.3 4h-.3zM1765.6 375.3c-.4 0-.9-.1-1.3-.4-1.1-.7-1.4-2.2-.7-3.3 3.6-5.6 7.6-11 11.5-16.3 3.8-5.2 7.7-10.6 11.3-16.1l.9-1.4c3.8-5.8 7.4-11.3 8.5-17.8.2-1.3 1.4-2.2 2.7-1.9 1.3.2 2.2 1.4 1.9 2.7-1.3 7.5-5.3 13.7-9.2 19.7l-.9 1.4c-3.7 5.6-7.6 11-11.5 16.3-3.8 5.2-7.7 10.6-11.3 16.1-.4.6-1.2 1-1.9 1zM1786.1 410.1c-.4 0-.7-.1-1.1-.2-6.2-3.1-11.3-6.1-16.3-9.6l-.2-.1c-2.7-1.8-5.7-3.9-7.5-7.3v-.1c-1.5-3.1-1.8-6.9-1-11.2.2-1.3 1.5-2.1 2.8-1.9 1.3.2 2.1 1.5 1.9 2.8-.6 3.3-.4 6.1.6 8.2 1.3 2.4 3.6 4 5.9 5.6l.2.1c4.8 3.4 9.8 6.3 15.8 9.3 1.2.6 1.6 2 1.1 3.2-.5.7-1.3 1.2-2.2 1.2z"/><path d="M1789.4 409.3c-1.2 0-2.3-.1-3.6-.2-1.3-.2-2.2-1.4-2-2.6.2-1.3 1.3-2.2 2.6-2 7.8 1 14-1.7 21.6-9.2 5.4-5.4 10.1-11.8 14.6-18 2.5-3.4 5.1-6.9 7.7-10.3.8-1 2.3-1.2 3.3-.4 1 .8 1.2 2.3.4 3.3-2.6 3.3-5.2 6.7-7.6 10.1-4.6 6.3-9.4 12.9-15 18.5-5.4 5.4-12.2 10.8-22 10.8z"/><path d="M1830.6 373.1c-.7 0-1.3-.3-1.8-.8-11-12.8-22.7-24.8-34.7-36-1-.9-1-2.4-.1-3.3.9-1 2.4-1 3.3-.1 12.2 11.2 24 23.5 35.1 36.3.9 1 .7 2.5-.2 3.3-.5.4-1 .6-1.6.6zM1816.3 387.9c-.6 0-1.2-.2-1.6-.6-2.5-2.4-5.1-4.7-7.6-7.1-8.4-7.9-17-16-26-23.5-1-.8-1.1-2.3-.3-3.3s2.3-1.1 3.3-.3c9 7.6 17.7 15.7 26.2 23.6 2.5 2.4 5 4.7 7.6 7.1 1 .9 1 2.4.1 3.3-.4.5-1 .8-1.7.8zM1802 399.2c-.5 0-1-.2-1.5-.5-5.5-4.4-11.2-8.6-16.7-12.7-5.6-4.2-11.4-8.5-16.9-12.9-1-.8-1.2-2.3-.4-3.3.8-1 2.3-1.2 3.3-.4 5.5 4.4 11.2 8.7 16.8 12.8 5.6 4.1 11.3 8.4 16.8 12.8 1 .8 1.2 2.3.4 3.3-.4.6-1.1.9-1.8.9zM1825.1 349.1c-.4 0-.9-.1-1.3-.4-1.1-.7-1.4-2.2-.7-3.3 6.2-9.4 12.2-17.5 18.1-24.6 2.2-2.7 4.6-5.5 7.2-8.3-1.8-.9-3.5-2-5.1-3.2-7.2 11.1-18.2 18.3-28.1 23.9-1.1.6-2.6.3-3.2-.9-.6-1.1-.3-2.6.9-3.2 9.6-5.5 20.3-12.5 26.9-23.1-.7-.8-1.3-1.6-1.9-2.5-1.6-2.5-3.1-6.7-2.1-10.4.5-2.2 1.8-3.8 3.7-4.9 1.9-1 3.8-1.1 5.5-.3 1.8.9 3.1 2.9 3.4 5.4.4 4.2-1 8.3-2.7 11.8 1.9 1.5 4.1 2.8 6.4 3.8.6-.6 1.3-1.1 1.9-1.6 2.4-1.9 10.7-6.3 16.2-3.9 1.7.7 3.8 2.4 4.3 6.1.2 1.7-.3 3.3-1.5 4.5-3.4 3.4-11.2 2.6-11.5 2.5-2.6-.4-5.5-1-8.4-2.1-3 3-5.7 6.3-8.2 9.3-5.8 7-11.6 14.9-17.8 24.2-.5.8-1.2 1.2-2 1.2zm32.1-38.2c1.7.5 3.3.8 4.9 1 2.7.3 6.5-.1 7.5-1.2.1-.1.2-.2.2-.6-.2-1.7-.8-2.1-1.4-2.4-2.6-.9-8.4 1.2-11.2 3.2zm-14.6-18.6c-.3 0-.5.1-.8.2-.8.4-1.2 1-1.4 1.9-.5 2.1.4 4.9 1.5 6.7.1.1.2.3.3.4 1-2.4 1.8-5.1 1.5-7.6-.1-.9-.5-1.5-.8-1.7-.1.1-.2.1-.3.1zM1931.2 202.9c-.6 0-1.2-.2-1.7-.7-.9-.9-.9-2.4.1-3.3 4.9-4.7 9.7-9.6 14.4-14.3 6.5-6.5 13.2-13.3 20.2-19.7 1-.9 2.5-.8 3.3.1.9 1 .8 2.5-.1 3.3-6.9 6.3-13.6 13.1-20 19.6-4.7 4.7-9.6 9.6-14.5 14.4-.5.4-1.1.6-1.7.6zM1864.4 192.7c-1.2 0-2.3-1-2.4-2.2-.9-14.1-1.7-28.4-2.4-42.6-.1-1.3 1-2.4 2.3-2.5 1.3-.1 2.4 1 2.5 2.3.6 14.2 1.4 28.5 2.4 42.5.1 1.3-.9 2.4-2.2 2.5h-.2zM1783.5 228.5c-.6 0-1.2-.2-1.7-.7-3.9-3.9-7.8-7.9-11.5-11.8-4.7-4.8-9.5-9.8-14.4-14.6-.9-.9-.9-2.4 0-3.3.9-.9 2.4-.9 3.3 0 4.9 4.8 9.8 9.8 14.5 14.7 3.8 3.9 7.6 7.9 11.5 11.7.9.9.9 2.4 0 3.3-.5.5-1.1.7-1.7.7zM1946.5 390.2c-.6 0-1.2-.2-1.6-.7-5.6-5.4-11.1-11.1-16.4-16.7-1.1-1.2-2.2-2.3-3.3-3.5-.9-.9-.9-2.4.1-3.3.9-.9 2.4-.9 3.3.1 1.1 1.2 2.2 2.3 3.3 3.5 5.3 5.5 10.7 11.3 16.3 16.6.9.9 1 2.4.1 3.3-.6.5-1.2.7-1.8.7zM2004.5 292.2h-.1c-6.3-.3-12.8-.6-19-.8-7.8-.3-15.9-.6-23.9-1.1-1.3-.1-2.3-1.2-2.2-2.5.1-1.3 1.2-2.3 2.5-2.2 7.9.5 16 .8 23.8 1.1 6.3.2 12.7.5 19.1.8 1.3.1 2.3 1.2 2.2 2.5-.1 1.2-1.2 2.2-2.4 2.2zM1914.7 301.1c-1.4 0-2.4-1.1-2.4-2.4.3-16.7-4.9-31.4-14.7-41.4-.9-.9-.9-2.4 0-3.3.9-.9 2.4-.9 3.3 0 10.7 10.9 16.4 26.8 16.1 44.8.1 1.3-1 2.3-2.3 2.3zM1904.7 326.1c-.5 0-.9-.1-1.3-.4-1.1-.7-1.3-2.2-.6-3.3 3.1-4.4 5.4-8.5 7-12.4.5-1.2 1.9-1.8 3.1-1.3 1.2.5 1.8 1.9 1.3 3.1-1.8 4.3-4.2 8.6-7.5 13.3-.6.7-1.3 1-2 1zM1074.1 491.6c-.2 0-.5 0-.7-.1-1.2-.4-1.9-1.7-1.5-3 17.5-55.9 42.1-142.3 54.9-199.9.3-1.3 1.5-2.1 2.8-1.8 1.3.3 2.1 1.5 1.8 2.8-12.8 57.8-37.5 144.3-55 200.3-.3 1.1-1.3 1.7-2.3 1.7zM1045.4 472.4c-.2 0-.4 0-.6-.1-1.3-.4-2-1.7-1.6-2.9 4.8-16.9 10.5-36.5 16.6-57.4 12.7-43.5 27-92.7 36.1-128.7.3-1.3 1.6-2 2.9-1.7 1.3.3 2 1.6 1.7 2.9-9.1 36-23.5 85.3-36.2 128.8-6.1 20.8-11.8 40.5-16.6 57.3-.3 1.2-1.3 1.8-2.3 1.8z"/><path d="M1061.5 501.1c-5.3 0-10.9-2.2-14.7-5.6-3.5-3.1-5.6-7.4-6.5-13.5-.2-1.3.7-2.5 2-2.7 1.3-.2 2.5.7 2.7 2 .7 5 2.3 8.4 5 10.7 4.9 4.4 13.9 6.3 18.9 1.9 1.9-1.8 3-4.3 3.6-6.4.4-1.2 1.8-1.9 3-1.5 1.2.4 1.9 1.8 1.5 3-.9 2.6-2.2 5.8-4.9 8.4-3 2.6-6.7 3.7-10.6 3.7z"/><path d="M1044 480.6c-.7 0-1.5-.3-1.9-1l-.4-.5c-2.1-2.9-4.2-5.9-5.2-9.5-1.7-6.7-.2-13.8 1.7-20.4 2.7-9.6 5.9-19.1 9.4-28.2.5-1.2 1.8-1.8 3.1-1.3 1.2.5 1.8 1.8 1.3 3.1-3.5 8.9-6.6 18.3-9.3 27.8-1.7 6-3.1 12.4-1.7 17.9.8 2.8 2.6 5.3 4.5 8l.4.5c.8 1.1.5 2.5-.5 3.3-.5.2-1 .3-1.4.3zM1094.1 402.3c-.3 0-.6 0-.8-.1-4.5-1.7-9.1-3.2-13.6-4.7-3.1-1-6.3-2.1-9.4-3.2-1.2-.4-1.9-1.8-1.4-3 .4-1.2 1.8-1.9 3-1.4 3.1 1.1 6.2 2.1 9.3 3.1 4.5 1.5 9.2 3 13.7 4.7 1.2.5 1.8 1.8 1.4 3-.3 1.1-1.2 1.6-2.2 1.6zM1081.8 445.9c-.3 0-.7-.1-1-.2-8.1-3.7-16.5-7-22.9-9.5-1.2-.5-1.8-1.8-1.3-3.1.5-1.2 1.8-1.8 3.1-1.3 6.5 2.5 14.9 5.9 23.2 9.6 1.2.5 1.7 1.9 1.2 3.1-.5.9-1.4 1.4-2.3 1.4zM1098.3 285.1c-.4 0-.8-.1-1.2-.3-1.1-.7-1.5-2.1-.9-3.2 6.2-10.8 15.8-18.2 25-25.3 1-.8 2.5-.6 3.3.4s.6 2.5-.4 3.3c-9.4 7.2-18.2 14-23.9 24-.3.7-1.1 1.1-1.9 1.1z"/><path d="M1129.1 291.4c-1.2 0-2.3-.9-2.4-2.2-.7-8.8-2.1-18.4-4.4-30-.3-1.3.6-2.5 1.8-2.8 1.3-.3 2.5.6 2.8 1.8 2.4 11.9 3.8 21.6 4.5 30.6.1 1.3-.9 2.4-2.2 2.5 0 .1-.1.1-.1.1zM774.3 632.9c-.2 0-.3 0-.5-.1-1.3-.3-2.1-1.6-1.8-2.8 4.4-19.6 14.5-37.7 29.9-53.8 13.7-14.3 31.3-26.5 50.9-35.4 13.6-6.3 33.9-13.3 53.4-11.2 1.3.1 2.2 1.3 2.1 2.6-.1 1.3-1.3 2.2-2.6 2.1-18.4-2-37.8 4.8-50.9 10.8-40.9 18.5-70.1 50.6-78.1 85.9-.4 1.2-1.3 1.9-2.4 1.9zM640.5 761.2h-.3c-1.3-.2-2.2-1.4-2-2.7 4.4-30.4 18.6-60.1 39.9-83.8 22.5-25 51.2-40.6 80.7-44.1 1.3-.2 2.5.8 2.6 2.1.2 1.3-.8 2.5-2.1 2.6-62.8 7.3-108.5 68.8-116.5 123.9-.2 1.2-1.2 2-2.3 2zM787.9 914.9c-.5 0-1.1-.2-1.5-.5-50.5-41.9-93.7-87.3-139.5-135.4l-3.4-3.6c-.9-.9-.9-2.4.1-3.3.9-.9 2.4-.9 3.3.1l3.4 3.6c45.7 47.9 88.9 93.2 139.1 135 1 .8 1.1 2.3.3 3.3-.5.5-1.2.8-1.8.8zM913.1 797.2c-.7 0-1.4-.3-1.8-.9-25.9-31.4-54.4-61.7-81.8-90.9-19.5-20.7-39.6-42.1-58.6-63.7-.9-1-.8-2.5.2-3.3 1-.9 2.5-.8 3.3.2 19 21.6 39.1 42.9 58.5 63.6 27.5 29.3 56 59.6 82 91.1.8 1 .7 2.5-.3 3.3-.4.4-1 .6-1.5.6zM796.7 910.4c-.3 0-.6 0-.8-.2-1.2-.5-1.8-1.8-1.4-3 19.2-50.6 74.7-90.8 121.2-108.1 1.2-.5 2.6.2 3 1.4.5 1.2-.2 2.6-1.4 3-45.5 17-99.7 56.1-118.4 105.4-.3.9-1.2 1.5-2.2 1.5zM1038.1 692.1c-.7 0-1.4-.3-1.9-.9-16.4-21.1-33.6-42.3-50.2-62.7-23.9-29.4-48.6-59.7-71.4-90.6-.8-1-.6-2.5.5-3.3 1-.8 2.5-.6 3.3.5 22.8 30.8 47.4 61.1 71.2 90.4 16.6 20.5 33.9 41.6 50.3 62.8.8 1 .6 2.5-.4 3.3-.4.3-.9.5-1.4.5zM921.4 798c-.3 0-.7-.1-1-.2-1.2-.5-1.7-1.9-1.2-3.1 18.4-40 65.8-87.9 113.3-99.1 1.3-.3 2.5.5 2.8 1.8.3 1.3-.5 2.5-1.8 2.8-46.1 10.8-92.1 57.5-110.1 96.5-.2.8-1.1 1.3-2 1.3z"/><path d="M807.9 919.3c-.3 0-.6-.1-.9-.2-4.3-1.7-8.8-3.4-13.3-4.6-1.3-.3-2-1.6-1.7-2.9.3-1.3 1.6-2 2.9-1.7 4.8 1.3 9.4 3.1 13.8 4.8 1.2.5 1.8 1.8 1.4 3.1-.4 1-1.3 1.5-2.2 1.5z"/><path d="M811.3 920c-.3 0-.5 0-.8-.1-1.2-.4-1.9-1.8-1.5-3 11.3-33.2 40.6-63.4 80.3-82.9 9.7-4.8 19.7-9.7 30.4-12.4 1.3-.3 2.6.4 2.9 1.7.3 1.3-.4 2.6-1.7 2.9-10.2 2.6-20 7.4-29.5 12.1-38.6 19-67 48.2-77.9 80.2-.4.8-1.3 1.5-2.2 1.5z"/><path d="M922.3 825.2c-.6 0-1.3-.2-1.7-.7-.9-.9-.9-2.4.1-3.3.7-.7 1.5-1.4 2.2-2.1 2.9-2.8 6-5.7 9.2-8.3 1-.8 2.5-.6 3.3.4.8 1 .6 2.5-.4 3.3-3.1 2.5-6 5.3-8.9 8-.7.7-1.5 1.4-2.2 2.1-.4.4-1 .6-1.6.6zM942.3 807.6c-.3 0-.6-.1-.9-.2-1.2-.5-1.8-1.9-1.3-3.1 17-41.3 53.6-75.3 95.7-88.7 1.2-.4 2.6.3 3 1.5.4 1.2-.3 2.6-1.5 3-40.8 13.1-76.4 46-92.8 86-.3.9-1.2 1.5-2.2 1.5zM1038 714.2c-1.1 0-2.1-.8-2.3-1.9l-1.2-6c-.5-2.7-1-5.3-1.6-8-.3-1.3.6-2.5 1.9-2.8 1.3-.3 2.5.6 2.8 1.9.5 2.6 1 5.3 1.6 8l1.2 6c.3 1.3-.6 2.5-1.9 2.8h-.5zM661 757.1c-.2 0-.4 0-.7-.1-1.3-.4-2-1.7-1.6-2.9 5.6-18.9 15.3-34.4 28.8-45.9 1-.8 2.5-.7 3.3.3.8 1 .7 2.5-.3 3.3-12.8 10.9-22 25.6-27.4 43.7-.1 1-1 1.6-2.1 1.6z"/><path d="M731 754.6c-.8 0-1.5-.4-2-1-2.8-4.2-6.5-8-10-11.8-1.4-1.5-2.8-3-4.1-4.5-8.5-9.5-16.9-18.6-24.9-27.2-.9-1-.8-2.4.1-3.3 1-.9 2.4-.8 3.3.1 8 8.6 16.4 17.8 24.9 27.2 1.3 1.5 2.7 3 4.1 4.4 3.7 3.9 7.4 7.9 10.5 12.4.7 1.1.4 2.5-.6 3.3-.4.3-.9.4-1.3.4zM695.7 791.4c-.6 0-1.2-.2-1.6-.6-4.6-4.3-9.2-8.7-13.8-12.9-6-5.6-12.2-11.4-18.1-17.1-.9-.9-1-2.4-.1-3.3.9-.9 2.4-1 3.3-.1 5.9 5.7 12.1 11.5 18.1 17.1 4.5 4.2 9.2 8.6 13.8 13 .9.9 1 2.4.1 3.3-.5.3-1.1.6-1.7.6z"/><path d="M697.5 796.4c-.5 0-.9-.1-1.3-.4-1.1-.7-1.3-2.2-.6-3.3 9.9-14.3 20.8-25.7 32.6-33.9 1.1-.7 2.5-.5 3.3.6.7 1.1.5 2.5-.6 3.3-11.3 7.9-21.8 18.9-31.4 32.7-.5.7-1.2 1-2 1zM711.5 704.8c-.5 0-1-.2-1.4-.5-1-.8-1.2-2.3-.4-3.3 10.7-13.8 26.3-26.3 49.3-39.1 1.1-.6 2.6-.2 3.2.9.6 1.1.2 2.6-.9 3.2-22.4 12.5-37.6 24.6-47.8 37.9-.6.6-1.3.9-2 .9zM733 721.3c-.6 0-1.1-.2-1.6-.6-1-.9-1-2.4-.2-3.3 10.9-12.1 25-23.7 40.7-33.6 1.1-.7 2.6-.4 3.3.7s.4 2.6-.7 3.3c-15.3 9.7-29.1 21-39.7 32.8-.5.4-1.1.7-1.8.7zM750.2 743.8c-.6 0-1.3-.3-1.7-.8-.9-1-.8-2.5.1-3.3 10.5-9.7 22.8-19.1 35.7-27.3 1.1-.7 2.6-.4 3.3.7.7 1.1.4 2.6-.7 3.3-12.7 8-24.8 17.3-35 26.8-.5.3-1.1.6-1.7.6zM723.9 823.3c-.4 0-.8-.1-1.2-.3-1.1-.7-1.5-2.1-.9-3.2 17.3-29.8 50.2-59.9 85.9-78.6 1.2-.6 2.6-.2 3.2 1 .6 1.2.2 2.6-1 3.2-34.9 18.3-67.1 47.7-84 76.7-.4.8-1.2 1.2-2 1.2zM755.3 853.2c-.4 0-.8-.1-1.2-.3-1.1-.7-1.5-2.1-.8-3.2 10-16.4 23.5-29.9 34.2-39.8 15.6-14.6 36.6-32.4 60.6-41.7 1.2-.5 2.6.1 3.1 1.4.5 1.2-.1 2.6-1.4 3.1-23.2 8.9-43.8 26.4-59.1 40.7-10.5 9.7-23.7 22.9-33.4 38.8-.4.6-1.2 1-2 1zM801.2 640c-.3 0-.5 0-.8-.1-1.2-.4-1.9-1.8-1.5-3 14.2-41 58.7-70.9 95.6-85.2 1.2-.5 2.6.1 3.1 1.3s-.1 2.6-1.3 3.1c-35.9 13.9-79.2 42.9-92.9 82.4-.3.9-1.2 1.5-2.2 1.5zM839.1 683.6c-.7 0-1.3-.3-1.8-.8-13.9-15.6-25.1-27.3-36.4-37.9-1-.9-1-2.4-.1-3.3.9-1 2.4-1 3.3-.1 11.4 10.7 22.7 22.5 36.7 38.2.9 1 .8 2.5-.2 3.3-.4.4-1 .6-1.5.6zM850.2 692c-.4 0-.8-.1-1.2-.3-1.1-.7-1.5-2.1-.8-3.2 16.7-27.7 46.2-51.7 87.6-71.2 1.2-.6 2.6-.1 3.1 1.1.6 1.2 0 2.6-1.1 3.1-40.6 19.1-69.4 42.5-85.6 69.3-.4.8-1.2 1.2-2 1.2zM942.7 616c-.7 0-1.5-.4-1.9-1-11.1-16-23.5-31.5-35.5-46.5l-5.7-7.2c-.8-1-.6-2.5.4-3.3 1-.8 2.5-.6 3.3.4l5.7 7.2c12 15.1 24.5 30.6 35.7 46.7.7 1.1.5 2.5-.6 3.3-.5.2-1 .4-1.4.4zM863.8 708.1c-.5 0-1-.2-1.4-.5-1-.8-1.2-2.3-.4-3.3 6-7.8 14-15.7 24.4-24.3 1-.8 2.5-.7 3.3.3.8 1 .7 2.5-.3 3.3-10.1 8.3-17.9 16-23.7 23.5-.4.7-1.1 1-1.9 1zM879.9 726.5c-.5 0-1.1-.2-1.5-.5-1-.8-1.2-2.3-.3-3.3 14.4-17.6 28.9-31.6 44.2-42.8 11.6-8.5 24.4-15.4 36.7-22.2 1.8-1 3.7-2 5.5-3 1.1-.6 2.6-.2 3.2.9.6 1.1.2 2.6-.9 3.2-1.8 1-3.7 2-5.5 3-12.2 6.7-24.8 13.5-36.2 21.8-15 11-29.1 24.8-43.3 42-.6.6-1.2.9-1.9.9zM906.7 748.3c-.4 0-.9-.1-1.2-.4-1.1-.7-1.5-2.1-.8-3.3 15.9-25.7 43.6-47 82.4-63.3 1.2-.5 2.6.1 3.1 1.3s-.1 2.6-1.3 3.1c-37.9 16-64.9 36.6-80.2 61.5-.5.7-1.2 1.1-2 1.1zM1145.8 1201.3h-.4c-1.3-.2-2.1-1.5-1.9-2.8 13.2-69.3 16.5-142.3 10.7-236.9-.1-1.3.9-2.4 2.2-2.5 1.3-.1 2.4.9 2.5 2.2 5.8 93.7 2.4 169.4-10.8 238.1-.2 1.1-1.1 1.9-2.3 1.9zM1680.4 1201.8c-1.1 0-2.1-.8-2.3-2-10.8-69-21.7-142.8-27.4-215.1-.1-1.3.9-2.4 2.2-2.5 1.3-.1 2.4.9 2.5 2.2 5.7 72.1 16.5 145.8 27.3 214.7.2 1.3-.7 2.5-2 2.7h-.3zM1460 1009.9c-.3 0-.5 0-.8-.1-46.7-16.9-111.1-50-152.8-111.7-.7-1.1-.4-2.5.6-3.3 1.1-.7 2.5-.4 3.3.6 41 60.7 104.5 93.3 150.5 109.9 1.2.4 1.9 1.8 1.4 3-.3 1-1.2 1.6-2.2 1.6zM1448 1055.8c-.3 0-.7-.1-1-.2-13-6.1-24.6-12-35.6-18-1.1-.6-1.6-2.1-1-3.2.6-1.1 2.1-1.6 3.2-1 10.9 5.9 22.5 11.8 35.4 17.9 1.2.6 1.7 2 1.1 3.1-.3.9-1.2 1.4-2.1 1.4zM1374.6 1539.6c-.8 0-1.6-.4-2-1.2-.7-1.1-.3-2.6.8-3.2 20.3-11.9 42.1-22.5 63.1-32.6 4.3-2.1 8.7-4.2 13-6.3 1.2-.6 2.6-.1 3.2 1.1.6 1.2.1 2.6-1.1 3.2-4.3 2.1-8.6 4.2-13 6.3-21 10.1-42.6 20.6-62.8 32.5-.3.1-.8.2-1.2.2z"/></svg>