<svg xmlns="http://www.w3.org/2000/svg" data-name="Layer 1" viewBox="0 0 1300 850" width="1300" height="850"><defs><clipPath id="a"><rect width="913.31" height="470.08" x="170.12" y="74.89" fill="#b56960" rx="10.17"/></clipPath><clipPath id="b"><circle cx="447.18" cy="179.88" r="39.27" fill="#40857b" stroke="#fff" stroke-miterlimit="10" stroke-width="1.35" data-name="SVGID" transform="rotate(-76.34 447.195 179.873)"/></clipPath></defs><path fill="#ffefe0" d="M1215 764.34s68.41-56.51 49.92-79.82c-11.53-14.55-20.51-1.22-28.84-16.08-7-12.48 6.33-60.52 12.14-87.49 9-42-5.42-66.73-33-67.9s-35 10-51.67-9 23.16-88.34 5.84-115.73-39.9 12.82-65.25 9.76-.94-73.29-33.91-93.11-52.49 46.34-97.37 28.85-24.18-62.93-71.39-75.95c-21.54-5.94-53.5 15.74-81.3 11.55-33.13-5-45.39-44-79.32-49.53-43.81-7.14-54.8 37.67-73.93 60.11-27.76 32.56-83.31-17.94-111.61-6.86-28.54 11.17-12.26 44.89-45.48 61.89s-98.75-32.74-126.26-35.27-43.05 9.56-55.68 40.36c-23.39 57-51.13-3.08-79.11 7.41S220.54 404.48 212 431.3c-14.64 46-46.15 3.23-77.73 21.93-32.21 19.08-4.78 58.55-1.75 84.36 3.11 26.49-9.32 52-26.87 41-23.56-14.81-53.78-1.76-36.51 44.92 15.52 42 11.36 60.26-2.63 55.2-10.36-3.75-25.25 4.77-21.61 35.83 4.45 38 30.73 49.82 30.73 49.82Z"/><rect width="913.31" height="470.08" x="170.12" y="74.89" fill="#b56960" data-name="SVGID" rx="10.17"/><g clip-path="url(#a)"><path fill="#c78f89" d="M221.83 65.23c25.25 17.45 56 24.06 86.1 26.7 34.87 3 70 1.5 104.78-2s69.42-9 104-14.05c35.51-5.19 71.09-9.68 106.92-11.82a971.41 971.41 0 0 1 107.79-.44q6.69.35 13.39.78c1.44.1 1.44-2.15 0-2.24a977.26 977.26 0 0 0-106.71-1.09c-35.11 1.57-70 5.31-104.82 10.19-35.15 4.93-70.19 10.74-105.45 14.79-34.63 4-69.56 6.4-104.43 4.68-31-1.54-63.25-5.93-90.74-21.37q-5-2.81-9.7-6.07c-1.19-.83-2.31 1.12-1.13 1.94Z"/><path fill="#c78f89" d="M163.92 75.06a811 811 0 0 0 111 30.18c37.06 7.14 74.78 11.28 112.55 11.12 37.59-.16 75.24-4.64 111.56-14.47 19.08-5.16 37.53-12.21 56.34-18.2a370.57 370.57 0 0 1 57.84-13.27c39.15-5.85 78.87-6.36 118.38-6.3h14.87a1.12 1.12 0 0 0 0-2.24c-39.28-.15-78.7-.26-117.78 4.22a402 402 0 0 0-56.87 10.41C552.57 81.64 534 88.83 515 94.86a419.69 419.69 0 0 1-112.17 19c-38.19 1.36-76.47-1.85-114.1-8.33a775.85 775.85 0 0 1-110.58-28q-6.84-2.23-13.64-4.59c-1.36-.48-1.95 1.69-.59 2.16Z"/><path fill="#c78f89" d="M565.38 117.56c26.64-10.54 53.69-20 80.79-29.33 13.32-4.56 26.6-9.6 40.26-13C700.3 71.75 714.52 71 728.76 71c28.34-.12 56.81 1.44 84.72 6.59 23.73 4.37 52.72 10.68 64.72 34.26A33.24 33.24 0 0 1 882 129c-.43 6.1-3.67 11.38-8.06 15.5-8.88 8.34-21.27 12.21-33.05 14.08-13.14 2.09-26.65 2.09-39.93 2.14q-21.79.09-43.57-1.29c-14.34-.91-28.66-2.3-42.88-4.34q-10.44-1.5-20.79-3.47a169.75 169.75 0 0 1-19.42-4.5c-11-3.49-23.2-11.48-23.56-24.34-.33-11.63 10.32-19.63 19.39-24.82a145.23 145.23 0 0 1 161.08 11.41c1.13.88 2.73-.7 1.59-1.58a147.08 147.08 0 0 0-147.74-19.7 141.78 141.78 0 0 0-17.35 8.67 51.34 51.34 0 0 0-13.26 10.64c-3.47 4.13-5.89 9.16-6 14.64s2.34 10.91 5.81 15.21c8.24 10.14 21.8 13.07 34 15.55 14.38 2.93 28.91 5.09 43.49 6.67a611.41 611.41 0 0 0 89.44 3.07c12.61-.49 25.51-1.66 37.37-6.26 10.51-4.08 22.06-11.44 25-23.07s-2.75-23.92-10.31-32.39C864.78 91.27 853 85.53 841 81.75 827.42 77.49 813.22 75 799.18 73c-14.46-2-29-3.21-43.59-3.8a433.78 433.78 0 0 0-44 0 143.39 143.39 0 0 0-21.27 2.8 198.58 198.58 0 0 0-21.25 6c-28.13 9.37-56.19 19.09-84 29.51q-10.2 3.83-20.34 7.83c-1.33.53-.75 2.7.6 2.16ZM895.4 54.49a139.45 139.45 0 0 0-22.77 11.21c-2.85 1.75-5.83 3.8-7.47 6.8a10.12 10.12 0 0 0 .11 9.63c3.57 6.92 12.46 8.91 19.38 10.59a156 156 0 0 0 25.44 3.77c8.67.63 17.36.76 26 .81s17.61 0 26.37-.87a127.69 127.69 0 0 0 25.27-4.88c8.07-2.47 15.89-5.63 23.73-8.72 14.78-5.83 30-11.43 46.07-11.41 14.28 0 28.56 5 37.28 16.8 7.62 10.3 10.62 24.1 7.08 36.51-1.66 5.81-5.65 13.42-12.66 13.37-3.71 0-7.1-2.44-9.2-5.36-2.34-3.25-3.49-7.14-4.42-11a100.74 100.74 0 0 1-2.3-13.13c-.38-3.55-.67-7.2-2-10.53-2.61-6.46-9.19-9.46-15.91-8.47-7.06 1-12.55 6.39-16.4 12.07a50.2 50.2 0 0 0-8.06 21.5 49.53 49.53 0 0 0-.16 11.48c.15 1.42 2.39 1.44 2.24 0a48.78 48.78 0 0 1 3.18-22.9c2.68-6.76 7.06-13.81 13.41-17.65 5.64-3.4 14.21-3.71 18.3 2.29 2.08 3 2.59 6.85 3 10.43.45 4.1 1 8.17 1.81 12.21 1.5 7.17 3.6 15.45 10.36 19.46a11.79 11.79 0 0 0 9.61 1.3 14.92 14.92 0 0 0 7.15-5.51c3.81-5.08 5.39-11.76 5.74-18A45.61 45.61 0 0 0 1092.41 82 43.17 43.17 0 0 0 1075 71.71c-14.18-4.49-29.78-2.55-43.77 1.64-16 4.8-31 12.43-47.16 16.93-16.93 4.73-34.56 4.93-52 4.75-17.16-.18-34.56-.88-51.16-5.61-3.66-1-7.48-2.19-10.51-4.58-2.8-2.22-5-6-4-9.61.94-3.4 4.14-5.63 7-7.39 3.59-2.24 7.31-4.28 11.11-6.16s7.55-3.53 11.44-5c1.33-.51.76-2.68-.59-2.16Z"/><path fill="#c78f89" d="M1056.88 129.62a243.87 243.87 0 0 0 7.87 49.86c2.15 8.06 4.77 16 6.45 24.19a150.63 150.63 0 0 1 2.53 25.35c.56 17.09 1.16 34.32-2.31 51.17-3.35 16.28-9.12 31.95-12.58 48.21a245 245 0 0 0-5.4 49.92v6.4a1.12 1.12 0 0 0 2.24 0 244.48 244.48 0 0 1 4.24-50.65c3.12-16.33 8.63-32 12.46-48.12a139.94 139.94 0 0 0 3.68-24.67c.47-8.59.25-17.2 0-25.8a230.75 230.75 0 0 0-1.59-25.34c-1.13-8.34-3.43-16.39-5.75-24.45a252 252 0 0 1-9.27-49.68q-.24-3.19-.42-6.39c-.07-1.44-2.32-1.45-2.24 0ZM1095.36 311.87c-6.94 18.55-16.79 35.78-25.68 53.42-8.72 17.29-16.57 35.32-19.67 54.57a95.9 95.9 0 0 0-.59 28.2 99.49 99.49 0 0 0 7.6 25.74c7.1 16.56 17 31.9 22.5 49.15 6.07 19.1 5.92 39.4 5.09 59.22-.11 2.52-.23 5.05-.35 7.57-.07 1.44 2.18 1.44 2.25 0 .93-19.74 1.84-39.84-2.61-59.26-4.07-17.78-13.42-33.47-21.25-49.74a127.37 127.37 0 0 1-9.53-25.15 85.91 85.91 0 0 1-1.83-28.23c1.81-19.47 9.09-38 17.58-55.41 8.6-17.64 18.5-34.65 26-52.8q1.38-3.31 2.63-6.68c.51-1.36-1.66-1.94-2.16-.6Z"/><path fill="#c78f89" d="M1089.46 382.61c-9.59 15.88-19.44 32.28-22.69 50.83a62.79 62.79 0 0 0 .81 27c2.29 8.6 6.49 16.53 10.5 24.42 2.38 4.7 4.66 9.43 6.64 14.31 2.07 5.11 3.92 10.32 5.76 15.52.48 1.35 2.65.77 2.16-.6a241.93 241.93 0 0 0-10.43-26c-3.89-7.94-8.31-15.67-11.18-24.05-6.09-17.76-2.27-36.5 5.35-53.16 4.3-9.43 9.67-18.31 15-27.17a1.12 1.12 0 0 0-1.94-1.13ZM160.23 84.13a155 155 0 0 1 8.9 21.24q3.68 10.51 6.44 21.33a238.7 238.7 0 0 1 6.93 43.64 216.37 216.37 0 0 1-1.6 44.06c-2.1 14.79-6 29.23-10 43.6-4.49 16.16-9 32.35-11.12 49-.18 1.43 2.06 1.41 2.24 0 3.81-30.12 15.7-58.47 20.49-88.4 4.69-29.23 3.06-59.27-3.69-88.05Q176 118.5 172 106.73A163.71 163.71 0 0 0 162.16 83c-.67-1.28-2.61-.14-1.93 1.13ZM196.32 236.79c-7.64 23.86-15.31 47.92-18.24 72.9a157.48 157.48 0 0 0-.24 37.14c1.48 12.21 4.92 23.93 9.16 35.43 4.93 13.43 10.3 26.7 15.48 40 .52 1.34 2.69.76 2.17-.59-4.59-11.78-9.24-23.53-13.74-35.34-4.34-11.41-8.28-23-10.2-35.1-3.91-24.52-.33-49.57 5.73-73.42 3.47-13.64 7.76-27 12-40.44.45-1.38-1.72-2-2.16-.6ZM155 349a95 95 0 0 0 6.26 19.23c2.64 6.31 5.33 12.58 7.56 19a194.94 194.94 0 0 1 9.32 40.45c3.4 28.29.69 56.91-4.42 84.82-2.9 15.8-6.55 31.44-10.39 47-.34 1.4 1.82 2 2.16.6 6.87-27.91 13.21-56.1 15.51-84.8 2.26-28.07.2-56.38-8.25-83.34-2.32-7.39-5.16-14.56-8.18-21.68s-6-14.31-7.4-21.94c-.26-1.42-2.43-.82-2.17.59ZM199.8 476.9a204.28 204.28 0 0 0-12.17 29.4c-2.92 9-5.76 18.46-6.21 28-.38 8.15 1.44 16.86 8 22.34a32 32 0 0 0 12.19 5.92 96.24 96.24 0 0 0 14.48 2.73 81.86 81.86 0 0 0 30.55-1.88c9.61-2.58 18.24-7.48 26.33-13.17s15.55-11.91 23.78-17.23A136.45 136.45 0 0 1 323 519.74a140.19 140.19 0 0 1 57.65-8.7c2.41.15 4.81.37 7.21.64 1.43.17 1.42-2.08 0-2.24a142 142 0 0 0-83 16.08c-8.45 4.55-16.16 10.13-23.81 15.89s-15.27 11.51-23.88 15.65a69.73 69.73 0 0 1-29.17 6.59 91.74 91.74 0 0 1-15.18-1.07 73.92 73.92 0 0 1-14.1-3.31 22.59 22.59 0 0 1-10.72-7.42 23 23 0 0 1-4.12-11.29c-1-8.82 1.31-17.69 3.68-26.12a200.09 200.09 0 0 1 10.88-29.52c1.07-2.31 2.19-4.61 3.34-6.89.66-1.28-1.28-2.42-1.93-1.13Z"/><path fill="#c78f89" d="M208.09 506.3a33.11 33.11 0 0 0-7.18 11.44 31.6 31.6 0 0 0-1.67 6.7 15.91 15.91 0 0 0 .12 6.8c1.33 4.32 6 6.3 10 7.48a39.2 39.2 0 0 0 14.5 1.3c10.2-.9 19.65-5 28.72-9.51 9.38-4.68 18.63-9.42 28.49-13a183.67 183.67 0 0 1 33.76-8.82c1.42-.23.81-2.39-.6-2.16a188.86 188.86 0 0 0-55.11 18.19c-8.8 4.45-17.58 9.25-27.2 11.68a47.48 47.48 0 0 1-14 1.53c-4.48-.23-9.44-1.17-13.27-3.62a6.9 6.9 0 0 1-3.38-6.18 26.83 26.83 0 0 1 1.13-7.44 30.53 30.53 0 0 1 7.36-12.78c1-1-.59-2.63-1.59-1.58ZM301.8 562.82c20.2-11.82 40.72-23.35 62.29-32.61 21.83-9.36 44.78-16.19 68.49-18.43 25.12-2.37 50.44-.14 75.24 4.05 25 4.24 49.71 10.4 74.4 16.29l75.5 18 9.22 2.2c1.4.34 2-1.83.59-2.16L591.32 532c-25-6-49.93-12.28-75.19-17-24.73-4.58-49.95-7.51-75.13-6.13-24 1.32-47.28 7.05-69.57 15.87-21.91 8.66-42.7 19.86-63.07 31.62l-7.7 4.48a1.13 1.13 0 0 0 1.14 1.94Z"/><path fill="#c78f89" d="M355.07 560.61A228.76 228.76 0 0 1 399 543.29c15.92-4.32 32.17-5.94 48.62-6.46 16.8-.54 33.74-1.09 50.53 0s33.26 5.13 49.71 8.87l50 11.37 6.31 1.44c1.41.32 2-1.85.6-2.17l-50.48-11.48c-16.54-3.76-33.1-8.09-50-9.76s-34-1.12-51-.72c-16.66.39-33.26 1.44-49.52 5.34A220.51 220.51 0 0 0 359.26 556c-1.79.87-3.56 1.75-5.33 2.65-1.28.66-.15 2.59 1.14 1.94ZM610 509c22.79 13.17 47.91 21.63 73.45 27.64 26.46 6.23 53.51 10.42 80.47 13.88 28.37 3.63 57.1 5.68 85.67 3.38a260.17 260.17 0 0 0 41-6.63c13-3.2 25.82-7.29 38.54-11.53 25.35-8.47 50.65-17.71 77.14-21.94 3.38-.54 6.77-1 10.18-1.35 1.42-.15 1.43-2.39 0-2.24C990.18 513 965 521.29 940 529.71c-25.67 8.67-51.42 17.3-78.41 20.7-28.28 3.57-56.93 2.44-85.2-.65a831.48 831.48 0 0 1-82.13-13c-25.71-5.45-51.22-12.91-74.64-25-2.88-1.49-5.72-3.06-8.53-4.68A1.12 1.12 0 0 0 610 509Z"/><path fill="#c78f89" d="M692.69 514.87c15.19 8.84 32.39 13.13 49.52 16.36 18.67 3.51 37.48 6.78 56.36 8.93 19.25 2.19 38.74 2.88 58 .19 18-2.53 35.4-8.06 52.61-13.74s34.31-11.52 52.09-14.84q3.3-.61 6.61-1.11c1.43-.21.82-2.37-.59-2.16-17.74 2.64-34.86 8.08-51.84 13.68s-34 11.41-51.6 14.71c-18.88 3.54-38.16 3.58-57.24 1.85s-38-5.09-56.86-8.42c-17.12-3-34.51-6.5-50.19-14.3q-2.91-1.44-5.72-3.08a1.12 1.12 0 0 0-1.13 1.93Z"/><path fill="#c78f89" d="M778.31 518c1.5 3.26 4.68 5.17 7.87 6.52a87.47 87.47 0 0 0 10.69 3.66 104.49 104.49 0 0 0 22.7 3.66 108.74 108.74 0 0 0 45.28-7.34 103 103 0 0 0 22.76-12.4c1.16-.84 0-2.79-1.13-1.94a103.53 103.53 0 0 1-40.63 17.56 105.57 105.57 0 0 1-44.17-.63 100.92 100.92 0 0 1-11.93-3.56c-3.63-1.34-7.78-2.91-9.51-6.67-.6-1.31-2.54-.17-1.93 1.14ZM951.26 553.11c2.92-3.59 8.1-4.57 12.29-5.94L979 542.1c9.74-3.18 19.55-6.17 29.71-7.68a126.55 126.55 0 0 1 55.34 4.21 123.81 123.81 0 0 1 28.91 13c1.23.75 2.36-1.19 1.13-1.94a128.54 128.54 0 0 0-53.91-18.16 127 127 0 0 0-28.84.27c-10.25 1.28-20.16 4-30 7.17-5.84 1.88-11.67 3.81-17.5 5.72-4.79 1.57-10.85 2.71-14.21 6.82-.9 1.11.68 2.71 1.59 1.59Z"/></g><path fill="#40857b" d="M412.08-126.37h429.38v872.61H412.08z" transform="rotate(90 626.77 309.93)"/><path fill="#226c62" d="M1057.69 100.63v418.61H195.85V100.63h861.84m5.39-5.39H190.46v429.38h872.62V95.24Z"/><path fill="#40857b" stroke="#fff" stroke-miterlimit="10" stroke-width="1.35" d="M625.3 242.2v134.36a21.73 21.73 0 0 1-36.8-14.86 29.44 29.44 0 0 1-16.74-39.7 29.44 29.44 0 0 1 4.16-45.72 21 21 0 0 1 19.37-29.14h1.26a18.2 18.2 0 0 1 28.75-5Z"/><path fill="#40857b" stroke="#fff" stroke-miterlimit="10" stroke-width="1.35" d="M575.92 276.28s4.86 12.26 18.11 12.42"/><path fill="#40857b" stroke="#fff" stroke-miterlimit="10" stroke-width="1.35" d="M578.1 298.26s7.41-5 4.18-13.72M611.58 250.28S622 247.46 625.3 257M597 267.63s13.48-5.64 16.41 10.46c3 16.55-4.39 24.14-12.75 30.21"/><path fill="#40857b" stroke="#fff" stroke-miterlimit="10" stroke-width="1.35" d="M616.39 311.33a19.45 19.45 0 0 0-5.22-14.05M581.27 315.41s-7.53.52-9.51 6.59M617.23 335.69s-13.36-2.17-22.16 7.94c-7.74 8.89-6.57 18.07-6.57 18.07"/><path fill="#40857b" stroke="#fff" stroke-miterlimit="10" stroke-width="1.35" d="M600.81 317.71s9.4 6.33 2.71 19.84M609.39 358.37s7.46 6.69 15.91-2.19M628.24 242.2v134.36A21.73 21.73 0 0 0 665 361.7a29.44 29.44 0 0 0 16.78-39.7 29.43 29.43 0 0 0-4.15-45.72 21 21 0 0 0-19.38-29.14h-1.26a18.2 18.2 0 0 0-28.75-5Z"/><path fill="#40857b" stroke="#fff" stroke-miterlimit="10" stroke-width="1.35" d="M677.63 276.28s-4.87 12.26-18.12 12.42"/><path fill="#40857b" stroke="#fff" stroke-miterlimit="10" stroke-width="1.35" d="M675.44 298.26s-7.41-5-4.18-13.72M642 250.28s-10.39-2.82-13.72 6.69M656.59 267.63s-13.48-5.64-16.41 10.46c-3 16.55 4.39 24.14 12.75 30.21"/><path fill="#40857b" stroke="#fff" stroke-miterlimit="10" stroke-width="1.35" d="M637.15 311.33a19.45 19.45 0 0 1 5.22-14.05M672.27 315.41s7.53.52 9.51 6.59M636.31 335.69s13.36-2.17 22.17 7.94c7.73 8.89 6.56 18.07 6.56 18.07"/><path fill="#40857b" stroke="#fff" stroke-miterlimit="10" stroke-width="1.35" d="M652.73 317.71s-9.4 6.33-2.71 19.84M644.15 358.37s-7.46 6.69-15.91-2.19"/><path fill="none" stroke="#fff" stroke-miterlimit="10" stroke-width="1.53" d="M792.19 163.14h121.36V284.5H792.19z"/><path fill="#40857b" stroke="#fff" stroke-miterlimit="10" stroke-width="1.53" d="M968.46 134.91h49.91v8.26h-49.91zM968.46 191.85h49.91v8.26h-49.91zM1016.03 143.17h-45.24l20.73 24.34-20.73 24.34h45.24l-20.73-24.34 20.73-24.34z"/><path fill="#fff" d="M845.85 137.61a9.58 9.58 0 0 1 3.38-2 11.62 11.62 0 0 1 3.85-.68 10.65 10.65 0 0 1 3.45.5 7 7 0 0 1 2.37 1.35 5.35 5.35 0 0 1 1.36 1.94 6 6 0 0 1 .44 2.3v11.08c0 .54.07 1 .12 1.54h-3.08c-.08-.92-.12-1.85-.12-2.77h-.07a6.62 6.62 0 0 1-2.74 2.5 8.56 8.56 0 0 1-3.65.73 8.44 8.44 0 0 1-2.43-.34 6 6 0 0 1-2-1 4.93 4.93 0 0 1-1.37-1.72 5.91 5.91 0 0 1 .29-5.33 6.07 6.07 0 0 1 2.16-1.94 10.42 10.42 0 0 1 3.19-1.08 22.09 22.09 0 0 1 3.91-.33h2.54v-.77a3.82 3.82 0 0 0-1.08-2.63 3.88 3.88 0 0 0-1.34-.89 5.09 5.09 0 0 0-1.93-.33 7 7 0 0 0-1.75.2 8.14 8.14 0 0 0-1.37.48 6.06 6.06 0 0 0-1.11.67l-1 .73Zm9.77 7.24a24.18 24.18 0 0 0-2.52.13 9.76 9.76 0 0 0-2.35.52 4.52 4.52 0 0 0-1.73 1.08 2.42 2.42 0 0 0-.67 1.77 2.5 2.5 0 0 0 1.06 2.27 5.19 5.19 0 0 0 2.87.69 5.59 5.59 0 0 0 2.42-.48 4.57 4.57 0 0 0 1.62-1.25 4.8 4.8 0 0 0 .88-1.71 6.77 6.77 0 0 0 .27-1.87v-1.15ZM927.66 216.93a9.73 9.73 0 0 1 3.38-2 11.61 11.61 0 0 1 3.85-.67 10.65 10.65 0 0 1 3.45.5 6.64 6.64 0 0 1 2.37 1.35 5.27 5.27 0 0 1 1.36 1.94 6 6 0 0 1 .45 2.29v11.09c0 .54.07 1.05.12 1.54h-3.08c-.08-.93-.12-1.85-.12-2.77h-.07a6.66 6.66 0 0 1-2.73 2.5 8.63 8.63 0 0 1-3.66.73 8.12 8.12 0 0 1-2.43-.35 5.78 5.78 0 0 1-2-1 4.85 4.85 0 0 1-1.36-1.71 5.23 5.23 0 0 1-.51-2.37 5.31 5.31 0 0 1 .79-3 6 6 0 0 1 2.16-1.94 10.42 10.42 0 0 1 3.19-1.08 22.09 22.09 0 0 1 3.91-.33h2.54v-.77a3.85 3.85 0 0 0-.27-1.39 3.68 3.68 0 0 0-2.15-2.13 5.09 5.09 0 0 0-1.93-.33 7.5 7.5 0 0 0-1.75.19 7.34 7.34 0 0 0-1.37.49 5.55 5.55 0 0 0-1.11.67l-1 .73Zm9.77 7.24a24.24 24.24 0 0 0-2.52.14 9.76 9.76 0 0 0-2.35.52 4.5 4.5 0 0 0-1.73 1.07 2.45 2.45 0 0 0-.67 1.77 2.52 2.52 0 0 0 1.06 2.28 5.19 5.19 0 0 0 2.87.69 5.59 5.59 0 0 0 2.42-.48 4.57 4.57 0 0 0 1.62-1.25 4.93 4.93 0 0 0 .88-1.72 6.7 6.7 0 0 0 .27-1.86v-1.16ZM969.36 273.3a10.25 10.25 0 0 0 2.74 4.6 7.52 7.52 0 0 0 5.1 1.52 8.5 8.5 0 0 0 3.17-.58 8.92 8.92 0 0 0 2.63-1.57 7.3 7.3 0 0 0 1.81-2.43 7.48 7.48 0 0 0 .66-3.18 7.29 7.29 0 0 0-1.12-4.27 7 7 0 0 0-2.88-2.42 12.29 12.29 0 0 0-3.87-1.06 37.32 37.32 0 0 0-4.18-.25v-5.09a27.16 27.16 0 0 0 5.45-.45 9.25 9.25 0 0 0 3.33-1.3 4.58 4.58 0 0 0 1.7-2.12 8 8 0 0 0 .48-2.85 6.45 6.45 0 0 0-2.06-5.21 7.66 7.66 0 0 0-5.15-1.76 7.21 7.21 0 0 0-4.27 1.36 8.5 8.5 0 0 0-2.88 3.61l-5.93-2a11.9 11.9 0 0 1 5.17-6.09 15.6 15.6 0 0 1 7.79-2 17.61 17.61 0 0 1 5 .7 12 12 0 0 1 4.21 2.15 10.43 10.43 0 0 1 2.88 3.66 11.83 11.83 0 0 1 1.06 5.18 9.73 9.73 0 0 1-2 6.06 10.13 10.13 0 0 1-5.3 3.64v.12a10.32 10.32 0 0 1 3.57 1.33 9.7 9.7 0 0 1 2.67 2.43 10.29 10.29 0 0 1 1.63 3.24 12.68 12.68 0 0 1 .55 3.79 11.85 11.85 0 0 1-1.18 5.42 11.52 11.52 0 0 1-3.15 3.88 13.8 13.8 0 0 1-4.55 2.33 18.6 18.6 0 0 1-5.42.79 16.44 16.44 0 0 1-8.63-2.24 11.89 11.89 0 0 1-5.19-7.09ZM998.2 238h5.45v21.51h.12a8.06 8.06 0 0 1 3.58-3.72 11.79 11.79 0 0 1 5.87-1.43 12.32 12.32 0 0 1 4 .64 9 9 0 0 1 3.34 2 9.7 9.7 0 0 1 2.27 3.42 13.23 13.23 0 0 1 .85 4.94v18.48h-5.46v-17a9.66 9.66 0 0 0-.54-3.42 6.23 6.23 0 0 0-1.46-2.3 5.38 5.38 0 0 0-2.09-1.27 7.49 7.49 0 0 0-2.45-.4 8.76 8.76 0 0 0-3.15.55 6.63 6.63 0 0 0-2.55 1.72 8.24 8.24 0 0 0-1.7 3 13.82 13.82 0 0 0-.6 4.3v14.79h-5.48Z"/><path fill="none" stroke="#fff" stroke-miterlimit="10" stroke-width="1.53" d="m792.19 284.51 121.36-121.37"/><path fill="#40857b" stroke="#fff" stroke-miterlimit="10" stroke-width="1.48" d="M967.17 341.29h48.56v8.03h-48.56zM967.17 396.68h48.56v8.03h-48.56zM1013.46 349.32h-44.01L989.61 373l-20.16 23.68h44.01L993.29 373l20.17-23.68z"/><path fill="#fff" d="m962 480.11 16.74-16.63a22.44 22.44 0 0 0 1.71-1.79 16.67 16.67 0 0 0 1.47-2 10.36 10.36 0 0 0 1-2.24 8.12 8.12 0 0 0 .38-2.47 6.73 6.73 0 0 0-.56-2.78 6.21 6.21 0 0 0-1.54-2.09 7 7 0 0 0-2.29-1.33 8.46 8.46 0 0 0-2.81-.47 7.51 7.51 0 0 0-5.06 1.71 7.76 7.76 0 0 0-2.54 4.72l-6.13-.53a13.14 13.14 0 0 1 1.62-4.81 11.67 11.67 0 0 1 3-3.38 12.08 12.08 0 0 1 4.12-2 18.92 18.92 0 0 1 5-.65 17.33 17.33 0 0 1 5.1.74 12.61 12.61 0 0 1 4.18 2.18 10.15 10.15 0 0 1 2.83 3.6 11.61 11.61 0 0 1 1 5 11.79 11.79 0 0 1-.62 3.86 16.09 16.09 0 0 1-1.62 3.4 20.6 20.6 0 0 1-2.3 3c-.87.94-1.77 1.87-2.71 2.77l-13.57 13.25h21v4.95H962ZM996.11 441.55h5.31v20.93h.11a7.84 7.84 0 0 1 3.48-3.63 11.53 11.53 0 0 1 5.72-1.38 12 12 0 0 1 3.86.62 8.67 8.67 0 0 1 3.24 1.91 9.33 9.33 0 0 1 2.21 3.34 12.68 12.68 0 0 1 .83 4.8v18h-5.31v-16.53a9.42 9.42 0 0 0-.53-3.33 6.2 6.2 0 0 0-1.42-2.24 5.33 5.33 0 0 0-2-1.24 7.65 7.65 0 0 0-2.38-.38 8.72 8.72 0 0 0-3.07.53 6.47 6.47 0 0 0-2.48 1.68 8 8 0 0 0-1.65 2.92 13.35 13.35 0 0 0-.58 4.18v14.39h-5.31ZM827.79 373.72h11.1l38.67 90.36h-14.29l-9.06-22.33h-43l-8.93 22.33H788Zm22 57.31-16.89-41.48h-.26L815.54 431ZM886.63 411a32.07 32.07 0 0 1 11.24-6.7 38.53 38.53 0 0 1 12.75-2.23 34.9 34.9 0 0 1 11.43 1.66 22.32 22.32 0 0 1 7.85 4.47 17.8 17.8 0 0 1 4.53 6.44 20.31 20.31 0 0 1 1.46 7.6v30.88c0 2.13 0 4.08.14 5.86s.2 3.49.37 5.11h-10.21q-.37-4.59-.37-9.19h-.26a22.09 22.09 0 0 1-9.06 8.3 28.52 28.52 0 0 1-12.13 2.42 27.66 27.66 0 0 1-8-1.14 19.45 19.45 0 0 1-6.7-3.45 16.46 16.46 0 0 1-4.53-5.68 19.59 19.59 0 0 1 1-17.68 19.82 19.82 0 0 1 7.14-6.44 34.53 34.53 0 0 1 10.6-3.57 72.86 72.86 0 0 1 13-1.09h8.42V424a12.78 12.78 0 0 0-.89-4.6 12.48 12.48 0 0 0-2.68-4.14 12.85 12.85 0 0 0-4.47-2.94 17 17 0 0 0-6.37-1.08 23.84 23.84 0 0 0-5.82.63 26.15 26.15 0 0 0-4.53 1.6 19.37 19.37 0 0 0-3.7 2.24l-3.18 2.42ZM919 435a82.87 82.87 0 0 0-8.36.45 32.89 32.89 0 0 0-7.78 1.72 15.15 15.15 0 0 0-5.74 3.58 8 8 0 0 0-2.23 5.87c0 3.49 1.16 6 3.51 7.53s5.5 2.3 9.5 2.3a18.32 18.32 0 0 0 8-1.6 15.08 15.08 0 0 0 5.36-4.14 16.13 16.13 0 0 0 2.94-5.68 22.7 22.7 0 0 0 .89-6.19V435Z"/><path fill="#40857b" stroke="#fff" stroke-miterlimit="10" stroke-width="1.61" d="M231.87 325.96h52.75v8.73h-52.75z" transform="rotate(180 258.24 330.325)"/><path fill="#40857b" stroke="#fff" stroke-miterlimit="10" stroke-width="1.61" d="M231.87 386.13h52.75v8.73h-52.75z" transform="rotate(180 258.24 390.495)"/><path fill="#40857b" stroke="#fff" stroke-miterlimit="10" stroke-width="1.61" d="M234.34 334.69h47.81l-21.91 25.72 21.91 25.72h-47.81l21.9-25.72-21.9-25.72z"/><path fill="#fff" d="m226.29 476.76 18.19-18.06a22.93 22.93 0 0 0 1.85-1.95 19.73 19.73 0 0 0 1.61-2.21 12.55 12.55 0 0 0 1.12-2.44 8.83 8.83 0 0 0 .41-2.68 7.21 7.21 0 0 0-.61-3 6.64 6.64 0 0 0-1.66-2.27 7.62 7.62 0 0 0-2.5-1.44 9.07 9.07 0 0 0-3-.51 8.23 8.23 0 0 0-5.51 1.85 8.39 8.39 0 0 0-2.75 5.13l-6.66-.58a14.24 14.24 0 0 1 1.76-5.22 12.47 12.47 0 0 1 3.27-3.68 13.26 13.26 0 0 1 4.48-2.18 20.74 20.74 0 0 1 5.47-.7 18.83 18.83 0 0 1 5.54.8 13.69 13.69 0 0 1 4.55 2.37 11.16 11.16 0 0 1 3.07 3.91 12.45 12.45 0 0 1 1.12 5.47 12.74 12.74 0 0 1-.67 4.19 17.88 17.88 0 0 1-1.76 3.69 22.94 22.94 0 0 1-2.5 3.26c-.94 1-1.92 2-2.95 3l-14.96 14.4H256v5.38h-29.71ZM263.3 434.88h5.77v22.73h.12a8.48 8.48 0 0 1 3.78-3.94 12.52 12.52 0 0 1 6.21-1.5 13.08 13.08 0 0 1 4.19.67 9.52 9.52 0 0 1 3.53 2.08 10.14 10.14 0 0 1 2.4 3.62 14 14 0 0 1 .89 5.22v19.53h-5.76v-17.93a10 10 0 0 0-.58-3.62 6.57 6.57 0 0 0-1.53-2.43 5.82 5.82 0 0 0-2.21-1.35 8.41 8.41 0 0 0-2.59-.42 9.47 9.47 0 0 0-3.33.58 6.94 6.94 0 0 0-2.7 1.83 8.76 8.76 0 0 0-1.79 3.17 14.31 14.31 0 0 0-.63 4.54v15.63h-5.77Z"/><path fill="#40857b" stroke="#fff" stroke-miterlimit="10" stroke-width="1.61" d="M419 343.45a60.81 60.81 0 0 0-10-8.52 58.94 58.94 0 0 0-15.54-7.45 59.81 59.81 0 0 0-48.82 6.14c-1.28.8-2.54 1.63-3.76 2.52-.55.4-1.08.8-1.61 1.21-1.31 1-2.57 2.07-3.8 3.2a59.46 59.46 0 0 0-19.15 41.51v2.29a59.43 59.43 0 0 0 53.6 59.21 57.7 57.7 0 0 0 5.93.3 59.23 59.23 0 0 0 34.43-11 57.56 57.56 0 0 0 5.44-4.38c.83-.73 1.62-1.49 2.4-2.28.25-.25.48-.5.7-.75a59.49 59.49 0 0 0 .28-82Z"/><path fill="#40857b" stroke="#fff" stroke-miterlimit="10" stroke-width="1.61" d="M302.9 384.34a71.88 71.88 0 0 0 66.94 71.71c1 .07 2 .11 3 .14h3c1 0 2 0 3-.11A71.37 71.37 0 0 0 417.63 442q2.81-2.09 5.4-4.43c.79-.71 1.56-1.45 2.32-2.2l-4.53-5.7c-.77.77-1.55 1.53-2.36 2.26a62 62 0 0 1-5.39 4.44 64.31 64.31 0 0 1-37.3 12.63h-1c-1.65 0-3.3-.07-4.93-.19a64.63 64.63 0 0 1-38-112.73 63.59 63.59 0 0 1 5.46-4.36c1.24-.89 2.52-1.73 3.82-2.53l-4.53-5.71q-2 1.25-3.86 2.61a73.648 73.648 0 0 0-5.45 4.35 71.72 71.72 0 0 0-24.38 53.9Z"/><path fill="#40857b" stroke="#fff" stroke-miterlimit="10" stroke-width="1.61" d="M415.66 428.51a58.67 58.67 0 0 1-5.45 4.38l2.86 3.52a62 62 0 0 0 5.39-4.44ZM331.8 336.06l3.65 4.5a58.75 58.75 0 0 1 5.4-4.42l-3.59-4.44a63.59 63.59 0 0 0-5.46 4.36ZM376.88 456.18v-.08c-1 .06-2 .09-3 .11h-1.12v20.22h5.93V456.1c-.57.04-1.19.07-1.81.08ZM382.26 356.14c.37 4.31 7.84 6.63 11.42 10 3.12 2.93 5.17 6.8 1.93 7.8s-6.22-1.71-8-.44-2.12 8.6.18 12 6.3 5.8 11.92 3.74 8.21-1.95 9.24-.81c2 2.27 1 3.83.45 5.16-.69 1.6.26 2.13-.27 4.08-.6 2.22-5.76 1.48-9 3.43s-5.68 5.67-1.69 9.17 6.18 4.62 7.49 8.67 3.56 8.77 5.86 6.68c2.92-2.63-.87-5.68-1.31-9.24s-.17-6.48 3.82-8.79 5.23-5.62 2.36-8.11-3.62-3.18-3.93-7.3.37-5.37 2.87-6.24 8.67-5.89 10.29-8.61c2.34-3.91 3.57-9.49-.58-12.23s-9.15-6.11-9.77-10.61-1.33-9.21 3.45-11.06a59.92 59.92 0 0 0-9.99-8.5c-.2 0-4.59.34-6.12 4.12s-3.62 8.42-8.11 10.73-12.88 2.06-12.51 6.36ZM382.59 366.5c-.74 1-3.53-1.75-5.15-2.54s-5.66-.12-6.45-1.41-1.21-4.58 1.29-5.49 6.86-2.66 7.15 0-.66 2.91.92 4.82 3.24 3.25 2.24 4.62ZM316.25 384.34a59.3 59.3 0 0 0 4.26 22.15 12.45 12.45 0 0 1 5.85-3.84c2.95-.54 4.24 3.41 5.11 5.19s2.83 2 3 .22-2.95-8.24-.71-8.74 2.21 4.07 3.79 6.9 6.15 4.08 9.07 4.74 4.49 1.59 6 5.91 5.14 7.07 6.81 4.16-1.08-7.24-1.92-12 1.42-7-.58-10.46-4-10.56.83-15.06 6.08-7.9 5.58-11.56-14.56-6.16-21.47 0-13.64 5.41-18.38 6.49a15.6 15.6 0 0 0-7.24 3.61c.01.76 0 1.52 0 2.29Z"/><path fill="#40857b" stroke="#fff" stroke-miterlimit="10" stroke-width="1.61" d="M404.46 476.06a2.11 2.11 0 0 0-1.49-.62h-54.39a2.11 2.11 0 0 0 0 4.22H403a2.11 2.11 0 0 0 1.49-3.6Z"/><path fill="#40857b" stroke="#fff" stroke-miterlimit="10" stroke-width="1.61" d="M412.23 480.28a2.11 2.11 0 0 0-1.49-.62h-69.93a2.11 2.11 0 0 0 0 4.22h69.93a2.11 2.11 0 0 0 1.49-3.6Z"/><path fill="#40857b" stroke="#fff" stroke-miterlimit="10" stroke-width="1.58" d="M231.32 127.82h51.52v8.52h-51.52z" transform="rotate(180 257.08 132.085)"/><path fill="#40857b" stroke="#fff" stroke-miterlimit="10" stroke-width="1.58" d="M231.32 186.59h51.52v8.52h-51.52z" transform="rotate(180 257.08 190.855)"/><path fill="#40857b" stroke="#fff" stroke-miterlimit="10" stroke-width="1.58" d="M233.73 136.35h46.7l-21.39 25.12 21.39 25.12h-46.7l21.4-25.12-21.4-25.12zM453.36 202.8c-6.55 11.88-20.06 27.55-42.36 42.74-16.34 11.13-33.75 19.11-48.35 22.45a59.29 59.29 0 1 1 70.23-95.48 57.84 57.84 0 0 1 8.62 8.23 58.63 58.63 0 0 1 11.86 22.06Z"/><path fill="none" stroke="#fff" stroke-miterlimit="10" stroke-width="1.58" d="M455.29 226a59.28 59.28 0 0 1-58.89 52.55A58.39 58.39 0 0 1 383 277a177.57 177.57 0 0 0 36.86-19.45c14.41-9.79 26.51-20.77 35.43-31.55Z"/><path fill="#40857b" stroke="#fff" stroke-miterlimit="10" stroke-width="1.58" d="M455.29 226c-8.92 10.8-21 21.78-35.41 31.57A177.57 177.57 0 0 1 383 277c-24.88 9.39-46 9.32-53.76-2-6.41-9.43-2.14-24.63 9.72-40.85a59.81 59.81 0 0 0 3.72 10.27c-6.45 10.4-8 18.44-5.75 21.72 1.51 2.25 6 3.57 12 3.57a62.25 62.25 0 0 0 13.72-1.71c14.6-3.34 32-11.32 48.35-22.45 22.3-15.19 35.81-30.86 42.36-42.74 4.92-8.89 6-15.67 3.95-18.63-1.51-2.25-6-3.57-12-3.57-1.24 0-2.5 0-3.82.14a57.84 57.84 0 0 0-8.62-8.23c17.06-3.57 30.6-1.47 36.44 7.12 7.15 10.47 1.08 28.13-14.02 46.36Z"/><path fill="#fff" d="M244.41 271.64h-18.84v-6.11l17.6-28.33h7.24v29.2h6.23v5.24h-6.23v9.74h-6Zm0-27.33h-.12l-13.48 22.09h13.6ZM262.38 234.2H268v22.15h.13a8.18 8.18 0 0 1 3.68-3.83 12.13 12.13 0 0 1 6.05-1.47 12.79 12.79 0 0 1 4.09.66 9.2 9.2 0 0 1 3.43 2 9.74 9.74 0 0 1 2.34 3.53 13.52 13.52 0 0 1 .87 5.09v19H283V263.9a10 10 0 0 0-.56-3.52 6.52 6.52 0 0 0-1.5-2.37 5.74 5.74 0 0 0-2.16-1.31 7.92 7.92 0 0 0-2.52-.41 9.28 9.28 0 0 0-3.25.56 6.83 6.83 0 0 0-2.62 1.78 8.26 8.26 0 0 0-1.74 3.09 14 14 0 0 0-.63 4.43v15.23h-5.62Z"/><circle cx="447.18" cy="179.88" r="39.27" fill="#40857b" data-name="SVGID" transform="rotate(-76.34 447.195 179.873)"/><g clip-path="url(#b)"><path fill="#40857b" stroke="#fff" stroke-miterlimit="10" stroke-width="1.35" d="M392.85 179.88s30.41-26.51 56.06-18.59 56.69-16.47 56.69-16.47"/><path fill="#40857b" stroke="#fff" stroke-miterlimit="10" stroke-width="1.35" d="M447.89 170.88c.62 2.78-6.42 6.71-15.73 8.78s-17.35 1.5-18-1.28 6.42-6.7 15.73-8.77 17.39-1.5 18 1.27ZM481.25 183.09c1.4 1.62-1.86 6.73-7.28 11.42s-11 7.19-12.36 5.57 1.86-6.73 7.29-11.43 10.95-7.18 12.35-5.56Z"/><ellipse cx="457.94" cy="154.56" fill="#40857b" stroke="#fff" stroke-miterlimit="10" stroke-width="1.35" rx="8.71" ry="3.4"/><path fill="#40857b" stroke="#fff" stroke-miterlimit="10" stroke-width="1.35" d="M444 204c0 1.88-3.9 3.4-8.71 3.4s-8.71-1.52-8.71-3.4 3.9-3.41 8.71-3.41S444 202.1 444 204Z"/><path fill="#40857b" stroke="#fff" stroke-miterlimit="10" stroke-width="1.35" d="M494.68 171.15s-10-3-25.34 9.62c-11.6 9.58-18.69 13.93-39 14.25s-28 18.53-28 18.53"/></g><circle cx="447.18" cy="179.88" r="39.27" fill="none" stroke="#fff" stroke-miterlimit="10" stroke-width="1.35" data-name="SVGID" transform="rotate(-76.34 447.195 179.873)"/><path fill="#40857b" stroke="#fff" stroke-miterlimit="10" stroke-width="1.35" d="m563.58 340.73-89.95 44.05M780.31 234.6l-88.34 43.26"/><path fill="#fff" d="m780.31 234.6-10.92 1.18 3.55 6.96 7.37-8.14zM780.31 385.27l-10.92-1.18 3.55-6.96 7.37 8.14zM473.23 385.03l10.94-.99-3.43-7.02-7.51 8.01zM473.23 234.84l10.94.98-3.43 7.03-7.51-8.01z"/><path fill="#40857b" stroke="#fff" stroke-miterlimit="10" stroke-width="1.35" d="m689.36 340.73 84.85 41.75M479.33 237.38l84.25 41.46"/><path fill="none" stroke="#367194" stroke-linecap="round" stroke-linejoin="round" stroke-width="1.67" d="M171 731.71s-83.25 14.86-130.51-99.94"/><path fill="#367194" d="M38.26 616.91c2.83 6.09 2.39 15.85 2.39 15.85s-7.75-6-10.58-12-1.93-8.94.33-10 5.03.07 7.86 6.15ZM56.41 636.38c-1.33 6.58-7.48 14.17-7.48 14.17s-2.7-9.39-1.37-16 3.76-8.35 6.2-7.85 3.98 3.1 2.65 9.68ZM36.27 640.73c6.25 2.45 12.66 9.82 12.66 9.82s-9.72 1-16-1.42-7.56-5.15-6.65-7.47 3.72-3.39 9.99-.93ZM67.37 655.12c-1.33 6.57-7.48 14.17-7.48 14.17s-2.7-9.39-1.36-16 3.75-8.34 6.19-7.85 3.99 3.1 2.65 9.68ZM45.13 663.07c6.66.76 14.76 6.22 14.76 6.22s-9.11 3.51-15.78 2.71-8.64-3-8.36-5.49 2.71-4.19 9.38-3.44ZM80.73 673.21c-1.33 6.57-7.48 14.17-7.48 14.17s-2.7-9.39-1.37-16 3.76-8.34 6.2-7.84 3.99 3.09 2.65 9.67ZM57.76 683.28c6.71-.18 15.49 4.1 15.49 4.1s-8.54 4.74-15.24 4.93-9-1.79-9-4.28 2.05-4.57 8.75-4.75ZM96.94 689.24c-1 6.63-6.85 14.49-6.85 14.49S87 694.47 88 687.84s3.38-8.5 5.85-8.12 4.15 2.89 3.09 9.52ZM74.17 702c6.6-1.17 15.92 1.76 15.92 1.76s-7.74 6-14.34 7.13-9.14-.43-9.58-2.89 1.39-4.86 8-6ZM116.07 703.65c-.56 6.69-5.78 14.94-5.78 14.94s-3.78-9-3.22-15.7 2.76-8.72 5.25-8.51 4.31 2.62 3.75 9.27ZM94.35 720.22c6.21-2.53 15.94-1.63 15.94-1.63s-6.32 7.46-12.53 10-9 1.5-10-.81.37-5.02 6.59-7.56ZM136.87 712.62c0 6.71-4.6 15.35-4.6 15.35s-4.46-8.69-4.43-15.4 2.07-8.91 4.56-8.9 4.5 2.24 4.47 8.95ZM117.25 733.54c5.38-4 15-5.57 15-5.57s-4.25 8.8-9.63 12.81-8.36 3.71-9.85 1.71-.9-4.94 4.48-8.95Z"/><path fill="none" stroke="#367194" stroke-linecap="round" stroke-linejoin="round" stroke-width="1.67" d="M602.44 739.83s83.27 14.85 130.53-100"/><path fill="#367194" d="M735.21 625c-2.83 6.08-2.4 15.84-2.4 15.84s7.75-6 10.58-12 1.94-9-.33-10-5.06.1-7.85 6.16ZM717.05 644.49c1.34 6.58 7.48 14.17 7.48 14.17s2.71-9.38 1.37-16-3.75-8.34-6.19-7.85-3.99 3.11-2.66 9.68ZM737.19 648.84c-6.24 2.45-12.66 9.82-12.66 9.82s9.72 1 16-1.42 7.57-5.15 6.66-7.47-3.75-3.39-10-.93ZM706.09 663.23c1.33 6.57 7.48 14.17 7.48 14.17s2.7-9.39 1.37-16-3.76-8.34-6.2-7.84-3.98 3.09-2.65 9.67ZM728.34 671.18c-6.67.76-14.77 6.22-14.77 6.22s9.12 3.51 15.78 2.75 8.64-3 8.36-5.49-2.71-4.23-9.37-3.48ZM692.73 681.32c1.34 6.58 7.48 14.17 7.48 14.17s2.7-9.39 1.37-16-3.75-8.35-6.2-7.85-3.98 3.11-2.65 9.68ZM715.7 691.39c-6.71-.18-15.49 4.1-15.49 4.1s8.54 4.75 15.25 4.93 9-1.78 9-4.27-2.05-4.58-8.76-4.76ZM676.52 697.35c1.05 6.63 6.85 14.49 6.85 14.49s3.11-9.26 2.07-15.89-3.38-8.5-5.84-8.11-4.12 2.88-3.08 9.51ZM699.3 710.08c-6.61-1.17-15.93 1.76-15.93 1.76s7.74 6 14.35 7.13 9.14-.43 9.57-2.88-1.39-4.83-7.99-6.01ZM657.4 711.76c.56 6.69 5.78 15 5.78 15s3.77-9 3.21-15.7-2.76-8.73-5.24-8.52-4.32 2.54-3.75 9.22Z"/><path fill="#367194" d="M679.12 728.34c-6.21-2.54-15.94-1.63-15.94-1.63s6.32 7.45 12.53 10 9 1.51 10-.8-.38-5.04-6.59-7.57ZM636.6 720.73c0 6.71 4.59 15.35 4.59 15.35s4.47-8.68 4.43-15.39-2.06-8.92-4.56-8.9-4.5 2.21-4.46 8.94ZM656.22 741.65c-5.38-4-15-5.57-15-5.57s4.25 8.8 9.63 12.81 8.36 3.71 9.85 1.71.9-4.94-4.48-8.95Z"/><path fill="none" stroke="#367194" stroke-linecap="round" stroke-linejoin="round" stroke-width="1.29" d="M616.62 706.46s62.19-20.58 52-116.18"/><path fill="#367194" d="M664.72 579.33c.31 5.19 4.21 11.68 4.21 11.68s3.08-6.91 2.77-12.1-2-6.8-3.91-6.68-3.39 1.92-3.07 7.1ZM659.53 599.28c3.34 4 10.32 6.9 10.32 6.9s-1.62-7.39-5-11.38-5.63-4.3-7.12-3.06-1.53 3.56 1.8 7.54ZM674.85 594.82c-3.35 4-5 11.36-5 11.36s7-2.88 10.34-6.86 3.26-6.29 1.78-7.53-3.77-.94-7.12 3.03ZM659 616.08c3.33 4 10.32 6.9 10.32 6.9s-1.62-7.39-4.95-11.38-5.64-4.3-7.12-3.06-1.61 3.56 1.75 7.54Z"/><path fill="#367194" d="M677.06 613.3c-4.27 3-7.77 9.68-7.77 9.68s7.5-1 11.77-4 4.77-5.23 3.66-6.81-3.4-1.84-7.66 1.13ZM656.54 633.33c3.34 4 10.32 6.89 10.32 6.89s-1.62-7.39-5-11.37-5.63-4.3-7.11-3.06-1.54 3.55 1.79 7.54ZM675.9 631.72c-4.63 2.35-9 8.5-9 8.5s7.57.09 12.2-2.26 5.46-4.52 4.58-6.25-3.15-2.34-7.78.01ZM651.42 650.22c3.15 4.13 10 7.34 10 7.34s-1.29-7.45-4.42-11.56-5.43-4.54-7-3.37-1.74 3.46 1.42 7.59ZM671.62 650.5c-4.93 1.63-10.2 7.06-10.2 7.06s7.47 1.21 12.4-.43 6.07-3.66 5.46-5.49-2.73-2.78-7.66-1.14ZM643.7 667.09c2.85 4.34 9.45 8 9.45 8s-.75-7.53-3.6-11.87-5.1-4.93-6.71-3.87-1.99 3.39.86 7.74ZM664.61 670.37c-5.17.56-11.46 4.76-11.46 4.76s7.05 2.75 12.21 2.19 6.7-2.31 6.49-4.23-2.08-3.29-7.24-2.72ZM632.84 680.87c2.5 4.55 8.79 8.75 8.79 8.75s-.16-7.56-2.66-12.12-4.69-5.3-6.38-4.37-2.24 3.18.25 7.74ZM653.92 687.88c-5.14-.75-12.29 1.74-12.29 1.74s6.14 4.43 11.28 5.18 7.06-.56 7.34-2.47-1.19-3.7-6.33-4.45Z"/><path fill="none" stroke="#367194" stroke-linecap="round" stroke-linejoin="round" stroke-width="1.29" d="M156.85 698.35s-62.19-20.58-52.06-116.19"/><path fill="#367194" d="M108.74 571.22c-.31 5.19-4.21 11.67-4.21 11.67s-3.08-6.91-2.76-12.09 2-6.8 3.9-6.69 3.39 1.89 3.07 7.11ZM113.93 591.17c-3.33 4-10.32 6.89-10.32 6.89s1.62-7.39 5-11.37 5.63-4.3 7.11-3.06 1.54 3.55-1.79 7.54Z"/><path fill="#367194" d="M98.62 586.71c3.34 4 5 11.35 5 11.35s-7-2.88-10.34-6.85-3.26-6.29-1.78-7.54 3.77-.94 7.12 3.04ZM114.49 608c-3.33 4-10.32 6.89-10.32 6.89s1.63-7.39 5-11.37 5.63-4.3 7.11-3.06 1.54 3.54-1.79 7.54ZM96.41 605.19c4.26 3 7.76 9.67 7.76 9.67s-7.5-1-11.76-3.94-4.77-5.23-3.67-6.82 3.41-1.88 7.67 1.09ZM116.92 625.22c-3.33 4-10.32 6.89-10.32 6.89s1.62-7.39 5-11.38 5.63-4.29 7.11-3.06 1.54 3.56-1.79 7.55ZM97.56 623.61c4.64 2.35 9 8.5 9 8.5s-7.56.08-12.2-2.27-5.45-4.52-4.58-6.24 3.15-2.34 7.78.01ZM122.05 642.11c-3.15 4.13-10 7.34-10 7.34s1.29-7.45 4.44-11.58 5.44-4.55 7-3.37 1.71 3.5-1.44 7.61ZM101.85 642.38c4.93 1.64 10.2 7.07 10.2 7.07s-7.47 1.21-12.41-.43-6.06-3.66-5.45-5.49 2.72-2.78 7.66-1.15ZM129.76 659c-2.84 4.35-9.44 8-9.44 8s.75-7.53 3.59-11.88 5.1-4.92 6.71-3.86 1.99 3.37-.86 7.74ZM108.86 662.25c5.16.57 11.46 4.77 11.46 4.77s-7 2.75-12.22 2.18-6.7-2.3-6.49-4.22 2.08-3.29 7.25-2.73ZM140.62 672.75c-2.5 4.56-8.79 8.76-8.79 8.76s.16-7.56 2.66-12.12 4.69-5.31 6.39-4.38 2.24 3.19-.26 7.74ZM119.55 679.77c5.14-.75 12.28 1.74 12.28 1.74s-6.14 4.43-11.28 5.17-7.06-.55-7.34-2.46 1.2-3.71 6.34-4.45Z"/><path fill="#fce0e8" d="M603.87 676.51C603.87 552 502.9 451 378.37 451q-2.53 0-5 .06c-122.2 2.69-220.46 102.6-220.46 225.45H117.4v87.83h521.93v-87.83Zm-373 0c0-75.78 61.64-137.41 137.42-137.41 1.68 0 3.37 0 5.06.11s3.35-.11 5-.11c75.77 0 137.4 61.63 137.4 137.41Z"/><path fill="#f9c1d3" d="M593.77 676.51c0-122.85-98.24-222.76-220.44-225.45-122.2 2.69-220.46 102.6-220.46 225.45H117.4v87.83h521.93v-87.83Zm-362.92 0c0-75.78 61.64-137.41 137.42-137.41 1.68 0 3.37 0 5.06.11s3.35-.11 5-.11c75.77 0 137.4 61.63 137.4 137.41Z"/><path fill="#f38bab" d="M373.33 539.21C299.89 541.85 241 602.42 241 676.51h-10.1c0-75.78 61.64-137.41 137.42-137.41a120 120 0 0 1 5.01.11Z"/><path fill="none" stroke="#f38bab" stroke-miterlimit="10" stroke-width="1.25" d="M621.64 740.35v17.31M613.72 740.35v17.31M605.8 740.35v17.31M597.88 740.35v17.31M589.97 740.35v17.31M582.05 740.35v17.31M574.13 740.35v17.31M566.21 740.35v17.31M558.3 740.35v17.31M550.38 740.35v17.31M542.46 740.35v17.31M534.54 740.35v17.31M526.62 740.35v17.31M518.71 740.35v17.31M510.79 740.35v17.31M502.87 740.35v17.31M494.95 740.35v17.31M487.04 740.35v17.31M479.12 740.35v17.31M471.2 740.35v17.31M463.28 740.35v17.31M455.36 740.35v17.31M447.45 740.35v17.31M439.53 740.35v17.31M431.61 740.35v17.31M423.69 740.35v17.31M415.78 740.35v17.31M407.86 740.35v17.31M399.94 740.35v17.31M392.02 740.35v17.31M384.1 740.35v17.31M376.19 740.35v17.31M368.27 740.35v17.31M360.35 740.35v17.31M352.43 740.35v17.31M344.52 740.35v17.31M336.6 740.35v17.31M328.68 740.35v17.31M320.76 740.35v17.31M312.85 740.35v17.31M304.93 740.35v17.31M297.01 740.35v17.31M289.09 740.35v17.31M281.17 740.35v17.31M273.26 740.35v17.31M265.34 740.35v17.31M257.42 740.35v17.31M249.5 740.35v17.31M241.59 740.35v17.31M233.67 740.35v17.31M225.75 740.35v17.31M217.83 740.35v17.31M209.91 740.35v17.31M202 740.35v17.31M194.08 740.35v17.31M186.16 740.35v17.31M178.24 740.35v17.31M170.33 740.35v17.31M162.41 740.35v17.31M154.49 740.35v17.31M146.57 740.35v17.31M138.66 740.35v17.31"/><path fill="none" stroke="#f38bab" stroke-miterlimit="10" stroke-width="1.79" d="M373.33 483.61v-22.39M356.53 484.35l-1.96-22.31M339.82 486.52l-3.88-22.02M323.38 490.15l-5.78-21.59M307.34 495.19l-7.65-20.98M291.79 501.65l-9.45-20.26M276.86 509.44l-11.18-19.38M262.68 518.48l-12.83-18.32M249.33 528.75l-14.39-17.16M236.93 540.11l-15.83-15.83M225.57 552.51l-17.16-14.39M215.3 565.86l-18.32-12.83M206.26 580.04l-19.38-11.18M198.47 594.97l-20.26-9.45M192.01 610.52l-20.98-7.65M186.97 626.56l-21.59-5.78M183.34 643l-22.02-3.88M158.86 657.75l22.31 1.96M587.79 657.75l-22.31 1.96M585.33 639.12 563.31 643M581.28 620.78l-21.59 5.78M575.62 602.87l-20.98 7.65M568.44 585.52l-20.26 9.45M559.78 568.86l-19.39 11.18M549.67 553.03l-18.32 12.83M538.24 538.12l-17.16 14.39M525.55 524.28l-15.83 15.83M511.71 511.59l-14.39 17.16M496.8 500.16l-12.83 18.32M480.97 490.06l-11.18 19.38M464.32 481.39l-9.46 20.26M446.96 474.21l-7.64 20.98M429.05 468.56l-5.78 21.59M410.71 464.5l-3.88 22.02M392.08 462.04l-1.96 22.31"/><path fill="#f0876e" d="M482.74 732.67h28.01l2.52 14.35h-27.6l-2.93-14.35z"/><path fill="#631418" d="M511.18 747h16.15a15.54 15.54 0 0 1 15.32 17.32h-54.79L485.67 747Z"/><path fill="#f0876e" d="M381.87 732.67h27.54l-2.21 14.35h-27.13l1.8-14.35z"/><path fill="#154a64" d="m427.94 456.78 46.39 281.06h47.83l-26.19-285.79-68.03 4.73z"/><path fill="#154a64" d="m394.79 453.84 72.19 8.28-48.71 275.72h-42.74l19.26-284z"/><path fill="#ea5d2a" d="M494.09 320.84 463.32 311l-20.18-1.47-24.8 1.88-37.16 11.89v170.57C419 500.36 505.06 489 505.06 489c.81-49.56-10.97-168.16-10.97-168.16Z"/><path fill="#fff" d="m463.32 310.98-21.82-6.99-23.16 7.4 23.74 38.52 21.24-38.93z"/><path fill="#fff" d="M441.71 317.27s-12.28 4.12-13.71 15.13c0 0-18.85-13-7-26ZM441.71 317.27S453.47 320 456 330.91c0 0 16.15-17.74 3.92-23Z"/><path fill="#ea5d2a" d="M346.39 456.08a20.06 20.06 0 0 0 25.3-12.64l31.4-94.12A20 20 0 0 0 390.45 324a20.06 20.06 0 0 0-25.3 12.64l-31.41 94.11a20.07 20.07 0 0 0 12.65 25.33Z"/><path fill="#f0876e" d="M420.53 310.69c22.19 15.32 39.61-.73 39.61-.73l-.86-7.51-1.56-13.45-14.19-9.78-17.77-12.26Z"/><path fill="#ea5d2a" d="M542.16 445.25a20.07 20.07 0 0 0 8.48-27l-45.88-88a20.07 20.07 0 0 0-27-8.48 20.06 20.06 0 0 0-8.48 27l45.88 88a20.07 20.07 0 0 0 27 8.48Z"/><path fill="#e8745e" d="M436.43 279.92c3.8 22.94 22.85 22.53 22.85 22.53L457.72 289l-14.19-9.78c-4.2.38-7.1.7-7.1.7Z"/><path fill="none" stroke="#fff" stroke-linecap="round" stroke-linejoin="round" stroke-width="1.04" d="m447.1 572.84 6.72-38.06M461.09 534.78h-14.96"/><path fill="#f0876e" d="M420.19 266.69A39.13 39.13 0 0 0 432 283.17c11.07 9.42 26.35 13.56 36 10.09 10.32-4 8.53-21.58 3.7-45.14-2.28-11.07-8.6-18.51-16.16-22.34a27.36 27.36 0 0 0-21.54-1.54c-14.24 5.12-21.14 22.07-13.81 42.45Z"/><path fill="#631418" d="M423.5 285.86s17.52-1 21.36-32.51c0 0 43-1.13 37-21.64-4.3-14.56-21.7-4.88-21.7-4.88s4.68-14.22-3.9-16c-11.38-2.36-20.88 9.94-29.82 17.83-5.89 5.19-17.35 13.36-13.33 25.81s10.1 26.31 10.39 31.39Z"/><path fill="#f0876e" d="M440.78 264.86c2.64 5 4.21 8.78 2.24 10.29-2.74 2-9.22 1-12.19-3.11s-2.15-7.61.6-9.59 6.98-2.07 9.35 2.41Z"/><path fill="none" stroke="#6da7c6" stroke-linecap="round" stroke-linejoin="round" stroke-width="1.06" d="M444 318.15c3.08 1.31 8.56 4.19 10.59 8.89M429 328.62s3.14-7.4 9.39-10.32"/><path fill="none" stroke="#631418" stroke-linecap="round" stroke-linejoin="round" stroke-width=".53" d="m496.14 383.53 5.6 27.47M381.18 415l7.75-23.24"/><path fill="none" stroke="#631418" stroke-linecap="round" stroke-linejoin="round" stroke-width="1.06" d="M454.69 255.29s-5.86 1.36-9.83-1.94"/><path fill="#631418" d="M405.15 747H421c9 0 16 8.08 15.05 17.32H377.9l2-17.32Z"/><path fill="#86d1f4" d="M543.26 378.62 404.61 564.79l-71-52.88 138.66-186.17c-2.53 3.39-.61 9.11 4.29 12.76s10.93 3.85 13.46.46c-2.53 3.39-.61 9.11 4.29 12.76s10.93 3.85 13.46.46c-2.53 3.39-.61 9.11 4.29 12.76s10.93 3.85 13.45.46c-2.52 3.39-.6 9.11 4.3 12.76s10.93 3.84 13.45.46Z"/><path fill="#f9d6af" d="M543.26 378.62a11.07 11.07 0 1 1-17.75-13.22 11.06 11.06 0 1 1-17.74-13.22A11.07 11.07 0 1 1 490 339a11.07 11.07 0 1 1-17.75-13.22 8.62 8.62 0 0 1 .72-.86l7.34-3.56L541.06 292l18.06-8.73-3.2 19.8-10.73 66.59-1.31 8.05a8 8 0 0 1-.62.91Z"/><path fill="#86d1f4" d="M555.92 303a29.82 29.82 0 0 1-14.86-11l18.06-8.73Z"/><path fill="#f26f87" d="m359.06 571.45-18.79-14a32.54 32.54 0 0 1-6.66-45.54l71 52.88a32.56 32.56 0 0 1-45.55 6.66Z"/><rect width="96.43" height="38.33" x="331.86" y="504.46" fill="#daf1fd" rx="3.77" transform="rotate(36.68 380.072 523.616)"/><path fill="none" stroke="#86d1f4" stroke-linecap="round" stroke-linejoin="round" stroke-width=".8" d="m354.05 491.98 47.35 35.26M355.12 506.7l58.12 43.29M342.99 511.58l48.71 36.28"/><path fill="none" stroke="#41a0d1" stroke-linecap="round" stroke-linejoin="round" stroke-width="1.4" d="m481.6 348.92-88.39 118.67M502.48 359.28 397.14 500.71M517.5 378.96l-23.73 31.87M489.92 415.99l-50.63 67.98"/><path fill="#f0876e" d="M493.06 468.06s-16.06 5.15-20.94 7.49S457.24 487.14 451 491s-16.12 6.13-17.07 4.74a1.36 1.36 0 0 1 .42-2.1s-7.59.91-8.56-1.05.72-1.84.72-1.84-4.75-1-5.17-2.89 2.62-2 2.62-2-2.6-1.74-1.92-3.75 8.48-3.17 11.94-4.27 11.31-4.31 11.71-5.5-10.73.57-11.56-1.59 14.26-7.82 20-9.22 7.47-1.72 13.51-5.36 11.65-6.55 11.65-6.55Z"/><path fill="#ea5d2a" d="M549.87 417.33a20.72 20.72 0 0 0-28.16-7.77L450.92 454l17 29.38 74.2-37.85a20.71 20.71 0 0 0 7.75-28.2Z"/><path fill="#f0876e" d="M413.25 446.92s17.36-4 23.06-4.51 19.77 2.49 27.54 2.57 17.95-3.15 18.06-4.91a1.45 1.45 0 0 0-1.52-1.69s7.38-3.27 7.21-5.57-1.64-1.28-1.64-1.28 3.76-3.49 3.12-5.42-3.43-.37-3.43-.37 1.42-3-.28-4.43-9.37 1.69-13.15 2.56-12.59 2.2-13.6 1.33 10.05-5.27 9.63-7.68-17.16.6-23.11 2.42-7.72 2.47-15.16 2.43-14.12.34-14.12.34Z"/><path fill="#ea5d2a" d="M332.62 437.7a20.72 20.72 0 0 0 21.56 19.72l83.23-7.42-1.77-33.88h-83.31a20.71 20.71 0 0 0-19.71 21.58Z"/><path fill="none" stroke="#367194" stroke-linecap="round" stroke-linejoin="round" stroke-width="1.67" d="M1129 684s83.28 14.86 130.54-99.94"/><path fill="#367194" d="M1261.74 569.23c-2.83 6.09-2.39 15.85-2.39 15.85s7.75-6 10.58-12 1.93-8.94-.33-10-5.03.07-7.86 6.15ZM1243.59 588.7c1.33 6.58 7.48 14.17 7.48 14.17s2.7-9.39 1.37-16-3.76-8.35-6.2-7.85-3.98 3.11-2.65 9.68ZM1263.73 593.05c-6.25 2.45-12.66 9.82-12.66 9.82s9.72 1 16-1.42 7.56-5.15 6.65-7.47-3.72-3.39-9.99-.93ZM1232.63 607.44c1.33 6.57 7.48 14.17 7.48 14.17s2.7-9.39 1.36-16-3.75-8.34-6.19-7.85-3.99 3.1-2.65 9.68Z"/><path fill="#367194" d="M1254.87 615.39c-6.66.76-14.76 6.22-14.76 6.22s9.11 3.51 15.78 2.75 8.64-3 8.36-5.49-2.71-4.23-9.38-3.48ZM1219.27 625.53c1.33 6.57 7.48 14.17 7.48 14.17s2.7-9.39 1.37-16-3.76-8.35-6.2-7.85-3.99 3.15-2.65 9.68ZM1242.24 635.6c-6.71-.18-15.49 4.1-15.49 4.1s8.54 4.75 15.24 4.93 9-1.79 9-4.28-2.05-4.57-8.75-4.75ZM1203.06 641.56c1 6.63 6.85 14.49 6.85 14.49s3.11-9.26 2.07-15.89-3.38-8.5-5.85-8.12-4.13 2.89-3.07 9.52ZM1225.83 654.29c-6.6-1.17-15.92 1.76-15.92 1.76s7.74 6 14.34 7.13 9.14-.43 9.58-2.89-1.39-4.83-8-6ZM1183.93 656c.56 6.69 5.78 14.94 5.78 14.94s3.78-9 3.22-15.7-2.76-8.72-5.25-8.51-4.31 2.55-3.75 9.27Z"/><path fill="#367194" d="M1205.65 672.54c-6.21-2.53-15.94-1.63-15.94-1.63s6.32 7.46 12.53 10 9 1.5 10-.81-.37-5.02-6.59-7.56ZM1163.13 664.94c0 6.71 4.6 15.35 4.6 15.35s4.46-8.69 4.43-15.4-2.07-8.91-4.56-8.9-4.5 2.24-4.47 8.95ZM1182.75 685.86c-5.38-4-15-5.57-15-5.57s4.25 8.8 9.63 12.81 8.36 3.71 9.85 1.71.9-4.94-4.48-8.95Z"/><path fill="none" stroke="#367194" stroke-linecap="round" stroke-linejoin="round" stroke-width="1.29" d="M1143.15 650.67s62.19-20.58 52.06-116.19"/><path fill="#367194" d="M1191.26 523.54c.31 5.19 4.21 11.67 4.21 11.67s3.08-6.91 2.76-12.09-2-6.8-3.9-6.69-3.39 1.93-3.07 7.11ZM1186.07 543.49c3.33 4 10.32 6.89 10.32 6.89s-1.63-7.39-5-11.37-5.63-4.3-7.11-3.06-1.54 3.55 1.79 7.54Z"/><path fill="#367194" d="M1201.38 539c-3.34 4-5 11.35-5 11.35s7-2.88 10.34-6.85 3.26-6.29 1.78-7.54-3.77-.91-7.12 3.04ZM1185.51 560.29c3.33 4 10.32 6.89 10.32 6.89s-1.63-7.39-5-11.37-5.63-4.3-7.11-3.06-1.54 3.55 1.79 7.54ZM1203.59 557.51c-4.26 3-7.76 9.67-7.76 9.67s7.5-1 11.76-3.94 4.77-5.23 3.67-6.82-3.41-1.88-7.67 1.09ZM1183.08 577.54c3.33 4 10.32 6.89 10.32 6.89s-1.62-7.39-5-11.38-5.63-4.29-7.11-3.06-1.54 3.56 1.79 7.55ZM1202.44 575.93c-4.64 2.35-9 8.5-9 8.5s7.56.08 12.2-2.27 5.45-4.52 4.58-6.24-3.15-2.34-7.78.01ZM1178 594.43c3.15 4.13 10 7.34 10 7.34s-1.29-7.45-4.44-11.58-5.44-4.55-7-3.37-1.76 3.48 1.44 7.61Z"/><path fill="#367194" d="M1198.15 594.7c-4.93 1.64-10.2 7.07-10.2 7.07s7.47 1.21 12.41-.43 6.06-3.66 5.45-5.49-2.72-2.78-7.66-1.15ZM1170.24 611.29c2.84 4.35 9.44 8.05 9.44 8.05s-.75-7.53-3.59-11.88-5.1-4.92-6.71-3.86-1.99 3.4.86 7.69ZM1191.14 614.57c-5.16.57-11.46 4.77-11.46 4.77s7 2.75 12.22 2.18 6.7-2.3 6.49-4.22-2.08-3.3-7.25-2.73ZM1159.38 625.07c2.5 4.56 8.79 8.76 8.79 8.76s-.16-7.56-2.66-12.12-4.69-5.3-6.39-4.38-2.24 3.19.26 7.74ZM1180.45 632.09c-5.14-.75-12.28 1.74-12.28 1.74s6.14 4.43 11.28 5.17 7.06-.55 7.34-2.46-1.2-3.71-6.34-4.45Z"/><path fill="#69c1ed" d="M1160.7 445.83H830.5a14.09 14.09 0 0 0-13.88 14.28v45.38h358v-45.38a14.09 14.09 0 0 0-13.92-14.28ZM867.53 489.6a13.94 13.94 0 1 1 13.94-13.94 13.94 13.94 0 0 1-13.94 13.94Zm256.16 0a13.94 13.94 0 1 1 13.94-13.94 13.94 13.94 0 0 1-13.94 13.94Z"/><path fill="#daf1fd" d="M816.63 505.5h357.94v258.84H816.63z"/><path fill="#b6e4fa" d="m816.63 764.34 357.95-258.84v258.84H816.63z"/><path fill="#86d1f4" d="M832.55 519.72h63.83v63.83h-63.83zM919.82 519.72h63.83v63.83h-63.83zM1007.08 519.72h63.83v63.83h-63.83zM1094.35 519.72h63.83v63.83h-63.83zM832.55 598.16h63.83v63.83h-63.83zM919.82 598.16h63.83v63.83h-63.83zM1007.08 598.16h63.83v63.83h-63.83zM1094.35 598.16h63.83v63.83h-63.83zM832.55 676.59h63.83v63.83h-63.83zM919.82 676.59h63.83v63.83h-63.83zM1007.08 676.59h63.83v63.83h-63.83zM1094.35 676.59h63.83v63.83h-63.83z"/><path fill="#878787" d="M1114.12 416.92v52.42a8.92 8.92 0 0 0 8.89 8.89V408a8.92 8.92 0 0 0-8.89 8.92Z"/><path fill="#dbdada" d="M1123 408v70.2a8.92 8.92 0 0 0 8.89-8.89v-52.39A8.92 8.92 0 0 0 1123 408Z"/><path fill="#878787" d="M858.63 416.92v52.42a8.92 8.92 0 0 0 8.9 8.89V408a8.92 8.92 0 0 0-8.9 8.92Z"/><path fill="#dbdada" d="M867.53 408v70.2a8.92 8.92 0 0 0 8.89-8.89v-52.39a8.92 8.92 0 0 0-8.89-8.92Z"/><path fill="#f0876e" d="M922.69 598.4c-.28 7.56-.13 16.46 1.87 20.05-9.9 4.84-14.4 21.41-21.69 29.48s-14.75 5.72-14.75 5.72c1.1-5.65 8.42-15.77 10.33-24s3-26.88 1.45-46.57c-1.56-19.08-9.32-83.23-9.92-83.87l39.36-3.38c8.48 32.82-6.07 86.87-6.65 102.57Z"/><path fill="#154a64" d="m929.63 656.69-3.88.62-5-17.33c-11 5.5-16.31 20.75-16.31 20.75l-32.24 5.16c1.77-6 15.93-12.24 15.93-12.24s7.47 2.34 14.75-5.72 11.79-24.64 21.69-29.48c2.37 4.25 4.75 7 5.89 10.77 2.08 6.88-.83 27.47-.83 27.47Z"/><path fill="#f0876e" d="M960.33 585c1.22 7.46 3.14 16.15 5.81 19.27-8.75 6.71-9.87 23.85-15.42 33.2S937.4 646 937.4 646c0-5.75 5.13-17.13 5.36-25.6s-2.34-26.95-7.81-45.93c-5.31-18.4-25.62-79.74-26.34-80.25l37.92-11.11c14.81 30.51 11.26 86.37 13.8 101.89Z"/><path fill="#154a64" d="m978.68 640.74-3.68 1.38-8.34-16c-9.75 7.58-11.88 23.57-11.88 23.57l-30.58 11.45c.55-6.23 13.2-15.15 13.2-15.15s7.78.82 13.32-8.53 6.67-26.49 15.42-33.2c3.16 3.7 6.05 6 7.9 9.4 3.42 6.34 4.64 27.08 4.64 27.08Z"/><path fill="#f0876e" d="M938 316.56s-4.87-10.26-7.93-13.08c-1.7-1.57-9.05-5.36-11.14-6.81s-3.51-1.46-3.9-.74 5.38 5.46 4.85 6.08-8.49-.92-11.32-2.85-4.4-1.79-4.47-.67c0 0-2.24-.52-2.59.49s1.23 2.22 1.23 2.22-1.4.11-1.49 1.36 1.94 3.05 1.94 3.05a.92.92 0 0 0-.65 1.14c.21.9 5.35 5.94 10.74 6.44 3 .27 5.82.63 7.78.89 1.65.22 3.29 2.64 4.35 3.92Z"/><path fill="#e84554" d="M1055.66 432.83c-1.28 16-25.17 32.91-48.81 35.75s-45.87 6.51-46.36 17.89 6.63 23.17 6.63 23.17H881s4-9.51 2-24-3.21-39.49 10.89-49.6c15.72-11.24 67.06-29.74 86.09-35.57 2.61-.8 4.61-1.35 5.83-1.62 6.59-1.48 24.83-1.87 36.82-2 6.49-.07 11.14 0 11.14 0l10.32 3.93 4.46 1.71a36.36 36.36 0 0 1 3.82 7.53 51.46 51.46 0 0 1 3.29 22.81Z"/><path fill="#bd263c" d="M1052.34 410c-.74.18-20.08 6.58-42.19 3-22.54-3.65-30.2-12.57-30.2-12.57 2.61-.8 4.61-1.35 5.83-1.62 6.59-1.48 24.83-1.87 36.82-2l21.46 3.89 4.46 1.71a36.36 36.36 0 0 1 3.82 7.59Z"/><path fill="#631418" d="M1063.93 274.39c-.81 7.15-5.27 9.87-5.7 16.53-.4 6.13 3.92 14.49 3.92 14.49l-81-.22s4.18-9.27 4.33-17.73c.17-9.74-4.79-14.89-4.74-22.27.08-12.09 10.45-11.73 12.06-22.83s-7.12-22.36 10.2-31.08 25.93 1 25.93 1c13.29-3.45 12.37 8.86 20.08 12.24s7.47 12.24 5 16.59c-2.57 4.53-3.53 13.66 3.55 18.15s6.99 9.74 6.37 15.13Z"/><path fill="none" stroke="#631418" stroke-linecap="round" stroke-linejoin="round" stroke-width=".9" d="M993 229.14c1.58 15.7-4.76 20.54-12.32 28.14s-2 13.2 1.21 24.12c2.49 8.49 1.17 14.72-2 23.46"/><path fill="#e84554" d="M1050.11 360.05c6.15-20.11 11.2-59.58 11.2-59.58l-25.88-11.34c-4 6.63-24.76 38.64-24.76 38.64s-3-32.71-3.55-37.53l-18.79 8s-2.43 37.19-3.92 53.31c-.78 8.33 3.9 22.75 3.72 31.1-.13 5.83-6.27 16.61-6.27 16.61s13.58 11.86 37.26 11.86c21.77 0 34.17-7.18 34.17-7.18s-12.18-14.48-3.18-43.89Z"/><path fill="#e84554" d="M1000.32 299.54c6.63 4.36 8 13.8 3.08 21l-41.55 60.87a12.68 12.68 0 0 1-19.8 1.8 12.75 12.75 0 0 1-1.51-15.8L979.87 305c4.63-7.29 13.83-9.81 20.45-5.46Z"/><path fill="#fff" d="M1035.41 289.13c-4 6.63-24.76 38.65-24.76 38.65v-.3c-.31-3.25-3-32.68-3.53-37.23l15.58-.61Z"/><path fill="#bd263c" d="m1038.73 296.84-4.28.63 1.49 2.92-1.9 10.69-25.13 23.37 1.72-7v.3s20.8-32 24.76-38.65l6.61 2.9Z"/><path fill="#bd263c" d="m1008.91 334.45-8.88-26.84.27-7.22 2.51-2.42-3.26-1.14-.99-2.94 8.55-3.65 3.54 37.54-1.74 6.67z"/><path fill="#e84554" d="M1054.05 299.16c7.88-.93 15 5.45 15.83 14.07l7.29 73.34a12.53 12.53 0 0 1 0 2.74 12.76 12.76 0 0 1-25.35.23l-9.89-73c-1.18-8.61 4.25-16.46 12.12-17.38Z"/><path fill="none" stroke="#631418" stroke-linecap="round" stroke-linejoin="round" stroke-width=".9" d="M1052.33 243.78c-3.21 18.37 11 12.92 14.47 22.91a19.32 19.32 0 0 1 .26 11.86c-1.59 4.53-5.75 7.5-5.28 13.73a66.07 66.07 0 0 0 2.41 12.58"/><path fill="#e84554" d="m936.59 309.69-14.05 6L939 378.45a12.77 12.77 0 0 0 24.74-5.45 13.7 13.7 0 0 0-.59-2.66Z"/><path fill="#f0876e" d="M1035.42 289.13s-15.07 16.57-28.31 1.11l.8-12.53 1-15.56.09-1.33 22.78-7Z"/><path fill="#da6e58" d="M1025.67 264.24c-4.34 16.21-17.88 15.57-17.88 15.57l1-15.57Z"/><path fill="#f0876e" d="M1041.44 250.16a34.22 34.22 0 0 1-10.36 14.47c-9.72 8.28-23.14 11.91-31.63 8.86-9.07-3.54-7.5-19-3.25-39.64 2-9.73 7.55-16.26 14.19-19.62a24.06 24.06 0 0 1 18.9-1.33c12.54 4.46 18.6 19.36 12.15 37.26ZM1011.66 423.61s-1.68 4.52-6.14 4.42-6.65-.88-9.26.82c-2.83 1.84-3.91 2.36-5.17 3.23-1.49 1-2.78 2-3.64 1.48s-.06-1.64-.06-1.64-1.77 1.62-2.86.91.18-1.86.18-1.86-1.43.81-2.3.26.22-1.49.22-1.49-1.17.72-1.69.18.35-1.41 2.08-2.66 6.34-5.94 7.57-7.15 2.49-3.27 4.3-3.17 9.2 1.47 11.84.71 5.65 2.36 5.65 2.36Z"/><path fill="#631418" d="m1052.08 279.14-15.78 4.38c-.22-.78-.34-2.42-1.1-8-1-7.18-1-13.75-5.42-18.69a18.24 18.24 0 0 1-3.67-17c1.61-5 3.06-10.12-6.59-6.9s-22.19-2.75-22.19-2.75a32.75 32.75 0 0 1-1.3-4.18c0-.65 10.46-11.73 10.46-11.73l14-4.49 9.33 2.94 8.69 3.1 10.25 20.48s2.54 32.3 3.32 42.84Z"/><path fill="#e84554" d="m1003.48 413.9 8.33 12.8 59-27.07a12.77 12.77 0 0 0-9.71-23.45 14 14 0 0 0-2.52 1Z"/><path fill="none" stroke="#631418" stroke-miterlimit="10" stroke-width=".59" d="M972.9 414.22s-62.26 27.92-68 39 3 27.61 3 27.61M929.13 555.59l-13.77-42.12M953.11 347.38l4.18 9.53"/><path fill="none" stroke="#bd263c" stroke-miterlimit="10" stroke-width=".59" d="M1008.91 334.45s-5.62 10.45-4.31 20.61 6.6 36.48-.2 54.48"/><path fill="none" stroke="#631418" stroke-miterlimit="10" stroke-width=".59" d="m1046.97 384.94-43.49 28.96M1043.5 412.15l-31.69 14.55M1048.58 365.75l-3.59-26.5"/><path fill="#f0876e" d="M1029.1 256.63c-1.36 3.89-2.07 6.82-.48 7.69 2.2 1.13 6.78-.3 8.47-3.6s.71-5.73-1.5-6.86-5.27-.73-6.49 2.77Z"/><path fill="#fff" stroke="#f7a841" stroke-miterlimit="10" stroke-width=".78" d="M102.36 466.86a28.91 28.91 0 0 0-36.15-4.77c-.62.38-1.23.79-1.83 1.22-.27.19-.52.39-.78.59-.64.49-1.25 1-1.84 1.55a28.88 28.88 0 0 0-9.31 20.17v1.11a28.84 28.84 0 0 0 26 28.76 27.35 27.35 0 0 0 2.88.15 28.78 28.78 0 0 0 16.73-5.33 27 27 0 0 0 2.64-2.13q.6-.53 1.17-1.11l.34-.36a28.9 28.9 0 0 0 .13-39.85Z"/><path fill="#fff" stroke="#f7a841" stroke-miterlimit="10" stroke-width=".78" d="M45.94 486.73a34.92 34.92 0 0 0 32.53 34.83c.47 0 1 .06 1.44.07h2.88a34.66 34.66 0 0 0 18.89-6.83c.91-.68 1.79-1.4 2.63-2.16.38-.34.76-.7 1.12-1.06l-2.2-2.78q-.56.57-1.14 1.11a33.62 33.62 0 0 1-2.62 2.09 31.24 31.24 0 0 1-18.12 6.1h-.49c-.8 0-1.6 0-2.39-.09A31.4 31.4 0 0 1 60 463.27a30 30 0 0 1 2.65-2.12c.6-.43 1.22-.84 1.85-1.23l-2.2-2.77c-.64.4-1.26.82-1.87 1.26-.92.67-1.8 1.37-2.65 2.12a34.85 34.85 0 0 0-11.84 26.2Z"/><path fill="#fff" stroke="#f7a841" stroke-miterlimit="10" stroke-width=".78" d="M100.72 508.19a26.91 26.91 0 0 1-2.64 2.12l1.39 1.69a33.62 33.62 0 0 0 2.62-2.15ZM60 463.27l1.77 2.18a29.81 29.81 0 0 1 2.62-2.14l-1.74-2.16a30 30 0 0 0-2.65 2.12ZM81.89 521.63h-1.98v9.82h2.88v-9.87ZM84.5 473c.18 2.09 3.81 3.21 5.55 4.85 1.51 1.42 2.51 3.3.94 3.79s-3-.83-3.88-.22-1 4.18.09 5.85a4.6 4.6 0 0 0 5.8 1.85c2.72-1 4-.95 4.49-.39a1.93 1.93 0 0 1 .22 2.5c-.34.78.12 1-.14 2s-2.79.71-4.36 1.66-2.76 2.76-.82 4.46 3 2.24 3.64 4.21 1.73 4.26 2.85 3.24c1.41-1.28-.43-2.75-.64-4.48s-.08-3.15 1.85-4.28 2.55-2.73 1.15-3.94-1.76-1.54-1.91-3.54.18-2.61 1.4-3a15.07 15.07 0 0 0 5-4.19c1.13-1.89 1.73-4.61-.29-5.94s-4.44-3-4.74-5.15-.65-4.48 1.67-5.38a28.89 28.89 0 0 0-4.88-4.14 3.57 3.57 0 0 0-3 2c-.76 1.88-1.76 4.09-3.94 5.21s-6.23.97-6.05 3.03ZM84.66 478.06c-.36.5-1.72-.85-2.5-1.23s-2.75-.06-3.14-.69-.58-2.22.63-2.67 3.33-1.29 3.48 0-.33 1.42.44 2.35 1.58 1.57 1.09 2.24ZM52.43 486.73a28.66 28.66 0 0 0 2.07 10.75 6.12 6.12 0 0 1 2.84-1.86c1.44-.26 2.06 1.66 2.49 2.52s1.37 1 1.47.11-1.43-4-.34-4.25 1.07 2 1.84 3.36 3 2 4.4 2.3 2.19.77 2.92 2.87 2.5 3.44 3.31 2-.53-3.52-.93-5.83.68-3.38-.29-5.08-1.94-5.13.41-7.32 2.95-3.84 2.71-5.62-7.08-3-10.43 0-6.63 2.63-8.93 3.16a7.55 7.55 0 0 0-3.52 1.75c-.01.41-.02.76-.02 1.14Z"/><path fill="#fff" stroke="#f7a841" stroke-miterlimit="10" stroke-width=".78" d="M95.28 531.28a1 1 0 0 0-.72-.3H68.14a1 1 0 0 0-.73 1.75 1 1 0 0 0 .73.3h26.42a1 1 0 0 0 .72-1.75Z"/><path fill="#fff" stroke="#f7a841" stroke-miterlimit="10" stroke-width=".78" d="M99.06 533.34a1 1 0 0 0-.73-.31h-34a1 1 0 0 0-1 1 1 1 0 0 0 .3.72 1 1 0 0 0 .72.3h34a1 1 0 0 0 .73-1.74ZM94.57 328.11h6L121.5 377h-7.73l-4.9-12.08H85.6L80.76 377H73Zm11.88 31-9.11-22.44h-.15l-9.25 22.44ZM126.41 348.28a17.11 17.11 0 0 1 6.08-3.63 20.9 20.9 0 0 1 6.9-1.21 18.92 18.92 0 0 1 6.18.9 12.12 12.12 0 0 1 4.25 2.42 9.57 9.57 0 0 1 2.45 3.48 10.94 10.94 0 0 1 .79 4.12v16.7c0 1.16 0 2.21.07 3.18s.12 1.89.21 2.76h-5.53c-.13-1.65-.2-3.31-.2-5h-.14a12 12 0 0 1-4.9 4.49 15.4 15.4 0 0 1-6.56 1.31 14.85 14.85 0 0 1-4.35-.62 10.4 10.4 0 0 1-3.63-1.86 9 9 0 0 1-2.45-3.08 10.57 10.57 0 0 1 .52-9.56 10.79 10.79 0 0 1 3.86-3.49 18.65 18.65 0 0 1 5.74-1.93 39.8 39.8 0 0 1 7-.59h4.56v-1.38a6.92 6.92 0 0 0-.48-2.49 6.75 6.75 0 0 0-3.87-3.83 9.19 9.19 0 0 0-3.45-.58 12.82 12.82 0 0 0-3.15.34 14.66 14.66 0 0 0-2.45.86 11.31 11.31 0 0 0-2 1.21l-1.72 1.31Zm17.54 13a44 44 0 0 0-4.53.24 17.69 17.69 0 0 0-4.21.93 8 8 0 0 0-3.1 1.94 4.34 4.34 0 0 0-1.21 3.18 4.5 4.5 0 0 0 1.9 4.07 9.24 9.24 0 0 0 5.14 1.24 9.93 9.93 0 0 0 4.35-.86 8.23 8.23 0 0 0 2.9-2.24 8.87 8.87 0 0 0 1.59-3.08 12.22 12.22 0 0 0 .48-3.35v-2.07Z"/><path fill="#fff" stroke="#f7a841" stroke-miterlimit="10" stroke-width=".85" d="M1154.14 289.63v67.29a10.87 10.87 0 0 1-18.43-7.43 14.76 14.76 0 0 1-8.39-19.89 14.75 14.75 0 0 1 2.08-22.9 10.64 10.64 0 0 1-.81-4.08 10.52 10.52 0 0 1 10.52-10.52h.63a9.12 9.12 0 0 1 14.4-2.49Z"/><path fill="#fff" stroke="#f7a841" stroke-miterlimit="10" stroke-width=".85" d="M1129.4 306.7s2.44 6.14 9.07 6.22"/><path fill="#fff" stroke="#f7a841" stroke-miterlimit="10" stroke-width=".85" d="M1130.5 317.71a5.9 5.9 0 0 0 2.09-6.88M1147.27 293.68s5.2-1.42 6.87 3.35M1139.94 302.37s6.75-2.83 8.22 5.23c1.51 8.29-2.2 12.1-6.39 15.14"/><path fill="#fff" stroke="#f7a841" stroke-miterlimit="10" stroke-width=".85" d="M1149.68 324.25a9.8 9.8 0 0 0-2.62-7M1132.08 326.3s-3.77.26-4.76 3.3M1150.1 336.45s-6.7-1.08-11.11 4a12.47 12.47 0 0 0-3.28 9.06"/><path fill="#fff" stroke="#f7a841" stroke-miterlimit="10" stroke-width=".85" d="M1141.87 327.45s4.71 3.17 1.36 9.94M1146.17 347.82s3.74 3.35 8-1.1M1155.61 289.63v67.29a10.87 10.87 0 0 0 18.43-7.43 14.76 14.76 0 0 0 8.39-19.89 14.75 14.75 0 0 0-2.08-22.9 10.64 10.64 0 0 0 .81-4.08 10.52 10.52 0 0 0-10.52-10.52h-.63a9.12 9.12 0 0 0-14.4-2.49Z"/><path fill="#fff" stroke="#f7a841" stroke-miterlimit="10" stroke-width=".85" d="M1180.35 306.7s-2.44 6.14-9.07 6.22"/><path fill="#fff" stroke="#f7a841" stroke-miterlimit="10" stroke-width=".85" d="M1179.25 317.71a5.9 5.9 0 0 1-2.09-6.88M1162.48 293.68s-5.2-1.42-6.87 3.35M1169.81 302.37s-6.75-2.83-8.22 5.23c-1.51 8.29 2.2 12.1 6.39 15.14"/><path fill="#fff" stroke="#f7a841" stroke-miterlimit="10" stroke-width=".85" d="M1160.07 324.25a9.8 9.8 0 0 1 2.62-7M1177.67 326.3s3.77.26 4.76 3.3M1159.65 336.45s6.7-1.08 11.11 4a12.47 12.47 0 0 1 3.28 9.06"/><path fill="#fff" stroke="#f7a841" stroke-miterlimit="10" stroke-width=".85" d="M1167.88 327.45s-4.71 3.17-1.36 9.94M1163.58 347.82s-3.74 3.35-8-1.1"/><path fill="#fff" stroke="#f7a841" stroke-linecap="round" stroke-linejoin="round" stroke-width=".93" d="M132.37 132.59H99.85v57.45h43.36V153.1"/><path fill="#fff" stroke="#f7a841" stroke-linecap="round" stroke-linejoin="round" stroke-width=".93" d="m160.67 125.85-30.63 37.68-9.41 1.88-.08-9.59 30.63-37.69 9.49 7.72zM123.98 158.63l6.05 4.92M128.77 158.91l28.88-35.52M1128 197l-10.43 39.07-5-1.37 10.46-39c.83.28 1.65.57 2.49.78s1.63.4 2.48.52Z"/><path fill="#fff" stroke="#f7a841" stroke-linecap="round" stroke-linejoin="round" stroke-width=".93" d="M1138.34 148.46A24.87 24.87 0 0 0 1123 195.7c.83.28 1.65.57 2.49.78s1.67.4 2.53.54a24.86 24.86 0 0 0 10.33-48.56Zm12.15 29a19.25 19.25 0 1 1-13.6-23.58 19.25 19.25 0 0 1 13.6 23.55Z"/><path fill="#fff" stroke="#f7a841" stroke-linecap="round" stroke-linejoin="round" stroke-width=".93" d="M1150.49 177.43a19.25 19.25 0 1 1-13.6-23.58 19.25 19.25 0 0 1 13.6 23.58Z"/><path fill="#fff" stroke="#f7a841" stroke-linecap="round" stroke-linejoin="round" stroke-width=".93" d="M1138.36 157.89a15.63 15.63 0 0 1 3.07 1.94M1118.23 164.55a15.35 15.35 0 0 1 17.5-7.63"/><path fill="#154a64" d="M1264.73 769.71a5.05 5.05 0 0 1-1.84 3.82 6.8 6.8 0 0 1-4.43 1.58H51.88c-3.44 0-6.27-2.42-6.27-5.4a5 5 0 0 1 1.84-3.79 6.82 6.82 0 0 1 4.43-1.58h1206.58c3.45 0 6.27 2.42 6.27 5.37Z"/></svg>